<?xml version="1.0" encoding="utf-8" standalone="no"?>
<!DOCTYPE svg PUBLIC "-//W3C//DTD SVG 1.1//EN"
  "http://www.w3.org/Graphics/SVG/1.1/DTD/svg11.dtd">
<!-- Created with matplotlib (http://matplotlib.org/) -->
<svg height="165pt" version="1.1" viewBox="0 0 167 165" width="167pt" xmlns="http://www.w3.org/2000/svg" xmlns:xlink="http://www.w3.org/1999/xlink">
 <defs>
  <style type="text/css">
*{stroke-linecap:butt;stroke-linejoin:round;stroke-miterlimit:100000;}
  </style>
 </defs>
 <g id="figure_1">
  <g id="patch_1">
   <path d="M 0 165.5895 
L 167.48325 165.5895 
L 167.48325 0 
L 0 0 
z
" style="fill:#ffffff;"/>
  </g>
  <g id="axes_1">
   <g id="patch_2">
    <path d="M 43.12325 126.12875 
L 154.72325 126.12875 
L 154.72325 10.92875 
L 43.12325 10.92875 
z
" style="fill:#ffffff;"/>
   </g>
   <g id="matplotlib.axis_1">
    <g id="xtick_1">
     <g id="line2d_1">
      <defs>
       <path d="M 0 0 
L 0 6 
" id="m8443d209e3" style="stroke:#262626;stroke-width:0.8;"/>
      </defs>
      <g>
       <use style="fill:#262626;stroke:#262626;stroke-width:0.8;" x="43.12325" xlink:href="#m8443d209e3" y="126.12875"/>
      </g>
     </g>
     <g id="text_1">
      <!-- 0.0 -->
      <defs>
       <path d="M 9.125 0 
L 9.125 10.6875 
L 18.65625 10.6875 
L 18.65625 0 
z
" id="LiberationSans-2e"/>
       <path d="M 51.703125 34.421875 
Q 51.703125 24.515625 49.828125 17.75 
Q 47.953125 10.984375 44.703125 6.8125 
Q 41.453125 2.640625 37.0625 0.828125 
Q 32.671875 -0.984375 27.6875 -0.984375 
Q 22.65625 -0.984375 18.3125 0.828125 
Q 13.96875 2.640625 10.765625 6.78125 
Q 7.5625 10.9375 5.734375 17.703125 
Q 3.90625 24.46875 3.90625 34.421875 
Q 3.90625 44.828125 5.734375 51.640625 
Q 7.5625 58.453125 10.78125 62.5 
Q 14.015625 66.546875 18.40625 68.1875 
Q 22.796875 69.828125 27.984375 69.828125 
Q 32.90625 69.828125 37.21875 68.1875 
Q 41.546875 66.546875 44.765625 62.5 
Q 48 58.453125 49.84375 51.640625 
Q 51.703125 44.828125 51.703125 34.421875 
M 42.78125 34.421875 
Q 42.78125 42.625 41.796875 48.0625 
Q 40.828125 53.515625 38.921875 56.765625 
Q 37.015625 60.015625 34.25 61.359375 
Q 31.5 62.703125 27.984375 62.703125 
Q 24.265625 62.703125 21.4375 61.328125 
Q 18.609375 59.96875 16.671875 56.71875 
Q 14.75 53.46875 13.765625 48.015625 
Q 12.796875 42.578125 12.796875 34.421875 
Q 12.796875 26.515625 13.796875 21.09375 
Q 14.796875 15.671875 16.71875 12.375 
Q 18.65625 9.078125 21.4375 7.640625 
Q 24.21875 6.203125 27.78125 6.203125 
Q 31.25 6.203125 34.03125 7.640625 
Q 36.8125 9.078125 38.734375 12.375 
Q 40.671875 15.671875 41.71875 21.09375 
Q 42.78125 26.515625 42.78125 34.421875 
" id="LiberationSans-30"/>
      </defs>
      <g style="fill:#262626;" transform="translate(37.56325 143.52625)scale(0.08 -0.08)">
       <use xlink:href="#LiberationSans-30"/>
       <use x="55.615234375" xlink:href="#LiberationSans-2e"/>
       <use x="83.3984375" xlink:href="#LiberationSans-30"/>
      </g>
     </g>
    </g>
    <g id="xtick_2">
     <g id="line2d_2">
      <g>
       <use style="fill:#262626;stroke:#262626;stroke-width:0.8;" x="59.0661071429" xlink:href="#m8443d209e3" y="126.12875"/>
      </g>
     </g>
     <g id="text_2">
      <!-- 0.2 -->
      <defs>
       <path d="M 5.03125 0 
L 5.03125 6.203125 
Q 7.515625 11.921875 11.109375 16.28125 
Q 14.703125 20.65625 18.65625 24.1875 
Q 22.609375 27.734375 26.484375 30.765625 
Q 30.375 33.796875 33.5 36.8125 
Q 36.625 39.84375 38.546875 43.15625 
Q 40.484375 46.484375 40.484375 50.6875 
Q 40.484375 53.609375 39.59375 55.828125 
Q 38.71875 58.0625 37.0625 59.5625 
Q 35.40625 61.078125 33.078125 61.828125 
Q 30.765625 62.59375 27.9375 62.59375 
Q 25.296875 62.59375 22.96875 61.859375 
Q 20.65625 61.140625 18.84375 59.671875 
Q 17.046875 58.203125 15.890625 56.03125 
Q 14.75 53.859375 14.40625 50.984375 
L 5.421875 51.8125 
Q 5.859375 55.515625 7.46875 58.78125 
Q 9.078125 62.0625 11.90625 64.53125 
Q 14.75 67 18.71875 68.40625 
Q 22.703125 69.828125 27.9375 69.828125 
Q 33.0625 69.828125 37.0625 68.609375 
Q 41.0625 67.390625 43.8125 64.984375 
Q 46.578125 62.59375 48.046875 59.078125 
Q 49.515625 55.5625 49.515625 50.984375 
Q 49.515625 47.515625 48.265625 44.390625 
Q 47.015625 41.265625 44.9375 38.421875 
Q 42.875 35.59375 40.140625 32.953125 
Q 37.40625 30.328125 34.421875 27.8125 
Q 31.453125 25.296875 28.421875 22.828125 
Q 25.390625 20.359375 22.71875 17.859375 
Q 20.0625 15.375 17.96875 12.8125 
Q 15.875 10.25 14.703125 7.46875 
L 50.59375 7.46875 
L 50.59375 0 
z
" id="LiberationSans-32"/>
      </defs>
      <g style="fill:#262626;" transform="translate(53.5061071429 143.52625)scale(0.08 -0.08)">
       <use xlink:href="#LiberationSans-30"/>
       <use x="55.615234375" xlink:href="#LiberationSans-2e"/>
       <use x="83.3984375" xlink:href="#LiberationSans-32"/>
      </g>
     </g>
    </g>
    <g id="xtick_3">
     <g id="line2d_3">
      <g>
       <use style="fill:#262626;stroke:#262626;stroke-width:0.8;" x="75.0089642857" xlink:href="#m8443d209e3" y="126.12875"/>
      </g>
     </g>
     <g id="text_3">
      <!-- 0.4 -->
      <defs>
       <path d="M 43.015625 15.578125 
L 43.015625 0 
L 34.71875 0 
L 34.71875 15.578125 
L 2.296875 15.578125 
L 2.296875 22.40625 
L 33.796875 68.796875 
L 43.015625 68.796875 
L 43.015625 22.515625 
L 52.6875 22.515625 
L 52.6875 15.578125 
z
M 34.71875 58.890625 
Q 34.625 58.640625 34.234375 57.9375 
Q 33.84375 57.234375 33.34375 56.34375 
Q 32.859375 55.46875 32.34375 54.5625 
Q 31.84375 53.65625 31.453125 53.078125 
L 13.8125 27.09375 
Q 13.578125 26.703125 13.109375 26.0625 
Q 12.640625 25.4375 12.15625 24.78125 
Q 11.671875 24.125 11.171875 23.484375 
Q 10.6875 22.859375 10.40625 22.515625 
L 34.71875 22.515625 
z
" id="LiberationSans-34"/>
      </defs>
      <g style="fill:#262626;" transform="translate(69.4489642857 143.52625)scale(0.08 -0.08)">
       <use xlink:href="#LiberationSans-30"/>
       <use x="55.615234375" xlink:href="#LiberationSans-2e"/>
       <use x="83.3984375" xlink:href="#LiberationSans-34"/>
      </g>
     </g>
    </g>
    <g id="xtick_4">
     <g id="line2d_4">
      <g>
       <use style="fill:#262626;stroke:#262626;stroke-width:0.8;" x="90.9518214286" xlink:href="#m8443d209e3" y="126.12875"/>
      </g>
     </g>
     <g id="text_4">
      <!-- 0.6 -->
      <defs>
       <path d="M 51.21875 22.515625 
Q 51.21875 17.328125 49.78125 13 
Q 48.34375 8.6875 45.53125 5.578125 
Q 42.71875 2.484375 38.5625 0.75 
Q 34.421875 -0.984375 29 -0.984375 
Q 23 -0.984375 18.5 1.3125 
Q 14.015625 3.609375 11.03125 7.921875 
Q 8.0625 12.25 6.5625 18.53125 
Q 5.078125 24.8125 5.078125 32.8125 
Q 5.078125 42 6.765625 48.921875 
Q 8.453125 55.859375 11.625 60.5 
Q 14.796875 65.140625 19.359375 67.484375 
Q 23.921875 69.828125 29.6875 69.828125 
Q 33.203125 69.828125 36.28125 69.09375 
Q 39.359375 68.359375 41.875 66.71875 
Q 44.390625 65.09375 46.28125 62.40625 
Q 48.1875 59.71875 49.3125 55.8125 
L 40.921875 54.296875 
Q 39.546875 58.734375 36.546875 60.71875 
Q 33.546875 62.703125 29.59375 62.703125 
Q 25.984375 62.703125 23.046875 60.984375 
Q 20.125 59.28125 18.0625 55.875 
Q 16.015625 52.484375 14.90625 47.359375 
Q 13.8125 42.234375 13.8125 35.40625 
Q 16.21875 39.84375 20.5625 42.15625 
Q 24.90625 44.484375 30.515625 44.484375 
Q 35.203125 44.484375 39.015625 42.96875 
Q 42.828125 41.453125 45.53125 38.59375 
Q 48.25 35.75 49.734375 31.671875 
Q 51.21875 27.59375 51.21875 22.515625 
M 42.28125 22.125 
Q 42.28125 25.6875 41.40625 28.5625 
Q 40.53125 31.453125 38.765625 33.46875 
Q 37.015625 35.5 34.421875 36.59375 
Q 31.84375 37.703125 28.421875 37.703125 
Q 26.03125 37.703125 23.578125 36.984375 
Q 21.140625 36.28125 19.15625 34.6875 
Q 17.1875 33.109375 15.9375 30.515625 
Q 14.703125 27.9375 14.703125 24.21875 
Q 14.703125 20.40625 15.671875 17.109375 
Q 16.65625 13.8125 18.484375 11.375 
Q 20.3125 8.9375 22.890625 7.515625 
Q 25.484375 6.109375 28.71875 6.109375 
Q 31.890625 6.109375 34.40625 7.203125 
Q 36.921875 8.296875 38.671875 10.375 
Q 40.4375 12.453125 41.359375 15.421875 
Q 42.28125 18.40625 42.28125 22.125 
" id="LiberationSans-36"/>
      </defs>
      <g style="fill:#262626;" transform="translate(85.3918214286 143.52625)scale(0.08 -0.08)">
       <use xlink:href="#LiberationSans-30"/>
       <use x="55.615234375" xlink:href="#LiberationSans-2e"/>
       <use x="83.3984375" xlink:href="#LiberationSans-36"/>
      </g>
     </g>
    </g>
    <g id="xtick_5">
     <g id="line2d_5">
      <g>
       <use style="fill:#262626;stroke:#262626;stroke-width:0.8;" x="106.894678571" xlink:href="#m8443d209e3" y="126.12875"/>
      </g>
     </g>
     <g id="text_5">
      <!-- 0.8 -->
      <defs>
       <path d="M 51.265625 19.1875 
Q 51.265625 14.796875 49.875 11.109375 
Q 48.484375 7.421875 45.625 4.734375 
Q 42.78125 2.046875 38.328125 0.53125 
Q 33.890625 -0.984375 27.828125 -0.984375 
Q 21.78125 -0.984375 17.359375 0.53125 
Q 12.9375 2.046875 10.03125 4.703125 
Q 7.125 7.375 5.734375 11.0625 
Q 4.34375 14.75 4.34375 19.09375 
Q 4.34375 22.859375 5.484375 25.78125 
Q 6.640625 28.71875 8.5625 30.828125 
Q 10.5 32.953125 12.96875 34.25 
Q 15.4375 35.546875 18.0625 35.984375 
L 18.0625 36.1875 
Q 15.1875 36.859375 12.90625 38.375 
Q 10.640625 39.890625 9.09375 42.015625 
Q 7.5625 44.140625 6.75 46.71875 
Q 5.953125 49.3125 5.953125 52.203125 
Q 5.953125 55.8125 7.34375 59 
Q 8.734375 62.203125 11.46875 64.625 
Q 14.203125 67.046875 18.25 68.4375 
Q 22.3125 69.828125 27.640625 69.828125 
Q 33.25 69.828125 37.375 68.40625 
Q 41.5 67 44.203125 64.578125 
Q 46.921875 62.15625 48.234375 58.9375 
Q 49.5625 55.71875 49.5625 52.09375 
Q 49.5625 49.265625 48.75 46.671875 
Q 47.953125 44.09375 46.40625 41.96875 
Q 44.875 39.84375 42.59375 38.34375 
Q 40.328125 36.859375 37.359375 36.28125 
L 37.359375 36.078125 
Q 40.328125 35.59375 42.859375 34.296875 
Q 45.40625 33.015625 47.265625 30.890625 
Q 49.125 28.765625 50.1875 25.828125 
Q 51.265625 22.90625 51.265625 19.1875 
M 40.4375 51.609375 
Q 40.4375 54.203125 39.765625 56.34375 
Q 39.109375 58.5 37.59375 60.03125 
Q 36.078125 61.578125 33.640625 62.421875 
Q 31.203125 63.28125 27.640625 63.28125 
Q 24.171875 63.28125 21.78125 62.421875 
Q 19.390625 61.578125 17.84375 60.03125 
Q 16.3125 58.5 15.625 56.34375 
Q 14.9375 54.203125 14.9375 51.609375 
Q 14.9375 49.5625 15.46875 47.40625 
Q 16.015625 45.265625 17.421875 43.5 
Q 18.84375 41.75 21.328125 40.625 
Q 23.828125 39.5 27.734375 39.5 
Q 31.890625 39.5 34.40625 40.625 
Q 36.921875 41.75 38.25 43.5 
Q 39.59375 45.265625 40.015625 47.40625 
Q 40.4375 49.5625 40.4375 51.609375 
M 42.140625 20.015625 
Q 42.140625 22.515625 41.453125 24.828125 
Q 40.765625 27.15625 39.109375 28.9375 
Q 37.453125 30.71875 34.640625 31.8125 
Q 31.84375 32.90625 27.640625 32.90625 
Q 23.78125 32.90625 21.0625 31.8125 
Q 18.359375 30.71875 16.671875 28.90625 
Q 14.984375 27.09375 14.203125 24.71875 
Q 13.421875 22.359375 13.421875 19.828125 
Q 13.421875 16.65625 14.203125 14.03125 
Q 14.984375 11.421875 16.6875 9.546875 
Q 18.40625 7.671875 21.1875 6.640625 
Q 23.96875 5.609375 27.9375 5.609375 
Q 31.9375 5.609375 34.671875 6.640625 
Q 37.40625 7.671875 39.0625 9.546875 
Q 40.71875 11.421875 41.421875 14.078125 
Q 42.140625 16.75 42.140625 20.015625 
" id="LiberationSans-38"/>
      </defs>
      <g style="fill:#262626;" transform="translate(101.334678571 143.52625)scale(0.08 -0.08)">
       <use xlink:href="#LiberationSans-30"/>
       <use x="55.615234375" xlink:href="#LiberationSans-2e"/>
       <use x="83.3984375" xlink:href="#LiberationSans-38"/>
      </g>
     </g>
    </g>
    <g id="xtick_6">
     <g id="line2d_6">
      <g>
       <use style="fill:#262626;stroke:#262626;stroke-width:0.8;" x="122.837535714" xlink:href="#m8443d209e3" y="126.12875"/>
      </g>
     </g>
     <g id="text_6">
      <!-- 1.0 -->
      <defs>
       <path d="M 7.625 0 
L 7.625 7.46875 
L 25.140625 7.46875 
L 25.140625 60.40625 
L 9.625 49.3125 
L 9.625 57.625 
L 25.875 68.796875 
L 33.984375 68.796875 
L 33.984375 7.46875 
L 50.734375 7.46875 
L 50.734375 0 
z
" id="LiberationSans-31"/>
      </defs>
      <g style="fill:#262626;" transform="translate(117.277535714 143.52625)scale(0.08 -0.08)">
       <use xlink:href="#LiberationSans-31"/>
       <use x="55.615234375" xlink:href="#LiberationSans-2e"/>
       <use x="83.3984375" xlink:href="#LiberationSans-30"/>
      </g>
     </g>
    </g>
    <g id="xtick_7">
     <g id="line2d_7">
      <g>
       <use style="fill:#262626;stroke:#262626;stroke-width:0.8;" x="138.780392857" xlink:href="#m8443d209e3" y="126.12875"/>
      </g>
     </g>
     <g id="text_7">
      <!-- 1.2 -->
      <g style="fill:#262626;" transform="translate(133.220392857 143.52625)scale(0.08 -0.08)">
       <use xlink:href="#LiberationSans-31"/>
       <use x="55.615234375" xlink:href="#LiberationSans-2e"/>
       <use x="83.3984375" xlink:href="#LiberationSans-32"/>
      </g>
     </g>
    </g>
    <g id="xtick_8">
     <g id="line2d_8">
      <g>
       <use style="fill:#262626;stroke:#262626;stroke-width:0.8;" x="154.72325" xlink:href="#m8443d209e3" y="126.12875"/>
      </g>
     </g>
     <g id="text_8">
      <!-- 1.4 -->
      <g style="fill:#262626;" transform="translate(149.16325 143.52625)scale(0.08 -0.08)">
       <use xlink:href="#LiberationSans-31"/>
       <use x="55.615234375" xlink:href="#LiberationSans-2e"/>
       <use x="83.3984375" xlink:href="#LiberationSans-34"/>
      </g>
     </g>
    </g>
    <g id="text_9">
     <!-- posterior CV -->
     <defs>
      <path d="M 51.421875 26.46875 
Q 51.421875 12.59375 45.3125 5.796875 
Q 39.203125 -0.984375 27.59375 -0.984375 
Q 22.078125 -0.984375 17.71875 0.671875 
Q 13.375 2.34375 10.375 5.765625 
Q 7.375 9.1875 5.78125 14.328125 
Q 4.203125 19.484375 4.203125 26.46875 
Q 4.203125 53.8125 27.875 53.8125 
Q 34.03125 53.8125 38.5 52.09375 
Q 42.96875 50.390625 45.828125 46.96875 
Q 48.6875 43.5625 50.046875 38.421875 
Q 51.421875 33.296875 51.421875 26.46875 
M 42.1875 26.46875 
Q 42.1875 32.625 41.234375 36.625 
Q 40.28125 40.625 38.453125 43.015625 
Q 36.625 45.40625 33.984375 46.359375 
Q 31.34375 47.3125 28.03125 47.3125 
Q 24.65625 47.3125 21.9375 46.3125 
Q 19.234375 45.3125 17.328125 42.890625 
Q 15.4375 40.484375 14.421875 36.46875 
Q 13.421875 32.46875 13.421875 26.46875 
Q 13.421875 20.3125 14.5 16.28125 
Q 15.578125 12.25 17.453125 9.859375 
Q 19.34375 7.46875 21.90625 6.484375 
Q 24.46875 5.515625 27.484375 5.515625 
Q 30.859375 5.515625 33.59375 6.46875 
Q 36.328125 7.421875 38.234375 9.8125 
Q 40.140625 12.203125 41.15625 16.25 
Q 42.1875 20.3125 42.1875 26.46875 
" id="LiberationSans-6f"/>
      <path d="M 6.6875 64.0625 
L 6.6875 72.46875 
L 15.484375 72.46875 
L 15.484375 64.0625 
z
M 6.6875 0 
L 6.6875 52.828125 
L 15.484375 52.828125 
L 15.484375 0 
z
" id="LiberationSans-69"/>
      <path d="M 38.1875 0 
L 28.515625 0 
L 0.4375 68.796875 
L 10.25 68.796875 
L 29.296875 20.359375 
Q 30.03125 18.171875 30.765625 15.984375 
Q 31.5 13.8125 32.078125 12.109375 
Q 32.765625 10.109375 33.40625 8.203125 
Q 33.984375 10.015625 34.671875 12.015625 
Q 35.25 13.71875 35.953125 15.859375 
Q 36.671875 18.015625 37.5 20.359375 
L 56.453125 68.796875 
L 66.265625 68.796875 
z
" id="LiberationSans-56"/>
      <path d="M 27.046875 0.390625 
Q 25.046875 -0.140625 22.96875 -0.453125 
Q 20.90625 -0.78125 18.171875 -0.78125 
Q 7.625 -0.78125 7.625 11.1875 
L 7.625 46.4375 
L 1.515625 46.4375 
L 1.515625 52.828125 
L 7.953125 52.828125 
L 10.546875 64.65625 
L 16.40625 64.65625 
L 16.40625 52.828125 
L 26.171875 52.828125 
L 26.171875 46.4375 
L 16.40625 46.4375 
L 16.40625 13.09375 
Q 16.40625 9.28125 17.640625 7.734375 
Q 18.890625 6.203125 21.96875 6.203125 
Q 23.25 6.203125 24.4375 6.390625 
Q 25.640625 6.59375 27.046875 6.890625 
z
" id="LiberationSans-74"/>
      <path d="M 38.671875 62.203125 
Q 32.8125 62.203125 28.296875 60.25 
Q 23.78125 58.296875 20.71875 54.6875 
Q 17.671875 51.078125 16.109375 46 
Q 14.546875 40.921875 14.546875 34.71875 
Q 14.546875 28.515625 16.234375 23.359375 
Q 17.921875 18.21875 21.0625 14.5 
Q 24.21875 10.796875 28.78125 8.734375 
Q 33.34375 6.6875 39.0625 6.6875 
Q 43.0625 6.6875 46.359375 7.734375 
Q 49.65625 8.796875 52.3125 10.6875 
Q 54.984375 12.59375 57.078125 15.203125 
Q 59.1875 17.828125 60.796875 21 
L 68.40625 17.1875 
Q 66.546875 13.328125 63.8125 10 
Q 61.078125 6.6875 57.390625 4.25 
Q 53.71875 1.8125 49.046875 0.40625 
Q 44.390625 -0.984375 38.625 -0.984375 
Q 30.28125 -0.984375 24 1.671875 
Q 17.71875 4.34375 13.5 9.109375 
Q 9.28125 13.875 7.171875 20.40625 
Q 5.078125 26.953125 5.078125 34.71875 
Q 5.078125 42.78125 7.296875 49.265625 
Q 9.515625 55.765625 13.78125 60.328125 
Q 18.0625 64.890625 24.3125 67.359375 
Q 30.5625 69.828125 38.578125 69.828125 
Q 49.5625 69.828125 56.9375 65.53125 
Q 64.3125 61.234375 67.78125 52.78125 
L 58.9375 49.859375 
Q 57.953125 52.296875 56.296875 54.515625 
Q 54.640625 56.734375 52.140625 58.4375 
Q 49.65625 60.15625 46.3125 61.171875 
Q 42.96875 62.203125 38.671875 62.203125 
" id="LiberationSans-43"/>
      <path d="M 6.9375 0 
L 6.9375 40.53125 
Q 6.9375 42.1875 6.90625 43.921875 
Q 6.890625 45.65625 6.828125 47.265625 
Q 6.78125 48.875 6.734375 50.28125 
Q 6.6875 51.703125 6.640625 52.828125 
L 14.9375 52.828125 
Q 14.984375 51.703125 15.0625 50.265625 
Q 15.140625 48.828125 15.203125 47.3125 
Q 15.28125 45.796875 15.296875 44.40625 
Q 15.328125 43.015625 15.328125 42.046875 
L 15.53125 42.046875 
Q 16.453125 45.0625 17.5 47.28125 
Q 18.5625 49.515625 19.96875 50.953125 
Q 21.390625 52.390625 23.34375 53.09375 
Q 25.296875 53.8125 28.078125 53.8125 
Q 29.15625 53.8125 30.125 53.640625 
Q 31.109375 53.46875 31.640625 53.328125 
L 31.640625 45.265625 
Q 30.765625 45.515625 29.59375 45.625 
Q 28.421875 45.75 26.953125 45.75 
Q 23.921875 45.75 21.796875 44.375 
Q 19.671875 43.015625 18.328125 40.59375 
Q 17 38.1875 16.359375 34.84375 
Q 15.71875 31.5 15.71875 27.546875 
L 15.71875 0 
z
" id="LiberationSans-72"/>
      <path id="LiberationSans-20"/>
      <path d="M 13.484375 24.5625 
Q 13.484375 20.40625 14.328125 16.90625 
Q 15.1875 13.421875 16.96875 10.90625 
Q 18.75 8.40625 21.53125 7 
Q 24.3125 5.609375 28.21875 5.609375 
Q 33.9375 5.609375 37.375 7.90625 
Q 40.828125 10.203125 42.046875 13.71875 
L 49.75 11.53125 
Q 48.921875 9.328125 47.4375 7.109375 
Q 45.953125 4.890625 43.453125 3.09375 
Q 40.96875 1.3125 37.234375 0.15625 
Q 33.5 -0.984375 28.21875 -0.984375 
Q 16.5 -0.984375 10.375 6 
Q 4.25 12.984375 4.25 26.765625 
Q 4.25 34.1875 6.09375 39.328125 
Q 7.953125 44.484375 11.171875 47.703125 
Q 14.40625 50.921875 18.703125 52.359375 
Q 23 53.8125 27.875 53.8125 
Q 34.515625 53.8125 38.984375 51.65625 
Q 43.453125 49.515625 46.15625 45.71875 
Q 48.875 41.9375 50.015625 36.8125 
Q 51.171875 31.6875 51.171875 25.734375 
L 51.171875 24.5625 
z
M 42.09375 31.296875 
Q 41.359375 39.65625 37.84375 43.484375 
Q 34.328125 47.3125 27.734375 47.3125 
Q 25.53125 47.3125 23.109375 46.609375 
Q 20.703125 45.90625 18.65625 44.09375 
Q 16.609375 42.28125 15.1875 39.171875 
Q 13.765625 36.078125 13.578125 31.296875 
z
" id="LiberationSans-65"/>
      <path d="M 46.390625 14.59375 
Q 46.390625 10.890625 44.9375 7.984375 
Q 43.5 5.078125 40.765625 3.09375 
Q 38.03125 1.125 34.046875 0.0625 
Q 30.078125 -0.984375 24.953125 -0.984375 
Q 20.359375 -0.984375 16.671875 -0.265625 
Q 12.984375 0.4375 10.203125 2 
Q 7.421875 3.5625 5.53125 6.125 
Q 3.65625 8.6875 2.78125 12.40625 
L 10.546875 13.921875 
Q 11.671875 9.671875 15.1875 7.6875 
Q 18.703125 5.71875 24.953125 5.71875 
Q 27.78125 5.71875 30.140625 6.109375 
Q 32.515625 6.5 34.21875 7.453125 
Q 35.9375 8.40625 36.890625 9.984375 
Q 37.84375 11.578125 37.84375 13.921875 
Q 37.84375 16.3125 36.71875 17.84375 
Q 35.59375 19.390625 33.59375 20.40625 
Q 31.59375 21.4375 28.734375 22.1875 
Q 25.875 22.953125 22.46875 23.875 
Q 19.28125 24.703125 16.15625 25.734375 
Q 13.03125 26.765625 10.515625 28.4375 
Q 8.015625 30.125 6.453125 32.609375 
Q 4.890625 35.109375 4.890625 38.875 
Q 4.890625 46.09375 10.03125 49.875 
Q 15.1875 53.65625 25.046875 53.65625 
Q 33.796875 53.65625 38.9375 50.578125 
Q 44.09375 47.515625 45.453125 40.71875 
L 37.546875 39.75 
Q 37.109375 41.796875 35.9375 43.1875 
Q 34.765625 44.578125 33.109375 45.4375 
Q 31.453125 46.296875 29.375 46.65625 
Q 27.296875 47.015625 25.046875 47.015625 
Q 19.09375 47.015625 16.25 45.203125 
Q 13.421875 43.40625 13.421875 39.75 
Q 13.421875 37.59375 14.46875 36.203125 
Q 15.53125 34.8125 17.40625 33.859375 
Q 19.28125 32.90625 21.921875 32.203125 
Q 24.5625 31.5 27.734375 30.71875 
Q 29.828125 30.171875 32.03125 29.5625 
Q 34.234375 28.953125 36.296875 28.09375 
Q 38.375 27.25 40.203125 26.09375 
Q 42.046875 24.953125 43.40625 23.34375 
Q 44.78125 21.734375 45.578125 19.578125 
Q 46.390625 17.4375 46.390625 14.59375 
" id="LiberationSans-73"/>
      <path d="M 51.421875 26.65625 
Q 51.421875 20.65625 50.4375 15.578125 
Q 49.46875 10.5 47.1875 6.828125 
Q 44.921875 3.171875 41.1875 1.09375 
Q 37.453125 -0.984375 31.984375 -0.984375 
Q 26.3125 -0.984375 22.0625 1.171875 
Q 17.828125 3.328125 15.578125 8.203125 
L 15.328125 8.203125 
Q 15.375 8.109375 15.40625 7.328125 
Q 15.4375 6.546875 15.453125 5.375 
Q 15.484375 4.203125 15.5 2.75 
Q 15.53125 1.3125 15.53125 -0.09375 
L 15.53125 -20.75 
L 6.734375 -20.75 
L 6.734375 42.046875 
Q 6.734375 43.953125 6.703125 45.703125 
Q 6.6875 47.46875 6.640625 48.90625 
Q 6.59375 50.34375 6.546875 51.359375 
Q 6.5 52.390625 6.453125 52.828125 
L 14.9375 52.828125 
Q 14.984375 52.6875 15.0625 51.796875 
Q 15.140625 50.921875 15.203125 49.671875 
Q 15.28125 48.4375 15.359375 47.015625 
Q 15.4375 45.609375 15.4375 44.34375 
L 15.625 44.34375 
Q 16.84375 46.875 18.40625 48.65625 
Q 19.96875 50.4375 21.96875 51.578125 
Q 23.96875 52.734375 26.4375 53.25 
Q 28.90625 53.765625 31.984375 53.765625 
Q 37.453125 53.765625 41.1875 51.8125 
Q 44.921875 49.859375 47.1875 46.3125 
Q 49.46875 42.78125 50.4375 37.765625 
Q 51.421875 32.765625 51.421875 26.65625 
M 42.1875 26.46875 
Q 42.1875 31.34375 41.59375 35.15625 
Q 41.015625 38.96875 39.578125 41.59375 
Q 38.140625 44.234375 35.734375 45.59375 
Q 33.34375 46.96875 29.734375 46.96875 
Q 26.8125 46.96875 24.21875 46.140625 
Q 21.625 45.3125 19.703125 42.96875 
Q 17.78125 40.625 16.65625 36.5 
Q 15.53125 32.375 15.53125 25.78125 
Q 15.53125 20.171875 16.453125 16.28125 
Q 17.390625 12.40625 19.171875 10.015625 
Q 20.953125 7.625 23.578125 6.5625 
Q 26.21875 5.515625 29.640625 5.515625 
Q 33.296875 5.515625 35.71875 6.921875 
Q 38.140625 8.34375 39.578125 11.03125 
Q 41.015625 13.71875 41.59375 17.59375 
Q 42.1875 21.484375 42.1875 26.46875 
" id="LiberationSans-70"/>
     </defs>
     <g style="fill:#262626;" transform="translate(74.4709375 156.5635)scale(0.08800000000000001 -0.08800000000000001)">
      <use xlink:href="#LiberationSans-70"/>
      <use x="55.615234375" xlink:href="#LiberationSans-6f"/>
      <use x="111.23046875" xlink:href="#LiberationSans-73"/>
      <use x="161.23046875" xlink:href="#LiberationSans-74"/>
      <use x="189.013671875" xlink:href="#LiberationSans-65"/>
      <use x="244.62890625" xlink:href="#LiberationSans-72"/>
      <use x="277.9296875" xlink:href="#LiberationSans-69"/>
      <use x="300.146484375" xlink:href="#LiberationSans-6f"/>
      <use x="355.76171875" xlink:href="#LiberationSans-72"/>
      <use x="389.0625" xlink:href="#LiberationSans-20"/>
      <use x="416.845703125" xlink:href="#LiberationSans-43"/>
      <use x="489.0625" xlink:href="#LiberationSans-56"/>
     </g>
    </g>
   </g>
   <g id="matplotlib.axis_2">
    <g id="ytick_1">
     <g id="line2d_9">
      <defs>
       <path d="M 0 0 
L -6 0 
" id="mcd16e54c66" style="stroke:#262626;stroke-width:0.8;"/>
      </defs>
      <g>
       <use style="fill:#262626;stroke:#262626;stroke-width:0.8;" x="43.12325" xlink:href="#mcd16e54c66" y="126.12875"/>
      </g>
     </g>
     <g id="text_10">
      <!-- 0.0 -->
      <g style="fill:#262626;" transform="translate(20.40325 128.1975)scale(0.08 -0.08)">
       <use xlink:href="#LiberationSans-30"/>
       <use x="55.615234375" xlink:href="#LiberationSans-2e"/>
       <use x="83.3984375" xlink:href="#LiberationSans-30"/>
      </g>
     </g>
    </g>
    <g id="ytick_2">
     <g id="line2d_10">
      <g>
       <use style="fill:#262626;stroke:#262626;stroke-width:0.8;" x="43.12325" xlink:href="#mcd16e54c66" y="109.671607143"/>
      </g>
     </g>
     <g id="text_11">
      <!-- 0.2 -->
      <g style="fill:#262626;" transform="translate(20.40325 111.740357143)scale(0.08 -0.08)">
       <use xlink:href="#LiberationSans-30"/>
       <use x="55.615234375" xlink:href="#LiberationSans-2e"/>
       <use x="83.3984375" xlink:href="#LiberationSans-32"/>
      </g>
     </g>
    </g>
    <g id="ytick_3">
     <g id="line2d_11">
      <g>
       <use style="fill:#262626;stroke:#262626;stroke-width:0.8;" x="43.12325" xlink:href="#mcd16e54c66" y="93.2144642857"/>
      </g>
     </g>
     <g id="text_12">
      <!-- 0.4 -->
      <g style="fill:#262626;" transform="translate(20.40325 95.2832142857)scale(0.08 -0.08)">
       <use xlink:href="#LiberationSans-30"/>
       <use x="55.615234375" xlink:href="#LiberationSans-2e"/>
       <use x="83.3984375" xlink:href="#LiberationSans-34"/>
      </g>
     </g>
    </g>
    <g id="ytick_4">
     <g id="line2d_12">
      <g>
       <use style="fill:#262626;stroke:#262626;stroke-width:0.8;" x="43.12325" xlink:href="#mcd16e54c66" y="76.7573214286"/>
      </g>
     </g>
     <g id="text_13">
      <!-- 0.6 -->
      <g style="fill:#262626;" transform="translate(20.40325 78.8260714286)scale(0.08 -0.08)">
       <use xlink:href="#LiberationSans-30"/>
       <use x="55.615234375" xlink:href="#LiberationSans-2e"/>
       <use x="83.3984375" xlink:href="#LiberationSans-36"/>
      </g>
     </g>
    </g>
    <g id="ytick_5">
     <g id="line2d_13">
      <g>
       <use style="fill:#262626;stroke:#262626;stroke-width:0.8;" x="43.12325" xlink:href="#mcd16e54c66" y="60.3001785714"/>
      </g>
     </g>
     <g id="text_14">
      <!-- 0.8 -->
      <g style="fill:#262626;" transform="translate(20.40325 62.3689285714)scale(0.08 -0.08)">
       <use xlink:href="#LiberationSans-30"/>
       <use x="55.615234375" xlink:href="#LiberationSans-2e"/>
       <use x="83.3984375" xlink:href="#LiberationSans-38"/>
      </g>
     </g>
    </g>
    <g id="ytick_6">
     <g id="line2d_14">
      <g>
       <use style="fill:#262626;stroke:#262626;stroke-width:0.8;" x="43.12325" xlink:href="#mcd16e54c66" y="43.8430357143"/>
      </g>
     </g>
     <g id="text_15">
      <!-- 1.0 -->
      <g style="fill:#262626;" transform="translate(20.40325 45.9117857143)scale(0.08 -0.08)">
       <use xlink:href="#LiberationSans-31"/>
       <use x="55.615234375" xlink:href="#LiberationSans-2e"/>
       <use x="83.3984375" xlink:href="#LiberationSans-30"/>
      </g>
     </g>
    </g>
    <g id="ytick_7">
     <g id="line2d_15">
      <g>
       <use style="fill:#262626;stroke:#262626;stroke-width:0.8;" x="43.12325" xlink:href="#mcd16e54c66" y="27.3858928571"/>
      </g>
     </g>
     <g id="text_16">
      <!-- 1.2 -->
      <g style="fill:#262626;" transform="translate(20.40325 29.4546428571)scale(0.08 -0.08)">
       <use xlink:href="#LiberationSans-31"/>
       <use x="55.615234375" xlink:href="#LiberationSans-2e"/>
       <use x="83.3984375" xlink:href="#LiberationSans-32"/>
      </g>
     </g>
    </g>
    <g id="ytick_8">
     <g id="line2d_16">
      <g>
       <use style="fill:#262626;stroke:#262626;stroke-width:0.8;" x="43.12325" xlink:href="#mcd16e54c66" y="10.92875"/>
      </g>
     </g>
     <g id="text_17">
      <!-- 1.4 -->
      <g style="fill:#262626;" transform="translate(20.40325 12.9975)scale(0.08 -0.08)">
       <use xlink:href="#LiberationSans-31"/>
       <use x="55.615234375" xlink:href="#LiberationSans-2e"/>
       <use x="83.3984375" xlink:href="#LiberationSans-34"/>
      </g>
     </g>
    </g>
    <g id="text_18">
     <!-- raw CV -->
     <defs>
      <path d="M 57.328125 0 
L 47.125 0 
L 38.671875 34.078125 
Q 38.28125 35.40625 37.859375 37.359375 
Q 37.453125 39.3125 37.0625 41.15625 
Q 36.578125 43.3125 36.140625 45.609375 
Q 35.6875 43.40625 35.203125 41.265625 
Q 34.8125 39.40625 34.34375 37.40625 
Q 33.890625 35.40625 33.5 33.890625 
L 24.8125 0 
L 14.65625 0 
L -0.140625 52.828125 
L 8.546875 52.828125 
L 17.484375 16.9375 
Q 17.828125 15.828125 18.15625 14.1875 
Q 18.5 12.546875 18.84375 10.984375 
Q 19.1875 9.1875 19.578125 7.28125 
Q 19.96875 9.125 20.40625 10.890625 
Q 20.796875 12.40625 21.1875 13.96875 
Q 21.578125 15.53125 21.875 16.546875 
L 31.453125 52.828125 
L 40.875 52.828125 
L 50.09375 16.546875 
Q 50.4375 15.28125 50.828125 13.671875 
Q 51.21875 12.0625 51.5625 10.640625 
Q 51.953125 8.984375 52.34375 7.28125 
Q 52.734375 9.125 53.125 10.890625 
Q 53.46875 12.40625 53.828125 14.03125 
Q 54.203125 15.671875 54.546875 16.9375 
L 63.875 52.828125 
L 72.46875 52.828125 
z
" id="LiberationSans-77"/>
      <path d="M 20.21875 -0.984375 
Q 12.25 -0.984375 8.25 3.21875 
Q 4.25 7.421875 4.25 14.75 
Q 4.25 19.96875 6.21875 23.3125 
Q 8.203125 26.65625 11.390625 28.5625 
Q 14.59375 30.46875 18.6875 31.203125 
Q 22.796875 31.9375 27.046875 32.03125 
L 38.921875 32.234375 
L 38.921875 35.109375 
Q 38.921875 38.375 38.234375 40.671875 
Q 37.546875 42.96875 36.125 44.375 
Q 34.71875 45.796875 32.59375 46.453125 
Q 30.46875 47.125 27.59375 47.125 
Q 25.046875 47.125 23 46.75 
Q 20.953125 46.390625 19.4375 45.4375 
Q 17.921875 44.484375 16.984375 42.84375 
Q 16.0625 41.21875 15.765625 38.71875 
L 6.59375 39.546875 
Q 7.078125 42.671875 8.4375 45.28125 
Q 9.8125 47.90625 12.328125 49.796875 
Q 14.84375 51.703125 18.625 52.75 
Q 22.40625 53.8125 27.78125 53.8125 
Q 37.75 53.8125 42.765625 49.234375 
Q 47.796875 44.671875 47.796875 36.03125 
L 47.796875 13.28125 
Q 47.796875 9.375 48.828125 7.390625 
Q 49.859375 5.421875 52.734375 5.421875 
Q 53.46875 5.421875 54.203125 5.515625 
Q 54.9375 5.609375 55.609375 5.765625 
L 55.609375 0.296875 
Q 53.953125 -0.09375 52.3125 -0.28125 
Q 50.6875 -0.484375 48.828125 -0.484375 
Q 46.34375 -0.484375 44.5625 0.171875 
Q 42.78125 0.828125 41.65625 2.171875 
Q 40.53125 3.515625 39.9375 5.484375 
Q 39.359375 7.46875 39.203125 10.109375 
L 38.921875 10.109375 
Q 37.5 7.5625 35.8125 5.515625 
Q 34.125 3.46875 31.875 2.03125 
Q 29.640625 0.59375 26.78125 -0.1875 
Q 23.921875 -0.984375 20.21875 -0.984375 
M 22.21875 5.609375 
Q 26.421875 5.609375 29.5625 7.140625 
Q 32.71875 8.6875 34.78125 11.078125 
Q 36.859375 13.484375 37.890625 16.3125 
Q 38.921875 19.140625 38.921875 21.734375 
L 38.921875 26.078125 
L 29.296875 25.875 
Q 26.078125 25.828125 23.171875 25.40625 
Q 20.265625 25 18.0625 23.78125 
Q 15.875 22.5625 14.578125 20.359375 
Q 13.28125 18.171875 13.28125 14.59375 
Q 13.28125 10.296875 15.59375 7.953125 
Q 17.921875 5.609375 22.21875 5.609375 
" id="LiberationSans-61"/>
     </defs>
     <g style="fill:#262626;" transform="translate(13.57725 82.9531875)rotate(-90.0)scale(0.08800000000000001 -0.08800000000000001)">
      <use xlink:href="#LiberationSans-72"/>
      <use x="33.30078125" xlink:href="#LiberationSans-61"/>
      <use x="88.916015625" xlink:href="#LiberationSans-77"/>
      <use x="161.1328125" xlink:href="#LiberationSans-20"/>
      <use x="188.916015625" xlink:href="#LiberationSans-43"/>
      <use x="261.1328125" xlink:href="#LiberationSans-56"/>
     </g>
    </g>
   </g>
   <g id="PathCollection_1">
    <defs>
     <path d="M 0 0.707107 
C 0.187527 0.707107 0.367398 0.632602 0.5 0.5 
C 0.632602 0.367398 0.707107 0.187527 0.707107 0 
C 0.707107 -0.187527 0.632602 -0.367398 0.5 -0.5 
C 0.367398 -0.632602 0.187527 -0.707107 0 -0.707107 
C -0.187527 -0.707107 -0.367398 -0.632602 -0.5 -0.5 
C -0.632602 -0.367398 -0.707107 -0.187527 -0.707107 0 
C -0.707107 0.187527 -0.632602 0.367398 -0.5 0.5 
C -0.367398 0.632602 -0.187527 0.707107 0 0.707107 
z
" id="m2d9eb3969e" style="stroke:#000000;stroke-opacity:0.6;stroke-width:0.24;"/>
    </defs>
    <g clip-path="url(#pcd3973b1c6)">
     <use style="fill-opacity:0.6;stroke:#000000;stroke-opacity:0.6;stroke-width:0.24;" x="96.5318214286" xlink:href="#m2d9eb3969e" y="62.1270948499"/>
     <use style="fill-opacity:0.6;stroke:#000000;stroke-opacity:0.6;stroke-width:0.24;" x="117.257535714" xlink:href="#m2d9eb3969e" y="32.118996374"/>
     <use style="fill-opacity:0.6;stroke:#000000;stroke-opacity:0.6;stroke-width:0.24;" x="90.9518214286" xlink:href="#m2d9eb3969e" y="67.334608603"/>
     <use style="fill-opacity:0.6;stroke:#000000;stroke-opacity:0.6;stroke-width:0.24;" x="90.1546785714" xlink:href="#m2d9eb3969e" y="87.326741535"/>
     <use style="fill-opacity:0.6;stroke:#000000;stroke-opacity:0.6;stroke-width:0.24;" x="89.3575357143" xlink:href="#m2d9eb3969e" y="62.9263162554"/>
     <use style="fill-opacity:0.6;stroke:#000000;stroke-opacity:0.6;stroke-width:0.24;" x="94.1403928571" xlink:href="#m2d9eb3969e" y="17.9851641461"/>
     <use style="fill-opacity:0.6;stroke:#000000;stroke-opacity:0.6;stroke-width:0.24;" x="89.3575357143" xlink:href="#m2d9eb3969e" y="48.1433284603"/>
     <use style="fill-opacity:0.6;stroke:#000000;stroke-opacity:0.6;stroke-width:0.24;" x="86.1689642857" xlink:href="#m2d9eb3969e" y="57.2615659045"/>
     <use style="fill-opacity:0.6;stroke:#000000;stroke-opacity:0.6;stroke-width:0.24;" x="86.9661071429" xlink:href="#m2d9eb3969e" y="59.5589078085"/>
     <use style="fill-opacity:0.6;stroke:#000000;stroke-opacity:0.6;stroke-width:0.24;" x="82.9803928571" xlink:href="#m2d9eb3969e" y="70.8299890042"/>
     <use style="fill-opacity:0.6;stroke:#000000;stroke-opacity:0.6;stroke-width:0.24;" x="82.9803928571" xlink:href="#m2d9eb3969e" y="84.488983741"/>
     <use style="fill-opacity:0.6;stroke:#000000;stroke-opacity:0.6;stroke-width:0.24;" x="82.9803928571" xlink:href="#m2d9eb3969e" y="62.2879127263"/>
     <use style="fill-opacity:0.6;stroke:#000000;stroke-opacity:0.6;stroke-width:0.24;" x="82.9803928571" xlink:href="#m2d9eb3969e" y="104.790104121"/>
     <use style="fill-opacity:0.6;stroke:#000000;stroke-opacity:0.6;stroke-width:0.24;" x="82.18325" xlink:href="#m2d9eb3969e" y="60.6745975006"/>
     <use style="fill-opacity:0.6;stroke:#000000;stroke-opacity:0.6;stroke-width:0.24;" x="80.5889642857" xlink:href="#m2d9eb3969e" y="79.5415293207"/>
     <use style="fill-opacity:0.6;stroke:#000000;stroke-opacity:0.6;stroke-width:0.24;" x="82.18325" xlink:href="#m2d9eb3969e" y="104.285322503"/>
     <use style="fill-opacity:0.6;stroke:#000000;stroke-opacity:0.6;stroke-width:0.24;" x="80.5889642857" xlink:href="#m2d9eb3969e" y="94.8882299228"/>
     <use style="fill-opacity:0.6;stroke:#000000;stroke-opacity:0.6;stroke-width:0.24;" x="78.9946785714" xlink:href="#m2d9eb3969e" y="76.4697461667"/>
     <use style="fill-opacity:0.6;stroke:#000000;stroke-opacity:0.6;stroke-width:0.24;" x="80.5889642857" xlink:href="#m2d9eb3969e" y="80.4793319303"/>
     <use style="fill-opacity:0.6;stroke:#000000;stroke-opacity:0.6;stroke-width:0.24;" x="79.7918214286" xlink:href="#m2d9eb3969e" y="93.4956751788"/>
     <use style="fill-opacity:0.6;stroke:#000000;stroke-opacity:0.6;stroke-width:0.24;" x="79.7918214286" xlink:href="#m2d9eb3969e" y="96.9656498945"/>
     <use style="fill-opacity:0.6;stroke:#000000;stroke-opacity:0.6;stroke-width:0.24;" x="78.1975357143" xlink:href="#m2d9eb3969e" y="68.7482911172"/>
     <use style="fill-opacity:0.6;stroke:#000000;stroke-opacity:0.6;stroke-width:0.24;" x="78.9946785714" xlink:href="#m2d9eb3969e" y="103.246793012"/>
     <use style="fill-opacity:0.6;stroke:#000000;stroke-opacity:0.6;stroke-width:0.24;" x="78.9946785714" xlink:href="#m2d9eb3969e" y="112.077059779"/>
     <use style="fill-opacity:0.6;stroke:#000000;stroke-opacity:0.6;stroke-width:0.24;" x="79.7918214286" xlink:href="#m2d9eb3969e" y="93.856955279"/>
     <use style="fill-opacity:0.6;stroke:#000000;stroke-opacity:0.6;stroke-width:0.24;" x="78.9946785714" xlink:href="#m2d9eb3969e" y="90.5946348926"/>
     <use style="fill-opacity:0.6;stroke:#000000;stroke-opacity:0.6;stroke-width:0.24;" x="78.9946785714" xlink:href="#m2d9eb3969e" y="96.6918828839"/>
     <use style="fill-opacity:0.6;stroke:#000000;stroke-opacity:0.6;stroke-width:0.24;" x="78.9946785714" xlink:href="#m2d9eb3969e" y="98.6617345567"/>
     <use style="fill-opacity:0.6;stroke:#000000;stroke-opacity:0.6;stroke-width:0.24;" x="76.60325" xlink:href="#m2d9eb3969e" y="66.7089861615"/>
     <use style="fill-opacity:0.6;stroke:#000000;stroke-opacity:0.6;stroke-width:0.24;" x="77.4003928571" xlink:href="#m2d9eb3969e" y="106.438826147"/>
     <use style="fill-opacity:0.6;stroke:#000000;stroke-opacity:0.6;stroke-width:0.24;" x="77.4003928571" xlink:href="#m2d9eb3969e" y="81.1771602089"/>
     <use style="fill-opacity:0.6;stroke:#000000;stroke-opacity:0.6;stroke-width:0.24;" x="77.4003928571" xlink:href="#m2d9eb3969e" y="93.8188650508"/>
     <use style="fill-opacity:0.6;stroke:#000000;stroke-opacity:0.6;stroke-width:0.24;" x="78.1975357143" xlink:href="#m2d9eb3969e" y="104.255706077"/>
     <use style="fill-opacity:0.6;stroke:#000000;stroke-opacity:0.6;stroke-width:0.24;" x="78.1975357143" xlink:href="#m2d9eb3969e" y="101.321142831"/>
     <use style="fill-opacity:0.6;stroke:#000000;stroke-opacity:0.6;stroke-width:0.24;" x="78.1975357143" xlink:href="#m2d9eb3969e" y="98.5877933383"/>
     <use style="fill-opacity:0.6;stroke:#000000;stroke-opacity:0.6;stroke-width:0.24;" x="79.7918214286" xlink:href="#m2d9eb3969e" y="99.3609118178"/>
     <use style="fill-opacity:0.6;stroke:#000000;stroke-opacity:0.6;stroke-width:0.24;" x="74.2118214286" xlink:href="#m2d9eb3969e" y="80.1906599031"/>
     <use style="fill-opacity:0.6;stroke:#000000;stroke-opacity:0.6;stroke-width:0.24;" x="79.7918214286" xlink:href="#m2d9eb3969e" y="68.7795996326"/>
     <use style="fill-opacity:0.6;stroke:#000000;stroke-opacity:0.6;stroke-width:0.24;" x="77.4003928571" xlink:href="#m2d9eb3969e" y="88.0065888348"/>
     <use style="fill-opacity:0.6;stroke:#000000;stroke-opacity:0.6;stroke-width:0.24;" x="75.8061071429" xlink:href="#m2d9eb3969e" y="73.0094753989"/>
     <use style="fill-opacity:0.6;stroke:#000000;stroke-opacity:0.6;stroke-width:0.24;" x="78.1975357143" xlink:href="#m2d9eb3969e" y="102.611772342"/>
     <use style="fill-opacity:0.6;stroke:#000000;stroke-opacity:0.6;stroke-width:0.24;" x="77.4003928571" xlink:href="#m2d9eb3969e" y="93.1465102586"/>
     <use style="fill-opacity:0.6;stroke:#000000;stroke-opacity:0.6;stroke-width:0.24;" x="74.2118214286" xlink:href="#m2d9eb3969e" y="72.9281524856"/>
     <use style="fill-opacity:0.6;stroke:#000000;stroke-opacity:0.6;stroke-width:0.24;" x="76.60325" xlink:href="#m2d9eb3969e" y="82.8009671253"/>
     <use style="fill-opacity:0.6;stroke:#000000;stroke-opacity:0.6;stroke-width:0.24;" x="75.0089642857" xlink:href="#m2d9eb3969e" y="101.096621891"/>
     <use style="fill-opacity:0.6;stroke:#000000;stroke-opacity:0.6;stroke-width:0.24;" x="79.7918214286" xlink:href="#m2d9eb3969e" y="105.333427135"/>
     <use style="fill-opacity:0.6;stroke:#000000;stroke-opacity:0.6;stroke-width:0.24;" x="75.0089642857" xlink:href="#m2d9eb3969e" y="69.6126321105"/>
     <use style="fill-opacity:0.6;stroke:#000000;stroke-opacity:0.6;stroke-width:0.24;" x="74.2118214286" xlink:href="#m2d9eb3969e" y="96.9213755311"/>
     <use style="fill-opacity:0.6;stroke:#000000;stroke-opacity:0.6;stroke-width:0.24;" x="75.8061071429" xlink:href="#m2d9eb3969e" y="73.4421374289"/>
     <use style="fill-opacity:0.6;stroke:#000000;stroke-opacity:0.6;stroke-width:0.24;" x="75.0089642857" xlink:href="#m2d9eb3969e" y="89.5710829459"/>
     <use style="fill-opacity:0.6;stroke:#000000;stroke-opacity:0.6;stroke-width:0.24;" x="75.8061071429" xlink:href="#m2d9eb3969e" y="86.8774464181"/>
     <use style="fill-opacity:0.6;stroke:#000000;stroke-opacity:0.6;stroke-width:0.24;" x="76.60325" xlink:href="#m2d9eb3969e" y="69.7610764066"/>
     <use style="fill-opacity:0.6;stroke:#000000;stroke-opacity:0.6;stroke-width:0.24;" x="72.6175357143" xlink:href="#m2d9eb3969e" y="93.6681582094"/>
     <use style="fill-opacity:0.6;stroke:#000000;stroke-opacity:0.6;stroke-width:0.24;" x="76.60325" xlink:href="#m2d9eb3969e" y="88.3806316121"/>
     <use style="fill-opacity:0.6;stroke:#000000;stroke-opacity:0.6;stroke-width:0.24;" x="76.60325" xlink:href="#m2d9eb3969e" y="87.2520332158"/>
     <use style="fill-opacity:0.6;stroke:#000000;stroke-opacity:0.6;stroke-width:0.24;" x="72.6175357143" xlink:href="#m2d9eb3969e" y="94.8782655767"/>
     <use style="fill-opacity:0.6;stroke:#000000;stroke-opacity:0.6;stroke-width:0.24;" x="75.8061071429" xlink:href="#m2d9eb3969e" y="73.6110207889"/>
     <use style="fill-opacity:0.6;stroke:#000000;stroke-opacity:0.6;stroke-width:0.24;" x="66.2403928571" xlink:href="#m2d9eb3969e" y="83.2071853871"/>
     <use style="fill-opacity:0.6;stroke:#000000;stroke-opacity:0.6;stroke-width:0.24;" x="75.8061071429" xlink:href="#m2d9eb3969e" y="103.865779373"/>
     <use style="fill-opacity:0.6;stroke:#000000;stroke-opacity:0.6;stroke-width:0.24;" x="63.0518214286" xlink:href="#m2d9eb3969e" y="88.643617304"/>
     <use style="fill-opacity:0.6;stroke:#000000;stroke-opacity:0.6;stroke-width:0.24;" x="74.2118214286" xlink:href="#m2d9eb3969e" y="73.9766556725"/>
     <use style="fill-opacity:0.6;stroke:#000000;stroke-opacity:0.6;stroke-width:0.24;" x="64.6461071429" xlink:href="#m2d9eb3969e" y="89.1657617877"/>
     <use style="fill-opacity:0.6;stroke:#000000;stroke-opacity:0.6;stroke-width:0.24;" x="63.8489642857" xlink:href="#m2d9eb3969e" y="88.3609650349"/>
     <use style="fill-opacity:0.6;stroke:#000000;stroke-opacity:0.6;stroke-width:0.24;" x="66.2403928571" xlink:href="#m2d9eb3969e" y="84.2787765104"/>
     <use style="fill-opacity:0.6;stroke:#000000;stroke-opacity:0.6;stroke-width:0.24;" x="67.0375357143" xlink:href="#m2d9eb3969e" y="88.8308559028"/>
     <use style="fill-opacity:0.6;stroke:#000000;stroke-opacity:0.6;stroke-width:0.24;" x="74.2118214286" xlink:href="#m2d9eb3969e" y="93.6916934626"/>
     <use style="fill-opacity:0.6;stroke:#000000;stroke-opacity:0.6;stroke-width:0.24;" x="59.0661071429" xlink:href="#m2d9eb3969e" y="96.2659600705"/>
     <use style="fill-opacity:0.6;stroke:#000000;stroke-opacity:0.6;stroke-width:0.24;" x="59.86325" xlink:href="#m2d9eb3969e" y="92.7415835887"/>
     <use style="fill-opacity:0.6;stroke:#000000;stroke-opacity:0.6;stroke-width:0.24;" x="71.02325" xlink:href="#m2d9eb3969e" y="97.6479905667"/>
     <use style="fill-opacity:0.6;stroke:#000000;stroke-opacity:0.6;stroke-width:0.24;" x="60.6603928571" xlink:href="#m2d9eb3969e" y="84.5172163458"/>
     <use style="fill-opacity:0.6;stroke:#000000;stroke-opacity:0.6;stroke-width:0.24;" x="67.0375357143" xlink:href="#m2d9eb3969e" y="91.9460404392"/>
     <use style="fill-opacity:0.6;stroke:#000000;stroke-opacity:0.6;stroke-width:0.24;" x="77.4003928571" xlink:href="#m2d9eb3969e" y="97.5845900359"/>
     <use style="fill-opacity:0.6;stroke:#000000;stroke-opacity:0.6;stroke-width:0.24;" x="74.2118214286" xlink:href="#m2d9eb3969e" y="104.402053658"/>
     <use style="fill-opacity:0.6;stroke:#000000;stroke-opacity:0.6;stroke-width:0.24;" x="71.8203928571" xlink:href="#m2d9eb3969e" y="99.8157684332"/>
     <use style="fill-opacity:0.6;stroke:#000000;stroke-opacity:0.6;stroke-width:0.24;" x="62.2546785714" xlink:href="#m2d9eb3969e" y="98.2542309271"/>
     <use style="fill-opacity:0.6;stroke:#000000;stroke-opacity:0.6;stroke-width:0.24;" x="72.6175357143" xlink:href="#m2d9eb3969e" y="76.1937596673"/>
     <use style="fill-opacity:0.6;stroke:#000000;stroke-opacity:0.6;stroke-width:0.24;" x="75.0089642857" xlink:href="#m2d9eb3969e" y="90.4887708086"/>
     <use style="fill-opacity:0.6;stroke:#000000;stroke-opacity:0.6;stroke-width:0.24;" x="59.86325" xlink:href="#m2d9eb3969e" y="102.359907726"/>
     <use style="fill-opacity:0.6;stroke:#000000;stroke-opacity:0.6;stroke-width:0.24;" x="74.2118214286" xlink:href="#m2d9eb3969e" y="89.8522677032"/>
     <use style="fill-opacity:0.6;stroke:#000000;stroke-opacity:0.6;stroke-width:0.24;" x="63.8489642857" xlink:href="#m2d9eb3969e" y="98.9225872561"/>
     <use style="fill-opacity:0.6;stroke:#000000;stroke-opacity:0.6;stroke-width:0.24;" x="67.8346785714" xlink:href="#m2d9eb3969e" y="84.0535550229"/>
     <use style="fill-opacity:0.6;stroke:#000000;stroke-opacity:0.6;stroke-width:0.24;" x="69.4289642857" xlink:href="#m2d9eb3969e" y="91.2593234622"/>
     <use style="fill-opacity:0.6;stroke:#000000;stroke-opacity:0.6;stroke-width:0.24;" x="69.4289642857" xlink:href="#m2d9eb3969e" y="103.115044023"/>
     <use style="fill-opacity:0.6;stroke:#000000;stroke-opacity:0.6;stroke-width:0.24;" x="73.4146785714" xlink:href="#m2d9eb3969e" y="80.0656189835"/>
     <use style="fill-opacity:0.6;stroke:#000000;stroke-opacity:0.6;stroke-width:0.24;" x="76.60325" xlink:href="#m2d9eb3969e" y="89.688813344"/>
     <use style="fill-opacity:0.6;stroke:#000000;stroke-opacity:0.6;stroke-width:0.24;" x="60.6603928571" xlink:href="#m2d9eb3969e" y="98.070668509"/>
     <use style="fill-opacity:0.6;stroke:#000000;stroke-opacity:0.6;stroke-width:0.24;" x="71.02325" xlink:href="#m2d9eb3969e" y="82.00494936"/>
     <use style="fill-opacity:0.6;stroke:#000000;stroke-opacity:0.6;stroke-width:0.24;" x="69.4289642857" xlink:href="#m2d9eb3969e" y="80.3040327857"/>
     <use style="fill-opacity:0.6;stroke:#000000;stroke-opacity:0.6;stroke-width:0.24;" x="67.0375357143" xlink:href="#m2d9eb3969e" y="88.885384736"/>
     <use style="fill-opacity:0.6;stroke:#000000;stroke-opacity:0.6;stroke-width:0.24;" x="67.0375357143" xlink:href="#m2d9eb3969e" y="95.9149996496"/>
     <use style="fill-opacity:0.6;stroke:#000000;stroke-opacity:0.6;stroke-width:0.24;" x="73.4146785714" xlink:href="#m2d9eb3969e" y="96.0271434426"/>
     <use style="fill-opacity:0.6;stroke:#000000;stroke-opacity:0.6;stroke-width:0.24;" x="74.2118214286" xlink:href="#m2d9eb3969e" y="86.3283092731"/>
     <use style="fill-opacity:0.6;stroke:#000000;stroke-opacity:0.6;stroke-width:0.24;" x="71.8203928571" xlink:href="#m2d9eb3969e" y="90.0911602586"/>
     <use style="fill-opacity:0.6;stroke:#000000;stroke-opacity:0.6;stroke-width:0.24;" x="69.4289642857" xlink:href="#m2d9eb3969e" y="94.7599299992"/>
     <use style="fill-opacity:0.6;stroke:#000000;stroke-opacity:0.6;stroke-width:0.24;" x="75.0089642857" xlink:href="#m2d9eb3969e" y="92.380249657"/>
     <use style="fill-opacity:0.6;stroke:#000000;stroke-opacity:0.6;stroke-width:0.24;" x="61.4575357143" xlink:href="#m2d9eb3969e" y="98.9607615572"/>
     <use style="fill-opacity:0.6;stroke:#000000;stroke-opacity:0.6;stroke-width:0.24;" x="74.2118214286" xlink:href="#m2d9eb3969e" y="97.0669338119"/>
     <use style="fill-opacity:0.6;stroke:#000000;stroke-opacity:0.6;stroke-width:0.24;" x="74.2118214286" xlink:href="#m2d9eb3969e" y="84.9673888986"/>
     <use style="fill-opacity:0.6;stroke:#000000;stroke-opacity:0.6;stroke-width:0.24;" x="71.02325" xlink:href="#m2d9eb3969e" y="92.0366309404"/>
     <use style="fill-opacity:0.6;stroke:#000000;stroke-opacity:0.6;stroke-width:0.24;" x="74.2118214286" xlink:href="#m2d9eb3969e" y="99.5602933541"/>
     <use style="fill-opacity:0.6;stroke:#000000;stroke-opacity:0.6;stroke-width:0.24;" x="73.4146785714" xlink:href="#m2d9eb3969e" y="93.7878949787"/>
     <use style="fill-opacity:0.6;stroke:#000000;stroke-opacity:0.6;stroke-width:0.24;" x="66.2403928571" xlink:href="#m2d9eb3969e" y="98.9320727409"/>
     <use style="fill-opacity:0.6;stroke:#000000;stroke-opacity:0.6;stroke-width:0.24;" x="72.6175357143" xlink:href="#m2d9eb3969e" y="79.9546666425"/>
     <use style="fill-opacity:0.6;stroke:#000000;stroke-opacity:0.6;stroke-width:0.24;" x="71.8203928571" xlink:href="#m2d9eb3969e" y="86.4467444348"/>
     <use style="fill-opacity:0.6;stroke:#000000;stroke-opacity:0.6;stroke-width:0.24;" x="71.02325" xlink:href="#m2d9eb3969e" y="78.6246173431"/>
     <use style="fill-opacity:0.6;stroke:#000000;stroke-opacity:0.6;stroke-width:0.24;" x="63.0518214286" xlink:href="#m2d9eb3969e" y="89.0800457064"/>
     <use style="fill-opacity:0.6;stroke:#000000;stroke-opacity:0.6;stroke-width:0.24;" x="62.2546785714" xlink:href="#m2d9eb3969e" y="94.4960028414"/>
     <use style="fill-opacity:0.6;stroke:#000000;stroke-opacity:0.6;stroke-width:0.24;" x="71.02325" xlink:href="#m2d9eb3969e" y="81.2252459099"/>
     <use style="fill-opacity:0.6;stroke:#000000;stroke-opacity:0.6;stroke-width:0.24;" x="74.2118214286" xlink:href="#m2d9eb3969e" y="94.5013617585"/>
     <use style="fill-opacity:0.6;stroke:#000000;stroke-opacity:0.6;stroke-width:0.24;" x="71.8203928571" xlink:href="#m2d9eb3969e" y="93.5343212611"/>
     <use style="fill-opacity:0.6;stroke:#000000;stroke-opacity:0.6;stroke-width:0.24;" x="71.8203928571" xlink:href="#m2d9eb3969e" y="81.9858837305"/>
     <use style="fill-opacity:0.6;stroke:#000000;stroke-opacity:0.6;stroke-width:0.24;" x="74.2118214286" xlink:href="#m2d9eb3969e" y="81.5474880728"/>
     <use style="fill-opacity:0.6;stroke:#000000;stroke-opacity:0.6;stroke-width:0.24;" x="66.2403928571" xlink:href="#m2d9eb3969e" y="98.438114914"/>
     <use style="fill-opacity:0.6;stroke:#000000;stroke-opacity:0.6;stroke-width:0.24;" x="66.2403928571" xlink:href="#m2d9eb3969e" y="102.328835472"/>
     <use style="fill-opacity:0.6;stroke:#000000;stroke-opacity:0.6;stroke-width:0.24;" x="70.2261071429" xlink:href="#m2d9eb3969e" y="80.1198118355"/>
     <use style="fill-opacity:0.6;stroke:#000000;stroke-opacity:0.6;stroke-width:0.24;" x="70.2261071429" xlink:href="#m2d9eb3969e" y="103.509728297"/>
     <use style="fill-opacity:0.6;stroke:#000000;stroke-opacity:0.6;stroke-width:0.24;" x="69.4289642857" xlink:href="#m2d9eb3969e" y="77.8440149617"/>
     <use style="fill-opacity:0.6;stroke:#000000;stroke-opacity:0.6;stroke-width:0.24;" x="71.02325" xlink:href="#m2d9eb3969e" y="74.5961397176"/>
     <use style="fill-opacity:0.6;stroke:#000000;stroke-opacity:0.6;stroke-width:0.24;" x="61.4575357143" xlink:href="#m2d9eb3969e" y="87.5864709992"/>
     <use style="fill-opacity:0.6;stroke:#000000;stroke-opacity:0.6;stroke-width:0.24;" x="70.2261071429" xlink:href="#m2d9eb3969e" y="82.7984872785"/>
     <use style="fill-opacity:0.6;stroke:#000000;stroke-opacity:0.6;stroke-width:0.24;" x="71.8203928571" xlink:href="#m2d9eb3969e" y="104.85549528"/>
     <use style="fill-opacity:0.6;stroke:#000000;stroke-opacity:0.6;stroke-width:0.24;" x="72.6175357143" xlink:href="#m2d9eb3969e" y="97.5179056652"/>
     <use style="fill-opacity:0.6;stroke:#000000;stroke-opacity:0.6;stroke-width:0.24;" x="70.2261071429" xlink:href="#m2d9eb3969e" y="99.20656123"/>
     <use style="fill-opacity:0.6;stroke:#000000;stroke-opacity:0.6;stroke-width:0.24;" x="74.2118214286" xlink:href="#m2d9eb3969e" y="93.3316460559"/>
     <use style="fill-opacity:0.6;stroke:#000000;stroke-opacity:0.6;stroke-width:0.24;" x="67.0375357143" xlink:href="#m2d9eb3969e" y="89.0111757932"/>
     <use style="fill-opacity:0.6;stroke:#000000;stroke-opacity:0.6;stroke-width:0.24;" x="67.0375357143" xlink:href="#m2d9eb3969e" y="93.6466079487"/>
     <use style="fill-opacity:0.6;stroke:#000000;stroke-opacity:0.6;stroke-width:0.24;" x="71.02325" xlink:href="#m2d9eb3969e" y="97.2901237194"/>
     <use style="fill-opacity:0.6;stroke:#000000;stroke-opacity:0.6;stroke-width:0.24;" x="71.8203928571" xlink:href="#m2d9eb3969e" y="107.044756841"/>
     <use style="fill-opacity:0.6;stroke:#000000;stroke-opacity:0.6;stroke-width:0.24;" x="67.0375357143" xlink:href="#m2d9eb3969e" y="99.8409687137"/>
     <use style="fill-opacity:0.6;stroke:#000000;stroke-opacity:0.6;stroke-width:0.24;" x="72.6175357143" xlink:href="#m2d9eb3969e" y="100.833680165"/>
     <use style="fill-opacity:0.6;stroke:#000000;stroke-opacity:0.6;stroke-width:0.24;" x="70.2261071429" xlink:href="#m2d9eb3969e" y="95.2160681785"/>
     <use style="fill-opacity:0.6;stroke:#000000;stroke-opacity:0.6;stroke-width:0.24;" x="67.8346785714" xlink:href="#m2d9eb3969e" y="82.9931533445"/>
     <use style="fill-opacity:0.6;stroke:#000000;stroke-opacity:0.6;stroke-width:0.24;" x="60.6603928571" xlink:href="#m2d9eb3969e" y="94.6225102761"/>
     <use style="fill-opacity:0.6;stroke:#000000;stroke-opacity:0.6;stroke-width:0.24;" x="65.44325" xlink:href="#m2d9eb3969e" y="101.370291267"/>
     <use style="fill-opacity:0.6;stroke:#000000;stroke-opacity:0.6;stroke-width:0.24;" x="69.4289642857" xlink:href="#m2d9eb3969e" y="81.5608897106"/>
     <use style="fill-opacity:0.6;stroke:#000000;stroke-opacity:0.6;stroke-width:0.24;" x="67.0375357143" xlink:href="#m2d9eb3969e" y="79.5108154414"/>
     <use style="fill-opacity:0.6;stroke:#000000;stroke-opacity:0.6;stroke-width:0.24;" x="71.8203928571" xlink:href="#m2d9eb3969e" y="100.299017756"/>
     <use style="fill-opacity:0.6;stroke:#000000;stroke-opacity:0.6;stroke-width:0.24;" x="70.2261071429" xlink:href="#m2d9eb3969e" y="94.7149510865"/>
     <use style="fill-opacity:0.6;stroke:#000000;stroke-opacity:0.6;stroke-width:0.24;" x="71.02325" xlink:href="#m2d9eb3969e" y="79.9914172166"/>
     <use style="fill-opacity:0.6;stroke:#000000;stroke-opacity:0.6;stroke-width:0.24;" x="69.4289642857" xlink:href="#m2d9eb3969e" y="78.5885506484"/>
    </g>
   </g>
   <g id="line2d_17">
    <path clip-path="url(#pcd3973b1c6)" d="M 43.12325 126.12875 
L 154.72325 10.92875 
" style="fill:none;stroke:#ff0000;stroke-dasharray:6.000000,6.000000;stroke-dashoffset:0.0;stroke-width:1.4000000000000001;"/>
   </g>
   <g id="patch_3">
    <path d="M 43.12325 126.12875 
L 43.12325 10.92875 
" style="fill:none;stroke:#262626;stroke-linecap:square;stroke-linejoin:miter;stroke-width:1.25;"/>
   </g>
   <g id="patch_4">
    <path d="M 43.12325 126.12875 
L 154.72325 126.12875 
" style="fill:none;stroke:#262626;stroke-linecap:square;stroke-linejoin:miter;stroke-width:1.25;"/>
   </g>
  </g>
 </g>
 <defs>
  <clipPath id="pcd3973b1c6">
   <rect height="115.2" width="111.6" x="43.12325" y="10.92875"/>
  </clipPath>
 </defs>
</svg>
