<?xml version="1.0" encoding="utf-8" standalone="no"?>
<!DOCTYPE svg PUBLIC "-//W3C//DTD SVG 1.1//EN"
  "http://www.w3.org/Graphics/SVG/1.1/DTD/svg11.dtd">
<!-- Created with matplotlib (http://matplotlib.org/) -->
<svg height="166pt" version="1.1" viewBox="0 0 170 166" width="170pt" xmlns="http://www.w3.org/2000/svg" xmlns:xlink="http://www.w3.org/1999/xlink">
 <defs>
  <style type="text/css">
*{stroke-linecap:butt;stroke-linejoin:round;stroke-miterlimit:100000;}
  </style>
 </defs>
 <g id="figure_1">
  <g id="patch_1">
   <path d="M 0 166.3305 
L 170.2005 166.3305 
L 170.2005 0 
L 0 0 
z
" style="fill:#ffffff;"/>
  </g>
  <g id="axes_1">
   <g id="patch_2">
    <path d="M 45.03925 126.27125 
L 156.63925 126.27125 
L 156.63925 11.07125 
L 45.03925 11.07125 
z
" style="fill:#ffffff;"/>
   </g>
   <g id="matplotlib.axis_1">
    <g id="xtick_1">
     <g id="line2d_1">
      <defs>
       <path d="M 0 0 
L 0 6 
" id="mdf8a7c486b" style="stroke:#262626;stroke-width:0.8;"/>
      </defs>
      <g>
       <use style="fill:#262626;stroke:#262626;stroke-width:0.8;" x="45.03925" xlink:href="#mdf8a7c486b" y="126.27125"/>
      </g>
     </g>
     <g id="text_1">
      <!-- 0.0 -->
      <defs>
       <path d="M 31.78125 66.40625 
Q 24.171875 66.40625 20.328125 58.90625 
Q 16.5 51.421875 16.5 36.375 
Q 16.5 21.390625 20.328125 13.890625 
Q 24.171875 6.390625 31.78125 6.390625 
Q 39.453125 6.390625 43.28125 13.890625 
Q 47.125 21.390625 47.125 36.375 
Q 47.125 51.421875 43.28125 58.90625 
Q 39.453125 66.40625 31.78125 66.40625 
M 31.78125 74.21875 
Q 44.046875 74.21875 50.515625 64.515625 
Q 56.984375 54.828125 56.984375 36.375 
Q 56.984375 17.96875 50.515625 8.265625 
Q 44.046875 -1.421875 31.78125 -1.421875 
Q 19.53125 -1.421875 13.0625 8.265625 
Q 6.59375 17.96875 6.59375 36.375 
Q 6.59375 54.828125 13.0625 64.515625 
Q 19.53125 74.21875 31.78125 74.21875 
" id="BitstreamVeraSans-Roman-30"/>
       <path d="M 10.6875 12.40625 
L 21 12.40625 
L 21 0 
L 10.6875 0 
z
" id="BitstreamVeraSans-Roman-2e"/>
      </defs>
      <g style="fill:#262626;" transform="translate(38.678 143.95)scale(0.08 -0.08)">
       <use xlink:href="#BitstreamVeraSans-Roman-30"/>
       <use x="63.623046875" xlink:href="#BitstreamVeraSans-Roman-2e"/>
       <use x="95.41015625" xlink:href="#BitstreamVeraSans-Roman-30"/>
      </g>
     </g>
    </g>
    <g id="xtick_2">
     <g id="line2d_2">
      <g>
       <use style="fill:#262626;stroke:#262626;stroke-width:0.8;" x="67.35925" xlink:href="#mdf8a7c486b" y="126.27125"/>
      </g>
     </g>
     <g id="text_2">
      <!-- 0.2 -->
      <defs>
       <path d="M 19.1875 8.296875 
L 53.609375 8.296875 
L 53.609375 0 
L 7.328125 0 
L 7.328125 8.296875 
Q 12.9375 14.109375 22.625 23.890625 
Q 32.328125 33.6875 34.8125 36.53125 
Q 39.546875 41.84375 41.421875 45.53125 
Q 43.3125 49.21875 43.3125 52.78125 
Q 43.3125 58.59375 39.234375 62.25 
Q 35.15625 65.921875 28.609375 65.921875 
Q 23.96875 65.921875 18.8125 64.3125 
Q 13.671875 62.703125 7.8125 59.421875 
L 7.8125 69.390625 
Q 13.765625 71.78125 18.9375 73 
Q 24.125 74.21875 28.421875 74.21875 
Q 39.75 74.21875 46.484375 68.546875 
Q 53.21875 62.890625 53.21875 53.421875 
Q 53.21875 48.921875 51.53125 44.890625 
Q 49.859375 40.875 45.40625 35.40625 
Q 44.1875 33.984375 37.640625 27.21875 
Q 31.109375 20.453125 19.1875 8.296875 
" id="BitstreamVeraSans-Roman-32"/>
      </defs>
      <g style="fill:#262626;" transform="translate(60.998 143.95)scale(0.08 -0.08)">
       <use xlink:href="#BitstreamVeraSans-Roman-30"/>
       <use x="63.623046875" xlink:href="#BitstreamVeraSans-Roman-2e"/>
       <use x="95.41015625" xlink:href="#BitstreamVeraSans-Roman-32"/>
      </g>
     </g>
    </g>
    <g id="xtick_3">
     <g id="line2d_3">
      <g>
       <use style="fill:#262626;stroke:#262626;stroke-width:0.8;" x="89.67925" xlink:href="#mdf8a7c486b" y="126.27125"/>
      </g>
     </g>
     <g id="text_3">
      <!-- 0.4 -->
      <defs>
       <path d="M 37.796875 64.3125 
L 12.890625 25.390625 
L 37.796875 25.390625 
z
M 35.203125 72.90625 
L 47.609375 72.90625 
L 47.609375 25.390625 
L 58.015625 25.390625 
L 58.015625 17.1875 
L 47.609375 17.1875 
L 47.609375 0 
L 37.796875 0 
L 37.796875 17.1875 
L 4.890625 17.1875 
L 4.890625 26.703125 
z
" id="BitstreamVeraSans-Roman-34"/>
      </defs>
      <g style="fill:#262626;" transform="translate(83.318 143.95)scale(0.08 -0.08)">
       <use xlink:href="#BitstreamVeraSans-Roman-30"/>
       <use x="63.623046875" xlink:href="#BitstreamVeraSans-Roman-2e"/>
       <use x="95.41015625" xlink:href="#BitstreamVeraSans-Roman-34"/>
      </g>
     </g>
    </g>
    <g id="xtick_4">
     <g id="line2d_4">
      <g>
       <use style="fill:#262626;stroke:#262626;stroke-width:0.8;" x="111.99925" xlink:href="#mdf8a7c486b" y="126.27125"/>
      </g>
     </g>
     <g id="text_4">
      <!-- 0.6 -->
      <defs>
       <path d="M 33.015625 40.375 
Q 26.375 40.375 22.484375 35.828125 
Q 18.609375 31.296875 18.609375 23.390625 
Q 18.609375 15.53125 22.484375 10.953125 
Q 26.375 6.390625 33.015625 6.390625 
Q 39.65625 6.390625 43.53125 10.953125 
Q 47.40625 15.53125 47.40625 23.390625 
Q 47.40625 31.296875 43.53125 35.828125 
Q 39.65625 40.375 33.015625 40.375 
M 52.59375 71.296875 
L 52.59375 62.3125 
Q 48.875 64.0625 45.09375 64.984375 
Q 41.3125 65.921875 37.59375 65.921875 
Q 27.828125 65.921875 22.671875 59.328125 
Q 17.53125 52.734375 16.796875 39.40625 
Q 19.671875 43.65625 24.015625 45.921875 
Q 28.375 48.1875 33.59375 48.1875 
Q 44.578125 48.1875 50.953125 41.515625 
Q 57.328125 34.859375 57.328125 23.390625 
Q 57.328125 12.15625 50.6875 5.359375 
Q 44.046875 -1.421875 33.015625 -1.421875 
Q 20.359375 -1.421875 13.671875 8.265625 
Q 6.984375 17.96875 6.984375 36.375 
Q 6.984375 53.65625 15.1875 63.9375 
Q 23.390625 74.21875 37.203125 74.21875 
Q 40.921875 74.21875 44.703125 73.484375 
Q 48.484375 72.75 52.59375 71.296875 
" id="BitstreamVeraSans-Roman-36"/>
      </defs>
      <g style="fill:#262626;" transform="translate(105.638 143.95)scale(0.08 -0.08)">
       <use xlink:href="#BitstreamVeraSans-Roman-30"/>
       <use x="63.623046875" xlink:href="#BitstreamVeraSans-Roman-2e"/>
       <use x="95.41015625" xlink:href="#BitstreamVeraSans-Roman-36"/>
      </g>
     </g>
    </g>
    <g id="xtick_5">
     <g id="line2d_5">
      <g>
       <use style="fill:#262626;stroke:#262626;stroke-width:0.8;" x="134.31925" xlink:href="#mdf8a7c486b" y="126.27125"/>
      </g>
     </g>
     <g id="text_5">
      <!-- 0.8 -->
      <defs>
       <path d="M 31.78125 34.625 
Q 24.75 34.625 20.71875 30.859375 
Q 16.703125 27.09375 16.703125 20.515625 
Q 16.703125 13.921875 20.71875 10.15625 
Q 24.75 6.390625 31.78125 6.390625 
Q 38.8125 6.390625 42.859375 10.171875 
Q 46.921875 13.96875 46.921875 20.515625 
Q 46.921875 27.09375 42.890625 30.859375 
Q 38.875 34.625 31.78125 34.625 
M 21.921875 38.8125 
Q 15.578125 40.375 12.03125 44.71875 
Q 8.5 49.078125 8.5 55.328125 
Q 8.5 64.0625 14.71875 69.140625 
Q 20.953125 74.21875 31.78125 74.21875 
Q 42.671875 74.21875 48.875 69.140625 
Q 55.078125 64.0625 55.078125 55.328125 
Q 55.078125 49.078125 51.53125 44.71875 
Q 48 40.375 41.703125 38.8125 
Q 48.828125 37.15625 52.796875 32.3125 
Q 56.78125 27.484375 56.78125 20.515625 
Q 56.78125 9.90625 50.3125 4.234375 
Q 43.84375 -1.421875 31.78125 -1.421875 
Q 19.734375 -1.421875 13.25 4.234375 
Q 6.78125 9.90625 6.78125 20.515625 
Q 6.78125 27.484375 10.78125 32.3125 
Q 14.796875 37.15625 21.921875 38.8125 
M 18.3125 54.390625 
Q 18.3125 48.734375 21.84375 45.5625 
Q 25.390625 42.390625 31.78125 42.390625 
Q 38.140625 42.390625 41.71875 45.5625 
Q 45.3125 48.734375 45.3125 54.390625 
Q 45.3125 60.0625 41.71875 63.234375 
Q 38.140625 66.40625 31.78125 66.40625 
Q 25.390625 66.40625 21.84375 63.234375 
Q 18.3125 60.0625 18.3125 54.390625 
" id="BitstreamVeraSans-Roman-38"/>
      </defs>
      <g style="fill:#262626;" transform="translate(127.958 143.95)scale(0.08 -0.08)">
       <use xlink:href="#BitstreamVeraSans-Roman-30"/>
       <use x="63.623046875" xlink:href="#BitstreamVeraSans-Roman-2e"/>
       <use x="95.41015625" xlink:href="#BitstreamVeraSans-Roman-38"/>
      </g>
     </g>
    </g>
    <g id="xtick_6">
     <g id="line2d_6">
      <g>
       <use style="fill:#262626;stroke:#262626;stroke-width:0.8;" x="156.63925" xlink:href="#mdf8a7c486b" y="126.27125"/>
      </g>
     </g>
     <g id="text_6">
      <!-- 1.0 -->
      <defs>
       <path d="M 12.40625 8.296875 
L 28.515625 8.296875 
L 28.515625 63.921875 
L 10.984375 60.40625 
L 10.984375 69.390625 
L 28.421875 72.90625 
L 38.28125 72.90625 
L 38.28125 8.296875 
L 54.390625 8.296875 
L 54.390625 0 
L 12.40625 0 
z
" id="BitstreamVeraSans-Roman-31"/>
      </defs>
      <g style="fill:#262626;" transform="translate(150.278 143.95)scale(0.08 -0.08)">
       <use xlink:href="#BitstreamVeraSans-Roman-31"/>
       <use x="63.623046875" xlink:href="#BitstreamVeraSans-Roman-2e"/>
       <use x="95.41015625" xlink:href="#BitstreamVeraSans-Roman-30"/>
      </g>
     </g>
    </g>
    <g id="text_7">
     <!-- posterior CV -->
     <defs>
      <path d="M 28.609375 0 
L 0.78125 72.90625 
L 11.078125 72.90625 
L 34.1875 11.53125 
L 57.328125 72.90625 
L 67.578125 72.90625 
L 39.796875 0 
z
" id="BitstreamVeraSans-Roman-56"/>
      <path d="M 30.609375 48.390625 
Q 23.390625 48.390625 19.1875 42.75 
Q 14.984375 37.109375 14.984375 27.296875 
Q 14.984375 17.484375 19.15625 11.84375 
Q 23.34375 6.203125 30.609375 6.203125 
Q 37.796875 6.203125 41.984375 11.859375 
Q 46.1875 17.53125 46.1875 27.296875 
Q 46.1875 37.015625 41.984375 42.703125 
Q 37.796875 48.390625 30.609375 48.390625 
M 30.609375 56 
Q 42.328125 56 49.015625 48.375 
Q 55.71875 40.765625 55.71875 27.296875 
Q 55.71875 13.875 49.015625 6.21875 
Q 42.328125 -1.421875 30.609375 -1.421875 
Q 18.84375 -1.421875 12.171875 6.21875 
Q 5.515625 13.875 5.515625 27.296875 
Q 5.515625 40.765625 12.171875 48.375 
Q 18.84375 56 30.609375 56 
" id="BitstreamVeraSans-Roman-6f"/>
      <path d="M 41.109375 46.296875 
Q 39.59375 47.171875 37.8125 47.578125 
Q 36.03125 48 33.890625 48 
Q 26.265625 48 22.1875 43.046875 
Q 18.109375 38.09375 18.109375 28.8125 
L 18.109375 0 
L 9.078125 0 
L 9.078125 54.6875 
L 18.109375 54.6875 
L 18.109375 46.1875 
Q 20.953125 51.171875 25.484375 53.578125 
Q 30.03125 56 36.53125 56 
Q 37.453125 56 38.578125 55.875 
Q 39.703125 55.765625 41.0625 55.515625 
z
" id="BitstreamVeraSans-Roman-72"/>
      <path d="M 56.203125 29.59375 
L 56.203125 25.203125 
L 14.890625 25.203125 
Q 15.484375 15.921875 20.484375 11.0625 
Q 25.484375 6.203125 34.421875 6.203125 
Q 39.59375 6.203125 44.453125 7.46875 
Q 49.3125 8.734375 54.109375 11.28125 
L 54.109375 2.78125 
Q 49.265625 0.734375 44.1875 -0.34375 
Q 39.109375 -1.421875 33.890625 -1.421875 
Q 20.796875 -1.421875 13.15625 6.1875 
Q 5.515625 13.8125 5.515625 26.8125 
Q 5.515625 40.234375 12.765625 48.109375 
Q 20.015625 56 32.328125 56 
Q 43.359375 56 49.78125 48.890625 
Q 56.203125 41.796875 56.203125 29.59375 
M 47.21875 32.234375 
Q 47.125 39.59375 43.09375 43.984375 
Q 39.0625 48.390625 32.421875 48.390625 
Q 24.90625 48.390625 20.390625 44.140625 
Q 15.875 39.890625 15.1875 32.171875 
z
" id="BitstreamVeraSans-Roman-65"/>
      <path d="M 44.28125 53.078125 
L 44.28125 44.578125 
Q 40.484375 46.53125 36.375 47.5 
Q 32.28125 48.484375 27.875 48.484375 
Q 21.1875 48.484375 17.84375 46.4375 
Q 14.5 44.390625 14.5 40.28125 
Q 14.5 37.15625 16.890625 35.375 
Q 19.28125 33.59375 26.515625 31.984375 
L 29.59375 31.296875 
Q 39.15625 29.25 43.1875 25.515625 
Q 47.21875 21.78125 47.21875 15.09375 
Q 47.21875 7.46875 41.1875 3.015625 
Q 35.15625 -1.421875 24.609375 -1.421875 
Q 20.21875 -1.421875 15.453125 -0.5625 
Q 10.6875 0.296875 5.421875 2 
L 5.421875 11.28125 
Q 10.40625 8.6875 15.234375 7.390625 
Q 20.0625 6.109375 24.8125 6.109375 
Q 31.15625 6.109375 34.5625 8.28125 
Q 37.984375 10.453125 37.984375 14.40625 
Q 37.984375 18.0625 35.515625 20.015625 
Q 33.0625 21.96875 24.703125 23.78125 
L 21.578125 24.515625 
Q 13.234375 26.265625 9.515625 29.90625 
Q 5.8125 33.546875 5.8125 39.890625 
Q 5.8125 47.609375 11.28125 51.796875 
Q 16.75 56 26.8125 56 
Q 31.78125 56 36.171875 55.265625 
Q 40.578125 54.546875 44.28125 53.078125 
" id="BitstreamVeraSans-Roman-73"/>
      <path id="BitstreamVeraSans-Roman-20"/>
      <path d="M 18.109375 8.203125 
L 18.109375 -20.796875 
L 9.078125 -20.796875 
L 9.078125 54.6875 
L 18.109375 54.6875 
L 18.109375 46.390625 
Q 20.953125 51.265625 25.265625 53.625 
Q 29.59375 56 35.59375 56 
Q 45.5625 56 51.78125 48.09375 
Q 58.015625 40.1875 58.015625 27.296875 
Q 58.015625 14.40625 51.78125 6.484375 
Q 45.5625 -1.421875 35.59375 -1.421875 
Q 29.59375 -1.421875 25.265625 0.953125 
Q 20.953125 3.328125 18.109375 8.203125 
M 48.6875 27.296875 
Q 48.6875 37.203125 44.609375 42.84375 
Q 40.53125 48.484375 33.40625 48.484375 
Q 26.265625 48.484375 22.1875 42.84375 
Q 18.109375 37.203125 18.109375 27.296875 
Q 18.109375 17.390625 22.1875 11.75 
Q 26.265625 6.109375 33.40625 6.109375 
Q 40.53125 6.109375 44.609375 11.75 
Q 48.6875 17.390625 48.6875 27.296875 
" id="BitstreamVeraSans-Roman-70"/>
      <path d="M 9.421875 54.6875 
L 18.40625 54.6875 
L 18.40625 0 
L 9.421875 0 
z
M 9.421875 75.984375 
L 18.40625 75.984375 
L 18.40625 64.59375 
L 9.421875 64.59375 
z
" id="BitstreamVeraSans-Roman-69"/>
      <path d="M 64.40625 67.28125 
L 64.40625 56.890625 
Q 59.421875 61.53125 53.78125 63.8125 
Q 48.140625 66.109375 41.796875 66.109375 
Q 29.296875 66.109375 22.65625 58.46875 
Q 16.015625 50.828125 16.015625 36.375 
Q 16.015625 21.96875 22.65625 14.328125 
Q 29.296875 6.6875 41.796875 6.6875 
Q 48.140625 6.6875 53.78125 8.984375 
Q 59.421875 11.28125 64.40625 15.921875 
L 64.40625 5.609375 
Q 59.234375 2.09375 53.4375 0.328125 
Q 47.65625 -1.421875 41.21875 -1.421875 
Q 24.65625 -1.421875 15.125 8.703125 
Q 5.609375 18.84375 5.609375 36.375 
Q 5.609375 53.953125 15.125 64.078125 
Q 24.65625 74.21875 41.21875 74.21875 
Q 47.75 74.21875 53.53125 72.484375 
Q 59.328125 70.75 64.40625 67.28125 
" id="BitstreamVeraSans-Roman-43"/>
      <path d="M 18.3125 70.21875 
L 18.3125 54.6875 
L 36.8125 54.6875 
L 36.8125 47.703125 
L 18.3125 47.703125 
L 18.3125 18.015625 
Q 18.3125 11.328125 20.140625 9.421875 
Q 21.96875 7.515625 27.59375 7.515625 
L 36.8125 7.515625 
L 36.8125 0 
L 27.59375 0 
Q 17.1875 0 13.234375 3.875 
Q 9.28125 7.765625 9.28125 18.015625 
L 9.28125 47.703125 
L 2.6875 47.703125 
L 2.6875 54.6875 
L 9.28125 54.6875 
L 9.28125 70.21875 
z
" id="BitstreamVeraSans-Roman-74"/>
     </defs>
     <g style="fill:#262626;" transform="translate(73.6163125 157.300375)scale(0.08800000000000001 -0.08800000000000001)">
      <use xlink:href="#BitstreamVeraSans-Roman-70"/>
      <use x="63.4765625" xlink:href="#BitstreamVeraSans-Roman-6f"/>
      <use x="124.658203125" xlink:href="#BitstreamVeraSans-Roman-73"/>
      <use x="176.7578125" xlink:href="#BitstreamVeraSans-Roman-74"/>
      <use x="215.966796875" xlink:href="#BitstreamVeraSans-Roman-65"/>
      <use x="277.490234375" xlink:href="#BitstreamVeraSans-Roman-72"/>
      <use x="318.603515625" xlink:href="#BitstreamVeraSans-Roman-69"/>
      <use x="346.38671875" xlink:href="#BitstreamVeraSans-Roman-6f"/>
      <use x="407.568359375" xlink:href="#BitstreamVeraSans-Roman-72"/>
      <use x="448.681640625" xlink:href="#BitstreamVeraSans-Roman-20"/>
      <use x="480.46875" xlink:href="#BitstreamVeraSans-Roman-43"/>
      <use x="550.29296875" xlink:href="#BitstreamVeraSans-Roman-56"/>
     </g>
    </g>
   </g>
   <g id="matplotlib.axis_2">
    <g id="ytick_1">
     <g id="line2d_7">
      <defs>
       <path d="M 0 0 
L -6 0 
" id="md4c69e25f3" style="stroke:#262626;stroke-width:0.8;"/>
      </defs>
      <g>
       <use style="fill:#262626;stroke:#262626;stroke-width:0.8;" x="45.03925" xlink:href="#md4c69e25f3" y="126.27125"/>
      </g>
     </g>
     <g id="text_8">
      <!-- 0.0 -->
      <g style="fill:#262626;" transform="translate(20.71675 128.47875)scale(0.08 -0.08)">
       <use xlink:href="#BitstreamVeraSans-Roman-30"/>
       <use x="63.623046875" xlink:href="#BitstreamVeraSans-Roman-2e"/>
       <use x="95.41015625" xlink:href="#BitstreamVeraSans-Roman-30"/>
      </g>
     </g>
    </g>
    <g id="ytick_2">
     <g id="line2d_8">
      <g>
       <use style="fill:#262626;stroke:#262626;stroke-width:0.8;" x="45.03925" xlink:href="#md4c69e25f3" y="103.23125"/>
      </g>
     </g>
     <g id="text_9">
      <!-- 0.2 -->
      <g style="fill:#262626;" transform="translate(20.71675 105.43875)scale(0.08 -0.08)">
       <use xlink:href="#BitstreamVeraSans-Roman-30"/>
       <use x="63.623046875" xlink:href="#BitstreamVeraSans-Roman-2e"/>
       <use x="95.41015625" xlink:href="#BitstreamVeraSans-Roman-32"/>
      </g>
     </g>
    </g>
    <g id="ytick_3">
     <g id="line2d_9">
      <g>
       <use style="fill:#262626;stroke:#262626;stroke-width:0.8;" x="45.03925" xlink:href="#md4c69e25f3" y="80.19125"/>
      </g>
     </g>
     <g id="text_10">
      <!-- 0.4 -->
      <g style="fill:#262626;" transform="translate(20.71675 82.39875)scale(0.08 -0.08)">
       <use xlink:href="#BitstreamVeraSans-Roman-30"/>
       <use x="63.623046875" xlink:href="#BitstreamVeraSans-Roman-2e"/>
       <use x="95.41015625" xlink:href="#BitstreamVeraSans-Roman-34"/>
      </g>
     </g>
    </g>
    <g id="ytick_4">
     <g id="line2d_10">
      <g>
       <use style="fill:#262626;stroke:#262626;stroke-width:0.8;" x="45.03925" xlink:href="#md4c69e25f3" y="57.15125"/>
      </g>
     </g>
     <g id="text_11">
      <!-- 0.6 -->
      <g style="fill:#262626;" transform="translate(20.71675 59.35875)scale(0.08 -0.08)">
       <use xlink:href="#BitstreamVeraSans-Roman-30"/>
       <use x="63.623046875" xlink:href="#BitstreamVeraSans-Roman-2e"/>
       <use x="95.41015625" xlink:href="#BitstreamVeraSans-Roman-36"/>
      </g>
     </g>
    </g>
    <g id="ytick_5">
     <g id="line2d_11">
      <g>
       <use style="fill:#262626;stroke:#262626;stroke-width:0.8;" x="45.03925" xlink:href="#md4c69e25f3" y="34.11125"/>
      </g>
     </g>
     <g id="text_12">
      <!-- 0.8 -->
      <g style="fill:#262626;" transform="translate(20.71675 36.31875)scale(0.08 -0.08)">
       <use xlink:href="#BitstreamVeraSans-Roman-30"/>
       <use x="63.623046875" xlink:href="#BitstreamVeraSans-Roman-2e"/>
       <use x="95.41015625" xlink:href="#BitstreamVeraSans-Roman-38"/>
      </g>
     </g>
    </g>
    <g id="ytick_6">
     <g id="line2d_12">
      <g>
       <use style="fill:#262626;stroke:#262626;stroke-width:0.8;" x="45.03925" xlink:href="#md4c69e25f3" y="11.07125"/>
      </g>
     </g>
     <g id="text_13">
      <!-- 1.0 -->
      <g style="fill:#262626;" transform="translate(20.71675 13.27875)scale(0.08 -0.08)">
       <use xlink:href="#BitstreamVeraSans-Roman-31"/>
       <use x="63.623046875" xlink:href="#BitstreamVeraSans-Roman-2e"/>
       <use x="95.41015625" xlink:href="#BitstreamVeraSans-Roman-30"/>
      </g>
     </g>
    </g>
    <g id="text_14">
     <!-- raw CV -->
     <defs>
      <path d="M 4.203125 54.6875 
L 13.1875 54.6875 
L 24.421875 12.015625 
L 35.59375 54.6875 
L 46.1875 54.6875 
L 57.421875 12.015625 
L 68.609375 54.6875 
L 77.59375 54.6875 
L 63.28125 0 
L 52.6875 0 
L 40.921875 44.828125 
L 29.109375 0 
L 18.5 0 
z
" id="BitstreamVeraSans-Roman-77"/>
      <path d="M 34.28125 27.484375 
Q 23.390625 27.484375 19.1875 25 
Q 14.984375 22.515625 14.984375 16.5 
Q 14.984375 11.71875 18.140625 8.90625 
Q 21.296875 6.109375 26.703125 6.109375 
Q 34.1875 6.109375 38.703125 11.40625 
Q 43.21875 16.703125 43.21875 25.484375 
L 43.21875 27.484375 
z
M 52.203125 31.203125 
L 52.203125 0 
L 43.21875 0 
L 43.21875 8.296875 
Q 40.140625 3.328125 35.546875 0.953125 
Q 30.953125 -1.421875 24.3125 -1.421875 
Q 15.921875 -1.421875 10.953125 3.296875 
Q 6 8.015625 6 15.921875 
Q 6 25.140625 12.171875 29.828125 
Q 18.359375 34.515625 30.609375 34.515625 
L 43.21875 34.515625 
L 43.21875 35.40625 
Q 43.21875 41.609375 39.140625 45 
Q 35.0625 48.390625 27.6875 48.390625 
Q 23 48.390625 18.546875 47.265625 
Q 14.109375 46.140625 10.015625 43.890625 
L 10.015625 52.203125 
Q 14.9375 54.109375 19.578125 55.046875 
Q 24.21875 56 28.609375 56 
Q 40.484375 56 46.34375 49.84375 
Q 52.203125 43.703125 52.203125 31.203125 
" id="BitstreamVeraSans-Roman-61"/>
     </defs>
     <g style="fill:#262626;" transform="translate(13.886625 84.2555)rotate(-90.0)scale(0.08800000000000001 -0.08800000000000001)">
      <use xlink:href="#BitstreamVeraSans-Roman-72"/>
      <use x="41.11328125" xlink:href="#BitstreamVeraSans-Roman-61"/>
      <use x="102.392578125" xlink:href="#BitstreamVeraSans-Roman-77"/>
      <use x="184.1796875" xlink:href="#BitstreamVeraSans-Roman-20"/>
      <use x="215.966796875" xlink:href="#BitstreamVeraSans-Roman-43"/>
      <use x="285.791015625" xlink:href="#BitstreamVeraSans-Roman-56"/>
     </g>
    </g>
   </g>
   <g id="PathCollection_1">
    <defs>
     <path d="M 0 0.707107 
C 0.187527 0.707107 0.367398 0.632602 0.5 0.5 
C 0.632602 0.367398 0.707107 0.187527 0.707107 0 
C 0.707107 -0.187527 0.632602 -0.367398 0.5 -0.5 
C 0.367398 -0.632602 0.187527 -0.707107 0 -0.707107 
C -0.187527 -0.707107 -0.367398 -0.632602 -0.5 -0.5 
C -0.632602 -0.367398 -0.707107 -0.187527 -0.707107 0 
C -0.707107 0.187527 -0.632602 0.367398 -0.5 0.5 
C -0.367398 0.632602 -0.187527 0.707107 0 0.707107 
z
" id="m9e20d7c3f6" style="stroke:#000000;stroke-opacity:0.6;stroke-width:0.24;"/>
    </defs>
    <g clip-path="url(#pbb7ded878d)">
     <use style="fill-opacity:0.6;stroke:#000000;stroke-opacity:0.6;stroke-width:0.24;" x="147.71125" xlink:href="#m9e20d7c3f6" y="16.439119737"/>
     <use style="fill-opacity:0.6;stroke:#000000;stroke-opacity:0.6;stroke-width:0.24;" x="119.81125" xlink:href="#m9e20d7c3f6" y="54.3353279509"/>
     <use style="fill-opacity:0.6;stroke:#000000;stroke-opacity:0.6;stroke-width:0.24;" x="113.11525" xlink:href="#m9e20d7c3f6" y="43.3889421727"/>
     <use style="fill-opacity:0.6;stroke:#000000;stroke-opacity:0.6;stroke-width:0.24;" x="116.617299479" xlink:href="#m9e20d7c3f6" y="-1.0"/>
     <use style="fill-opacity:0.6;stroke:#000000;stroke-opacity:0.6;stroke-width:0.24;" x="116.196524082" xlink:href="#m9e20d7c3f6" y="-1.0"/>
     <use style="fill-opacity:0.6;stroke:#000000;stroke-opacity:0.6;stroke-width:0.24;" x="108.65125" xlink:href="#m9e20d7c3f6" y="65.5340818868"/>
     <use style="fill-opacity:0.6;stroke:#000000;stroke-opacity:0.6;stroke-width:0.24;" x="110.88325" xlink:href="#m9e20d7c3f6" y="46.9580083312"/>
     <use style="fill-opacity:0.6;stroke:#000000;stroke-opacity:0.6;stroke-width:0.24;" x="108.65125" xlink:href="#m9e20d7c3f6" y="53.6051333614"/>
     <use style="fill-opacity:0.6;stroke:#000000;stroke-opacity:0.6;stroke-width:0.24;" x="105.30325" xlink:href="#m9e20d7c3f6" y="38.7552988033"/>
     <use style="fill-opacity:0.6;stroke:#000000;stroke-opacity:0.6;stroke-width:0.24;" x="104.18725" xlink:href="#m9e20d7c3f6" y="71.6494301527"/>
     <use style="fill-opacity:0.6;stroke:#000000;stroke-opacity:0.6;stroke-width:0.24;" x="104.18725" xlink:href="#m9e20d7c3f6" y="47.1692487149"/>
     <use style="fill-opacity:0.6;stroke:#000000;stroke-opacity:0.6;stroke-width:0.24;" x="103.07125" xlink:href="#m9e20d7c3f6" y="51.8129169684"/>
     <use style="fill-opacity:0.6;stroke:#000000;stroke-opacity:0.6;stroke-width:0.24;" x="101.95525" xlink:href="#m9e20d7c3f6" y="74.5040745638"/>
     <use style="fill-opacity:0.6;stroke:#000000;stroke-opacity:0.6;stroke-width:0.24;" x="101.95525" xlink:href="#m9e20d7c3f6" y="44.3931010582"/>
     <use style="fill-opacity:0.6;stroke:#000000;stroke-opacity:0.6;stroke-width:0.24;" x="99.72325" xlink:href="#m9e20d7c3f6" y="43.1210067339"/>
     <use style="fill-opacity:0.6;stroke:#000000;stroke-opacity:0.6;stroke-width:0.24;" x="99.72325" xlink:href="#m9e20d7c3f6" y="71.4688022347"/>
     <use style="fill-opacity:0.6;stroke:#000000;stroke-opacity:0.6;stroke-width:0.24;" x="98.60725" xlink:href="#m9e20d7c3f6" y="68.9534769053"/>
     <use style="fill-opacity:0.6;stroke:#000000;stroke-opacity:0.6;stroke-width:0.24;" x="98.60725" xlink:href="#m9e20d7c3f6" y="83.9476727478"/>
     <use style="fill-opacity:0.6;stroke:#000000;stroke-opacity:0.6;stroke-width:0.24;" x="97.49125" xlink:href="#m9e20d7c3f6" y="75.6321736238"/>
     <use style="fill-opacity:0.6;stroke:#000000;stroke-opacity:0.6;stroke-width:0.24;" x="96.37525" xlink:href="#m9e20d7c3f6" y="71.5879523668"/>
     <use style="fill-opacity:0.6;stroke:#000000;stroke-opacity:0.6;stroke-width:0.24;" x="96.37525" xlink:href="#m9e20d7c3f6" y="78.1559122691"/>
     <use style="fill-opacity:0.6;stroke:#000000;stroke-opacity:0.6;stroke-width:0.24;" x="94.14325" xlink:href="#m9e20d7c3f6" y="53.0268154259"/>
     <use style="fill-opacity:0.6;stroke:#000000;stroke-opacity:0.6;stroke-width:0.24;" x="96.37525" xlink:href="#m9e20d7c3f6" y="78.0384062586"/>
     <use style="fill-opacity:0.6;stroke:#000000;stroke-opacity:0.6;stroke-width:0.24;" x="97.49125" xlink:href="#m9e20d7c3f6" y="82.2157190536"/>
     <use style="fill-opacity:0.6;stroke:#000000;stroke-opacity:0.6;stroke-width:0.24;" x="95.25925" xlink:href="#m9e20d7c3f6" y="58.3125135392"/>
     <use style="fill-opacity:0.6;stroke:#000000;stroke-opacity:0.6;stroke-width:0.24;" x="95.25925" xlink:href="#m9e20d7c3f6" y="84.84041138"/>
     <use style="fill-opacity:0.6;stroke:#000000;stroke-opacity:0.6;stroke-width:0.24;" x="95.25925" xlink:href="#m9e20d7c3f6" y="81.0346248062"/>
     <use style="fill-opacity:0.6;stroke:#000000;stroke-opacity:0.6;stroke-width:0.24;" x="90.79525" xlink:href="#m9e20d7c3f6" y="44.2188130999"/>
     <use style="fill-opacity:0.6;stroke:#000000;stroke-opacity:0.6;stroke-width:0.24;" x="94.14325" xlink:href="#m9e20d7c3f6" y="80.2023264132"/>
     <use style="fill-opacity:0.6;stroke:#000000;stroke-opacity:0.6;stroke-width:0.24;" x="95.25925" xlink:href="#m9e20d7c3f6" y="72.1428549402"/>
     <use style="fill-opacity:0.6;stroke:#000000;stroke-opacity:0.6;stroke-width:0.24;" x="94.14325" xlink:href="#m9e20d7c3f6" y="74.6582834162"/>
     <use style="fill-opacity:0.6;stroke:#000000;stroke-opacity:0.6;stroke-width:0.24;" x="93.02725" xlink:href="#m9e20d7c3f6" y="56.8834061259"/>
     <use style="fill-opacity:0.6;stroke:#000000;stroke-opacity:0.6;stroke-width:0.24;" x="96.37525" xlink:href="#m9e20d7c3f6" y="52.6075591055"/>
     <use style="fill-opacity:0.6;stroke:#000000;stroke-opacity:0.6;stroke-width:0.24;" x="95.25925" xlink:href="#m9e20d7c3f6" y="88.3667625738"/>
     <use style="fill-opacity:0.6;stroke:#000000;stroke-opacity:0.6;stroke-width:0.24;" x="96.37525" xlink:href="#m9e20d7c3f6" y="79.9648086478"/>
     <use style="fill-opacity:0.6;stroke:#000000;stroke-opacity:0.6;stroke-width:0.24;" x="93.02725" xlink:href="#m9e20d7c3f6" y="66.3553636226"/>
     <use style="fill-opacity:0.6;stroke:#000000;stroke-opacity:0.6;stroke-width:0.24;" x="94.14325" xlink:href="#m9e20d7c3f6" y="80.2931926731"/>
     <use style="fill-opacity:0.6;stroke:#000000;stroke-opacity:0.6;stroke-width:0.24;" x="93.02725" xlink:href="#m9e20d7c3f6" y="80.2897697748"/>
     <use style="fill-opacity:0.6;stroke:#000000;stroke-opacity:0.6;stroke-width:0.24;" x="94.14325" xlink:href="#m9e20d7c3f6" y="87.3972925793"/>
     <use style="fill-opacity:0.6;stroke:#000000;stroke-opacity:0.6;stroke-width:0.24;" x="96.37525" xlink:href="#m9e20d7c3f6" y="88.8099822437"/>
     <use style="fill-opacity:0.6;stroke:#000000;stroke-opacity:0.6;stroke-width:0.24;" x="94.14325" xlink:href="#m9e20d7c3f6" y="89.0013457202"/>
     <use style="fill-opacity:0.6;stroke:#000000;stroke-opacity:0.6;stroke-width:0.24;" x="93.02725" xlink:href="#m9e20d7c3f6" y="54.8423343777"/>
     <use style="fill-opacity:0.6;stroke:#000000;stroke-opacity:0.6;stroke-width:0.24;" x="93.02725" xlink:href="#m9e20d7c3f6" y="61.090641737"/>
     <use style="fill-opacity:0.6;stroke:#000000;stroke-opacity:0.6;stroke-width:0.24;" x="90.79525" xlink:href="#m9e20d7c3f6" y="93.0590457038"/>
     <use style="fill-opacity:0.6;stroke:#000000;stroke-opacity:0.6;stroke-width:0.24;" x="93.02725" xlink:href="#m9e20d7c3f6" y="77.8142463572"/>
     <use style="fill-opacity:0.6;stroke:#000000;stroke-opacity:0.6;stroke-width:0.24;" x="93.02725" xlink:href="#m9e20d7c3f6" y="84.1848994057"/>
     <use style="fill-opacity:0.6;stroke:#000000;stroke-opacity:0.6;stroke-width:0.24;" x="93.02725" xlink:href="#m9e20d7c3f6" y="79.9759093037"/>
     <use style="fill-opacity:0.6;stroke:#000000;stroke-opacity:0.6;stroke-width:0.24;" x="91.91125" xlink:href="#m9e20d7c3f6" y="80.6443326839"/>
     <use style="fill-opacity:0.6;stroke:#000000;stroke-opacity:0.6;stroke-width:0.24;" x="90.79525" xlink:href="#m9e20d7c3f6" y="77.9570159864"/>
     <use style="fill-opacity:0.6;stroke:#000000;stroke-opacity:0.6;stroke-width:0.24;" x="88.56325" xlink:href="#m9e20d7c3f6" y="78.5185191384"/>
     <use style="fill-opacity:0.6;stroke:#000000;stroke-opacity:0.6;stroke-width:0.24;" x="88.56325" xlink:href="#m9e20d7c3f6" y="53.9113001844"/>
     <use style="fill-opacity:0.6;stroke:#000000;stroke-opacity:0.6;stroke-width:0.24;" x="89.67925" xlink:href="#m9e20d7c3f6" y="83.2985947952"/>
     <use style="fill-opacity:0.6;stroke:#000000;stroke-opacity:0.6;stroke-width:0.24;" x="93.02725" xlink:href="#m9e20d7c3f6" y="67.6073096091"/>
     <use style="fill-opacity:0.6;stroke:#000000;stroke-opacity:0.6;stroke-width:0.24;" x="93.02725" xlink:href="#m9e20d7c3f6" y="88.8982419624"/>
     <use style="fill-opacity:0.6;stroke:#000000;stroke-opacity:0.6;stroke-width:0.24;" x="90.79525" xlink:href="#m9e20d7c3f6" y="63.5401227198"/>
     <use style="fill-opacity:0.6;stroke:#000000;stroke-opacity:0.6;stroke-width:0.24;" x="90.79525" xlink:href="#m9e20d7c3f6" y="66.8849477677"/>
     <use style="fill-opacity:0.6;stroke:#000000;stroke-opacity:0.6;stroke-width:0.24;" x="89.67925" xlink:href="#m9e20d7c3f6" y="77.9003597623"/>
     <use style="fill-opacity:0.6;stroke:#000000;stroke-opacity:0.6;stroke-width:0.24;" x="78.51925" xlink:href="#m9e20d7c3f6" y="90.1356114611"/>
     <use style="fill-opacity:0.6;stroke:#000000;stroke-opacity:0.6;stroke-width:0.24;" x="90.79525" xlink:href="#m9e20d7c3f6" y="73.153159924"/>
     <use style="fill-opacity:0.6;stroke:#000000;stroke-opacity:0.6;stroke-width:0.24;" x="74.05525" xlink:href="#m9e20d7c3f6" y="89.5243812306"/>
     <use style="fill-opacity:0.6;stroke:#000000;stroke-opacity:0.6;stroke-width:0.24;" x="88.56325" xlink:href="#m9e20d7c3f6" y="78.839505888"/>
     <use style="fill-opacity:0.6;stroke:#000000;stroke-opacity:0.6;stroke-width:0.24;" x="93.02725" xlink:href="#m9e20d7c3f6" y="59.3531419712"/>
     <use style="fill-opacity:0.6;stroke:#000000;stroke-opacity:0.6;stroke-width:0.24;" x="75.17125" xlink:href="#m9e20d7c3f6" y="90.8347959247"/>
     <use style="fill-opacity:0.6;stroke:#000000;stroke-opacity:0.6;stroke-width:0.24;" x="75.17125" xlink:href="#m9e20d7c3f6" y="87.3791194531"/>
     <use style="fill-opacity:0.6;stroke:#000000;stroke-opacity:0.6;stroke-width:0.24;" x="78.51925" xlink:href="#m9e20d7c3f6" y="82.1750104144"/>
     <use style="fill-opacity:0.6;stroke:#000000;stroke-opacity:0.6;stroke-width:0.24;" x="77.40325" xlink:href="#m9e20d7c3f6" y="98.7121904398"/>
     <use style="fill-opacity:0.6;stroke:#000000;stroke-opacity:0.6;stroke-width:0.24;" x="90.79525" xlink:href="#m9e20d7c3f6" y="79.5045450327"/>
     <use style="fill-opacity:0.6;stroke:#000000;stroke-opacity:0.6;stroke-width:0.24;" x="67.35925" xlink:href="#m9e20d7c3f6" y="103.801653188"/>
     <use style="fill-opacity:0.6;stroke:#000000;stroke-opacity:0.6;stroke-width:0.24;" x="69.59125" xlink:href="#m9e20d7c3f6" y="91.7000216306"/>
     <use style="fill-opacity:0.6;stroke:#000000;stroke-opacity:0.6;stroke-width:0.24;" x="84.09925" xlink:href="#m9e20d7c3f6" y="95.3903816362"/>
     <use style="fill-opacity:0.6;stroke:#000000;stroke-opacity:0.6;stroke-width:0.24;" x="69.59125" xlink:href="#m9e20d7c3f6" y="87.6174200458"/>
     <use style="fill-opacity:0.6;stroke:#000000;stroke-opacity:0.6;stroke-width:0.24;" x="77.40325" xlink:href="#m9e20d7c3f6" y="89.2973560917"/>
     <use style="fill-opacity:0.6;stroke:#000000;stroke-opacity:0.6;stroke-width:0.24;" x="87.44725" xlink:href="#m9e20d7c3f6" y="81.4047047545"/>
     <use style="fill-opacity:0.6;stroke:#000000;stroke-opacity:0.6;stroke-width:0.24;" x="87.44725" xlink:href="#m9e20d7c3f6" y="98.7448007051"/>
     <use style="fill-opacity:0.6;stroke:#000000;stroke-opacity:0.6;stroke-width:0.24;" x="71.82325" xlink:href="#m9e20d7c3f6" y="99.0804227632"/>
     <use style="fill-opacity:0.6;stroke:#000000;stroke-opacity:0.6;stroke-width:0.24;" x="85.21525" xlink:href="#m9e20d7c3f6" y="69.9051757432"/>
     <use style="fill-opacity:0.6;stroke:#000000;stroke-opacity:0.6;stroke-width:0.24;" x="88.56325" xlink:href="#m9e20d7c3f6" y="87.0055009608"/>
     <use style="fill-opacity:0.6;stroke:#000000;stroke-opacity:0.6;stroke-width:0.24;" x="68.47525" xlink:href="#m9e20d7c3f6" y="110.039997514"/>
     <use style="fill-opacity:0.6;stroke:#000000;stroke-opacity:0.6;stroke-width:0.24;" x="72.93925" xlink:href="#m9e20d7c3f6" y="102.103158302"/>
     <use style="fill-opacity:0.6;stroke:#000000;stroke-opacity:0.6;stroke-width:0.24;" x="79.63525" xlink:href="#m9e20d7c3f6" y="90.4275276025"/>
     <use style="fill-opacity:0.6;stroke:#000000;stroke-opacity:0.6;stroke-width:0.24;" x="81.86725" xlink:href="#m9e20d7c3f6" y="80.8851470379"/>
     <use style="fill-opacity:0.6;stroke:#000000;stroke-opacity:0.6;stroke-width:0.24;" x="80.75125" xlink:href="#m9e20d7c3f6" y="109.045122767"/>
     <use style="fill-opacity:0.6;stroke:#000000;stroke-opacity:0.6;stroke-width:0.24;" x="89.67925" xlink:href="#m9e20d7c3f6" y="78.2622251234"/>
     <use style="fill-opacity:0.6;stroke:#000000;stroke-opacity:0.6;stroke-width:0.24;" x="70.70725" xlink:href="#m9e20d7c3f6" y="112.965314834"/>
     <use style="fill-opacity:0.6;stroke:#000000;stroke-opacity:0.6;stroke-width:0.24;" x="84.09925" xlink:href="#m9e20d7c3f6" y="74.7752611635"/>
     <use style="fill-opacity:0.6;stroke:#000000;stroke-opacity:0.6;stroke-width:0.24;" x="82.98325" xlink:href="#m9e20d7c3f6" y="85.1122771708"/>
     <use style="fill-opacity:0.6;stroke:#000000;stroke-opacity:0.6;stroke-width:0.24;" x="79.63525" xlink:href="#m9e20d7c3f6" y="97.867286369"/>
     <use style="fill-opacity:0.6;stroke:#000000;stroke-opacity:0.6;stroke-width:0.24;" x="77.40325" xlink:href="#m9e20d7c3f6" y="101.46356731"/>
     <use style="fill-opacity:0.6;stroke:#000000;stroke-opacity:0.6;stroke-width:0.24;" x="84.09925" xlink:href="#m9e20d7c3f6" y="94.5087913823"/>
     <use style="fill-opacity:0.6;stroke:#000000;stroke-opacity:0.6;stroke-width:0.24;" x="79.63525" xlink:href="#m9e20d7c3f6" y="89.6228832084"/>
     <use style="fill-opacity:0.6;stroke:#000000;stroke-opacity:0.6;stroke-width:0.24;" x="75.17125" xlink:href="#m9e20d7c3f6" y="103.691120104"/>
     <use style="fill-opacity:0.6;stroke:#000000;stroke-opacity:0.6;stroke-width:0.24;" x="90.79525" xlink:href="#m9e20d7c3f6" y="91.8163628747"/>
     <use style="fill-opacity:0.6;stroke:#000000;stroke-opacity:0.6;stroke-width:0.24;" x="82.98325" xlink:href="#m9e20d7c3f6" y="81.3183350868"/>
     <use style="fill-opacity:0.6;stroke:#000000;stroke-opacity:0.6;stroke-width:0.24;" x="87.44725" xlink:href="#m9e20d7c3f6" y="100.379197314"/>
     <use style="fill-opacity:0.6;stroke:#000000;stroke-opacity:0.6;stroke-width:0.24;" x="81.86725" xlink:href="#m9e20d7c3f6" y="101.352882298"/>
     <use style="fill-opacity:0.6;stroke:#000000;stroke-opacity:0.6;stroke-width:0.24;" x="85.21525" xlink:href="#m9e20d7c3f6" y="79.1623135314"/>
     <use style="fill-opacity:0.6;stroke:#000000;stroke-opacity:0.6;stroke-width:0.24;" x="82.98325" xlink:href="#m9e20d7c3f6" y="75.5891045835"/>
     <use style="fill-opacity:0.6;stroke:#000000;stroke-opacity:0.6;stroke-width:0.24;" x="84.09925" xlink:href="#m9e20d7c3f6" y="78.2388942566"/>
     <use style="fill-opacity:0.6;stroke:#000000;stroke-opacity:0.6;stroke-width:0.24;" x="72.93925" xlink:href="#m9e20d7c3f6" y="85.6106962042"/>
     <use style="fill-opacity:0.6;stroke:#000000;stroke-opacity:0.6;stroke-width:0.24;" x="70.70725" xlink:href="#m9e20d7c3f6" y="97.3908379291"/>
     <use style="fill-opacity:0.6;stroke:#000000;stroke-opacity:0.6;stroke-width:0.24;" x="89.67925" xlink:href="#m9e20d7c3f6" y="74.594317081"/>
     <use style="fill-opacity:0.6;stroke:#000000;stroke-opacity:0.6;stroke-width:0.24;" x="85.21525" xlink:href="#m9e20d7c3f6" y="79.1337478717"/>
     <use style="fill-opacity:0.6;stroke:#000000;stroke-opacity:0.6;stroke-width:0.24;" x="88.56325" xlink:href="#m9e20d7c3f6" y="93.5495733913"/>
     <use style="fill-opacity:0.6;stroke:#000000;stroke-opacity:0.6;stroke-width:0.24;" x="86.33125" xlink:href="#m9e20d7c3f6" y="88.0074328326"/>
     <use style="fill-opacity:0.6;stroke:#000000;stroke-opacity:0.6;stroke-width:0.24;" x="84.09925" xlink:href="#m9e20d7c3f6" y="80.6973797493"/>
     <use style="fill-opacity:0.6;stroke:#000000;stroke-opacity:0.6;stroke-width:0.24;" x="79.63525" xlink:href="#m9e20d7c3f6" y="98.529957237"/>
     <use style="fill-opacity:0.6;stroke:#000000;stroke-opacity:0.6;stroke-width:0.24;" x="76.28725" xlink:href="#m9e20d7c3f6" y="104.351187863"/>
     <use style="fill-opacity:0.6;stroke:#000000;stroke-opacity:0.6;stroke-width:0.24;" x="81.86725" xlink:href="#m9e20d7c3f6" y="69.7817345413"/>
     <use style="fill-opacity:0.6;stroke:#000000;stroke-opacity:0.6;stroke-width:0.24;" x="81.86725" xlink:href="#m9e20d7c3f6" y="93.0565730969"/>
     <use style="fill-opacity:0.6;stroke:#000000;stroke-opacity:0.6;stroke-width:0.24;" x="81.86725" xlink:href="#m9e20d7c3f6" y="65.1845202834"/>
     <use style="fill-opacity:0.6;stroke:#000000;stroke-opacity:0.6;stroke-width:0.24;" x="69.59125" xlink:href="#m9e20d7c3f6" y="92.8867772368"/>
     <use style="fill-opacity:0.6;stroke:#000000;stroke-opacity:0.6;stroke-width:0.24;" x="88.56325" xlink:href="#m9e20d7c3f6" y="91.139076928"/>
     <use style="fill-opacity:0.6;stroke:#000000;stroke-opacity:0.6;stroke-width:0.24;" x="79.63525" xlink:href="#m9e20d7c3f6" y="69.3022752844"/>
     <use style="fill-opacity:0.6;stroke:#000000;stroke-opacity:0.6;stroke-width:0.24;" x="86.33125" xlink:href="#m9e20d7c3f6" y="91.0293256057"/>
     <use style="fill-opacity:0.6;stroke:#000000;stroke-opacity:0.6;stroke-width:0.24;" x="88.56325" xlink:href="#m9e20d7c3f6" y="82.0028973917"/>
     <use style="fill-opacity:0.6;stroke:#000000;stroke-opacity:0.6;stroke-width:0.24;" x="80.75125" xlink:href="#m9e20d7c3f6" y="95.3056540044"/>
     <use style="fill-opacity:0.6;stroke:#000000;stroke-opacity:0.6;stroke-width:0.24;" x="87.44725" xlink:href="#m9e20d7c3f6" y="63.4934359071"/>
     <use style="fill-opacity:0.6;stroke:#000000;stroke-opacity:0.6;stroke-width:0.24;" x="86.33125" xlink:href="#m9e20d7c3f6" y="90.8597030959"/>
     <use style="fill-opacity:0.6;stroke:#000000;stroke-opacity:0.6;stroke-width:0.24;" x="88.56325" xlink:href="#m9e20d7c3f6" y="85.6839233919"/>
     <use style="fill-opacity:0.6;stroke:#000000;stroke-opacity:0.6;stroke-width:0.24;" x="86.33125" xlink:href="#m9e20d7c3f6" y="81.0138159058"/>
     <use style="fill-opacity:0.6;stroke:#000000;stroke-opacity:0.6;stroke-width:0.24;" x="78.51925" xlink:href="#m9e20d7c3f6" y="80.2444216098"/>
     <use style="fill-opacity:0.6;stroke:#000000;stroke-opacity:0.6;stroke-width:0.24;" x="77.40325" xlink:href="#m9e20d7c3f6" y="97.1728353205"/>
     <use style="fill-opacity:0.6;stroke:#000000;stroke-opacity:0.6;stroke-width:0.24;" x="82.98325" xlink:href="#m9e20d7c3f6" y="60.3378952479"/>
     <use style="fill-opacity:0.6;stroke:#000000;stroke-opacity:0.6;stroke-width:0.24;" x="81.86725" xlink:href="#m9e20d7c3f6" y="95.6073412125"/>
     <use style="fill-opacity:0.6;stroke:#000000;stroke-opacity:0.6;stroke-width:0.24;" x="86.33125" xlink:href="#m9e20d7c3f6" y="80.9452546758"/>
     <use style="fill-opacity:0.6;stroke:#000000;stroke-opacity:0.6;stroke-width:0.24;" x="88.56325" xlink:href="#m9e20d7c3f6" y="77.9389974218"/>
     <use style="fill-opacity:0.6;stroke:#000000;stroke-opacity:0.6;stroke-width:0.24;" x="82.98325" xlink:href="#m9e20d7c3f6" y="112.696557709"/>
     <use style="fill-opacity:0.6;stroke:#000000;stroke-opacity:0.6;stroke-width:0.24;" x="79.63525" xlink:href="#m9e20d7c3f6" y="98.1666363532"/>
     <use style="fill-opacity:0.6;stroke:#000000;stroke-opacity:0.6;stroke-width:0.24;" x="87.44725" xlink:href="#m9e20d7c3f6" y="81.0378577546"/>
     <use style="fill-opacity:0.6;stroke:#000000;stroke-opacity:0.6;stroke-width:0.24;" x="88.56325" xlink:href="#m9e20d7c3f6" y="79.2582315009"/>
     <use style="fill-opacity:0.6;stroke:#000000;stroke-opacity:0.6;stroke-width:0.24;" x="88.56325" xlink:href="#m9e20d7c3f6" y="91.1911181475"/>
     <use style="fill-opacity:0.6;stroke:#000000;stroke-opacity:0.6;stroke-width:0.24;" x="82.98325" xlink:href="#m9e20d7c3f6" y="90.7433820538"/>
     <use style="fill-opacity:0.6;stroke:#000000;stroke-opacity:0.6;stroke-width:0.24;" x="77.40325" xlink:href="#m9e20d7c3f6" y="86.9776579109"/>
     <use style="fill-opacity:0.6;stroke:#000000;stroke-opacity:0.6;stroke-width:0.24;" x="71.82325" xlink:href="#m9e20d7c3f6" y="96.5020056154"/>
     <use style="fill-opacity:0.6;stroke:#000000;stroke-opacity:0.6;stroke-width:0.24;" x="76.28725" xlink:href="#m9e20d7c3f6" y="91.8182360936"/>
     <use style="fill-opacity:0.6;stroke:#000000;stroke-opacity:0.6;stroke-width:0.24;" x="81.86725" xlink:href="#m9e20d7c3f6" y="67.8548424983"/>
     <use style="fill-opacity:0.6;stroke:#000000;stroke-opacity:0.6;stroke-width:0.24;" x="77.40325" xlink:href="#m9e20d7c3f6" y="65.5590743694"/>
     <use style="fill-opacity:0.6;stroke:#000000;stroke-opacity:0.6;stroke-width:0.24;" x="84.09925" xlink:href="#m9e20d7c3f6" y="98.8729965665"/>
     <use style="fill-opacity:0.6;stroke:#000000;stroke-opacity:0.6;stroke-width:0.24;" x="86.33125" xlink:href="#m9e20d7c3f6" y="84.7753532731"/>
     <use style="fill-opacity:0.6;stroke:#000000;stroke-opacity:0.6;stroke-width:0.24;" x="84.09925" xlink:href="#m9e20d7c3f6" y="67.8836907166"/>
     <use style="fill-opacity:0.6;stroke:#000000;stroke-opacity:0.6;stroke-width:0.24;" x="84.09925" xlink:href="#m9e20d7c3f6" y="70.2306453649"/>
    </g>
   </g>
   <g id="line2d_13">
    <path clip-path="url(#pbb7ded878d)" d="M 45.03925 126.27125 
L 156.63925 11.07125 
" style="fill:none;stroke:#ff0000;stroke-dasharray:6.000000,6.000000;stroke-dashoffset:0.0;stroke-width:1.4000000000000001;"/>
   </g>
   <g id="patch_3">
    <path d="M 45.03925 126.27125 
L 156.63925 126.27125 
" style="fill:none;stroke:#262626;stroke-linecap:square;stroke-linejoin:miter;stroke-width:1.25;"/>
   </g>
   <g id="patch_4">
    <path d="M 45.03925 126.27125 
L 45.03925 11.07125 
" style="fill:none;stroke:#262626;stroke-linecap:square;stroke-linejoin:miter;stroke-width:1.25;"/>
   </g>
  </g>
 </g>
 <defs>
  <clipPath id="pbb7ded878d">
   <rect height="115.2" width="111.6" x="45.03925" y="11.07125"/>
  </clipPath>
 </defs>
</svg>
