<?xml version="1.0" encoding="UTF-8" standalone="no"?>
<!-- Created with Inkscape (http://www.inkscape.org/) -->

<svg
   xmlns:dc="http://purl.org/dc/elements/1.1/"
   xmlns:cc="http://creativecommons.org/ns#"
   xmlns:rdf="http://www.w3.org/1999/02/22-rdf-syntax-ns#"
   xmlns:svg="http://www.w3.org/2000/svg"
   xmlns="http://www.w3.org/2000/svg"
   xmlns:sodipodi="http://sodipodi.sourceforge.net/DTD/sodipodi-0.dtd"
   xmlns:inkscape="http://www.inkscape.org/namespaces/inkscape"
   width="160.68141mm"
   height="39.208942mm"
   viewBox="0 0 569.34358 138.92932"
   id="svg3467"
   version="1.1"
   inkscape:version="0.91 r13725"
   sodipodi:docname="events.svg">
  <defs
     id="defs3469" />
  <sodipodi:namedview
     id="base"
     pagecolor="#ffffff"
     bordercolor="#666666"
     borderopacity="1.0"
     inkscape:pageopacity="0.0"
     inkscape:pageshadow="2"
     inkscape:zoom="1.4"
     inkscape:cx="168.62771"
     inkscape:cy="101.8015"
     inkscape:document-units="px"
     inkscape:current-layer="layer1"
     showgrid="false"
     showguides="true"
     inkscape:guide-bbox="true"
     fit-margin-top="0"
     fit-margin-left="0"
     fit-margin-right="0"
     fit-margin-bottom="0"
     inkscape:window-width="1600"
     inkscape:window-height="845"
     inkscape:window-x="0"
     inkscape:window-y="27"
     inkscape:window-maximized="1">
    <sodipodi:guide
       position="168.5168,133.94436"
       orientation="1,0"
       id="guide3802" />
    <sodipodi:guide
       position="400.65963,151.80151"
       orientation="1,0"
       id="guide3808" />
    <sodipodi:guide
       position="222.80252,138.94436"
       orientation="0,1"
       id="guide3810" />
    <sodipodi:guide
       position="192.80252,81.087222"
       orientation="0,1"
       id="guide3812" />
  </sodipodi:namedview>
  <metadata
     id="metadata3472">
    <rdf:RDF>
      <cc:Work
         rdf:about="">
        <dc:format>image/svg+xml</dc:format>
        <dc:type
           rdf:resource="http://purl.org/dc/dcmitype/StillImage" />
        <dc:title></dc:title>
      </cc:Work>
    </rdf:RDF>
  </metadata>
  <g
     inkscape:label="Layer 1"
     inkscape:groupmode="layer"
     id="layer1"
     transform="translate(-80.054588,-180.94867)">
    <g
       transform="matrix(0.56338198,1.1158408,1.1158408,-0.56338198,57.657711,146.48655)"
       id="g3725">
      <g
         id="g162"
         transform="matrix(1,0,0,-1,0,146)">
        <path
           d="m 136.902,18.934 -2.324,2.324 4.645,4.64 -4.645,4.645 4.645,4.641 -2.5,2.5 0,1.074"
           style="fill:none;stroke:#000000;stroke-width:1;stroke-linecap:butt;stroke-linejoin:miter;stroke-miterlimit:4;stroke-dasharray:none;stroke-opacity:1"
           id="path164"
           inkscape:connector-curvature="0" />
      </g>
      <g
         id="g166"
         transform="matrix(0,-1,-1,0,0,146)">
        <path
           d="m 41.063,-136.723 -3.458,2 0,-4 3.458,2 z"
           style="fill:#000000;fill-opacity:1;fill-rule:evenodd;stroke:#000000;stroke-width:0.5;stroke-linecap:butt;stroke-linejoin:miter;stroke-miterlimit:4;stroke-dasharray:none;stroke-opacity:1"
           id="path168"
           inkscape:connector-curvature="0" />
      </g>
    </g>
    <g
       style="font-style:normal;font-weight:normal;font-size:16.25px;line-height:125%;font-family:sans-serif;letter-spacing:0px;word-spacing:0px;fill:#000000;fill-opacity:1;stroke:none;stroke-width:1px;stroke-linecap:butt;stroke-linejoin:miter;stroke-opacity:1"
       id="text3766">
      <path
         d="m 285.00925,210.27794 q -1.71387,0 -2.58179,1.69189 -0.85693,1.68091 -0.85693,5.0647 0,3.3728 0.85693,5.0647 0.86792,1.68091 2.58179,1.68091 1.72485,0 2.58178,-1.68091 0.86792,-1.6919 0.86792,-5.0647 0,-3.38379 -0.86792,-5.0647 -0.85693,-1.69189 -2.58178,-1.69189 z m 0,-1.75781 q 2.75757,0 4.20776,2.18628 1.46118,2.17529 1.46118,6.32812 0,4.14185 -1.46118,6.32813 -1.45019,2.17529 -4.20776,2.17529 -2.75757,0 -4.21875,-2.17529 -1.4502,-2.18628 -1.4502,-6.32813 0,-4.15283 1.4502,-6.32812 1.46118,-2.18628 4.21875,-2.18628 z"
         style="font-size:22.5px"
         id="path3576"
         inkscape:connector-curvature="0" />
      <path
         d="m 299.33542,210.27794 q -1.71387,0 -2.58179,1.69189 -0.85693,1.68091 -0.85693,5.0647 0,3.3728 0.85693,5.0647 0.86792,1.68091 2.58179,1.68091 1.72485,0 2.58179,-1.68091 0.86792,-1.6919 0.86792,-5.0647 0,-3.38379 -0.86792,-5.0647 -0.85694,-1.69189 -2.58179,-1.69189 z m 0,-1.75781 q 2.75757,0 4.20776,2.18628 1.46118,2.17529 1.46118,6.32812 0,4.14185 -1.46118,6.32813 -1.45019,2.17529 -4.20776,2.17529 -2.75757,0 -4.21875,-2.17529 -1.4502,-2.18628 -1.4502,-6.32813 0,-4.15283 1.4502,-6.32812 1.46118,-2.18628 4.21875,-2.18628 z"
         style="font-size:22.5px"
         id="path3578"
         inkscape:connector-curvature="0" />
      <path
         d="m 313.66159,210.27794 q -1.71387,0 -2.58179,1.69189 -0.85693,1.68091 -0.85693,5.0647 0,3.3728 0.85693,5.0647 0.86792,1.68091 2.58179,1.68091 1.72485,0 2.58179,-1.68091 0.86792,-1.6919 0.86792,-5.0647 0,-3.38379 -0.86792,-5.0647 -0.85694,-1.69189 -2.58179,-1.69189 z m 0,-1.75781 q 2.75757,0 4.20776,2.18628 1.46119,2.17529 1.46119,6.32812 0,4.14185 -1.46119,6.32813 -1.45019,2.17529 -4.20776,2.17529 -2.75757,0 -4.21875,-2.17529 -1.45019,-2.18628 -1.45019,-6.32813 0,-4.15283 1.45019,-6.32812 1.46118,-2.18628 4.21875,-2.18628 z"
         style="font-size:22.5px"
         id="path3580"
         inkscape:connector-curvature="0" />
      <path
         d="m 323.62619,223.35167 3.62549,0 0,-12.51343 -3.94409,0.79102 0,-2.02149 3.92212,-0.79101 2.21923,0 0,14.53491 3.62549,0 0,1.86768 -9.44824,0 0,-1.86768 z"
         style="font-size:22.5px"
         id="path3582"
         inkscape:connector-curvature="0" />
      <path
         d="m 342.31393,210.27794 q -1.71386,0 -2.58178,1.69189 -0.85694,1.68091 -0.85694,5.0647 0,3.3728 0.85694,5.0647 0.86792,1.68091 2.58178,1.68091 1.72486,0 2.58179,-1.68091 0.86792,-1.6919 0.86792,-5.0647 0,-3.38379 -0.86792,-5.0647 -0.85693,-1.69189 -2.58179,-1.69189 z m 0,-1.75781 q 2.75757,0 4.20777,2.18628 1.46118,2.17529 1.46118,6.32812 0,4.14185 -1.46118,6.32813 -1.4502,2.17529 -4.20777,2.17529 -2.75756,0 -4.21875,-2.17529 -1.45019,-2.18628 -1.45019,-6.32813 0,-4.15283 1.45019,-6.32812 1.46119,-2.18628 4.21875,-2.18628 z"
         style="font-size:22.5px"
         id="path3584"
         inkscape:connector-curvature="0" />
      <path
         d="m 356.64011,210.27794 q -1.71387,0 -2.58179,1.69189 -0.85693,1.68091 -0.85693,5.0647 0,3.3728 0.85693,5.0647 0.86792,1.68091 2.58179,1.68091 1.72485,0 2.58178,-1.68091 0.86792,-1.6919 0.86792,-5.0647 0,-3.38379 -0.86792,-5.0647 -0.85693,-1.69189 -2.58178,-1.69189 z m 0,-1.75781 q 2.75756,0 4.20776,2.18628 1.46118,2.17529 1.46118,6.32812 0,4.14185 -1.46118,6.32813 -1.4502,2.17529 -4.20776,2.17529 -2.75757,0 -4.21875,-2.17529 -1.4502,-2.18628 -1.4502,-6.32813 0,-4.15283 1.4502,-6.32812 1.46118,-2.18628 4.21875,-2.18628 z"
         style="font-size:22.5px"
         id="path3586"
         inkscape:connector-curvature="0" />
      <path
         d="m 366.60471,223.35167 3.62548,0 0,-12.51343 -3.94409,0.79102 0,-2.02149 3.92212,-0.79101 2.21924,0 0,14.53491 3.62549,0 0,1.86768 -9.44824,0 0,-1.86768 z"
         style="font-size:22.5px"
         id="path3588"
         inkscape:connector-curvature="0" />
      <path
         d="m 380.93088,223.35167 3.62549,0 0,-12.51343 -3.9441,0.79102 0,-2.02149 3.92212,-0.79101 2.21924,0 0,14.53491 3.62549,0 0,1.86768 -9.44824,0 0,-1.86768 z"
         style="font-size:22.5px"
         id="path3590"
         inkscape:connector-curvature="0" />
      <path
         d="m 399.61862,210.27794 q -1.71387,0 -2.58179,1.69189 -0.85693,1.68091 -0.85693,5.0647 0,3.3728 0.85693,5.0647 0.86792,1.68091 2.58179,1.68091 1.72486,0 2.58179,-1.68091 0.86792,-1.6919 0.86792,-5.0647 0,-3.38379 -0.86792,-5.0647 -0.85693,-1.69189 -2.58179,-1.69189 z m 0,-1.75781 q 2.75757,0 4.20777,2.18628 1.46118,2.17529 1.46118,6.32812 0,4.14185 -1.46118,6.32813 -1.4502,2.17529 -4.20777,2.17529 -2.75757,0 -4.21875,-2.17529 -1.45019,-2.18628 -1.45019,-6.32813 0,-4.15283 1.45019,-6.32812 1.46118,-2.18628 4.21875,-2.18628 z"
         style="font-size:22.5px"
         id="path3592"
         inkscape:connector-curvature="0" />
      <path
         d="m 413.94479,210.27794 q -1.71386,0 -2.58178,1.69189 -0.85694,1.68091 -0.85694,5.0647 0,3.3728 0.85694,5.0647 0.86792,1.68091 2.58178,1.68091 1.72486,0 2.58179,-1.68091 0.86792,-1.6919 0.86792,-5.0647 0,-3.38379 -0.86792,-5.0647 -0.85693,-1.69189 -2.58179,-1.69189 z m 0,-1.75781 q 2.75757,0 4.20777,2.18628 1.46118,2.17529 1.46118,6.32812 0,4.14185 -1.46118,6.32813 -1.4502,2.17529 -4.20777,2.17529 -2.75756,0 -4.21875,-2.17529 -1.45019,-2.18628 -1.45019,-6.32813 0,-4.15283 1.45019,-6.32812 1.46119,-2.18628 4.21875,-2.18628 z"
         style="font-size:22.5px"
         id="path3594"
         inkscape:connector-curvature="0" />
      <path
         d="m 428.27097,210.27794 q -1.71387,0 -2.58179,1.69189 -0.85694,1.68091 -0.85694,5.0647 0,3.3728 0.85694,5.0647 0.86792,1.68091 2.58179,1.68091 1.72485,0 2.58178,-1.68091 0.86792,-1.6919 0.86792,-5.0647 0,-3.38379 -0.86792,-5.0647 -0.85693,-1.69189 -2.58178,-1.69189 z m 0,-1.75781 q 2.75756,0 4.20776,2.18628 1.46118,2.17529 1.46118,6.32812 0,4.14185 -1.46118,6.32813 -1.4502,2.17529 -4.20776,2.17529 -2.75757,0 -4.21875,-2.17529 -1.4502,-2.18628 -1.4502,-6.32813 0,-4.15283 1.4502,-6.32812 1.46118,-2.18628 4.21875,-2.18628 z"
         style="font-size:22.5px"
         id="path3596"
         inkscape:connector-curvature="0" />
      <path
         d="m 438.23557,223.35167 3.62548,0 0,-12.51343 -3.94409,0.79102 0,-2.02149 3.92212,-0.79101 2.21924,0 0,14.53491 3.62549,0 0,1.86768 -9.44824,0 0,-1.86768 z"
         style="font-size:22.5px"
         id="path3598"
         inkscape:connector-curvature="0" />
    </g>
    <g
       style="font-style:normal;font-weight:normal;font-size:16.25px;line-height:125%;font-family:sans-serif;letter-spacing:0px;word-spacing:0px;fill:#000000;fill-opacity:1;stroke:none;stroke-width:1px;stroke-linecap:butt;stroke-linejoin:miter;stroke-opacity:1"
       id="text3770">
      <path
         d="m 85.723534,240.42075 q -1.713868,0 -2.581787,1.69189 -0.856934,1.68091 -0.856934,5.0647 0,3.3728 0.856934,5.06469 0.867919,1.68091 2.581787,1.68091 1.724853,0 2.581787,-1.68091 0.86792,-1.69189 0.86792,-5.06469 0,-3.38379 -0.86792,-5.0647 -0.856934,-1.69189 -2.581787,-1.69189 z m 0,-1.75782 q 2.757568,0 4.207763,2.18628 1.461182,2.1753 1.461182,6.32813 0,4.14184 -1.461182,6.32812 -1.450195,2.1753 -4.207763,2.1753 -2.757569,0 -4.21875,-2.1753 -1.450196,-2.18628 -1.450196,-6.32812 0,-4.15283 1.450196,-6.32813 1.461181,-2.18628 4.21875,-2.18628 z"
         style="font-size:22.5px"
         id="path3601"
         inkscape:connector-curvature="0" />
      <path
         d="m 100.04971,240.42075 q -1.713872,0 -2.581792,1.69189 -0.856933,1.68091 -0.856933,5.0647 0,3.3728 0.856933,5.06469 0.86792,1.68091 2.581792,1.68091 1.72485,0 2.58178,-1.68091 0.86792,-1.69189 0.86792,-5.06469 0,-3.38379 -0.86792,-5.0647 -0.85693,-1.69189 -2.58178,-1.69189 z m 0,-1.75782 q 2.75756,0 4.20776,2.18628 1.46118,2.1753 1.46118,6.32813 0,4.14184 -1.46118,6.32812 -1.4502,2.1753 -4.20776,2.1753 -2.757573,0 -4.218754,-2.1753 -1.450196,-2.18628 -1.450196,-6.32812 0,-4.15283 1.450196,-6.32813 1.461181,-2.18628 4.218754,-2.18628 z"
         style="font-size:22.5px"
         id="path3603"
         inkscape:connector-curvature="0" />
      <path
         d="m 114.37588,240.42075 q -1.71387,0 -2.58179,1.69189 -0.85693,1.68091 -0.85693,5.0647 0,3.3728 0.85693,5.06469 0.86792,1.68091 2.58179,1.68091 1.72485,0 2.58178,-1.68091 0.86792,-1.69189 0.86792,-5.06469 0,-3.38379 -0.86792,-5.0647 -0.85693,-1.69189 -2.58178,-1.69189 z m 0,-1.75782 q 2.75757,0 4.20776,2.18628 1.46118,2.1753 1.46118,6.32813 0,4.14184 -1.46118,6.32812 -1.45019,2.1753 -4.20776,2.1753 -2.75757,0 -4.21875,-2.1753 -1.4502,-2.18628 -1.4502,-6.32812 0,-4.15283 1.4502,-6.32813 1.46118,-2.18628 4.21875,-2.18628 z"
         style="font-size:22.5px"
         id="path3605"
         inkscape:connector-curvature="0" />
      <path
         d="m 124.34048,253.49448 3.62549,0 0,-12.51343 -3.9441,0.79101 0,-2.02148 3.92212,-0.79102 2.21924,0 0,14.53492 3.62549,0 0,1.86767 -9.44824,0 0,-1.86767 z"
         style="font-size:22.5px"
         id="path3607"
         inkscape:connector-curvature="0" />
      <path
         d="m 143.02822,240.42075 q -1.71387,0 -2.58179,1.69189 -0.85693,1.68091 -0.85693,5.0647 0,3.3728 0.85693,5.06469 0.86792,1.68091 2.58179,1.68091 1.72485,0 2.58179,-1.68091 0.86792,-1.69189 0.86792,-5.06469 0,-3.38379 -0.86792,-5.0647 -0.85694,-1.69189 -2.58179,-1.69189 z m 0,-1.75782 q 2.75757,0 4.20776,2.18628 1.46119,2.1753 1.46119,6.32813 0,4.14184 -1.46119,6.32812 -1.45019,2.1753 -4.20776,2.1753 -2.75757,0 -4.21875,-2.1753 -1.45019,-2.18628 -1.45019,-6.32812 0,-4.15283 1.45019,-6.32813 1.46118,-2.18628 4.21875,-2.18628 z"
         style="font-size:22.5px"
         id="path3609"
         inkscape:connector-curvature="0" />
      <path
         d="m 157.35439,240.42075 q -1.71386,0 -2.58178,1.69189 -0.85694,1.68091 -0.85694,5.0647 0,3.3728 0.85694,5.06469 0.86792,1.68091 2.58178,1.68091 1.72486,0 2.58179,-1.68091 0.86792,-1.69189 0.86792,-5.06469 0,-3.38379 -0.86792,-5.0647 -0.85693,-1.69189 -2.58179,-1.69189 z m 0,-1.75782 q 2.75757,0 4.20777,2.18628 1.46118,2.1753 1.46118,6.32813 0,4.14184 -1.46118,6.32812 -1.4502,2.1753 -4.20777,2.1753 -2.75757,0 -4.21875,-2.1753 -1.45019,-2.18628 -1.45019,-6.32812 0,-4.15283 1.45019,-6.32813 1.46118,-2.18628 4.21875,-2.18628 z"
         style="font-size:22.5px"
         id="path3611"
         inkscape:connector-curvature="0" />
      <path
         d="m 167.31899,253.49448 3.62549,0 0,-12.51343 -3.94409,0.79101 0,-2.02148 3.92212,-0.79102 2.21924,0 0,14.53492 3.62548,0 0,1.86767 -9.44824,0 0,-1.86767 z"
         style="font-size:22.5px"
         id="path3613"
         inkscape:connector-curvature="0" />
      <path
         d="m 186.00674,240.42075 q -1.71387,0 -2.58179,1.69189 -0.85693,1.68091 -0.85693,5.0647 0,3.3728 0.85693,5.06469 0.86792,1.68091 2.58179,1.68091 1.72485,0 2.58178,-1.68091 0.86792,-1.69189 0.86792,-5.06469 0,-3.38379 -0.86792,-5.0647 -0.85693,-1.69189 -2.58178,-1.69189 z m 0,-1.75782 q 2.75757,0 4.20776,2.18628 1.46118,2.1753 1.46118,6.32813 0,4.14184 -1.46118,6.32812 -1.45019,2.1753 -4.20776,2.1753 -2.75757,0 -4.21875,-2.1753 -1.4502,-2.18628 -1.4502,-6.32812 0,-4.15283 1.4502,-6.32813 1.46118,-2.18628 4.21875,-2.18628 z"
         style="fill:#ff0000"
         id="path3615"
         inkscape:connector-curvature="0" />
      <path
         d="m 200.33291,240.42075 q -1.71387,0 -2.58179,1.69189 -0.85693,1.68091 -0.85693,5.0647 0,3.3728 0.85693,5.06469 0.86792,1.68091 2.58179,1.68091 1.72485,0 2.58179,-1.68091 0.86792,-1.69189 0.86792,-5.06469 0,-3.38379 -0.86792,-5.0647 -0.85694,-1.69189 -2.58179,-1.69189 z m 0,-1.75782 q 2.75757,0 4.20776,2.18628 1.46118,2.1753 1.46118,6.32813 0,4.14184 -1.46118,6.32812 -1.45019,2.1753 -4.20776,2.1753 -2.75757,0 -4.21875,-2.1753 -1.4502,-2.18628 -1.4502,-6.32812 0,-4.15283 1.4502,-6.32813 1.46118,-2.18628 4.21875,-2.18628 z"
         style="font-size:22.5px"
         id="path3617"
         inkscape:connector-curvature="0" />
      <path
         d="m 214.65908,240.42075 q -1.71387,0 -2.58179,1.69189 -0.85693,1.68091 -0.85693,5.0647 0,3.3728 0.85693,5.06469 0.86792,1.68091 2.58179,1.68091 1.72485,0 2.58179,-1.68091 0.86792,-1.69189 0.86792,-5.06469 0,-3.38379 -0.86792,-5.0647 -0.85694,-1.69189 -2.58179,-1.69189 z m 0,-1.75782 q 2.75757,0 4.20776,2.18628 1.46119,2.1753 1.46119,6.32813 0,4.14184 -1.46119,6.32812 -1.45019,2.1753 -4.20776,2.1753 -2.75757,0 -4.21875,-2.1753 -1.45019,-2.18628 -1.45019,-6.32812 0,-4.15283 1.45019,-6.32813 1.46118,-2.18628 4.21875,-2.18628 z"
         style="font-size:22.5px"
         id="path3619"
         inkscape:connector-curvature="0" />
      <path
         d="m 228.98525,240.42075 q -1.71386,0 -2.58178,1.69189 -0.85694,1.68091 -0.85694,5.0647 0,3.3728 0.85694,5.06469 0.86792,1.68091 2.58178,1.68091 1.72486,0 2.58179,-1.68091 0.86792,-1.69189 0.86792,-5.06469 0,-3.38379 -0.86792,-5.0647 -0.85693,-1.69189 -2.58179,-1.69189 z m 0,-1.75782 q 2.75757,0 4.20777,2.18628 1.46118,2.1753 1.46118,6.32813 0,4.14184 -1.46118,6.32812 -1.4502,2.1753 -4.20777,2.1753 -2.75757,0 -4.21875,-2.1753 -1.45019,-2.18628 -1.45019,-6.32812 0,-4.15283 1.45019,-6.32813 1.46118,-2.18628 4.21875,-2.18628 z"
         style="font-size:22.5px"
         id="path3621"
         inkscape:connector-curvature="0" />
      <path
         d="m 238.94985,253.49448 3.62549,0 0,-12.51343 -3.94409,0.79101 0,-2.02148 3.92212,-0.79102 2.21924,0 0,14.53492 3.62548,0 0,1.86767 -9.44824,0 0,-1.86767 z"
         style="font-size:22.5px"
         id="path3623"
         inkscape:connector-curvature="0" />
    </g>
    <g
       style="font-style:normal;font-weight:normal;font-size:16.25px;line-height:125%;font-family:sans-serif;letter-spacing:1px;word-spacing:0px;fill:#666666;fill-opacity:1;stroke:none;stroke-width:1px;stroke-linecap:butt;stroke-linejoin:miter;stroke-opacity:1"
       id="text3776"
       transform="matrix(1.5902941,0,0,1.5902941,-47.331142,-158.48798)">
      <g
         id="g3508"
         transform="matrix(0.75000001,0,0,0.75000001,20.045575,67.969495)">
        <path
           inkscape:connector-curvature="0"
           id="path3626"
           style="letter-spacing:0px;fill:#666666"
           d="m 87.212334,263.10236 0,1.36474 q -0.618897,-0.34118 -1.245728,-0.50781 -0.618896,-0.17456 -1.253662,-0.17456 -1.420288,0 -2.205811,0.90454 -0.785522,0.89661 -0.785522,2.52319 0,1.62659 0.785522,2.53113 0.785523,0.89661 2.205811,0.89661 0.634766,0 1.253662,-0.16663 0.626831,-0.17456 1.245728,-0.51575 l 0,1.34888 q -0.610962,0.28565 -1.269532,0.42847 -0.650634,0.14282 -1.388549,0.14282 -2.007447,0 -3.189698,-1.2616 -1.182251,-1.26159 -1.182251,-3.40393 0,-2.17407 1.190186,-3.4198 1.19812,-1.24572 3.276977,-1.24572 0.674439,0 1.317139,0.14282 0.6427,0.13489 1.245728,0.4126 z" />
        <path
           inkscape:connector-curvature="0"
           id="path3628"
           style="letter-spacing:0px;fill:#666666"
           d="m 93.210869,263.78473 q -1.174317,0 -1.85669,0.92041 -0.682373,0.91247 -0.682373,2.50732 0,1.59485 0.674439,2.51526 0.682373,0.91248 1.864624,0.91248 1.166382,0 1.848755,-0.92041 0.682373,-0.92041 0.682373,-2.50733 0,-1.57898 -0.682373,-2.49939 -0.682373,-0.92834 -1.848755,-0.92834 z m 0,-1.23779 q 1.904297,0 2.991333,1.23779 1.087036,1.23779 1.087036,3.42773 0,2.18201 -1.087036,3.42774 -1.087036,1.23779 -2.991333,1.23779 -1.912232,0 -2.999268,-1.23779 -1.079101,-1.24573 -1.079101,-3.42774 0,-2.18994 1.079101,-3.42773 1.087036,-1.23779 2.999268,-1.23779 z" />
        <path
           inkscape:connector-curvature="0"
           id="path3630"
           style="letter-spacing:0px;fill:#666666"
           d="m 104.85088,264.12592 q -0.24597,-0.14283 -0.53955,-0.2063 -0.28564,-0.0714 -0.63476,-0.0714 -1.2378,0 -1.9043,0.80932 -0.65857,0.80139 -0.65857,2.30896 l 0,4.6814 -1.467895,0 0,-8.88672 1.467895,0 0,1.38061 q 0.46021,-0.80932 1.19812,-1.19812 0.73792,-0.39672 1.79321,-0.39672 0.15076,0 0.33326,0.0238 0.18249,0.0159 0.40466,0.0555 l 0.008,1.49964 z" />
        <path
           inkscape:connector-curvature="0"
           id="path3632"
           style="letter-spacing:0px;fill:#666666"
           d="m 111.26202,264.12592 q -0.24598,-0.14283 -0.53955,-0.2063 -0.28565,-0.0714 -0.63477,-0.0714 -1.23779,0 -1.9043,0.80932 -0.65857,0.80139 -0.65857,2.30896 l 0,4.6814 -1.46789,0 0,-8.88672 1.46789,0 0,1.38061 q 0.46021,-0.80932 1.19812,-1.19812 0.73792,-0.39672 1.79322,-0.39672 0.15075,0 0.33325,0.0238 0.18249,0.0159 0.40466,0.0555 l 0.008,1.49964 z" />
        <path
           inkscape:connector-curvature="0"
           id="path3634"
           style="letter-spacing:0px;fill:#666666"
           d="m 120.06145,266.83954 0,0.71411 -6.71264,0 q 0.0952,1.50757 0.90454,2.30103 0.81726,0.78552 2.26929,0.78552 0.84106,0 1.62658,-0.2063 0.79346,-0.2063 1.57105,-0.6189 l 0,1.38062 q -0.78552,0.33325 -1.61072,0.50781 -0.82519,0.17456 -1.67419,0.17456 -2.12647,0 -3.3722,-1.23779 -1.23779,-1.2378 -1.23779,-3.34839 0,-2.18201 1.17432,-3.45947 1.18225,-1.2854 3.18176,-1.2854 1.79321,0 2.83264,1.15844 1.04736,1.15052 1.04736,3.13416 z m -1.45996,-0.42847 q -0.0159,-1.19812 -0.67443,-1.91223 -0.65064,-0.71411 -1.72974,-0.71411 -1.22192,0 -1.95984,0.69031 -0.72998,0.6903 -0.84106,1.94397 l 5.20507,-0.008 z" />
        <path
           inkscape:connector-curvature="0"
           id="path3636"
           style="letter-spacing:0px;fill:#666666"
           d="m 128.85296,263.10236 0,1.36474 q -0.6189,-0.34118 -1.24573,-0.50781 -0.6189,-0.17456 -1.25366,-0.17456 -1.42029,0 -2.20581,0.90454 -0.78552,0.89661 -0.78552,2.52319 0,1.62659 0.78552,2.53113 0.78552,0.89661 2.20581,0.89661 0.63476,0 1.25366,-0.16663 0.62683,-0.17456 1.24573,-0.51575 l 0,1.34888 q -0.61096,0.28565 -1.26953,0.42847 -0.65064,0.14282 -1.38855,0.14282 -2.00745,0 -3.1897,-1.2616 -1.18225,-1.26159 -1.18225,-3.40393 0,-2.17407 1.19018,-3.4198 1.19813,-1.24572 3.27698,-1.24572 0.67444,0 1.31714,0.14282 0.6427,0.13489 1.24573,0.4126 z" />
        <path
           inkscape:connector-curvature="0"
           id="path3638"
           style="letter-spacing:0px;fill:#666666"
           d="m 132.85198,260.23798 0,2.52319 3.0072,0 0,1.13464 -3.0072,0 0,4.82422 q 0,1.08704 0.29358,1.39649 0.30151,0.30944 1.21399,0.30944 l 1.49963,0 0,1.22193 -1.49963,0 q -1.69006,0 -2.33276,-0.62683 -0.6427,-0.63477 -0.6427,-2.30103 l 0,-4.82422 -1.07117,0 0,-1.13464 1.07117,0 0,-2.52319 1.46789,0 z" />
        <path
           inkscape:connector-curvature="0"
           id="path3640"
           style="letter-spacing:0px;fill:#666666"
           d="m 145.3886,266.83954 0,0.71411 -6.71264,0 q 0.0952,1.50757 0.90454,2.30103 0.81726,0.78552 2.26928,0.78552 0.84107,0 1.62659,-0.2063 0.79346,-0.2063 1.57105,-0.6189 l 0,1.38062 q -0.78553,0.33325 -1.61072,0.50781 -0.8252,0.17456 -1.6742,0.17456 -2.12646,0 -3.37219,-1.23779 -1.23779,-1.2378 -1.23779,-3.34839 0,-2.18201 1.17432,-3.45947 1.18225,-1.2854 3.18176,-1.2854 1.79321,0 2.83264,1.15844 1.04736,1.15052 1.04736,3.13416 z m -1.45996,-0.42847 q -0.0159,-1.19812 -0.67444,-1.91223 -0.65063,-0.71411 -1.72973,-0.71411 -1.22193,0 -1.95984,0.69031 -0.72998,0.6903 -0.84107,1.94397 l 5.20508,-0.008 z" />
        <path
           inkscape:connector-curvature="0"
           id="path3642"
           style="letter-spacing:0px;fill:#666666"
           d="m 153.63262,264.11005 0,-4.80835 1.45996,0 0,12.34619 -1.45996,0 0,-1.33301 q -0.4602,0.79346 -1.16638,1.18225 -0.69824,0.38086 -1.68213,0.38086 -1.61072,0 -2.62634,-1.2854 -1.00769,-1.2854 -1.00769,-3.38013 0,-2.09472 1.00769,-3.38012 1.01562,-1.2854 2.62634,-1.2854 0.98389,0 1.68213,0.38879 0.70618,0.38086 1.16638,1.17432 z m -4.97497,3.10241 q 0,1.61072 0.65857,2.53113 0.6665,0.91248 1.82495,0.91248 1.15844,0 1.82495,-0.91248 0.6665,-0.92041 0.6665,-2.53113 0,-1.61071 -0.6665,-2.52319 -0.66651,-0.92041 -1.82495,-0.92041 -1.15845,0 -1.82495,0.92041 -0.65857,0.91248 -0.65857,2.52319 z" />
        <path
           inkscape:connector-curvature="0"
           id="path3644"
           style="letter-spacing:0px;fill:#666666"
           d="m 169.66839,263.10236 0,1.36474 q -0.6189,-0.34118 -1.24573,-0.50781 -0.6189,-0.17456 -1.25366,-0.17456 -1.42029,0 -2.20581,0.90454 -0.78552,0.89661 -0.78552,2.52319 0,1.62659 0.78552,2.53113 0.78552,0.89661 2.20581,0.89661 0.63476,0 1.25366,-0.16663 0.62683,-0.17456 1.24573,-0.51575 l 0,1.34888 q -0.61096,0.28565 -1.26953,0.42847 -0.65064,0.14282 -1.38855,0.14282 -2.00745,0 -3.1897,-1.2616 -1.18225,-1.26159 -1.18225,-3.40393 0,-2.17407 1.19018,-3.4198 1.19812,-1.24572 3.27698,-1.24572 0.67444,0 1.31714,0.14282 0.6427,0.13489 1.24573,0.4126 z" />
        <path
           inkscape:connector-curvature="0"
           id="path3646"
           style="letter-spacing:0px;fill:#666666"
           d="m 176.26202,267.18073 q -1.76941,0 -2.45179,0.40466 -0.68237,0.40466 -0.68237,1.38061 0,0.77759 0.50781,1.2378 0.51575,0.45227 1.39649,0.45227 1.21399,0 1.94397,-0.85694 0.73791,-0.86486 0.73791,-2.29309 l 0,-0.32531 -1.45202,0 z m 2.91198,-0.60303 0,5.07019 -1.45996,0 0,-1.34888 q -0.49988,0.80933 -1.24572,1.19812 -0.74585,0.38086 -1.82496,0.38086 -1.36474,0 -2.17407,-0.76172 -0.80139,-0.76965 -0.80139,-2.05505 0,-1.49964 0.99976,-2.26135 1.00769,-0.76172 2.99926,-0.76172 l 2.04712,0 0,-0.14283 q 0,-1.00769 -0.6665,-1.55517 -0.65857,-0.55542 -1.85669,-0.55542 -0.76172,0 -1.48377,0.18249 -0.72204,0.1825 -1.38855,0.54749 l 0,-1.34888 q 0.8014,-0.30945 1.55518,-0.4602 0.75378,-0.15869 1.4679,-0.15869 1.9281,0 2.88025,0.99975 0.95214,0.99976 0.95214,3.03101 z" />
        <path
           inkscape:connector-curvature="0"
           id="path3648"
           style="letter-spacing:0px;fill:#666666"
           d="m 182.18914,259.3017 1.45996,0 0,12.34619 -1.45996,0 0,-12.34619 z" />
        <path
           inkscape:connector-curvature="0"
           id="path3650"
           style="letter-spacing:0px;fill:#666666"
           d="m 186.69598,259.3017 1.45996,0 0,12.34619 -1.45996,0 0,-12.34619 z" />
      </g>
    </g>
    <g
       style="font-style:normal;font-weight:normal;font-size:16.25px;line-height:125%;font-family:sans-serif;letter-spacing:0px;word-spacing:0px;fill:#000000;fill-opacity:1;stroke:none;stroke-width:1px;stroke-linecap:butt;stroke-linejoin:miter;stroke-opacity:1"
       id="text3780">
      <path
         d="m 486.29498,182.70648 q -1.71386,0 -2.58178,1.6919 -0.85694,1.6809 -0.85694,5.06469 0,3.37281 0.85694,5.0647 0.86792,1.68091 2.58178,1.68091 1.72486,0 2.58179,-1.68091 0.86792,-1.69189 0.86792,-5.0647 0,-3.38379 -0.86792,-5.06469 -0.85693,-1.6919 -2.58179,-1.6919 z m 0,-1.75781 q 2.75757,0 4.20777,2.18628 1.46118,2.17529 1.46118,6.32812 0,4.14185 -1.46118,6.32813 -1.4502,2.17529 -4.20777,2.17529 -2.75757,0 -4.21875,-2.17529 -1.45019,-2.18628 -1.45019,-6.32813 0,-4.15283 1.45019,-6.32812 1.46118,-2.18628 4.21875,-2.18628 z"
         style="font-size:22.5px"
         id="path3455"
         inkscape:connector-curvature="0" />
      <path
         d="m 496.25958,195.78021 3.62549,0 0,-12.51343 -3.94409,0.79102 0,-2.02148 3.92212,-0.79102 2.21924,0 0,14.53491 3.62548,0 0,1.86768 -9.44824,0 0,-1.86768 z"
         style="fill:#ff0000"
         id="path3457"
         inkscape:connector-curvature="0" />
      <path
         d="m 510.58575,195.78021 3.62549,0 0,-12.51343 -3.94409,0.79102 0,-2.02148 3.92212,-0.79102 2.21924,0 0,14.53491 3.62549,0 0,1.86768 -9.44825,0 0,-1.86768 z"
         style="fill:#ff0000"
         id="path3459"
         inkscape:connector-curvature="0" />
      <path
         d="m 529.2735,182.70648 q -1.71387,0 -2.58179,1.6919 -0.85693,1.6809 -0.85693,5.06469 0,3.37281 0.85693,5.0647 0.86792,1.68091 2.58179,1.68091 1.72485,0 2.58179,-1.68091 0.86792,-1.69189 0.86792,-5.0647 0,-3.38379 -0.86792,-5.06469 -0.85694,-1.6919 -2.58179,-1.6919 z m 0,-1.75781 q 2.75757,0 4.20776,2.18628 1.46118,2.17529 1.46118,6.32812 0,4.14185 -1.46118,6.32813 -1.45019,2.17529 -4.20776,2.17529 -2.75757,0 -4.21875,-2.17529 -1.4502,-2.18628 -1.4502,-6.32813 0,-4.15283 1.4502,-6.32812 1.46118,-2.18628 4.21875,-2.18628 z"
         style="fill:#ff0000"
         id="path3461"
         inkscape:connector-curvature="0" />
      <path
         d="m 543.59967,182.70648 q -1.71387,0 -2.58179,1.6919 -0.85693,1.6809 -0.85693,5.06469 0,3.37281 0.85693,5.0647 0.86792,1.68091 2.58179,1.68091 1.72485,0 2.58179,-1.68091 0.86792,-1.69189 0.86792,-5.0647 0,-3.38379 -0.86792,-5.06469 -0.85694,-1.6919 -2.58179,-1.6919 z m 0,-1.75781 q 2.75757,0 4.20776,2.18628 1.46119,2.17529 1.46119,6.32812 0,4.14185 -1.46119,6.32813 -1.45019,2.17529 -4.20776,2.17529 -2.75757,0 -4.21875,-2.17529 -1.45019,-2.18628 -1.45019,-6.32813 0,-4.15283 1.45019,-6.32812 1.46118,-2.18628 4.21875,-2.18628 z"
         style="font-size:22.5px"
         id="path3463"
         inkscape:connector-curvature="0" />
      <path
         d="m 557.92584,182.70648 q -1.71386,0 -2.58178,1.6919 -0.85694,1.6809 -0.85694,5.06469 0,3.37281 0.85694,5.0647 0.86792,1.68091 2.58178,1.68091 1.72486,0 2.58179,-1.68091 0.86792,-1.69189 0.86792,-5.0647 0,-3.38379 -0.86792,-5.06469 -0.85693,-1.6919 -2.58179,-1.6919 z m 0,-1.75781 q 2.75757,0 4.20777,2.18628 1.46118,2.17529 1.46118,6.32812 0,4.14185 -1.46118,6.32813 -1.4502,2.17529 -4.20777,2.17529 -2.75757,0 -4.21875,-2.17529 -1.45019,-2.18628 -1.45019,-6.32813 0,-4.15283 1.45019,-6.32812 1.46118,-2.18628 4.21875,-2.18628 z"
         style="font-size:22.5px"
         id="path3465"
         inkscape:connector-curvature="0" />
      <path
         d="m 572.25201,182.70648 q -1.71386,0 -2.58178,1.6919 -0.85694,1.6809 -0.85694,5.06469 0,3.37281 0.85694,5.0647 0.86792,1.68091 2.58178,1.68091 1.72486,0 2.58179,-1.68091 0.86792,-1.69189 0.86792,-5.0647 0,-3.38379 -0.86792,-5.06469 -0.85693,-1.6919 -2.58179,-1.6919 z m 0,-1.75781 q 2.75757,0 4.20777,2.18628 1.46118,2.17529 1.46118,6.32812 0,4.14185 -1.46118,6.32813 -1.4502,2.17529 -4.20777,2.17529 -2.75756,0 -4.21875,-2.17529 -1.45019,-2.18628 -1.45019,-6.32813 0,-4.15283 1.45019,-6.32812 1.46119,-2.18628 4.21875,-2.18628 z"
         style="fill:#ff0000"
         id="path3467"
         inkscape:connector-curvature="0" />
      <path
         d="m 582.21661,195.78021 3.62549,0 0,-12.51343 -3.94409,0.79102 0,-2.02148 3.92212,-0.79102 2.21924,0 0,14.53491 3.62549,0 0,1.86768 -9.44825,0 0,-1.86768 z"
         style="font-size:22.5px"
         id="path3469"
         inkscape:connector-curvature="0" />
      <path
         d="m 600.90436,182.70648 q -1.71387,0 -2.58179,1.6919 -0.85693,1.6809 -0.85693,5.06469 0,3.37281 0.85693,5.0647 0.86792,1.68091 2.58179,1.68091 1.72485,0 2.58179,-1.68091 0.86791,-1.69189 0.86791,-5.0647 0,-3.38379 -0.86791,-5.06469 -0.85694,-1.6919 -2.58179,-1.6919 z m 0,-1.75781 q 2.75757,0 4.20776,2.18628 1.46118,2.17529 1.46118,6.32812 0,4.14185 -1.46118,6.32813 -1.45019,2.17529 -4.20776,2.17529 -2.75757,0 -4.21875,-2.17529 -1.4502,-2.18628 -1.4502,-6.32813 0,-4.15283 1.4502,-6.32812 1.46118,-2.18628 4.21875,-2.18628 z"
         style="font-size:22.5px"
         id="path3471"
         inkscape:connector-curvature="0" />
      <path
         d="m 615.23053,182.70648 q -1.71387,0 -2.58179,1.6919 -0.85693,1.6809 -0.85693,5.06469 0,3.37281 0.85693,5.0647 0.86792,1.68091 2.58179,1.68091 1.72485,0 2.58179,-1.68091 0.86792,-1.69189 0.86792,-5.0647 0,-3.38379 -0.86792,-5.06469 -0.85694,-1.6919 -2.58179,-1.6919 z m 0,-1.75781 q 2.75757,0 4.20776,2.18628 1.46119,2.17529 1.46119,6.32812 0,4.14185 -1.46119,6.32813 -1.45019,2.17529 -4.20776,2.17529 -2.75757,0 -4.21875,-2.17529 -1.4502,-2.18628 -1.4502,-6.32813 0,-4.15283 1.4502,-6.32812 1.46118,-2.18628 4.21875,-2.18628 z"
         style="font-size:22.5px"
         id="path3473"
         inkscape:connector-curvature="0" />
      <path
         d="m 629.5567,182.70648 q -1.71387,0 -2.58179,1.6919 -0.85693,1.6809 -0.85693,5.06469 0,3.37281 0.85693,5.0647 0.86792,1.68091 2.58179,1.68091 1.72486,0 2.58179,-1.68091 0.86792,-1.69189 0.86792,-5.0647 0,-3.38379 -0.86792,-5.06469 -0.85693,-1.6919 -2.58179,-1.6919 z m 0,-1.75781 q 2.75757,0 4.20777,2.18628 1.46118,2.17529 1.46118,6.32812 0,4.14185 -1.46118,6.32813 -1.4502,2.17529 -4.20777,2.17529 -2.75757,0 -4.21875,-2.17529 -1.45019,-2.18628 -1.45019,-6.32813 0,-4.15283 1.45019,-6.32812 1.46118,-2.18628 4.21875,-2.18628 z"
         style="font-size:22.5px"
         id="path3475"
         inkscape:connector-curvature="0" />
      <path
         d="m 639.5213,195.78021 3.62549,0 0,-12.51343 -3.94409,0.79102 0,-2.02148 3.92212,-0.79102 2.21924,0 0,14.53491 3.62548,0 0,1.86768 -9.44824,0 0,-1.86768 z"
         style="font-size:22.5px"
         id="path3477"
         inkscape:connector-curvature="0" />
    </g>
    <g
       style="font-style:normal;font-weight:normal;font-size:16.25px;line-height:125%;font-family:sans-serif;letter-spacing:0px;word-spacing:0px;fill:#000000;fill-opacity:1;stroke:none;stroke-width:1px;stroke-linecap:butt;stroke-linejoin:miter;stroke-opacity:1"
       id="text3790">
      <path
         d="m 486.72363,240.70648 q -1.71386,0 -2.58178,1.6919 -0.85694,1.6809 -0.85694,5.06469 0,3.37281 0.85694,5.0647 0.86792,1.68091 2.58178,1.68091 1.72486,0 2.58179,-1.68091 0.86792,-1.69189 0.86792,-5.0647 0,-3.38379 -0.86792,-5.06469 -0.85693,-1.6919 -2.58179,-1.6919 z m 0,-1.75781 q 2.75757,0 4.20777,2.18628 1.46118,2.17529 1.46118,6.32812 0,4.14185 -1.46118,6.32813 -1.4502,2.17529 -4.20777,2.17529 -2.75757,0 -4.21875,-2.17529 -1.45019,-2.18628 -1.45019,-6.32813 0,-4.15283 1.45019,-6.32812 1.46118,-2.18628 4.21875,-2.18628 z"
         style="font-size:22.5px"
         id="path3480"
         inkscape:connector-curvature="0" />
      <path
         d="m 496.68823,253.78021 3.62549,0 0,-12.51343 -3.94409,0.79102 0,-2.02148 3.92212,-0.79102 2.21924,0 0,14.53491 3.62548,0 0,1.86768 -9.44824,0 0,-1.86768 z"
         style="fill:#ff0000"
         id="path3482"
         inkscape:connector-curvature="0" />
      <path
         d="m 511.0144,253.78021 3.62549,0 0,-12.51343 -3.94409,0.79102 0,-2.02148 3.92212,-0.79102 2.21924,0 0,14.53491 3.62549,0 0,1.86768 -9.44825,0 0,-1.86768 z"
         style="fill:#ff0000"
         id="path3484"
         inkscape:connector-curvature="0" />
      <path
         d="m 529.70215,240.70648 q -1.71387,0 -2.58179,1.6919 -0.85693,1.6809 -0.85693,5.06469 0,3.37281 0.85693,5.0647 0.86792,1.68091 2.58179,1.68091 1.72485,0 2.58179,-1.68091 0.86792,-1.69189 0.86792,-5.0647 0,-3.38379 -0.86792,-5.06469 -0.85694,-1.6919 -2.58179,-1.6919 z m 0,-1.75781 q 2.75757,0 4.20776,2.18628 1.46118,2.17529 1.46118,6.32812 0,4.14185 -1.46118,6.32813 -1.45019,2.17529 -4.20776,2.17529 -2.75757,0 -4.21875,-2.17529 -1.4502,-2.18628 -1.4502,-6.32813 0,-4.15283 1.4502,-6.32812 1.46118,-2.18628 4.21875,-2.18628 z"
         style="fill:#ff0000"
         id="path3486"
         inkscape:connector-curvature="0" />
      <path
         d="m 544.02832,240.70648 q -1.71387,0 -2.58179,1.6919 -0.85693,1.6809 -0.85693,5.06469 0,3.37281 0.85693,5.0647 0.86792,1.68091 2.58179,1.68091 1.72485,0 2.58179,-1.68091 0.86792,-1.69189 0.86792,-5.0647 0,-3.38379 -0.86792,-5.06469 -0.85694,-1.6919 -2.58179,-1.6919 z m 0,-1.75781 q 2.75757,0 4.20776,2.18628 1.46119,2.17529 1.46119,6.32812 0,4.14185 -1.46119,6.32813 -1.45019,2.17529 -4.20776,2.17529 -2.75757,0 -4.21875,-2.17529 -1.4502,-2.18628 -1.4502,-6.32813 0,-4.15283 1.4502,-6.32812 1.46118,-2.18628 4.21875,-2.18628 z"
         style="font-size:22.5px"
         id="path3488"
         inkscape:connector-curvature="0" />
      <path
         d="m 558.35449,240.70648 q -1.71387,0 -2.58178,1.6919 -0.85694,1.6809 -0.85694,5.06469 0,3.37281 0.85694,5.0647 0.86791,1.68091 2.58178,1.68091 1.72486,0 2.58179,-1.68091 0.86792,-1.69189 0.86792,-5.0647 0,-3.38379 -0.86792,-5.06469 -0.85693,-1.6919 -2.58179,-1.6919 z m 0,-1.75781 q 2.75757,0 4.20777,2.18628 1.46118,2.17529 1.46118,6.32812 0,4.14185 -1.46118,6.32813 -1.4502,2.17529 -4.20777,2.17529 -2.75757,0 -4.21875,-2.17529 -1.45019,-2.18628 -1.45019,-6.32813 0,-4.15283 1.45019,-6.32812 1.46118,-2.18628 4.21875,-2.18628 z"
         style="font-size:22.5px"
         id="path3490"
         inkscape:connector-curvature="0" />
      <path
         d="m 568.31909,253.78021 3.62549,0 0,-12.51343 -3.94409,0.79102 0,-2.02148 3.92212,-0.79102 2.21924,0 0,14.53491 3.62548,0 0,1.86768 -9.44824,0 0,-1.86768 z"
         style="font-size:22.5px"
         id="path3492"
         inkscape:connector-curvature="0" />
      <path
         d="m 582.64526,253.78021 3.62549,0 0,-12.51343 -3.94409,0.79102 0,-2.02148 3.92212,-0.79102 2.21924,0 0,14.53491 3.62549,0 0,1.86768 -9.44825,0 0,-1.86768 z"
         style="font-size:22.5px"
         id="path3494"
         inkscape:connector-curvature="0" />
      <path
         d="m 601.33301,240.70648 q -1.71387,0 -2.58179,1.6919 -0.85693,1.6809 -0.85693,5.06469 0,3.37281 0.85693,5.0647 0.86792,1.68091 2.58179,1.68091 1.72485,0 2.58178,-1.68091 0.86792,-1.69189 0.86792,-5.0647 0,-3.38379 -0.86792,-5.06469 -0.85693,-1.6919 -2.58178,-1.6919 z m 0,-1.75781 q 2.75757,0 4.20776,2.18628 1.46118,2.17529 1.46118,6.32812 0,4.14185 -1.46118,6.32813 -1.45019,2.17529 -4.20776,2.17529 -2.75757,0 -4.21875,-2.17529 -1.4502,-2.18628 -1.4502,-6.32813 0,-4.15283 1.4502,-6.32812 1.46118,-2.18628 4.21875,-2.18628 z"
         style="font-size:22.5px"
         id="path3496"
         inkscape:connector-curvature="0" />
      <path
         d="m 615.65918,240.70648 q -1.71387,0 -2.58179,1.6919 -0.85693,1.6809 -0.85693,5.06469 0,3.37281 0.85693,5.0647 0.86792,1.68091 2.58179,1.68091 1.72485,0 2.58179,-1.68091 0.86792,-1.69189 0.86792,-5.0647 0,-3.38379 -0.86792,-5.06469 -0.85694,-1.6919 -2.58179,-1.6919 z m 0,-1.75781 q 2.75757,0 4.20776,2.18628 1.46118,2.17529 1.46118,6.32812 0,4.14185 -1.46118,6.32813 -1.45019,2.17529 -4.20776,2.17529 -2.75757,0 -4.21875,-2.17529 -1.4502,-2.18628 -1.4502,-6.32813 0,-4.15283 1.4502,-6.32812 1.46118,-2.18628 4.21875,-2.18628 z"
         style="font-size:22.5px"
         id="path3498"
         inkscape:connector-curvature="0" />
      <path
         d="m 629.98535,240.70648 q -1.71387,0 -2.58179,1.6919 -0.85693,1.6809 -0.85693,5.06469 0,3.37281 0.85693,5.0647 0.86792,1.68091 2.58179,1.68091 1.72486,0 2.58179,-1.68091 0.86792,-1.69189 0.86792,-5.0647 0,-3.38379 -0.86792,-5.06469 -0.85693,-1.6919 -2.58179,-1.6919 z m 0,-1.75781 q 2.75757,0 4.20777,2.18628 1.46118,2.17529 1.46118,6.32812 0,4.14185 -1.46118,6.32813 -1.4502,2.17529 -4.20777,2.17529 -2.75757,0 -4.21875,-2.17529 -1.45019,-2.18628 -1.45019,-6.32813 0,-4.15283 1.45019,-6.32812 1.46118,-2.18628 4.21875,-2.18628 z"
         style="font-size:22.5px"
         id="path3500"
         inkscape:connector-curvature="0" />
      <path
         d="m 639.94995,253.78021 3.62549,0 0,-12.51343 -3.94409,0.79102 0,-2.02148 3.92212,-0.79102 2.21924,0 0,14.53491 3.62548,0 0,1.86768 -9.44824,0 0,-1.86768 z"
         style="font-size:22.5px"
         id="path3502"
         inkscape:connector-curvature="0" />
    </g>
    <g
       style="font-style:normal;font-weight:normal;font-size:16.25px;line-height:125%;font-family:sans-serif;letter-spacing:0px;word-spacing:0px;fill:#000000;fill-opacity:1;stroke:none;stroke-width:1px;stroke-linecap:butt;stroke-linejoin:miter;stroke-opacity:1"
       id="text3798">
      <path
         d="m 86.152107,182.99222 q -1.713867,0 -2.581787,1.69189 -0.856933,1.68091 -0.856933,5.0647 0,3.3728 0.856933,5.0647 0.86792,1.68091 2.581787,1.68091 1.724854,0 2.581787,-1.68091 0.86792,-1.6919 0.86792,-5.0647 0,-3.38379 -0.86792,-5.0647 -0.856933,-1.69189 -2.581787,-1.69189 z m 0,-1.75781 q 2.757569,0 4.207764,2.18627 1.461182,2.1753 1.461182,6.32813 0,4.14185 -1.461182,6.32812 -1.450195,2.1753 -4.207764,2.1753 -2.757568,0 -4.21875,-2.1753 -1.450195,-2.18627 -1.450195,-6.32812 0,-4.15283 1.450195,-6.32813 1.461182,-2.18627 4.21875,-2.18627 z"
         style="font-size:22.5px"
         id="path3392"
         inkscape:connector-curvature="0" />
      <path
         d="m 100.47828,182.99222 q -1.713868,0 -2.581788,1.69189 -0.856934,1.68091 -0.856934,5.0647 0,3.3728 0.856934,5.0647 0.86792,1.68091 2.581788,1.68091 1.72485,0 2.58179,-1.68091 0.86792,-1.6919 0.86792,-5.0647 0,-3.38379 -0.86792,-5.0647 -0.85694,-1.69189 -2.58179,-1.69189 z m 0,-1.75781 q 2.75757,0 4.20776,2.18627 1.46118,2.1753 1.46118,6.32813 0,4.14185 -1.46118,6.32812 -1.45019,2.1753 -4.20776,2.1753 -2.757569,0 -4.218751,-2.1753 -1.450195,-2.18627 -1.450195,-6.32812 0,-4.15283 1.450195,-6.32813 1.461182,-2.18627 4.218751,-2.18627 z"
         style="font-size:22.5px"
         id="path3394"
         inkscape:connector-curvature="0" />
      <path
         d="m 114.80445,182.99222 q -1.71387,0 -2.58179,1.69189 -0.85693,1.68091 -0.85693,5.0647 0,3.3728 0.85693,5.0647 0.86792,1.68091 2.58179,1.68091 1.72485,0 2.58179,-1.68091 0.86792,-1.6919 0.86792,-5.0647 0,-3.38379 -0.86792,-5.0647 -0.85694,-1.69189 -2.58179,-1.69189 z m 0,-1.75781 q 2.75757,0 4.20776,2.18627 1.46119,2.1753 1.46119,6.32813 0,4.14185 -1.46119,6.32812 -1.45019,2.1753 -4.20776,2.1753 -2.75757,0 -4.21875,-2.1753 -1.45019,-2.18627 -1.45019,-6.32812 0,-4.15283 1.45019,-6.32813 1.46118,-2.18627 4.21875,-2.18627 z"
         style="font-size:22.5px"
         id="path3396"
         inkscape:connector-curvature="0" />
      <path
         d="m 124.76905,196.06595 3.62549,0 0,-12.51343 -3.94409,0.79102 0,-2.02149 3.92212,-0.79101 2.21923,0 0,14.53491 3.62549,0 0,1.86767 -9.44824,0 0,-1.86767 z"
         style="font-size:22.5px"
         id="path3398"
         inkscape:connector-curvature="0" />
      <path
         d="m 143.45679,182.99222 q -1.71386,0 -2.58178,1.69189 -0.85694,1.68091 -0.85694,5.0647 0,3.3728 0.85694,5.0647 0.86792,1.68091 2.58178,1.68091 1.72486,0 2.58179,-1.68091 0.86792,-1.6919 0.86792,-5.0647 0,-3.38379 -0.86792,-5.0647 -0.85693,-1.69189 -2.58179,-1.69189 z m 0,-1.75781 q 2.75757,0 4.20777,2.18627 1.46118,2.1753 1.46118,6.32813 0,4.14185 -1.46118,6.32812 -1.4502,2.1753 -4.20777,2.1753 -2.75756,0 -4.21875,-2.1753 -1.45019,-2.18627 -1.45019,-6.32812 0,-4.15283 1.45019,-6.32813 1.46119,-2.18627 4.21875,-2.18627 z"
         style="font-size:22.5px"
         id="path3400"
         inkscape:connector-curvature="0" />
      <path
         d="m 157.78297,182.99222 q -1.71387,0 -2.58179,1.69189 -0.85693,1.68091 -0.85693,5.0647 0,3.3728 0.85693,5.0647 0.86792,1.68091 2.58179,1.68091 1.72485,0 2.58178,-1.68091 0.86792,-1.6919 0.86792,-5.0647 0,-3.38379 -0.86792,-5.0647 -0.85693,-1.69189 -2.58178,-1.69189 z m 0,-1.75781 q 2.75756,0 4.20776,2.18627 1.46118,2.1753 1.46118,6.32813 0,4.14185 -1.46118,6.32812 -1.4502,2.1753 -4.20776,2.1753 -2.75757,0 -4.21875,-2.1753 -1.4502,-2.18627 -1.4502,-6.32812 0,-4.15283 1.4502,-6.32813 1.46118,-2.18627 4.21875,-2.18627 z"
         style="font-size:22.5px"
         id="path3402"
         inkscape:connector-curvature="0" />
      <path
         d="m 167.74757,196.06595 3.62548,0 0,-12.51343 -3.94409,0.79102 0,-2.02149 3.92212,-0.79101 2.21924,0 0,14.53491 3.62549,0 0,1.86767 -9.44824,0 0,-1.86767 z"
         style="font-size:22.5px"
         id="path3404"
         inkscape:connector-curvature="0" />
      <path
         d="m 182.07374,196.06595 3.62549,0 0,-12.51343 -3.9441,0.79102 0,-2.02149 3.92212,-0.79101 2.21924,0 0,14.53491 3.62549,0 0,1.86767 -9.44824,0 0,-1.86767 z"
         style="font-size:22.5px"
         id="path3406"
         inkscape:connector-curvature="0" />
      <path
         d="m 200.76148,182.99222 q -1.71386,0 -2.58178,1.69189 -0.85694,1.68091 -0.85694,5.0647 0,3.3728 0.85694,5.0647 0.86792,1.68091 2.58178,1.68091 1.72486,0 2.58179,-1.68091 0.86792,-1.6919 0.86792,-5.0647 0,-3.38379 -0.86792,-5.0647 -0.85693,-1.69189 -2.58179,-1.69189 z m 0,-1.75781 q 2.75757,0 4.20777,2.18627 1.46118,2.1753 1.46118,6.32813 0,4.14185 -1.46118,6.32812 -1.4502,2.1753 -4.20777,2.1753 -2.75757,0 -4.21875,-2.1753 -1.45019,-2.18627 -1.45019,-6.32812 0,-4.15283 1.45019,-6.32813 1.46118,-2.18627 4.21875,-2.18627 z"
         style="font-size:22.5px"
         id="path3408"
         inkscape:connector-curvature="0" />
      <path
         d="m 215.08765,182.99222 q -1.71386,0 -2.58178,1.69189 -0.85694,1.68091 -0.85694,5.0647 0,3.3728 0.85694,5.0647 0.86792,1.68091 2.58178,1.68091 1.72486,0 2.58179,-1.68091 0.86792,-1.6919 0.86792,-5.0647 0,-3.38379 -0.86792,-5.0647 -0.85693,-1.69189 -2.58179,-1.69189 z m 0,-1.75781 q 2.75757,0 4.20777,2.18627 1.46118,2.1753 1.46118,6.32813 0,4.14185 -1.46118,6.32812 -1.4502,2.1753 -4.20777,2.1753 -2.75756,0 -4.21875,-2.1753 -1.45019,-2.18627 -1.45019,-6.32812 0,-4.15283 1.45019,-6.32813 1.46119,-2.18627 4.21875,-2.18627 z"
         style="font-size:22.5px"
         id="path3410"
         inkscape:connector-curvature="0" />
      <path
         d="m 229.41383,182.99222 q -1.71387,0 -2.58179,1.69189 -0.85693,1.68091 -0.85693,5.0647 0,3.3728 0.85693,5.0647 0.86792,1.68091 2.58179,1.68091 1.72485,0 2.58178,-1.68091 0.86792,-1.6919 0.86792,-5.0647 0,-3.38379 -0.86792,-5.0647 -0.85693,-1.69189 -2.58178,-1.69189 z m 0,-1.75781 q 2.75756,0 4.20776,2.18627 1.46118,2.1753 1.46118,6.32813 0,4.14185 -1.46118,6.32812 -1.4502,2.1753 -4.20776,2.1753 -2.75757,0 -4.21875,-2.1753 -1.4502,-2.18627 -1.4502,-6.32812 0,-4.15283 1.4502,-6.32813 1.46118,-2.18627 4.21875,-2.18627 z"
         style="font-size:22.5px"
         id="path3412"
         inkscape:connector-curvature="0" />
      <path
         d="m 239.37843,196.06595 3.62548,0 0,-12.51343 -3.94409,0.79102 0,-2.02149 3.92212,-0.79101 2.21924,0 0,14.53491 3.62549,0 0,1.86767 -9.44824,0 0,-1.86767 z"
         style="font-size:22.5px"
         id="path3414"
         inkscape:connector-curvature="0" />
    </g>
    <g
       style="font-style:normal;font-weight:normal;font-size:16.25px;line-height:125%;font-family:sans-serif;letter-spacing:1px;word-spacing:0px;fill:#666666;fill-opacity:1;stroke:none;stroke-width:1px;stroke-linecap:butt;stroke-linejoin:miter;stroke-opacity:1"
       id="text3804"
       transform="matrix(1.1927206,0,0,1.1927206,-15.452782,-38.79012)">
      <path
         d="m 88.418388,208.83954 0,0.71411 -6.712646,0 q 0.09521,1.50757 0.904541,2.30103 0.817261,0.78552 2.269287,0.78552 0.841064,0 1.626587,-0.2063 0.793457,-0.2063 1.571045,-0.6189 l 0,1.38062 q -0.785523,0.33325 -1.610718,0.50781 -0.825195,0.17456 -1.674194,0.17456 -2.126465,0 -3.372193,-1.23779 -1.237793,-1.2378 -1.237793,-3.34839 0,-2.18201 1.174317,-3.45947 1.182251,-1.2854 3.181762,-1.2854 1.793213,0 2.832642,1.15844 1.047363,1.15052 1.047363,3.13416 z m -1.459961,-0.42847 q -0.01587,-1.19812 -0.674438,-1.91223 -0.650635,-0.71411 -1.729736,-0.71411 -1.221924,0 -1.959839,0.69031 -0.729981,0.6903 -0.841065,1.94397 l 5.205078,-0.008 z"
         style="letter-spacing:0px;fill:#666666"
         id="path3653"
         inkscape:connector-curvature="0" />
      <path
         d="m 97.916069,204.76117 -3.213501,4.32434 3.380127,4.56238 -1.721802,0 -2.58667,-3.49121 -2.58667,3.49121 -1.721801,0 3.451538,-4.64966 -3.157959,-4.23706 1.721802,0 2.356567,3.16589 2.356567,-3.16589 1.721802,0 z"
         style="letter-spacing:0px;fill:#666666"
         id="path3655"
         inkscape:connector-curvature="0" />
      <path
         d="m 104.18438,209.18073 q -1.76941,0 -2.45178,0.40466 -0.68238,0.40466 -0.68238,1.38061 0,0.77759 0.50782,1.2378 0.51574,0.45227 1.39648,0.45227 1.21399,0 1.94397,-0.85694 0.73792,-0.86486 0.73792,-2.29309 l 0,-0.32531 -1.45203,0 z m 2.91199,-0.60303 0,5.07019 -1.45996,0 0,-1.34888 q -0.49988,0.80933 -1.24573,1.19812 -0.74585,0.38086 -1.82495,0.38086 -1.36475,0 -2.17408,-0.76172 -0.801387,-0.76965 -0.801387,-2.05505 0,-1.49964 0.999757,-2.26135 1.00769,-0.76172 2.99927,-0.76172 l 2.04712,0 0,-0.14283 q 0,-1.00769 -0.66651,-1.55517 -0.65857,-0.55542 -1.85669,-0.55542 -0.76172,0 -1.48376,0.18249 -0.72205,0.1825 -1.38855,0.54749 l 0,-1.34888 q 0.80139,-0.30945 1.55517,-0.4602 0.75379,-0.15869 1.4679,-0.15869 1.9281,0 2.88025,0.99975 0.95215,0.99976 0.95215,3.03101 z"
         style="letter-spacing:0px;fill:#666666"
         id="path3657"
         inkscape:connector-curvature="0" />
      <path
         d="m 116.50677,205.10236 0,1.36474 q -0.6189,-0.34118 -1.24573,-0.50781 -0.6189,-0.17456 -1.25366,-0.17456 -1.42029,0 -2.20581,0.90454 -0.78553,0.89661 -0.78553,2.52319 0,1.62659 0.78553,2.53113 0.78552,0.89661 2.20581,0.89661 0.63476,0 1.25366,-0.16663 0.62683,-0.17456 1.24573,-0.51575 l 0,1.34888 q -0.61096,0.28565 -1.26953,0.42847 -0.65064,0.14282 -1.38855,0.14282 -2.00745,0 -3.1897,-1.2616 -1.18225,-1.26159 -1.18225,-3.40393 0,-2.17407 1.19018,-3.4198 1.19812,-1.24572 3.27698,-1.24572 0.67444,0 1.31714,0.14282 0.6427,0.13489 1.24573,0.4126 z"
         style="letter-spacing:0px;fill:#666666"
         id="path3659"
         inkscape:connector-curvature="0" />
      <path
         d="m 120.50579,202.23798 0,2.52319 3.0072,0 0,1.13464 -3.0072,0 0,4.82422 q 0,1.08704 0.29358,1.39649 0.30151,0.30944 1.21399,0.30944 l 1.49963,0 0,1.22193 -1.49963,0 q -1.69006,0 -2.33276,-0.62683 -0.6427,-0.63477 -0.6427,-2.30103 l 0,-4.82422 -1.07117,0 0,-1.13464 1.07117,0 0,-2.52319 1.46789,0 z"
         style="letter-spacing:0px;fill:#666666"
         id="path3661"
         inkscape:connector-curvature="0" />
      <path
         d="m 137.0097,205.10236 0,1.36474 q -0.6189,-0.34118 -1.24573,-0.50781 -0.6189,-0.17456 -1.25366,-0.17456 -1.42029,0 -2.20581,0.90454 -0.78553,0.89661 -0.78553,2.52319 0,1.62659 0.78553,2.53113 0.78552,0.89661 2.20581,0.89661 0.63476,0 1.25366,-0.16663 0.62683,-0.17456 1.24573,-0.51575 l 0,1.34888 q -0.61096,0.28565 -1.26953,0.42847 -0.65064,0.14282 -1.38855,0.14282 -2.00745,0 -3.1897,-1.2616 -1.18225,-1.26159 -1.18225,-3.40393 0,-2.17407 1.19018,-3.4198 1.19812,-1.24572 3.27698,-1.24572 0.67444,0 1.31714,0.14282 0.6427,0.13489 1.24573,0.4126 z"
         style="letter-spacing:0px;fill:#666666"
         id="path3663"
         inkscape:connector-curvature="0" />
      <path
         d="m 143.60332,209.18073 q -1.7694,0 -2.45178,0.40466 -0.68237,0.40466 -0.68237,1.38061 0,0.77759 0.50781,1.2378 0.51575,0.45227 1.39649,0.45227 1.21399,0 1.94397,-0.85694 0.73791,-0.86486 0.73791,-2.29309 l 0,-0.32531 -1.45203,0 z m 2.91199,-0.60303 0,5.07019 -1.45996,0 0,-1.34888 q -0.49988,0.80933 -1.24573,1.19812 -0.74585,0.38086 -1.82495,0.38086 -1.36474,0 -2.17407,-0.76172 -0.80139,-0.76965 -0.80139,-2.05505 0,-1.49964 0.99975,-2.26135 1.00769,-0.76172 2.99927,-0.76172 l 2.04712,0 0,-0.14283 q 0,-1.00769 -0.6665,-1.55517 -0.65857,-0.55542 -1.85669,-0.55542 -0.76172,0 -1.48377,0.18249 -0.72204,0.1825 -1.38855,0.54749 l 0,-1.34888 q 0.8014,-0.30945 1.55518,-0.4602 0.75378,-0.15869 1.46789,-0.15869 1.92811,0 2.88025,0.99975 0.95215,0.99976 0.95215,3.03101 z"
         style="letter-spacing:0px;fill:#666666"
         id="path3665"
         inkscape:connector-curvature="0" />
      <path
         d="m 149.53045,201.3017 1.45996,0 0,12.34619 -1.45996,0 0,-12.34619 z"
         style="letter-spacing:0px;fill:#666666"
         id="path3667"
         inkscape:connector-curvature="0" />
      <path
         d="m 154.03728,201.3017 1.45997,0 0,12.34619 -1.45997,0 0,-12.34619 z"
         style="letter-spacing:0px;fill:#666666"
         id="path3669"
         inkscape:connector-curvature="0" />
    </g>
    <g
       style="font-style:normal;font-weight:normal;font-size:16.25px;line-height:125%;font-family:sans-serif;letter-spacing:1px;word-spacing:0px;fill:#666666;fill-opacity:1;stroke:none;stroke-width:1px;stroke-linecap:butt;stroke-linejoin:miter;stroke-opacity:1"
       id="text3814"
       transform="matrix(1.1927206,0,0,1.1927206,-92.678677,-39.218692)">
      <path
         d="m 489.13269,208.83954 0,0.71411 -6.71265,0 q 0.0952,1.50757 0.90454,2.30103 0.81727,0.78552 2.26929,0.78552 0.84107,0 1.62659,-0.2063 0.79346,-0.2063 1.57104,-0.6189 l 0,1.38062 q -0.78552,0.33325 -1.61071,0.50781 -0.8252,0.17456 -1.6742,0.17456 -2.12646,0 -3.37219,-1.23779 -1.23779,-1.2378 -1.23779,-3.34839 0,-2.18201 1.17431,-3.45947 1.18225,-1.2854 3.18177,-1.2854 1.79321,0 2.83264,1.15844 1.04736,1.15052 1.04736,3.13416 z m -1.45996,-0.42847 q -0.0159,-1.19812 -0.67444,-1.91223 -0.65063,-0.71411 -1.72974,-0.71411 -1.22192,0 -1.95983,0.69031 -0.72998,0.6903 -0.84107,1.94397 l 5.20508,-0.008 z"
         style="letter-spacing:0px;fill:#666666"
         id="path3430"
         inkscape:connector-curvature="0" />
      <path
         d="m 498.63037,204.76117 -3.2135,4.32434 3.38013,4.56238 -1.7218,0 -2.58667,-3.49121 -2.58667,3.49121 -1.72181,0 3.45154,-4.64966 -3.15796,-4.23706 1.7218,0 2.35657,3.16589 2.35657,-3.16589 1.7218,0 z"
         style="letter-spacing:0px;fill:#666666"
         id="path3432"
         inkscape:connector-curvature="0" />
      <path
         d="m 504.89868,209.18073 q -1.76941,0 -2.45178,0.40466 -0.68237,0.40466 -0.68237,1.38061 0,0.77759 0.50781,1.2378 0.51575,0.45227 1.39648,0.45227 1.21399,0 1.94397,-0.85694 0.73792,-0.86486 0.73792,-2.29309 l 0,-0.32531 -1.45203,0 z m 2.91199,-0.60303 0,5.07019 -1.45996,0 0,-1.34888 q -0.49988,0.80933 -1.24573,1.19812 -0.74585,0.38086 -1.82495,0.38086 -1.36475,0 -2.17407,-0.76172 -0.80139,-0.76965 -0.80139,-2.05505 0,-1.49964 0.99975,-2.26135 1.00769,-0.76172 2.99927,-0.76172 l 2.04712,0 0,-0.14283 q 0,-1.00769 -0.66651,-1.55517 -0.65857,-0.55542 -1.85669,-0.55542 -0.76171,0 -1.48376,0.18249 -0.72205,0.1825 -1.38855,0.54749 l 0,-1.34888 q 0.80139,-0.30945 1.55518,-0.4602 0.75378,-0.15869 1.46789,-0.15869 1.9281,0 2.88025,0.99975 0.95215,0.99976 0.95215,3.03101 z"
         style="letter-spacing:0px;fill:#666666"
         id="path3434"
         inkscape:connector-curvature="0" />
      <path
         d="m 517.22107,205.10236 0,1.36474 q -0.6189,-0.34118 -1.24573,-0.50781 -0.61889,-0.17456 -1.25366,-0.17456 -1.42029,0 -2.20581,0.90454 -0.78552,0.89661 -0.78552,2.52319 0,1.62659 0.78552,2.53113 0.78552,0.89661 2.20581,0.89661 0.63477,0 1.25366,-0.16663 0.62683,-0.17456 1.24573,-0.51575 l 0,1.34888 q -0.61096,0.28565 -1.26953,0.42847 -0.65064,0.14282 -1.38855,0.14282 -2.00745,0 -3.1897,-1.2616 -1.18225,-1.26159 -1.18225,-3.40393 0,-2.17407 1.19019,-3.4198 1.19812,-1.24572 3.27697,-1.24572 0.67444,0 1.31714,0.14282 0.6427,0.13489 1.24573,0.4126 z"
         style="letter-spacing:0px;fill:#666666"
         id="path3436"
         inkscape:connector-curvature="0" />
      <path
         d="m 521.22009,202.23798 0,2.52319 3.0072,0 0,1.13464 -3.0072,0 0,4.82422 q 0,1.08704 0.29358,1.39649 0.30152,0.30944 1.21399,0.30944 l 1.49963,0 0,1.22193 -1.49963,0 q -1.69006,0 -2.33276,-0.62683 -0.6427,-0.63477 -0.6427,-2.30103 l 0,-4.82422 -1.07117,0 0,-1.13464 1.07117,0 0,-2.52319 1.46789,0 z"
         style="letter-spacing:0px;fill:#666666"
         id="path3438"
         inkscape:connector-curvature="0" />
      <path
         d="m 538.24768,206.4671 q 0.54749,-0.98388 1.3092,-1.45202 0.76172,-0.46814 1.79322,-0.46814 1.38855,0 2.14233,0.97595 0.75379,0.96802 0.75379,2.76123 l 0,5.36377 -1.4679,0 0,-5.31616 q 0,-1.27747 -0.45227,-1.89637 -0.45227,-0.61889 -1.38062,-0.61889 -1.13464,0 -1.79321,0.75378 -0.65857,0.75379 -0.65857,2.05506 l 0,5.02258 -1.46789,0 0,-5.31616 q 0,-1.2854 -0.45227,-1.89637 -0.45227,-0.61889 -1.39649,-0.61889 -1.11877,0 -1.77734,0.76172 -0.65857,0.75378 -0.65857,2.04712 l 0,5.02258 -1.4679,0 0,-8.88672 1.4679,0 0,1.38061 q 0.49988,-0.81726 1.19812,-1.20605 0.69824,-0.38879 1.65832,-0.38879 0.96802,0 1.64246,0.49194 0.68237,0.49194 1.00769,1.42822 z"
         style="letter-spacing:0px;fill:#666666"
         id="path3440"
         inkscape:connector-curvature="0" />
      <path
         d="m 547.16614,204.76117 1.45996,0 0,8.88672 -1.45996,0 0,-8.88672 z m 0,-3.45947 1.45996,0 0,1.84875 -1.45996,0 0,-1.84875 z"
         style="letter-spacing:0px;fill:#666666"
         id="path3442"
         inkscape:connector-curvature="0" />
      <path
         d="m 557.33826,205.02301 0,1.38062 q -0.6189,-0.31739 -1.2854,-0.47608 -0.66651,-0.15869 -1.38062,-0.15869 -1.08703,0 -1.63452,0.33325 -0.53955,0.33325 -0.53955,0.99976 0,0.50781 0.38879,0.80139 0.3888,0.28564 1.56311,0.54748 l 0.49988,0.11109 q 1.55518,0.33325 2.20581,0.94421 0.65857,0.60303 0.65857,1.69007 0,1.23779 -0.98389,1.95983 -0.97595,0.72205 -2.68982,0.72205 -0.71411,0 -1.49169,-0.14282 -0.76966,-0.13489 -1.62659,-0.4126 l 0,-1.50757 q 0.80933,0.42053 1.59485,0.63477 0.78552,0.2063 1.55517,0.2063 1.0315,0 1.58692,-0.34912 0.55542,-0.35706 0.55542,-0.99976 0,-0.59509 -0.40467,-0.91248 -0.39672,-0.31738 -1.75354,-0.61096 l -0.50781,-0.11902 q -1.35681,-0.28564 -1.95984,-0.8728 -0.60302,-0.59509 -0.60302,-1.62659 0,-1.25366 0.88867,-1.93603 0.88867,-0.68237 2.52319,-0.68237 0.80933,0 1.52344,0.11901 0.71411,0.11902 1.31714,0.35706 z"
         style="letter-spacing:0px;fill:#666666"
         id="path3444"
         inkscape:connector-curvature="0" />
      <path
         d="m 566.54236,205.10236 0,1.36474 q -0.6189,-0.34118 -1.24573,-0.50781 -0.6189,-0.17456 -1.25366,-0.17456 -1.42029,0 -2.20581,0.90454 -0.78552,0.89661 -0.78552,2.52319 0,1.62659 0.78552,2.53113 0.78552,0.89661 2.20581,0.89661 0.63476,0 1.25366,-0.16663 0.62683,-0.17456 1.24573,-0.51575 l 0,1.34888 q -0.61096,0.28565 -1.26953,0.42847 -0.65064,0.14282 -1.38855,0.14282 -2.00745,0 -3.1897,-1.2616 -1.18225,-1.26159 -1.18225,-3.40393 0,-2.17407 1.19018,-3.4198 1.19812,-1.24572 3.27698,-1.24572 0.67444,0 1.31714,0.14282 0.6427,0.13489 1.24573,0.4126 z"
         style="letter-spacing:0px;fill:#666666"
         id="path3446"
         inkscape:connector-curvature="0" />
      <path
         d="m 573.13599,209.18073 q -1.76941,0 -2.45179,0.40466 -0.68237,0.40466 -0.68237,1.38061 0,0.77759 0.50781,1.2378 0.51575,0.45227 1.39649,0.45227 1.21399,0 1.94397,-0.85694 0.73791,-0.86486 0.73791,-2.29309 l 0,-0.32531 -1.45202,0 z m 2.91198,-0.60303 0,5.07019 -1.45996,0 0,-1.34888 q -0.49988,0.80933 -1.24572,1.19812 -0.74585,0.38086 -1.82496,0.38086 -1.36474,0 -2.17407,-0.76172 -0.80139,-0.76965 -0.80139,-2.05505 0,-1.49964 0.99976,-2.26135 1.00769,-0.76172 2.99926,-0.76172 l 2.04712,0 0,-0.14283 q 0,-1.00769 -0.6665,-1.55517 -0.65857,-0.55542 -1.85669,-0.55542 -0.76172,0 -1.48377,0.18249 -0.72204,0.1825 -1.38855,0.54749 l 0,-1.34888 q 0.8014,-0.30945 1.55518,-0.4602 0.75378,-0.15869 1.4679,-0.15869 1.9281,0 2.88025,0.99975 0.95214,0.99976 0.95214,3.03101 z"
         style="letter-spacing:0px;fill:#666666"
         id="path3448"
         inkscape:connector-curvature="0" />
      <path
         d="m 579.06311,201.3017 1.45996,0 0,12.34619 -1.45996,0 0,-12.34619 z"
         style="letter-spacing:0px;fill:#666666"
         id="path3450"
         inkscape:connector-curvature="0" />
      <path
         d="m 583.56995,201.3017 1.45996,0 0,12.34619 -1.45996,0 0,-12.34619 z"
         style="letter-spacing:0px;fill:#666666"
         id="path3452"
         inkscape:connector-curvature="0" />
    </g>
    <g
       style="font-style:normal;font-weight:normal;font-size:16.25px;line-height:125%;font-family:sans-serif;letter-spacing:1px;word-spacing:0px;fill:#666666;fill-opacity:1;stroke:none;stroke-width:1px;stroke-linecap:butt;stroke-linejoin:miter;stroke-opacity:1"
       id="text3818"
       transform="matrix(1.1927206,0,0,1.1927206,-92.678677,-48.396486)">
      <path
         d="m 487.92664,263.10236 0,1.36474 q -0.6189,-0.34118 -1.24573,-0.50781 -0.6189,-0.17456 -1.25366,-0.17456 -1.42029,0 -2.20581,0.90454 -0.78553,0.89661 -0.78553,2.52319 0,1.62659 0.78553,2.53113 0.78552,0.89661 2.20581,0.89661 0.63476,0 1.25366,-0.16663 0.62683,-0.17456 1.24573,-0.51575 l 0,1.34888 q -0.61097,0.28565 -1.26954,0.42847 -0.65063,0.14282 -1.38855,0.14282 -2.00744,0 -3.18969,-1.2616 -1.18225,-1.26159 -1.18225,-3.40393 0,-2.17407 1.19018,-3.4198 1.19812,-1.24572 3.27698,-1.24572 0.67444,0 1.31714,0.14282 0.6427,0.13489 1.24573,0.4126 z"
         style="letter-spacing:0px;fill:#666666"
         id="path3505"
         inkscape:connector-curvature="0" />
      <path
         d="m 493.92517,263.78473 q -1.17432,0 -1.85669,0.92041 -0.68237,0.91247 -0.68237,2.50732 0,1.59485 0.67444,2.51526 0.68237,0.91248 1.86462,0.91248 1.16638,0 1.84876,-0.92041 0.68237,-0.92041 0.68237,-2.50733 0,-1.57898 -0.68237,-2.49939 -0.68238,-0.92834 -1.84876,-0.92834 z m 0,-1.23779 q 1.9043,0 2.99133,1.23779 1.08704,1.23779 1.08704,3.42773 0,2.18201 -1.08704,3.42774 -1.08703,1.23779 -2.99133,1.23779 -1.91223,0 -2.99927,-1.23779 -1.0791,-1.24573 -1.0791,-3.42774 0,-2.18994 1.0791,-3.42773 1.08704,-1.23779 2.99927,-1.23779 z"
         style="letter-spacing:0px;fill:#666666"
         id="path3507"
         inkscape:connector-curvature="0" />
      <path
         d="m 505.56519,264.12592 q -0.24598,-0.14283 -0.53956,-0.2063 -0.28564,-0.0714 -0.63476,-0.0714 -1.23779,0 -1.9043,0.80932 -0.65857,0.80139 -0.65857,2.30896 l 0,4.6814 -1.46789,0 0,-8.88672 1.46789,0 0,1.38061 q 0.46021,-0.80932 1.19812,-1.19812 0.73792,-0.39672 1.79322,-0.39672 0.15075,0 0.33325,0.0238 0.18249,0.0159 0.40466,0.0555 l 0.008,1.49964 z"
         style="letter-spacing:0px;fill:#666666"
         id="path3509"
         inkscape:connector-curvature="0" />
      <path
         d="m 511.97632,264.12592 q -0.24597,-0.14283 -0.53955,-0.2063 -0.28565,-0.0714 -0.63477,-0.0714 -1.23779,0 -1.90429,0.80932 -0.65857,0.80139 -0.65857,2.30896 l 0,4.6814 -1.4679,0 0,-8.88672 1.4679,0 0,1.38061 q 0.4602,-0.80932 1.19812,-1.19812 0.73791,-0.39672 1.79321,-0.39672 0.15076,0 0.33325,0.0238 0.1825,0.0159 0.40466,0.0555 l 0.008,1.49964 z"
         style="letter-spacing:0px;fill:#666666"
         id="path3511"
         inkscape:connector-curvature="0" />
      <path
         d="m 520.77576,266.83954 0,0.71411 -6.71265,0 q 0.0952,1.50757 0.90454,2.30103 0.81726,0.78552 2.26929,0.78552 0.84106,0 1.62659,-0.2063 0.79345,-0.2063 1.57104,-0.6189 l 0,1.38062 q -0.78552,0.33325 -1.61072,0.50781 -0.82519,0.17456 -1.67419,0.17456 -2.12647,0 -3.37219,-1.23779 -1.2378,-1.2378 -1.2378,-3.34839 0,-2.18201 1.17432,-3.45947 1.18225,-1.2854 3.18176,-1.2854 1.79321,0 2.83264,1.15844 1.04737,1.15052 1.04737,3.13416 z m -1.45996,-0.42847 q -0.0159,-1.19812 -0.67444,-1.91223 -0.65064,-0.71411 -1.72974,-0.71411 -1.22192,0 -1.95984,0.69031 -0.72998,0.6903 -0.84106,1.94397 l 5.20508,-0.008 z"
         style="letter-spacing:0px;fill:#666666"
         id="path3513"
         inkscape:connector-curvature="0" />
      <path
         d="m 529.56726,263.10236 0,1.36474 q -0.6189,-0.34118 -1.24573,-0.50781 -0.61889,-0.17456 -1.25366,-0.17456 -1.42029,0 -2.20581,0.90454 -0.78552,0.89661 -0.78552,2.52319 0,1.62659 0.78552,2.53113 0.78552,0.89661 2.20581,0.89661 0.63477,0 1.25366,-0.16663 0.62683,-0.17456 1.24573,-0.51575 l 0,1.34888 q -0.61096,0.28565 -1.26953,0.42847 -0.65064,0.14282 -1.38855,0.14282 -2.00745,0 -3.1897,-1.2616 -1.18225,-1.26159 -1.18225,-3.40393 0,-2.17407 1.19019,-3.4198 1.19812,-1.24572 3.27697,-1.24572 0.67444,0 1.31714,0.14282 0.6427,0.13489 1.24573,0.4126 z"
         style="letter-spacing:0px;fill:#666666"
         id="path3515"
         inkscape:connector-curvature="0" />
      <path
         d="m 533.56628,260.23798 0,2.52319 3.00721,0 0,1.13464 -3.00721,0 0,4.82422 q 0,1.08704 0.29358,1.39649 0.30152,0.30944 1.21399,0.30944 l 1.49964,0 0,1.22193 -1.49964,0 q -1.69006,0 -2.33276,-0.62683 -0.6427,-0.63477 -0.6427,-2.30103 l 0,-4.82422 -1.07117,0 0,-1.13464 1.07117,0 0,-2.52319 1.46789,0 z"
         style="letter-spacing:0px;fill:#666666"
         id="path3517"
         inkscape:connector-curvature="0" />
      <path
         d="m 546.10291,266.83954 0,0.71411 -6.71265,0 q 0.0952,1.50757 0.90454,2.30103 0.81726,0.78552 2.26929,0.78552 0.84106,0 1.62658,-0.2063 0.79346,-0.2063 1.57105,-0.6189 l 0,1.38062 q -0.78552,0.33325 -1.61072,0.50781 -0.82519,0.17456 -1.67419,0.17456 -2.12647,0 -3.3722,-1.23779 -1.23779,-1.2378 -1.23779,-3.34839 0,-2.18201 1.17432,-3.45947 1.18225,-1.2854 3.18176,-1.2854 1.79321,0 2.83264,1.15844 1.04737,1.15052 1.04737,3.13416 z m -1.45997,-0.42847 q -0.0159,-1.19812 -0.67443,-1.91223 -0.65064,-0.71411 -1.72974,-0.71411 -1.22192,0 -1.95984,0.69031 -0.72998,0.6903 -0.84106,1.94397 l 5.20507,-0.008 z"
         style="letter-spacing:0px;fill:#666666"
         id="path3519"
         inkscape:connector-curvature="0" />
      <path
         d="m 554.34692,264.11005 0,-4.80835 1.45996,0 0,12.34619 -1.45996,0 0,-1.33301 q -0.4602,0.79346 -1.16638,1.18225 -0.69824,0.38086 -1.68213,0.38086 -1.61071,0 -2.62634,-1.2854 -1.00769,-1.2854 -1.00769,-3.38013 0,-2.09472 1.00769,-3.38012 1.01563,-1.2854 2.62634,-1.2854 0.98389,0 1.68213,0.38879 0.70618,0.38086 1.16638,1.17432 z m -4.97497,3.10241 q 0,1.61072 0.65857,2.53113 0.6665,0.91248 1.82495,0.91248 1.15845,0 1.82495,-0.91248 0.6665,-0.92041 0.6665,-2.53113 0,-1.61071 -0.6665,-2.52319 -0.6665,-0.92041 -1.82495,-0.92041 -1.15845,0 -1.82495,0.92041 -0.65857,0.91248 -0.65857,2.52319 z"
         style="letter-spacing:0px;fill:#666666"
         id="path3521"
         inkscape:connector-curvature="0" />
      <path
         d="m 570.90637,264.4671 q 0.54749,-0.98388 1.30921,-1.45202 0.76171,-0.46814 1.79321,-0.46814 1.38855,0 2.14233,0.97595 0.75379,0.96802 0.75379,2.76123 l 0,5.36377 -1.4679,0 0,-5.31616 q 0,-1.27747 -0.45227,-1.89637 -0.45227,-0.61889 -1.38061,-0.61889 -1.13465,0 -1.79322,0.75378 -0.65857,0.75379 -0.65857,2.05506 l 0,5.02258 -1.46789,0 0,-5.31616 q 0,-1.2854 -0.45227,-1.89637 -0.45227,-0.61889 -1.39649,-0.61889 -1.11877,0 -1.77734,0.76172 -0.65857,0.75378 -0.65857,2.04712 l 0,5.02258 -1.4679,0 0,-8.88672 1.4679,0 0,1.38061 q 0.49988,-0.81726 1.19812,-1.20605 0.69824,-0.38879 1.65833,-0.38879 0.96801,0 1.64245,0.49194 0.68237,0.49194 1.00769,1.42822 z"
         style="letter-spacing:0px;fill:#666666"
         id="path3523"
         inkscape:connector-curvature="0" />
      <path
         d="m 579.82483,262.76117 1.45996,0 0,8.88672 -1.45996,0 0,-8.88672 z m 0,-3.45947 1.45996,0 0,1.84875 -1.45996,0 0,-1.84875 z"
         style="letter-spacing:0px;fill:#666666"
         id="path3525"
         inkscape:connector-curvature="0" />
      <path
         d="m 589.99695,263.02301 0,1.38062 q -0.6189,-0.31739 -1.2854,-0.47608 -0.66651,-0.15869 -1.38062,-0.15869 -1.08703,0 -1.63452,0.33325 -0.53955,0.33325 -0.53955,0.99976 0,0.50781 0.38879,0.80139 0.3888,0.28564 1.56311,0.54748 l 0.49988,0.11109 q 1.55518,0.33325 2.20581,0.94421 0.65857,0.60303 0.65857,1.69007 0,1.23779 -0.98388,1.95983 -0.97596,0.72205 -2.68982,0.72205 -0.71411,0 -1.4917,-0.14282 -0.76966,-0.13489 -1.62659,-0.4126 l 0,-1.50757 q 0.80933,0.42053 1.59485,0.63477 0.78552,0.2063 1.55517,0.2063 1.0315,0 1.58692,-0.34912 0.55542,-0.35706 0.55542,-0.99976 0,-0.59509 -0.40466,-0.91248 -0.39673,-0.31738 -1.75354,-0.61096 l -0.50782,-0.11902 q -1.35681,-0.28564 -1.95984,-0.8728 -0.60302,-0.59509 -0.60302,-1.62659 0,-1.25366 0.88867,-1.93603 0.88867,-0.68237 2.52319,-0.68237 0.80933,0 1.52344,0.11901 0.71411,0.11902 1.31714,0.35706 z"
         style="letter-spacing:0px;fill:#666666"
         id="path3527"
         inkscape:connector-curvature="0" />
      <path
         d="m 599.20105,263.10236 0,1.36474 q -0.6189,-0.34118 -1.24573,-0.50781 -0.61889,-0.17456 -1.25366,-0.17456 -1.42029,0 -2.20581,0.90454 -0.78552,0.89661 -0.78552,2.52319 0,1.62659 0.78552,2.53113 0.78552,0.89661 2.20581,0.89661 0.63477,0 1.25366,-0.16663 0.62683,-0.17456 1.24573,-0.51575 l 0,1.34888 q -0.61096,0.28565 -1.26953,0.42847 -0.65064,0.14282 -1.38855,0.14282 -2.00745,0 -3.1897,-1.2616 -1.18225,-1.26159 -1.18225,-3.40393 0,-2.17407 1.19019,-3.4198 1.19812,-1.24572 3.27697,-1.24572 0.67444,0 1.31714,0.14282 0.6427,0.13489 1.24573,0.4126 z"
         style="letter-spacing:0px;fill:#666666"
         id="path3529"
         inkscape:connector-curvature="0" />
      <path
         d="m 605.79468,267.18073 q -1.76941,0 -2.45178,0.40466 -0.68238,0.40466 -0.68238,1.38061 0,0.77759 0.50781,1.2378 0.51575,0.45227 1.39649,0.45227 1.21399,0 1.94397,-0.85694 0.73791,-0.86486 0.73791,-2.29309 l 0,-0.32531 -1.45202,0 z m 2.91199,-0.60303 0,5.07019 -1.45997,0 0,-1.34888 q -0.49987,0.80933 -1.24572,1.19812 -0.74585,0.38086 -1.82495,0.38086 -1.36475,0 -2.17408,-0.76172 -0.80139,-0.76965 -0.80139,-2.05505 0,-1.49964 0.99976,-2.26135 1.00769,-0.76172 2.99926,-0.76172 l 2.04712,0 0,-0.14283 q 0,-1.00769 -0.6665,-1.55517 -0.65857,-0.55542 -1.85669,-0.55542 -0.76172,0 -1.48376,0.18249 -0.72205,0.1825 -1.38855,0.54749 l 0,-1.34888 q 0.80139,-0.30945 1.55517,-0.4602 0.75379,-0.15869 1.4679,-0.15869 1.9281,0 2.88025,0.99975 0.95215,0.99976 0.95215,3.03101 z"
         style="letter-spacing:0px;fill:#666666"
         id="path3531"
         inkscape:connector-curvature="0" />
      <path
         d="m 611.7218,259.3017 1.45996,0 0,12.34619 -1.45996,0 0,-12.34619 z"
         style="letter-spacing:0px;fill:#666666"
         id="path3533"
         inkscape:connector-curvature="0" />
      <path
         d="m 616.22864,259.3017 1.45996,0 0,12.34619 -1.45996,0 0,-12.34619 z"
         style="letter-spacing:0px;fill:#666666"
         id="path3535"
         inkscape:connector-curvature="0" />
    </g>
    <g
       style="font-style:normal;font-weight:normal;font-size:16.25px;line-height:125%;font-family:sans-serif;letter-spacing:1px;word-spacing:0px;fill:#666666;fill-opacity:1;stroke:none;stroke-width:1px;stroke-linecap:butt;stroke-linejoin:miter;stroke-opacity:1"
       id="text3826"
       transform="matrix(1.2490235,0,0,1.2490235,-68.023228,-55.174565)">
      <path
         d="m 285.37915,232.11005 0,-4.80835 1.45996,0 0,12.34619 -1.45996,0 0,-1.33301 q -0.4602,0.79346 -1.16638,1.18225 -0.69824,0.38086 -1.68213,0.38086 -1.61072,0 -2.62634,-1.2854 -1.00769,-1.2854 -1.00769,-3.38013 0,-2.09472 1.00769,-3.38012 1.01562,-1.2854 2.62634,-1.2854 0.98389,0 1.68213,0.38879 0.70618,0.38086 1.16638,1.17432 z m -4.97498,3.10241 q 0,1.61072 0.65857,2.53113 0.66651,0.91248 1.82496,0.91248 1.15844,0 1.82495,-0.91248 0.6665,-0.92041 0.6665,-2.53113 0,-1.61071 -0.6665,-2.52319 -0.66651,-0.92041 -1.82495,-0.92041 -1.15845,0 -1.82496,0.92041 -0.65857,0.91248 -0.65857,2.52319 z"
         style="letter-spacing:0px;fill:#666666"
         id="path3417"
         inkscape:connector-curvature="0" />
      <path
         d="m 297.44763,234.83954 0,0.71411 -6.71264,0 q 0.0952,1.50757 0.90454,2.30103 0.81726,0.78552 2.26928,0.78552 0.84107,0 1.62659,-0.2063 0.79346,-0.2063 1.57105,-0.6189 l 0,1.38062 q -0.78553,0.33325 -1.61072,0.50781 -0.8252,0.17456 -1.6742,0.17456 -2.12646,0 -3.37219,-1.23779 -1.23779,-1.2378 -1.23779,-3.34839 0,-2.18201 1.17431,-3.45947 1.18226,-1.2854 3.18177,-1.2854 1.79321,0 2.83264,1.15844 1.04736,1.15052 1.04736,3.13416 z m -1.45996,-0.42847 q -0.0159,-1.19812 -0.67444,-1.91223 -0.65063,-0.71411 -1.72973,-0.71411 -1.22193,0 -1.95984,0.69031 -0.72998,0.6903 -0.84107,1.94397 l 5.20508,-0.008 z"
         style="letter-spacing:0px;fill:#666666"
         id="path3419"
         inkscape:connector-curvature="0" />
      <path
         d="m 305.50916,231.02301 0,1.38062 q -0.6189,-0.31739 -1.28541,-0.47608 -0.6665,-0.15869 -1.38061,-0.15869 -1.08704,0 -1.63452,0.33325 -0.53955,0.33325 -0.53955,0.99976 0,0.50781 0.38879,0.80139 0.3888,0.28564 1.56311,0.54748 l 0.49988,0.11109 q 1.55518,0.33325 2.20581,0.94421 0.65857,0.60303 0.65857,1.69007 0,1.23779 -0.98389,1.95983 -0.97595,0.72205 -2.68982,0.72205 -0.71411,0 -1.4917,-0.14282 -0.76965,-0.13489 -1.62658,-0.4126 l 0,-1.50757 q 0.80932,0.42053 1.59485,0.63477 0.78552,0.2063 1.55517,0.2063 1.0315,0 1.58692,-0.34912 0.55542,-0.35706 0.55542,-0.99976 0,-0.59509 -0.40467,-0.91248 -0.39673,-0.31738 -1.75354,-0.61096 l -0.50781,-0.11902 q -1.35681,-0.28564 -1.95984,-0.8728 -0.60303,-0.59509 -0.60303,-1.62659 0,-1.25366 0.88868,-1.93603 0.88867,-0.68237 2.52319,-0.68237 0.80933,0 1.52344,0.11901 0.71411,0.11902 1.31714,0.35706 z"
         style="letter-spacing:0px;fill:#666666"
         id="path3421"
         inkscape:connector-curvature="0" />
      <path
         d="m 308.31799,230.76117 1.45996,0 0,8.88672 -1.45996,0 0,-8.88672 z m 0,-3.45947 1.45996,0 0,1.84875 -1.45996,0 0,-1.84875 z"
         style="letter-spacing:0px;fill:#666666"
         id="path3423"
         inkscape:connector-curvature="0" />
      <path
         d="m 318.67261,235.10138 q 0,-1.58691 -0.65857,-2.45972 -0.65064,-0.8728 -1.83289,-0.8728 -1.17431,0 -1.83288,0.8728 -0.65064,0.87281 -0.65064,2.45972 0,1.57898 0.65064,2.45178 0.65857,0.8728 1.83288,0.8728 1.18225,0 1.83289,-0.8728 0.65857,-0.8728 0.65857,-2.45178 z m 1.45996,3.4436 q 0,2.26929 -1.00769,3.3722 -1.00769,1.11084 -3.08655,1.11084 -0.76965,0 -1.45203,-0.11902 -0.68237,-0.11109 -1.32507,-0.34912 l 0,-1.42029 q 0.6427,0.34912 1.26953,0.51574 0.62683,0.16663 1.27747,0.16663 1.43615,0 2.15027,-0.75378 0.71411,-0.74585 0.71411,-2.26136 l 0,-0.72204 q -0.45227,0.78552 -1.15845,1.17431 -0.70618,0.3888 -1.69006,0.3888 -1.63452,0 -2.63428,-1.24573 -0.99976,-1.24573 -0.99976,-3.30078 0,-2.06299 0.99976,-3.30872 0.99976,-1.24572 2.63428,-1.24572 0.98388,0 1.69006,0.38879 0.70618,0.38879 1.15845,1.17432 l 0,-1.34888 1.45996,0 0,7.78381 z"
         style="letter-spacing:0px;fill:#666666"
         id="path3425"
         inkscape:connector-curvature="0" />
      <path
         d="m 330.52686,234.28412 0,5.36377 -1.45997,0 0,-5.31616 q 0,-1.2616 -0.49194,-1.88843 -0.49194,-0.62683 -1.47583,-0.62683 -1.18225,0 -1.86462,0.75378 -0.68238,0.75379 -0.68238,2.05506 l 0,5.02258 -1.46789,0 0,-8.88672 1.46789,0 0,1.38061 q 0.52369,-0.80139 1.22986,-1.19812 0.71411,-0.39672 1.64246,-0.39672 1.53137,0 2.31689,0.95214 0.78553,0.94422 0.78553,2.78504 z"
         style="letter-spacing:0px;fill:#666666"
         id="path3427"
         inkscape:connector-curvature="0" />
    </g>
    <g
       id="g3830"
       transform="matrix(-0.56338198,1.1158408,-1.1158408,-0.56338198,670.32966,146.48655)">
      <g
         transform="matrix(1,0,0,-1,0,146)"
         id="g3832">
        <path
           inkscape:connector-curvature="0"
           id="path3834"
           style="fill:none;stroke:#000000;stroke-width:1;stroke-linecap:butt;stroke-linejoin:miter;stroke-miterlimit:4;stroke-dasharray:none;stroke-opacity:1"
           d="m 136.902,18.934 -2.324,2.324 4.645,4.64 -4.645,4.645 4.645,4.641 -2.5,2.5 0,1.074" />
      </g>
      <g
         transform="matrix(0,-1,-1,0,0,146)"
         id="g3836">
        <path
           inkscape:connector-curvature="0"
           id="path3838"
           style="fill:#000000;fill-opacity:1;fill-rule:evenodd;stroke:#000000;stroke-width:0.5;stroke-linecap:butt;stroke-linejoin:miter;stroke-miterlimit:4;stroke-dasharray:none;stroke-opacity:1"
           d="m 41.063,-136.723 -3.458,2 0,-4 3.458,2 z" />
      </g>
    </g>
    <g
       id="g3840"
       transform="matrix(0.56338198,-1.1158408,1.1158408,0.56338198,57.657711,289.6554)">
      <g
         transform="matrix(1,0,0,-1,0,146)"
         id="g3842">
        <path
           inkscape:connector-curvature="0"
           id="path3844"
           style="fill:none;stroke:#000000;stroke-width:1;stroke-linecap:butt;stroke-linejoin:miter;stroke-miterlimit:4;stroke-dasharray:none;stroke-opacity:1"
           d="m 136.902,18.934 -2.324,2.324 4.645,4.64 -4.645,4.645 4.645,4.641 -2.5,2.5 0,1.074" />
      </g>
      <g
         transform="matrix(0,-1,-1,0,0,146)"
         id="g3846">
        <path
           inkscape:connector-curvature="0"
           id="path3848"
           style="fill:#000000;fill-opacity:1;fill-rule:evenodd;stroke:#000000;stroke-width:0.5;stroke-linecap:butt;stroke-linejoin:miter;stroke-miterlimit:4;stroke-dasharray:none;stroke-opacity:1"
           d="m 41.063,-136.723 -3.458,2 0,-4 3.458,2 z" />
      </g>
    </g>
    <g
       transform="matrix(-0.56338198,-1.1158408,-1.1158408,0.56338198,670.32966,289.6554)"
       id="g3850">
      <g
         id="g3852"
         transform="matrix(1,0,0,-1,0,146)">
        <path
           d="m 136.902,18.934 -2.324,2.324 4.645,4.64 -4.645,4.645 4.645,4.641 -2.5,2.5 0,1.074"
           style="fill:none;stroke:#000000;stroke-width:1;stroke-linecap:butt;stroke-linejoin:miter;stroke-miterlimit:4;stroke-dasharray:none;stroke-opacity:1"
           id="path3854"
           inkscape:connector-curvature="0" />
      </g>
      <g
         id="g3856"
         transform="matrix(0,-1,-1,0,0,146)">
        <path
           d="m 41.063,-136.723 -3.458,2 0,-4 3.458,2 z"
           style="fill:#000000;fill-opacity:1;fill-rule:evenodd;stroke:#000000;stroke-width:0.5;stroke-linecap:butt;stroke-linejoin:miter;stroke-miterlimit:4;stroke-dasharray:none;stroke-opacity:1"
           id="path3858"
           inkscape:connector-curvature="0" />
      </g>
    </g>
    <g
       style="font-style:normal;font-weight:normal;font-size:16.25px;line-height:125%;font-family:sans-serif;letter-spacing:0px;word-spacing:0px;fill:#000000;fill-opacity:1;stroke:none;stroke-width:1px;stroke-linecap:butt;stroke-linejoin:miter;stroke-opacity:1"
       id="text3898">
      <path
         d="m 285.00925,284.27795 q -1.71387,0 -2.58179,1.6919 -0.85693,1.68091 -0.85693,5.0647 0,3.3728 0.85693,5.06469 0.86792,1.68091 2.58179,1.68091 1.72485,0 2.58178,-1.68091 0.86792,-1.69189 0.86792,-5.06469 0,-3.38379 -0.86792,-5.0647 -0.85693,-1.6919 -2.58178,-1.6919 z m 0,-1.75781 q 2.75757,0 4.20776,2.18628 1.46118,2.17529 1.46118,6.32813 0,4.14184 -1.46118,6.32812 -1.45019,2.17529 -4.20776,2.17529 -2.75757,0 -4.21875,-2.17529 -1.4502,-2.18628 -1.4502,-6.32812 0,-4.15284 1.4502,-6.32813 1.46118,-2.18628 4.21875,-2.18628 z"
         style="font-size:22.5px"
         id="path3551"
         inkscape:connector-curvature="0" />
      <path
         d="m 294.97385,297.35168 3.62548,0 0,-12.51342 -3.94409,0.79101 0,-2.02148 3.92212,-0.79102 2.21924,0 0,14.53491 3.62549,0 0,1.86768 -9.44824,0 0,-1.86768 z"
         style="fill:#ff0000"
         id="path3553"
         inkscape:connector-curvature="0" />
      <path
         d="m 309.30002,297.35168 3.62549,0 0,-12.51342 -3.9441,0.79101 0,-2.02148 3.92212,-0.79102 2.21924,0 0,14.53491 3.62549,0 0,1.86768 -9.44824,0 0,-1.86768 z"
         style="fill:#ff0000"
         id="path3555"
         inkscape:connector-curvature="0" />
      <path
         d="m 323.62619,297.35168 3.62549,0 0,-12.51342 -3.94409,0.79101 0,-2.02148 3.92212,-0.79102 2.21923,0 0,14.53491 3.62549,0 0,1.86768 -9.44824,0 0,-1.86768 z"
         style="font-size:22.5px"
         id="path3557"
         inkscape:connector-curvature="0" />
      <path
         d="m 342.31393,284.27795 q -1.71386,0 -2.58178,1.6919 -0.85694,1.68091 -0.85694,5.0647 0,3.3728 0.85694,5.06469 0.86792,1.68091 2.58178,1.68091 1.72486,0 2.58179,-1.68091 0.86792,-1.69189 0.86792,-5.06469 0,-3.38379 -0.86792,-5.0647 -0.85693,-1.6919 -2.58179,-1.6919 z m 0,-1.75781 q 2.75757,0 4.20777,2.18628 1.46118,2.17529 1.46118,6.32813 0,4.14184 -1.46118,6.32812 -1.4502,2.17529 -4.20777,2.17529 -2.75756,0 -4.21875,-2.17529 -1.45019,-2.18628 -1.45019,-6.32812 0,-4.15284 1.45019,-6.32813 1.46119,-2.18628 4.21875,-2.18628 z"
         style="font-size:22.5px"
         id="path3559"
         inkscape:connector-curvature="0" />
      <path
         d="m 356.64011,284.27795 q -1.71387,0 -2.58179,1.6919 -0.85693,1.68091 -0.85693,5.0647 0,3.3728 0.85693,5.06469 0.86792,1.68091 2.58179,1.68091 1.72485,0 2.58178,-1.68091 0.86792,-1.69189 0.86792,-5.06469 0,-3.38379 -0.86792,-5.0647 -0.85693,-1.6919 -2.58178,-1.6919 z m 0,-1.75781 q 2.75756,0 4.20776,2.18628 1.46118,2.17529 1.46118,6.32813 0,4.14184 -1.46118,6.32812 -1.4502,2.17529 -4.20776,2.17529 -2.75757,0 -4.21875,-2.17529 -1.4502,-2.18628 -1.4502,-6.32812 0,-4.15284 1.4502,-6.32813 1.46118,-2.18628 4.21875,-2.18628 z"
         style="font-size:22.5px"
         id="path3561"
         inkscape:connector-curvature="0" />
      <path
         d="m 366.60471,297.35168 3.62548,0 0,-12.51342 -3.94409,0.79101 0,-2.02148 3.92212,-0.79102 2.21924,0 0,14.53491 3.62549,0 0,1.86768 -9.44824,0 0,-1.86768 z"
         style="font-size:22.5px"
         id="path3563"
         inkscape:connector-curvature="0" />
      <path
         d="m 380.93088,297.35168 3.62549,0 0,-12.51342 -3.9441,0.79101 0,-2.02148 3.92212,-0.79102 2.21924,0 0,14.53491 3.62549,0 0,1.86768 -9.44824,0 0,-1.86768 z"
         style="font-size:22.5px"
         id="path3565"
         inkscape:connector-curvature="0" />
      <path
         d="m 399.61862,284.27795 q -1.71387,0 -2.58179,1.6919 -0.85693,1.68091 -0.85693,5.0647 0,3.3728 0.85693,5.06469 0.86792,1.68091 2.58179,1.68091 1.72486,0 2.58179,-1.68091 0.86792,-1.69189 0.86792,-5.06469 0,-3.38379 -0.86792,-5.0647 -0.85693,-1.6919 -2.58179,-1.6919 z m 0,-1.75781 q 2.75757,0 4.20777,2.18628 1.46118,2.17529 1.46118,6.32813 0,4.14184 -1.46118,6.32812 -1.4502,2.17529 -4.20777,2.17529 -2.75757,0 -4.21875,-2.17529 -1.45019,-2.18628 -1.45019,-6.32812 0,-4.15284 1.45019,-6.32813 1.46118,-2.18628 4.21875,-2.18628 z"
         style="font-size:22.5px"
         id="path3567"
         inkscape:connector-curvature="0" />
      <path
         d="m 413.94479,284.27795 q -1.71386,0 -2.58178,1.6919 -0.85694,1.68091 -0.85694,5.0647 0,3.3728 0.85694,5.06469 0.86792,1.68091 2.58178,1.68091 1.72486,0 2.58179,-1.68091 0.86792,-1.69189 0.86792,-5.06469 0,-3.38379 -0.86792,-5.0647 -0.85693,-1.6919 -2.58179,-1.6919 z m 0,-1.75781 q 2.75757,0 4.20777,2.18628 1.46118,2.17529 1.46118,6.32813 0,4.14184 -1.46118,6.32812 -1.4502,2.17529 -4.20777,2.17529 -2.75756,0 -4.21875,-2.17529 -1.45019,-2.18628 -1.45019,-6.32812 0,-4.15284 1.45019,-6.32813 1.46119,-2.18628 4.21875,-2.18628 z"
         style="font-size:22.5px"
         id="path3569"
         inkscape:connector-curvature="0" />
      <path
         d="m 428.27097,284.27795 q -1.71387,0 -2.58179,1.6919 -0.85694,1.68091 -0.85694,5.0647 0,3.3728 0.85694,5.06469 0.86792,1.68091 2.58179,1.68091 1.72485,0 2.58178,-1.68091 0.86792,-1.69189 0.86792,-5.06469 0,-3.38379 -0.86792,-5.0647 -0.85693,-1.6919 -2.58178,-1.6919 z m 0,-1.75781 q 2.75756,0 4.20776,2.18628 1.46118,2.17529 1.46118,6.32813 0,4.14184 -1.46118,6.32812 -1.4502,2.17529 -4.20776,2.17529 -2.75757,0 -4.21875,-2.17529 -1.4502,-2.18628 -1.4502,-6.32812 0,-4.15284 1.4502,-6.32813 1.46118,-2.18628 4.21875,-2.18628 z"
         style="font-size:22.5px"
         id="path3571"
         inkscape:connector-curvature="0" />
      <path
         d="m 438.23557,297.35168 3.62548,0 0,-12.51342 -3.94409,0.79101 0,-2.02148 3.92212,-0.79102 2.21924,0 0,14.53491 3.62549,0 0,1.86768 -9.44824,0 0,-1.86768 z"
         style="font-size:22.5px"
         id="path3573"
         inkscape:connector-curvature="0" />
    </g>
    <g
       id="g3904"
       transform="matrix(1.2499754,0.0078367,0.0078367,-1.2499754,192.7986,395.16692)">
      <g
         transform="matrix(1,0,0,-1,0,146)"
         id="g3906">
        <path
           inkscape:connector-curvature="0"
           id="path3908"
           style="fill:none;stroke:#000000;stroke-width:1;stroke-linecap:butt;stroke-linejoin:miter;stroke-miterlimit:4;stroke-dasharray:none;stroke-opacity:1"
           d="m 136.902,18.934 -2.324,2.324 4.645,4.64 -4.645,4.645 4.645,4.641 -2.5,2.5 0,1.074" />
      </g>
      <g
         transform="matrix(0,-1,-1,0,0,146)"
         id="g3910">
        <path
           inkscape:connector-curvature="0"
           id="path3912"
           style="fill:#000000;fill-opacity:1;fill-rule:evenodd;stroke:#000000;stroke-width:0.5;stroke-linecap:butt;stroke-linejoin:miter;stroke-miterlimit:4;stroke-dasharray:none;stroke-opacity:1"
           d="m 41.063,-136.723 -3.458,2 0,-4 3.458,2 z" />
      </g>
    </g>
    <g
       style="font-style:normal;font-weight:normal;font-size:16.25px;line-height:125%;font-family:sans-serif;letter-spacing:1px;word-spacing:0px;fill:#666666;fill-opacity:1;stroke:none;stroke-width:1px;stroke-linecap:butt;stroke-linejoin:miter;stroke-opacity:1"
       id="text3914"
       transform="matrix(1.1927206,0,0,1.1927206,-53.860746,-56.876192)">
      <path
         d="m 286.45032,308.4671 q 0.54748,-0.98388 1.3092,-1.45202 0.76172,-0.46814 1.79321,-0.46814 1.38855,0 2.14234,0.97595 0.75378,0.96802 0.75378,2.76123 l 0,5.36377 -1.46789,0 0,-5.31616 q 0,-1.27747 -0.45227,-1.89637 -0.45227,-0.61889 -1.38062,-0.61889 -1.13464,0 -1.79321,0.75378 -0.65857,0.75379 -0.65857,2.05506 l 0,5.02258 -1.4679,0 0,-5.31616 q 0,-1.2854 -0.45227,-1.89637 -0.45227,-0.61889 -1.39648,-0.61889 -1.11878,0 -1.77735,0.76172 -0.65856,0.75378 -0.65856,2.04712 l 0,5.02258 -1.4679,0 0,-8.88672 1.4679,0 0,1.38061 q 0.49987,-0.81726 1.19812,-1.20605 0.69824,-0.38879 1.65832,-0.38879 0.96802,0 1.64246,0.49194 0.68237,0.49194 1.00769,1.42822 z"
         style="letter-spacing:0px;fill:#666666"
         id="path3538"
         inkscape:connector-curvature="0" />
      <path
         d="m 295.36877,306.76117 1.45997,0 0,8.88672 -1.45997,0 0,-8.88672 z m 0,-3.45947 1.45997,0 0,1.84875 -1.45997,0 0,-1.84875 z"
         style="letter-spacing:0px;fill:#666666"
         id="path3540"
         inkscape:connector-curvature="0" />
      <path
         d="m 305.54089,307.02301 0,1.38062 q -0.61889,-0.31739 -1.2854,-0.47608 -0.6665,-0.15869 -1.38061,-0.15869 -1.08704,0 -1.63452,0.33325 -0.53955,0.33325 -0.53955,0.99976 0,0.50781 0.38879,0.80139 0.38879,0.28564 1.56311,0.54748 l 0.49988,0.11109 q 1.55517,0.33325 2.20581,0.94421 0.65857,0.60303 0.65857,1.69007 0,1.23779 -0.98389,1.95983 -0.97595,0.72205 -2.68982,0.72205 -0.71411,0 -1.4917,-0.14282 -0.76965,-0.13489 -1.62658,-0.4126 l 0,-1.50757 q 0.80932,0.42053 1.59484,0.63477 0.78553,0.2063 1.55518,0.2063 1.03149,0 1.58691,-0.34912 0.55542,-0.35706 0.55542,-0.99976 0,-0.59509 -0.40466,-0.91248 -0.39673,-0.31738 -1.75354,-0.61096 l -0.50781,-0.11902 q -1.35681,-0.28564 -1.95984,-0.8728 -0.60303,-0.59509 -0.60303,-1.62659 0,-1.25366 0.88867,-1.93603 0.88868,-0.68237 2.5232,-0.68237 0.80932,0 1.52343,0.11901 0.71412,0.11902 1.31714,0.35706 z"
         style="letter-spacing:0px;fill:#666666"
         id="path3542"
         inkscape:connector-curvature="0" />
      <path
         d="m 314.01501,307.02301 0,1.38062 q -0.61889,-0.31739 -1.2854,-0.47608 -0.6665,-0.15869 -1.38061,-0.15869 -1.08704,0 -1.63452,0.33325 -0.53955,0.33325 -0.53955,0.99976 0,0.50781 0.38879,0.80139 0.38879,0.28564 1.56311,0.54748 l 0.49988,0.11109 q 1.55517,0.33325 2.20581,0.94421 0.65857,0.60303 0.65857,1.69007 0,1.23779 -0.98389,1.95983 -0.97595,0.72205 -2.68982,0.72205 -0.71411,0 -1.4917,-0.14282 -0.76965,-0.13489 -1.62658,-0.4126 l 0,-1.50757 q 0.80932,0.42053 1.59485,0.63477 0.78552,0.2063 1.55517,0.2063 1.0315,0 1.58692,-0.34912 0.55542,-0.35706 0.55542,-0.99976 0,-0.59509 -0.40467,-0.91248 -0.39673,-0.31738 -1.75354,-0.61096 l -0.50781,-0.11902 q -1.35681,-0.28564 -1.95984,-0.8728 -0.60303,-0.59509 -0.60303,-1.62659 0,-1.25366 0.88868,-1.93603 0.88867,-0.68237 2.52319,-0.68237 0.80932,0 1.52344,0.11901 0.71411,0.11902 1.31713,0.35706 z"
         style="letter-spacing:0px;fill:#666666"
         id="path3544"
         inkscape:connector-curvature="0" />
      <path
         d="m 324.42517,310.83954 0,0.71411 -6.71265,0 q 0.0952,1.50757 0.90455,2.30103 0.81726,0.78552 2.26928,0.78552 0.84107,0 1.62659,-0.2063 0.79346,-0.2063 1.57104,-0.6189 l 0,1.38062 q -0.78552,0.33325 -1.61071,0.50781 -0.8252,0.17456 -1.6742,0.17456 -2.12646,0 -3.37219,-1.23779 -1.23779,-1.2378 -1.23779,-3.34839 0,-2.18201 1.17431,-3.45947 1.18225,-1.2854 3.18177,-1.2854 1.79321,0 2.83264,1.15844 1.04736,1.15052 1.04736,3.13416 z m -1.45996,-0.42847 q -0.0159,-1.19812 -0.67444,-1.91223 -0.65063,-0.71411 -1.72973,-0.71411 -1.22193,0 -1.95984,0.69031 -0.72998,0.6903 -0.84107,1.94397 l 5.20508,-0.008 z"
         style="letter-spacing:0px;fill:#666666"
         id="path3546"
         inkscape:connector-curvature="0" />
      <path
         d="m 332.66919,308.11005 0,-4.80835 1.45996,0 0,12.34619 -1.45996,0 0,-1.33301 q -0.46021,0.79346 -1.16638,1.18225 -0.69824,0.38086 -1.68213,0.38086 -1.61072,0 -2.62634,-1.2854 -1.00769,-1.2854 -1.00769,-3.38013 0,-2.09472 1.00769,-3.38012 1.01562,-1.2854 2.62634,-1.2854 0.98389,0 1.68213,0.38879 0.70617,0.38086 1.16638,1.17432 z m -4.97498,3.10241 q 0,1.61072 0.65857,2.53113 0.66651,0.91248 1.82495,0.91248 1.15845,0 1.82496,-0.91248 0.6665,-0.92041 0.6665,-2.53113 0,-1.61071 -0.6665,-2.52319 -0.66651,-0.92041 -1.82496,-0.92041 -1.15844,0 -1.82495,0.92041 -0.65857,0.91248 -0.65857,2.52319 z"
         style="letter-spacing:0px;fill:#666666"
         id="path3548"
         inkscape:connector-curvature="0" />
    </g>
  </g>
</svg>
