<?xml version='1.0' encoding='ASCII' standalone='yes'?>
<svg xmlns="http://www.w3.org/2000/svg" version="1.1" width="6.4in" viewbox="0 0 6.4in 1.7in" height="1.7in">
  <g>
    <g><defs>
  <style type="text/css">
*{stroke-linecap:butt;stroke-linejoin:round;}
  </style>
 </defs>
 <g xmlns:xlink="http://www.w3.org/1999/xlink" id="figure_1">
  <g id="patch_1">
   <path d="M 0 163.13925  L 196.24925 163.13925  L 196.24925 0  L 0 0  z " style="fill:#ffffff;"/>
  </g>
  <g id="axes_1">
   <g id="patch_2">
    <path d="M 49.12925 124.08  L 183.04925 124.08  L 183.04925 13.2  L 49.12925 13.2  z " style="fill:#ffffff;"/>
   </g>
   <g id="matplotlib.axis_1">
    <g id="xtick_1">
     <g id="line2d_1">
      <defs>
       <path d="M 0 0  L 0 6  " id="m2db56d2d90" style="stroke:#262626;stroke-width:0.8;"/>
      </defs>
      <g>
       <use style="fill:#262626;stroke:#262626;stroke-width:0.8;" x="49.12925" xlink:href="#m2db56d2d90" y="124.08"/>
      </g>
     </g>
     <g id="text_1">
      <!-- 0 -->
      <defs>
       <path d="M 31.78125 66.40625  Q 24.171875 66.40625 20.328125 58.90625  Q 16.5 51.421875 16.5 36.375  Q 16.5 21.390625 20.328125 13.890625  Q 24.171875 6.390625 31.78125 6.390625  Q 39.453125 6.390625 43.28125 13.890625  Q 47.125 21.390625 47.125 36.375  Q 47.125 51.421875 43.28125 58.90625  Q 39.453125 66.40625 31.78125 66.40625  z M 31.78125 74.21875  Q 44.046875 74.21875 50.515625 64.515625  Q 56.984375 54.828125 56.984375 36.375  Q 56.984375 17.96875 50.515625 8.265625  Q 44.046875 -1.421875 31.78125 -1.421875  Q 19.53125 -1.421875 13.0625 8.265625  Q 6.59375 17.96875 6.59375 36.375  Q 6.59375 54.828125 13.0625 64.515625  Q 19.53125 74.21875 31.78125 74.21875  z " id="DejaVuSans-30"/>
      </defs>
      <g style="fill:#262626;" transform="translate(46.58425 141.75875)scale(0.08 -0.08)">
       <use xlink:href="#DejaVuSans-30"/>
      </g>
     </g>
    </g>
    <g id="xtick_2">
     <g id="line2d_2">
      <g>
       <use style="fill:#262626;stroke:#262626;stroke-width:0.8;" x="90.272107" xlink:href="#m2db56d2d90" y="124.08"/>
      </g>
     </g>
     <g id="text_2">
      <!-- 10 -->
      <defs>
       <path d="M 12.40625 8.296875  L 28.515625 8.296875  L 28.515625 63.921875  L 10.984375 60.40625  L 10.984375 69.390625  L 28.421875 72.90625  L 38.28125 72.90625  L 38.28125 8.296875  L 54.390625 8.296875  L 54.390625 0  L 12.40625 0  z " id="DejaVuSans-31"/>
      </defs>
      <g style="fill:#262626;" transform="translate(85.182107 141.75875)scale(0.08 -0.08)">
       <use xlink:href="#DejaVuSans-31"/>
       <use x="63.623047" xlink:href="#DejaVuSans-30"/>
      </g>
     </g>
    </g>
    <g id="xtick_3">
     <g id="line2d_3">
      <g>
       <use style="fill:#262626;stroke:#262626;stroke-width:0.8;" x="131.414964" xlink:href="#m2db56d2d90" y="124.08"/>
      </g>
     </g>
     <g id="text_3">
      <!-- 20 -->
      <defs>
       <path d="M 19.1875 8.296875  L 53.609375 8.296875  L 53.609375 0  L 7.328125 0  L 7.328125 8.296875  Q 12.9375 14.109375 22.625 23.890625  Q 32.328125 33.6875 34.8125 36.53125  Q 39.546875 41.84375 41.421875 45.53125  Q 43.3125 49.21875 43.3125 52.78125  Q 43.3125 58.59375 39.234375 62.25  Q 35.15625 65.921875 28.609375 65.921875  Q 23.96875 65.921875 18.8125 64.3125  Q 13.671875 62.703125 7.8125 59.421875  L 7.8125 69.390625  Q 13.765625 71.78125 18.9375 73  Q 24.125 74.21875 28.421875 74.21875  Q 39.75 74.21875 46.484375 68.546875  Q 53.21875 62.890625 53.21875 53.421875  Q 53.21875 48.921875 51.53125 44.890625  Q 49.859375 40.875 45.40625 35.40625  Q 44.1875 33.984375 37.640625 27.21875  Q 31.109375 20.453125 19.1875 8.296875  z " id="DejaVuSans-32"/>
      </defs>
      <g style="fill:#262626;" transform="translate(126.324964 141.75875)scale(0.08 -0.08)">
       <use xlink:href="#DejaVuSans-32"/>
       <use x="63.623047" xlink:href="#DejaVuSans-30"/>
      </g>
     </g>
    </g>
    <g id="xtick_4">
     <g id="line2d_4">
      <g>
       <use style="fill:#262626;stroke:#262626;stroke-width:0.8;" x="172.557821" xlink:href="#m2db56d2d90" y="124.08"/>
      </g>
     </g>
     <g id="text_4">
      <!-- 30 -->
      <defs>
       <path d="M 40.578125 39.3125  Q 47.65625 37.796875 51.625 33  Q 55.609375 28.21875 55.609375 21.1875  Q 55.609375 10.40625 48.1875 4.484375  Q 40.765625 -1.421875 27.09375 -1.421875  Q 22.515625 -1.421875 17.65625 -0.515625  Q 12.796875 0.390625 7.625 2.203125  L 7.625 11.71875  Q 11.71875 9.328125 16.59375 8.109375  Q 21.484375 6.890625 26.8125 6.890625  Q 36.078125 6.890625 40.9375 10.546875  Q 45.796875 14.203125 45.796875 21.1875  Q 45.796875 27.640625 41.28125 31.265625  Q 36.765625 34.90625 28.71875 34.90625  L 20.21875 34.90625  L 20.21875 43.015625  L 29.109375 43.015625  Q 36.375 43.015625 40.234375 45.921875  Q 44.09375 48.828125 44.09375 54.296875  Q 44.09375 59.90625 40.109375 62.90625  Q 36.140625 65.921875 28.71875 65.921875  Q 24.65625 65.921875 20.015625 65.03125  Q 15.375 64.15625 9.8125 62.3125  L 9.8125 71.09375  Q 15.4375 72.65625 20.34375 73.4375  Q 25.25 74.21875 29.59375 74.21875  Q 40.828125 74.21875 47.359375 69.109375  Q 53.90625 64.015625 53.90625 55.328125  Q 53.90625 49.265625 50.4375 45.09375  Q 46.96875 40.921875 40.578125 39.3125  z " id="DejaVuSans-33"/>
      </defs>
      <g style="fill:#262626;" transform="translate(167.467821 141.75875)scale(0.08 -0.08)">
       <use xlink:href="#DejaVuSans-33"/>
       <use x="63.623047" xlink:href="#DejaVuSans-30"/>
      </g>
     </g>
    </g>
    <g id="text_5">
     <!-- expression -->
     <defs>
      <path d="M 56.203125 29.59375  L 56.203125 25.203125  L 14.890625 25.203125  Q 15.484375 15.921875 20.484375 11.0625  Q 25.484375 6.203125 34.421875 6.203125  Q 39.59375 6.203125 44.453125 7.46875  Q 49.3125 8.734375 54.109375 11.28125  L 54.109375 2.78125  Q 49.265625 0.734375 44.1875 -0.34375  Q 39.109375 -1.421875 33.890625 -1.421875  Q 20.796875 -1.421875 13.15625 6.1875  Q 5.515625 13.8125 5.515625 26.8125  Q 5.515625 40.234375 12.765625 48.109375  Q 20.015625 56 32.328125 56  Q 43.359375 56 49.78125 48.890625  Q 56.203125 41.796875 56.203125 29.59375  z M 47.21875 32.234375  Q 47.125 39.59375 43.09375 43.984375  Q 39.0625 48.390625 32.421875 48.390625  Q 24.90625 48.390625 20.390625 44.140625  Q 15.875 39.890625 15.1875 32.171875  z " id="DejaVuSans-65"/>
      <path d="M 54.890625 54.6875  L 35.109375 28.078125  L 55.90625 0  L 45.3125 0  L 29.390625 21.484375  L 13.484375 0  L 2.875 0  L 24.125 28.609375  L 4.6875 54.6875  L 15.28125 54.6875  L 29.78125 35.203125  L 44.28125 54.6875  z " id="DejaVuSans-78"/>
      <path d="M 18.109375 8.203125  L 18.109375 -20.796875  L 9.078125 -20.796875  L 9.078125 54.6875  L 18.109375 54.6875  L 18.109375 46.390625  Q 20.953125 51.265625 25.265625 53.625  Q 29.59375 56 35.59375 56  Q 45.5625 56 51.78125 48.09375  Q 58.015625 40.1875 58.015625 27.296875  Q 58.015625 14.40625 51.78125 6.484375  Q 45.5625 -1.421875 35.59375 -1.421875  Q 29.59375 -1.421875 25.265625 0.953125  Q 20.953125 3.328125 18.109375 8.203125  z M 48.6875 27.296875  Q 48.6875 37.203125 44.609375 42.84375  Q 40.53125 48.484375 33.40625 48.484375  Q 26.265625 48.484375 22.1875 42.84375  Q 18.109375 37.203125 18.109375 27.296875  Q 18.109375 17.390625 22.1875 11.75  Q 26.265625 6.109375 33.40625 6.109375  Q 40.53125 6.109375 44.609375 11.75  Q 48.6875 17.390625 48.6875 27.296875  z " id="DejaVuSans-70"/>
      <path d="M 41.109375 46.296875  Q 39.59375 47.171875 37.8125 47.578125  Q 36.03125 48 33.890625 48  Q 26.265625 48 22.1875 43.046875  Q 18.109375 38.09375 18.109375 28.8125  L 18.109375 0  L 9.078125 0  L 9.078125 54.6875  L 18.109375 54.6875  L 18.109375 46.1875  Q 20.953125 51.171875 25.484375 53.578125  Q 30.03125 56 36.53125 56  Q 37.453125 56 38.578125 55.875  Q 39.703125 55.765625 41.0625 55.515625  z " id="DejaVuSans-72"/>
      <path d="M 44.28125 53.078125  L 44.28125 44.578125  Q 40.484375 46.53125 36.375 47.5  Q 32.28125 48.484375 27.875 48.484375  Q 21.1875 48.484375 17.84375 46.4375  Q 14.5 44.390625 14.5 40.28125  Q 14.5 37.15625 16.890625 35.375  Q 19.28125 33.59375 26.515625 31.984375  L 29.59375 31.296875  Q 39.15625 29.25 43.1875 25.515625  Q 47.21875 21.78125 47.21875 15.09375  Q 47.21875 7.46875 41.1875 3.015625  Q 35.15625 -1.421875 24.609375 -1.421875  Q 20.21875 -1.421875 15.453125 -0.5625  Q 10.6875 0.296875 5.421875 2  L 5.421875 11.28125  Q 10.40625 8.6875 15.234375 7.390625  Q 20.0625 6.109375 24.8125 6.109375  Q 31.15625 6.109375 34.5625 8.28125  Q 37.984375 10.453125 37.984375 14.40625  Q 37.984375 18.0625 35.515625 20.015625  Q 33.0625 21.96875 24.703125 23.78125  L 21.578125 24.515625  Q 13.234375 26.265625 9.515625 29.90625  Q 5.8125 33.546875 5.8125 39.890625  Q 5.8125 47.609375 11.28125 51.796875  Q 16.75 56 26.8125 56  Q 31.78125 56 36.171875 55.265625  Q 40.578125 54.546875 44.28125 53.078125  z " id="DejaVuSans-73"/>
      <path d="M 9.421875 54.6875  L 18.40625 54.6875  L 18.40625 0  L 9.421875 0  z M 9.421875 75.984375  L 18.40625 75.984375  L 18.40625 64.59375  L 9.421875 64.59375  z " id="DejaVuSans-69"/>
      <path d="M 30.609375 48.390625  Q 23.390625 48.390625 19.1875 42.75  Q 14.984375 37.109375 14.984375 27.296875  Q 14.984375 17.484375 19.15625 11.84375  Q 23.34375 6.203125 30.609375 6.203125  Q 37.796875 6.203125 41.984375 11.859375  Q 46.1875 17.53125 46.1875 27.296875  Q 46.1875 37.015625 41.984375 42.703125  Q 37.796875 48.390625 30.609375 48.390625  z M 30.609375 56  Q 42.328125 56 49.015625 48.375  Q 55.71875 40.765625 55.71875 27.296875  Q 55.71875 13.875 49.015625 6.21875  Q 42.328125 -1.421875 30.609375 -1.421875  Q 18.84375 -1.421875 12.171875 6.21875  Q 5.515625 13.875 5.515625 27.296875  Q 5.515625 40.765625 12.171875 48.375  Q 18.84375 56 30.609375 56  z " id="DejaVuSans-6f"/>
      <path d="M 54.890625 33.015625  L 54.890625 0  L 45.90625 0  L 45.90625 32.71875  Q 45.90625 40.484375 42.875 44.328125  Q 39.84375 48.1875 33.796875 48.1875  Q 26.515625 48.1875 22.3125 43.546875  Q 18.109375 38.921875 18.109375 30.90625  L 18.109375 0  L 9.078125 0  L 9.078125 54.6875  L 18.109375 54.6875  L 18.109375 46.1875  Q 21.34375 51.125 25.703125 53.5625  Q 30.078125 56 35.796875 56  Q 45.21875 56 50.046875 50.171875  Q 54.890625 44.34375 54.890625 33.015625  z " id="DejaVuSans-6e"/>
     </defs>
     <g style="fill:#262626;" transform="translate(92.182812 154.109125)scale(0.088 -0.088)">
      <use xlink:href="#DejaVuSans-65"/>
      <use x="61.507812" xlink:href="#DejaVuSans-78"/>
      <use x="120.6875" xlink:href="#DejaVuSans-70"/>
      <use x="184.164062" xlink:href="#DejaVuSans-72"/>
      <use x="225.246094" xlink:href="#DejaVuSans-65"/>
      <use x="286.769531" xlink:href="#DejaVuSans-73"/>
      <use x="338.869141" xlink:href="#DejaVuSans-73"/>
      <use x="390.96875" xlink:href="#DejaVuSans-69"/>
      <use x="418.751953" xlink:href="#DejaVuSans-6f"/>
      <use x="479.933594" xlink:href="#DejaVuSans-6e"/>
     </g>
    </g>
   </g>
   <g id="matplotlib.axis_2">
    <g id="ytick_1">
     <g id="line2d_5">
      <defs>
       <path d="M 0 0  L -6 0  " id="m6595b0e531" style="stroke:#262626;stroke-width:0.8;"/>
      </defs>
      <g>
       <use style="fill:#262626;stroke:#262626;stroke-width:0.8;" x="49.12925" xlink:href="#m6595b0e531" y="124.08"/>
      </g>
     </g>
     <g id="text_6">
      <!-- 0.00 -->
      <defs>
       <path d="M 10.6875 12.40625  L 21 12.40625  L 21 0  L 10.6875 0  z " id="DejaVuSans-2e"/>
      </defs>
      <g style="fill:#262626;" transform="translate(19.71675 127.119375)scale(0.08 -0.08)">
       <use xlink:href="#DejaVuSans-30"/>
       <use x="63.623047" xlink:href="#DejaVuSans-2e"/>
       <use x="95.410156" xlink:href="#DejaVuSans-30"/>
       <use x="159.033203" xlink:href="#DejaVuSans-30"/>
      </g>
     </g>
    </g>
    <g id="ytick_2">
     <g id="line2d_6">
      <g>
       <use style="fill:#262626;stroke:#262626;stroke-width:0.8;" x="49.12925" xlink:href="#m6595b0e531" y="96.526388"/>
      </g>
     </g>
     <g id="text_7">
      <!-- 0.05 -->
      <defs>
       <path d="M 10.796875 72.90625  L 49.515625 72.90625  L 49.515625 64.59375  L 19.828125 64.59375  L 19.828125 46.734375  Q 21.96875 47.46875 24.109375 47.828125  Q 26.265625 48.1875 28.421875 48.1875  Q 40.625 48.1875 47.75 41.5  Q 54.890625 34.8125 54.890625 23.390625  Q 54.890625 11.625 47.5625 5.09375  Q 40.234375 -1.421875 26.90625 -1.421875  Q 22.3125 -1.421875 17.546875 -0.640625  Q 12.796875 0.140625 7.71875 1.703125  L 7.71875 11.625  Q 12.109375 9.234375 16.796875 8.0625  Q 21.484375 6.890625 26.703125 6.890625  Q 35.15625 6.890625 40.078125 11.328125  Q 45.015625 15.765625 45.015625 23.390625  Q 45.015625 31 40.078125 35.4375  Q 35.15625 39.890625 26.703125 39.890625  Q 22.75 39.890625 18.8125 39.015625  Q 14.890625 38.140625 10.796875 36.28125  z " id="DejaVuSans-35"/>
      </defs>
      <g style="fill:#262626;" transform="translate(19.71675 99.565763)scale(0.08 -0.08)">
       <use xlink:href="#DejaVuSans-30"/>
       <use x="63.623047" xlink:href="#DejaVuSans-2e"/>
       <use x="95.410156" xlink:href="#DejaVuSans-30"/>
       <use x="159.033203" xlink:href="#DejaVuSans-35"/>
      </g>
     </g>
    </g>
    <g id="ytick_3">
     <g id="line2d_7">
      <g>
       <use style="fill:#262626;stroke:#262626;stroke-width:0.8;" x="49.12925" xlink:href="#m6595b0e531" y="68.972775"/>
      </g>
     </g>
     <g id="text_8">
      <!-- 0.10 -->
      <g style="fill:#262626;" transform="translate(19.71675 72.01215)scale(0.08 -0.08)">
       <use xlink:href="#DejaVuSans-30"/>
       <use x="63.623047" xlink:href="#DejaVuSans-2e"/>
       <use x="95.410156" xlink:href="#DejaVuSans-31"/>
       <use x="159.033203" xlink:href="#DejaVuSans-30"/>
      </g>
     </g>
    </g>
    <g id="ytick_4">
     <g id="line2d_8">
      <g>
       <use style="fill:#262626;stroke:#262626;stroke-width:0.8;" x="49.12925" xlink:href="#m6595b0e531" y="41.419163"/>
      </g>
     </g>
     <g id="text_9">
      <!-- 0.15 -->
      <g style="fill:#262626;" transform="translate(19.71675 44.458538)scale(0.08 -0.08)">
       <use xlink:href="#DejaVuSans-30"/>
       <use x="63.623047" xlink:href="#DejaVuSans-2e"/>
       <use x="95.410156" xlink:href="#DejaVuSans-31"/>
       <use x="159.033203" xlink:href="#DejaVuSans-35"/>
      </g>
     </g>
    </g>
    <g id="ytick_5">
     <g id="line2d_9">
      <g>
       <use style="fill:#262626;stroke:#262626;stroke-width:0.8;" x="49.12925" xlink:href="#m6595b0e531" y="13.86555"/>
      </g>
     </g>
     <g id="text_10">
      <!-- 0.20 -->
      <g style="fill:#262626;" transform="translate(19.71675 16.904925)scale(0.08 -0.08)">
       <use xlink:href="#DejaVuSans-30"/>
       <use x="63.623047" xlink:href="#DejaVuSans-2e"/>
       <use x="95.410156" xlink:href="#DejaVuSans-32"/>
       <use x="159.033203" xlink:href="#DejaVuSans-30"/>
      </g>
     </g>
    </g>
    <g id="text_11">
     <!-- PMF -->
     <defs>
      <path d="M 19.671875 64.796875  L 19.671875 37.40625  L 32.078125 37.40625  Q 38.96875 37.40625 42.71875 40.96875  Q 46.484375 44.53125 46.484375 51.125  Q 46.484375 57.671875 42.71875 61.234375  Q 38.96875 64.796875 32.078125 64.796875  z M 9.8125 72.90625  L 32.078125 72.90625  Q 44.34375 72.90625 50.609375 67.359375  Q 56.890625 61.8125 56.890625 51.125  Q 56.890625 40.328125 50.609375 34.8125  Q 44.34375 29.296875 32.078125 29.296875  L 19.671875 29.296875  L 19.671875 0  L 9.8125 0  z " id="DejaVuSans-50"/>
      <path d="M 9.8125 72.90625  L 24.515625 72.90625  L 43.109375 23.296875  L 61.8125 72.90625  L 76.515625 72.90625  L 76.515625 0  L 66.890625 0  L 66.890625 64.015625  L 48.09375 14.015625  L 38.1875 14.015625  L 19.390625 64.015625  L 19.390625 0  L 9.8125 0  z " id="DejaVuSans-4d"/>
      <path d="M 9.8125 72.90625  L 51.703125 72.90625  L 51.703125 64.59375  L 19.671875 64.59375  L 19.671875 43.109375  L 48.578125 43.109375  L 48.578125 34.8125  L 19.671875 34.8125  L 19.671875 0  L 9.8125 0  z " id="DejaVuSans-46"/>
     </defs>
     <g style="fill:#262626;" transform="translate(13.886625 77.620125)rotate(-90)scale(0.088 -0.088)">
      <use xlink:href="#DejaVuSans-50"/>
      <use x="60.302734" xlink:href="#DejaVuSans-4d"/>
      <use x="146.582031" xlink:href="#DejaVuSans-46"/>
     </g>
    </g>
   </g>
   <g id="patch_3">
    <path clip-path="url(#p77772ed8cc)" d="M 53.243536 124.08  L 94.386393 124.08  L 94.386393 13.2  L 53.243536 13.2  z " style="fill:#ff0000;opacity:0.5;"/>
   </g>
   <g id="LineCollection_1">
    <path clip-path="url(#p77772ed8cc)" d="M 57.357821 129.35935  L 57.357821 13.2  " style="fill:none;stroke:#ff0000;stroke-width:1.4;"/>
   </g>
   <g id="PolyCollection_1">
    <defs>
     <path d="M 53.243536 -149.93925  L 53.243536 -126.973788  L 57.357821 -144.65928  L 61.472107 -134.191692  L 65.586393 -115.239208  L 69.700679 -96.249775  L 73.814964 -80.276468  L 77.92925 -67.939358  L 82.043536 -58.882009  L 86.157821 -52.452623  L 90.272107 -47.996848  L 94.386393 -44.9638  L 98.500679 -42.927805  L 102.614964 -41.576256  L 106.72925 -40.687204  L 110.843536 -40.10681  L 114.957821 -39.73034  L 119.072107 -39.487486  L 123.186393 -39.33157  L 127.300679 -39.231887  L 131.414964 -39.16839  L 135.52925 -39.128075  L 139.643536 -39.102554  L 143.757821 -39.08644  L 147.872107 -39.07629  L 151.986393 -39.06991  L 156.100679 -39.065908  L 160.214964 -39.063403  L 164.32925 -39.061836  L 168.443536 -39.060859  L 172.557821 -39.06025  L 176.672107 -39.05987  L 176.672107 -149.93925  L 176.672107 -149.93925  L 172.557821 -149.93925  L 168.443536 -149.93925  L 164.32925 -149.93925  L 160.214964 -149.93925  L 156.100679 -149.93925  L 151.986393 -149.93925  L 147.872107 -149.93925  L 143.757821 -149.93925  L 139.643536 -149.93925  L 135.52925 -149.93925  L 131.414964 -149.93925  L 127.300679 -149.93925  L 123.186393 -149.93925  L 119.072107 -149.93925  L 114.957821 -149.93925  L 110.843536 -149.93925  L 106.72925 -149.93925  L 102.614964 -149.93925  L 98.500679 -149.93925  L 94.386393 -149.93925  L 90.272107 -149.93925  L 86.157821 -149.93925  L 82.043536 -149.93925  L 77.92925 -149.93925  L 73.814964 -149.93925  L 69.700679 -149.93925  L 65.586393 -149.93925  L 61.472107 -149.93925  L 57.357821 -149.93925  L 53.243536 -149.93925  z " id="m4563a901e7" style="stroke:#ffffff;stroke-width:0.24;"/>
    </defs>
    <g clip-path="url(#p77772ed8cc)">
     <use style="fill:#ffffff;stroke:#ffffff;stroke-width:0.24;" x="0" xlink:href="#m4563a901e7" y="163.13925"/>
    </g>
   </g>
   <g id="line2d_10">
    <defs>
     <path d="M 0 2  C 0.530406 2 1.03916 1.789267 1.414214 1.414214  C 1.789267 1.03916 2 0.530406 2 0  C 2 -0.530406 1.789267 -1.03916 1.414214 -1.414214  C 1.03916 -1.789267 0.530406 -2 0 -2  C -0.530406 -2 -1.03916 -1.789267 -1.414214 -1.414214  C -1.789267 -1.03916 -2 -0.530406 -2 0  C -2 0.530406 -1.789267 1.03916 -1.414214 1.414214  C -1.03916 1.789267 -0.530406 2 0 2  z " id="m6c38654081"/>
    </defs>
    <g>
     <use x="53.243536" xlink:href="#m6c38654081" y="36.165462"/>
     <use x="57.357821" xlink:href="#m6c38654081" y="18.47997"/>
     <use x="61.472107" xlink:href="#m6c38654081" y="28.947558"/>
     <use x="65.586393" xlink:href="#m6c38654081" y="47.900042"/>
     <use x="69.700679" xlink:href="#m6c38654081" y="66.889475"/>
     <use x="73.814964" xlink:href="#m6c38654081" y="82.862782"/>
     <use x="77.92925" xlink:href="#m6c38654081" y="95.199892"/>
     <use x="82.043536" xlink:href="#m6c38654081" y="104.257241"/>
     <use x="86.157821" xlink:href="#m6c38654081" y="110.686627"/>
     <use x="90.272107" xlink:href="#m6c38654081" y="115.142402"/>
     <use x="94.386393" xlink:href="#m6c38654081" y="118.17545"/>
     <use x="98.500679" xlink:href="#m6c38654081" y="120.211445"/>
     <use x="102.614964" xlink:href="#m6c38654081" y="121.562994"/>
     <use x="106.72925" xlink:href="#m6c38654081" y="122.452046"/>
     <use x="110.843536" xlink:href="#m6c38654081" y="123.03244"/>
     <use x="114.957821" xlink:href="#m6c38654081" y="123.40891"/>
     <use x="119.072107" xlink:href="#m6c38654081" y="123.651764"/>
     <use x="123.186393" xlink:href="#m6c38654081" y="123.80768"/>
     <use x="127.300679" xlink:href="#m6c38654081" y="123.907363"/>
     <use x="131.414964" xlink:href="#m6c38654081" y="123.97086"/>
     <use x="135.52925" xlink:href="#m6c38654081" y="124.011175"/>
     <use x="139.643536" xlink:href="#m6c38654081" y="124.036696"/>
     <use x="143.757821" xlink:href="#m6c38654081" y="124.05281"/>
     <use x="147.872107" xlink:href="#m6c38654081" y="124.06296"/>
     <use x="151.986393" xlink:href="#m6c38654081" y="124.06934"/>
     <use x="156.100679" xlink:href="#m6c38654081" y="124.073342"/>
     <use x="160.214964" xlink:href="#m6c38654081" y="124.075847"/>
     <use x="164.32925" xlink:href="#m6c38654081" y="124.077414"/>
     <use x="168.443536" xlink:href="#m6c38654081" y="124.078391"/>
     <use x="172.557821" xlink:href="#m6c38654081" y="124.079"/>
     <use x="176.672107" xlink:href="#m6c38654081" y="124.07938"/>
    </g>
   </g>
   <g id="patch_4">
    <path d="M 49.12925 124.08  L 49.12925 13.2  " style="fill:none;stroke:#262626;stroke-linecap:square;stroke-linejoin:miter;stroke-width:1.25;"/>
   </g>
   <g id="patch_5">
    <path d="M 49.12925 124.08  L 183.04925 124.08  " style="fill:none;stroke:#262626;stroke-linecap:square;stroke-linejoin:miter;stroke-width:1.25;"/>
   </g>
   <g id="LineCollection_2">
    <path clip-path="url(#p77772ed8cc)" d="M 53.243536 124.08  L 53.243536 13.2  " style="fill:none;stroke:#808080;stroke-dasharray:5.18,2.24;stroke-dashoffset:0;stroke-width:1.4;"/>
   </g>
   <g id="LineCollection_3">
    <path clip-path="url(#p77772ed8cc)" d="M 49.12925 124.08  L 49.12925 13.2  " style="fill:none;stroke:#808080;stroke-dasharray:1.4,2.31;stroke-dashoffset:0;stroke-width:1.4;"/>
   </g>
  </g>
 </g>
 <defs>
  <clipPath id="p77772ed8cc">
   <rect height="110.88" width="133.92" x="49.12925" y="13.2"/>
  </clipPath>
 </defs>
</g>
    <g transform=" translate(190, 0) scale(1)"><defs>
  <style type="text/css">
*{stroke-linecap:butt;stroke-linejoin:round;}
  </style>
 </defs>
 <g xmlns:xlink="http://www.w3.org/1999/xlink" id="figure_1">
  <g id="patch_1">
   <path d="M 0 163.13925  L 196.24925 163.13925  L 196.24925 0  L 0 0  z " style="fill:#ffffff;"/>
  </g>
  <g id="axes_1">
   <g id="patch_2">
    <path d="M 49.12925 124.08  L 183.04925 124.08  L 183.04925 13.2  L 49.12925 13.2  z " style="fill:#ffffff;"/>
   </g>
   <g id="matplotlib.axis_1">
    <g id="xtick_1">
     <g id="line2d_1">
      <defs>
       <path d="M 0 0  L 0 6  " id="mcdd674d3c5" style="stroke:#262626;stroke-width:0.8;"/>
      </defs>
      <g>
       <use style="fill:#262626;stroke:#262626;stroke-width:0.8;" x="49.12925" xlink:href="#mcdd674d3c5" y="124.08"/>
      </g>
     </g>
     <g id="text_1">
      <!-- 0 -->
      <defs>
       <path d="M 31.78125 66.40625  Q 24.171875 66.40625 20.328125 58.90625  Q 16.5 51.421875 16.5 36.375  Q 16.5 21.390625 20.328125 13.890625  Q 24.171875 6.390625 31.78125 6.390625  Q 39.453125 6.390625 43.28125 13.890625  Q 47.125 21.390625 47.125 36.375  Q 47.125 51.421875 43.28125 58.90625  Q 39.453125 66.40625 31.78125 66.40625  z M 31.78125 74.21875  Q 44.046875 74.21875 50.515625 64.515625  Q 56.984375 54.828125 56.984375 36.375  Q 56.984375 17.96875 50.515625 8.265625  Q 44.046875 -1.421875 31.78125 -1.421875  Q 19.53125 -1.421875 13.0625 8.265625  Q 6.59375 17.96875 6.59375 36.375  Q 6.59375 54.828125 13.0625 64.515625  Q 19.53125 74.21875 31.78125 74.21875  z " id="DejaVuSans-30"/>
      </defs>
      <g style="fill:#262626;" transform="translate(46.58425 141.75875)scale(0.08 -0.08)">
       <use xlink:href="#DejaVuSans-30"/>
      </g>
     </g>
    </g>
    <g id="xtick_2">
     <g id="line2d_2">
      <g>
       <use style="fill:#262626;stroke:#262626;stroke-width:0.8;" x="101.238199" xlink:href="#mcdd674d3c5" y="124.08"/>
      </g>
     </g>
     <g id="text_2">
      <!-- 20 -->
      <defs>
       <path d="M 19.1875 8.296875  L 53.609375 8.296875  L 53.609375 0  L 7.328125 0  L 7.328125 8.296875  Q 12.9375 14.109375 22.625 23.890625  Q 32.328125 33.6875 34.8125 36.53125  Q 39.546875 41.84375 41.421875 45.53125  Q 43.3125 49.21875 43.3125 52.78125  Q 43.3125 58.59375 39.234375 62.25  Q 35.15625 65.921875 28.609375 65.921875  Q 23.96875 65.921875 18.8125 64.3125  Q 13.671875 62.703125 7.8125 59.421875  L 7.8125 69.390625  Q 13.765625 71.78125 18.9375 73  Q 24.125 74.21875 28.421875 74.21875  Q 39.75 74.21875 46.484375 68.546875  Q 53.21875 62.890625 53.21875 53.421875  Q 53.21875 48.921875 51.53125 44.890625  Q 49.859375 40.875 45.40625 35.40625  Q 44.1875 33.984375 37.640625 27.21875  Q 31.109375 20.453125 19.1875 8.296875  z " id="DejaVuSans-32"/>
      </defs>
      <g style="fill:#262626;" transform="translate(96.148199 141.75875)scale(0.08 -0.08)">
       <use xlink:href="#DejaVuSans-32"/>
       <use x="63.623047" xlink:href="#DejaVuSans-30"/>
      </g>
     </g>
    </g>
    <g id="xtick_3">
     <g id="line2d_3">
      <g>
       <use style="fill:#262626;stroke:#262626;stroke-width:0.8;" x="153.347149" xlink:href="#mcdd674d3c5" y="124.08"/>
      </g>
     </g>
     <g id="text_3">
      <!-- 40 -->
      <defs>
       <path d="M 37.796875 64.3125  L 12.890625 25.390625  L 37.796875 25.390625  z M 35.203125 72.90625  L 47.609375 72.90625  L 47.609375 25.390625  L 58.015625 25.390625  L 58.015625 17.1875  L 47.609375 17.1875  L 47.609375 0  L 37.796875 0  L 37.796875 17.1875  L 4.890625 17.1875  L 4.890625 26.703125  z " id="DejaVuSans-34"/>
      </defs>
      <g style="fill:#262626;" transform="translate(148.257149 141.75875)scale(0.08 -0.08)">
       <use xlink:href="#DejaVuSans-34"/>
       <use x="63.623047" xlink:href="#DejaVuSans-30"/>
      </g>
     </g>
    </g>
    <g id="text_4">
     <!-- expression -->
     <defs>
      <path d="M 56.203125 29.59375  L 56.203125 25.203125  L 14.890625 25.203125  Q 15.484375 15.921875 20.484375 11.0625  Q 25.484375 6.203125 34.421875 6.203125  Q 39.59375 6.203125 44.453125 7.46875  Q 49.3125 8.734375 54.109375 11.28125  L 54.109375 2.78125  Q 49.265625 0.734375 44.1875 -0.34375  Q 39.109375 -1.421875 33.890625 -1.421875  Q 20.796875 -1.421875 13.15625 6.1875  Q 5.515625 13.8125 5.515625 26.8125  Q 5.515625 40.234375 12.765625 48.109375  Q 20.015625 56 32.328125 56  Q 43.359375 56 49.78125 48.890625  Q 56.203125 41.796875 56.203125 29.59375  z M 47.21875 32.234375  Q 47.125 39.59375 43.09375 43.984375  Q 39.0625 48.390625 32.421875 48.390625  Q 24.90625 48.390625 20.390625 44.140625  Q 15.875 39.890625 15.1875 32.171875  z " id="DejaVuSans-65"/>
      <path d="M 54.890625 54.6875  L 35.109375 28.078125  L 55.90625 0  L 45.3125 0  L 29.390625 21.484375  L 13.484375 0  L 2.875 0  L 24.125 28.609375  L 4.6875 54.6875  L 15.28125 54.6875  L 29.78125 35.203125  L 44.28125 54.6875  z " id="DejaVuSans-78"/>
      <path d="M 18.109375 8.203125  L 18.109375 -20.796875  L 9.078125 -20.796875  L 9.078125 54.6875  L 18.109375 54.6875  L 18.109375 46.390625  Q 20.953125 51.265625 25.265625 53.625  Q 29.59375 56 35.59375 56  Q 45.5625 56 51.78125 48.09375  Q 58.015625 40.1875 58.015625 27.296875  Q 58.015625 14.40625 51.78125 6.484375  Q 45.5625 -1.421875 35.59375 -1.421875  Q 29.59375 -1.421875 25.265625 0.953125  Q 20.953125 3.328125 18.109375 8.203125  z M 48.6875 27.296875  Q 48.6875 37.203125 44.609375 42.84375  Q 40.53125 48.484375 33.40625 48.484375  Q 26.265625 48.484375 22.1875 42.84375  Q 18.109375 37.203125 18.109375 27.296875  Q 18.109375 17.390625 22.1875 11.75  Q 26.265625 6.109375 33.40625 6.109375  Q 40.53125 6.109375 44.609375 11.75  Q 48.6875 17.390625 48.6875 27.296875  z " id="DejaVuSans-70"/>
      <path d="M 41.109375 46.296875  Q 39.59375 47.171875 37.8125 47.578125  Q 36.03125 48 33.890625 48  Q 26.265625 48 22.1875 43.046875  Q 18.109375 38.09375 18.109375 28.8125  L 18.109375 0  L 9.078125 0  L 9.078125 54.6875  L 18.109375 54.6875  L 18.109375 46.1875  Q 20.953125 51.171875 25.484375 53.578125  Q 30.03125 56 36.53125 56  Q 37.453125 56 38.578125 55.875  Q 39.703125 55.765625 41.0625 55.515625  z " id="DejaVuSans-72"/>
      <path d="M 44.28125 53.078125  L 44.28125 44.578125  Q 40.484375 46.53125 36.375 47.5  Q 32.28125 48.484375 27.875 48.484375  Q 21.1875 48.484375 17.84375 46.4375  Q 14.5 44.390625 14.5 40.28125  Q 14.5 37.15625 16.890625 35.375  Q 19.28125 33.59375 26.515625 31.984375  L 29.59375 31.296875  Q 39.15625 29.25 43.1875 25.515625  Q 47.21875 21.78125 47.21875 15.09375  Q 47.21875 7.46875 41.1875 3.015625  Q 35.15625 -1.421875 24.609375 -1.421875  Q 20.21875 -1.421875 15.453125 -0.5625  Q 10.6875 0.296875 5.421875 2  L 5.421875 11.28125  Q 10.40625 8.6875 15.234375 7.390625  Q 20.0625 6.109375 24.8125 6.109375  Q 31.15625 6.109375 34.5625 8.28125  Q 37.984375 10.453125 37.984375 14.40625  Q 37.984375 18.0625 35.515625 20.015625  Q 33.0625 21.96875 24.703125 23.78125  L 21.578125 24.515625  Q 13.234375 26.265625 9.515625 29.90625  Q 5.8125 33.546875 5.8125 39.890625  Q 5.8125 47.609375 11.28125 51.796875  Q 16.75 56 26.8125 56  Q 31.78125 56 36.171875 55.265625  Q 40.578125 54.546875 44.28125 53.078125  z " id="DejaVuSans-73"/>
      <path d="M 9.421875 54.6875  L 18.40625 54.6875  L 18.40625 0  L 9.421875 0  z M 9.421875 75.984375  L 18.40625 75.984375  L 18.40625 64.59375  L 9.421875 64.59375  z " id="DejaVuSans-69"/>
      <path d="M 30.609375 48.390625  Q 23.390625 48.390625 19.1875 42.75  Q 14.984375 37.109375 14.984375 27.296875  Q 14.984375 17.484375 19.15625 11.84375  Q 23.34375 6.203125 30.609375 6.203125  Q 37.796875 6.203125 41.984375 11.859375  Q 46.1875 17.53125 46.1875 27.296875  Q 46.1875 37.015625 41.984375 42.703125  Q 37.796875 48.390625 30.609375 48.390625  z M 30.609375 56  Q 42.328125 56 49.015625 48.375  Q 55.71875 40.765625 55.71875 27.296875  Q 55.71875 13.875 49.015625 6.21875  Q 42.328125 -1.421875 30.609375 -1.421875  Q 18.84375 -1.421875 12.171875 6.21875  Q 5.515625 13.875 5.515625 27.296875  Q 5.515625 40.765625 12.171875 48.375  Q 18.84375 56 30.609375 56  z " id="DejaVuSans-6f"/>
      <path d="M 54.890625 33.015625  L 54.890625 0  L 45.90625 0  L 45.90625 32.71875  Q 45.90625 40.484375 42.875 44.328125  Q 39.84375 48.1875 33.796875 48.1875  Q 26.515625 48.1875 22.3125 43.546875  Q 18.109375 38.921875 18.109375 30.90625  L 18.109375 0  L 9.078125 0  L 9.078125 54.6875  L 18.109375 54.6875  L 18.109375 46.1875  Q 21.34375 51.125 25.703125 53.5625  Q 30.078125 56 35.796875 56  Q 45.21875 56 50.046875 50.171875  Q 54.890625 44.34375 54.890625 33.015625  z " id="DejaVuSans-6e"/>
     </defs>
     <g style="fill:#262626;" transform="translate(92.182812 154.109125)scale(0.088 -0.088)">
      <use xlink:href="#DejaVuSans-65"/>
      <use x="61.507812" xlink:href="#DejaVuSans-78"/>
      <use x="120.6875" xlink:href="#DejaVuSans-70"/>
      <use x="184.164062" xlink:href="#DejaVuSans-72"/>
      <use x="225.246094" xlink:href="#DejaVuSans-65"/>
      <use x="286.769531" xlink:href="#DejaVuSans-73"/>
      <use x="338.869141" xlink:href="#DejaVuSans-73"/>
      <use x="390.96875" xlink:href="#DejaVuSans-69"/>
      <use x="418.751953" xlink:href="#DejaVuSans-6f"/>
      <use x="479.933594" xlink:href="#DejaVuSans-6e"/>
     </g>
    </g>
   </g>
   <g id="matplotlib.axis_2">
    <g id="ytick_1">
     <g id="line2d_4">
      <defs>
       <path d="M 0 0  L -6 0  " id="mfdd23cd9e9" style="stroke:#262626;stroke-width:0.8;"/>
      </defs>
      <g>
       <use style="fill:#262626;stroke:#262626;stroke-width:0.8;" x="49.12925" xlink:href="#mfdd23cd9e9" y="124.08"/>
      </g>
     </g>
     <g id="text_5">
      <!-- 0.00 -->
      <defs>
       <path d="M 10.6875 12.40625  L 21 12.40625  L 21 0  L 10.6875 0  z " id="DejaVuSans-2e"/>
      </defs>
      <g style="fill:#262626;" transform="translate(19.71675 127.119375)scale(0.08 -0.08)">
       <use xlink:href="#DejaVuSans-30"/>
       <use x="63.623047" xlink:href="#DejaVuSans-2e"/>
       <use x="95.410156" xlink:href="#DejaVuSans-30"/>
       <use x="159.033203" xlink:href="#DejaVuSans-30"/>
      </g>
     </g>
    </g>
    <g id="ytick_2">
     <g id="line2d_5">
      <g>
       <use style="fill:#262626;stroke:#262626;stroke-width:0.8;" x="49.12925" xlink:href="#mfdd23cd9e9" y="100.77768"/>
      </g>
     </g>
     <g id="text_6">
      <!-- 0.02 -->
      <g style="fill:#262626;" transform="translate(19.71675 103.817055)scale(0.08 -0.08)">
       <use xlink:href="#DejaVuSans-30"/>
       <use x="63.623047" xlink:href="#DejaVuSans-2e"/>
       <use x="95.410156" xlink:href="#DejaVuSans-30"/>
       <use x="159.033203" xlink:href="#DejaVuSans-32"/>
      </g>
     </g>
    </g>
    <g id="ytick_3">
     <g id="line2d_6">
      <g>
       <use style="fill:#262626;stroke:#262626;stroke-width:0.8;" x="49.12925" xlink:href="#mfdd23cd9e9" y="77.475361"/>
      </g>
     </g>
     <g id="text_7">
      <!-- 0.04 -->
      <g style="fill:#262626;" transform="translate(19.71675 80.514736)scale(0.08 -0.08)">
       <use xlink:href="#DejaVuSans-30"/>
       <use x="63.623047" xlink:href="#DejaVuSans-2e"/>
       <use x="95.410156" xlink:href="#DejaVuSans-30"/>
       <use x="159.033203" xlink:href="#DejaVuSans-34"/>
      </g>
     </g>
    </g>
    <g id="ytick_4">
     <g id="line2d_7">
      <g>
       <use style="fill:#262626;stroke:#262626;stroke-width:0.8;" x="49.12925" xlink:href="#mfdd23cd9e9" y="54.173041"/>
      </g>
     </g>
     <g id="text_8">
      <!-- 0.06 -->
      <defs>
       <path d="M 33.015625 40.375  Q 26.375 40.375 22.484375 35.828125  Q 18.609375 31.296875 18.609375 23.390625  Q 18.609375 15.53125 22.484375 10.953125  Q 26.375 6.390625 33.015625 6.390625  Q 39.65625 6.390625 43.53125 10.953125  Q 47.40625 15.53125 47.40625 23.390625  Q 47.40625 31.296875 43.53125 35.828125  Q 39.65625 40.375 33.015625 40.375  z M 52.59375 71.296875  L 52.59375 62.3125  Q 48.875 64.0625 45.09375 64.984375  Q 41.3125 65.921875 37.59375 65.921875  Q 27.828125 65.921875 22.671875 59.328125  Q 17.53125 52.734375 16.796875 39.40625  Q 19.671875 43.65625 24.015625 45.921875  Q 28.375 48.1875 33.59375 48.1875  Q 44.578125 48.1875 50.953125 41.515625  Q 57.328125 34.859375 57.328125 23.390625  Q 57.328125 12.15625 50.6875 5.359375  Q 44.046875 -1.421875 33.015625 -1.421875  Q 20.359375 -1.421875 13.671875 8.265625  Q 6.984375 17.96875 6.984375 36.375  Q 6.984375 53.65625 15.1875 63.9375  Q 23.390625 74.21875 37.203125 74.21875  Q 40.921875 74.21875 44.703125 73.484375  Q 48.484375 72.75 52.59375 71.296875  z " id="DejaVuSans-36"/>
      </defs>
      <g style="fill:#262626;" transform="translate(19.71675 57.212416)scale(0.08 -0.08)">
       <use xlink:href="#DejaVuSans-30"/>
       <use x="63.623047" xlink:href="#DejaVuSans-2e"/>
       <use x="95.410156" xlink:href="#DejaVuSans-30"/>
       <use x="159.033203" xlink:href="#DejaVuSans-36"/>
      </g>
     </g>
    </g>
    <g id="ytick_5">
     <g id="line2d_8">
      <g>
       <use style="fill:#262626;stroke:#262626;stroke-width:0.8;" x="49.12925" xlink:href="#mfdd23cd9e9" y="30.870721"/>
      </g>
     </g>
     <g id="text_9">
      <!-- 0.08 -->
      <defs>
       <path d="M 31.78125 34.625  Q 24.75 34.625 20.71875 30.859375  Q 16.703125 27.09375 16.703125 20.515625  Q 16.703125 13.921875 20.71875 10.15625  Q 24.75 6.390625 31.78125 6.390625  Q 38.8125 6.390625 42.859375 10.171875  Q 46.921875 13.96875 46.921875 20.515625  Q 46.921875 27.09375 42.890625 30.859375  Q 38.875 34.625 31.78125 34.625  z M 21.921875 38.8125  Q 15.578125 40.375 12.03125 44.71875  Q 8.5 49.078125 8.5 55.328125  Q 8.5 64.0625 14.71875 69.140625  Q 20.953125 74.21875 31.78125 74.21875  Q 42.671875 74.21875 48.875 69.140625  Q 55.078125 64.0625 55.078125 55.328125  Q 55.078125 49.078125 51.53125 44.71875  Q 48 40.375 41.703125 38.8125  Q 48.828125 37.15625 52.796875 32.3125  Q 56.78125 27.484375 56.78125 20.515625  Q 56.78125 9.90625 50.3125 4.234375  Q 43.84375 -1.421875 31.78125 -1.421875  Q 19.734375 -1.421875 13.25 4.234375  Q 6.78125 9.90625 6.78125 20.515625  Q 6.78125 27.484375 10.78125 32.3125  Q 14.796875 37.15625 21.921875 38.8125  z M 18.3125 54.390625  Q 18.3125 48.734375 21.84375 45.5625  Q 25.390625 42.390625 31.78125 42.390625  Q 38.140625 42.390625 41.71875 45.5625  Q 45.3125 48.734375 45.3125 54.390625  Q 45.3125 60.0625 41.71875 63.234375  Q 38.140625 66.40625 31.78125 66.40625  Q 25.390625 66.40625 21.84375 63.234375  Q 18.3125 60.0625 18.3125 54.390625  z " id="DejaVuSans-38"/>
      </defs>
      <g style="fill:#262626;" transform="translate(19.71675 33.910096)scale(0.08 -0.08)">
       <use xlink:href="#DejaVuSans-30"/>
       <use x="63.623047" xlink:href="#DejaVuSans-2e"/>
       <use x="95.410156" xlink:href="#DejaVuSans-30"/>
       <use x="159.033203" xlink:href="#DejaVuSans-38"/>
      </g>
     </g>
    </g>
    <g id="text_10">
     <!-- PMF -->
     <defs>
      <path d="M 19.671875 64.796875  L 19.671875 37.40625  L 32.078125 37.40625  Q 38.96875 37.40625 42.71875 40.96875  Q 46.484375 44.53125 46.484375 51.125  Q 46.484375 57.671875 42.71875 61.234375  Q 38.96875 64.796875 32.078125 64.796875  z M 9.8125 72.90625  L 32.078125 72.90625  Q 44.34375 72.90625 50.609375 67.359375  Q 56.890625 61.8125 56.890625 51.125  Q 56.890625 40.328125 50.609375 34.8125  Q 44.34375 29.296875 32.078125 29.296875  L 19.671875 29.296875  L 19.671875 0  L 9.8125 0  z " id="DejaVuSans-50"/>
      <path d="M 9.8125 72.90625  L 24.515625 72.90625  L 43.109375 23.296875  L 61.8125 72.90625  L 76.515625 72.90625  L 76.515625 0  L 66.890625 0  L 66.890625 64.015625  L 48.09375 14.015625  L 38.1875 14.015625  L 19.390625 64.015625  L 19.390625 0  L 9.8125 0  z " id="DejaVuSans-4d"/>
      <path d="M 9.8125 72.90625  L 51.703125 72.90625  L 51.703125 64.59375  L 19.671875 64.59375  L 19.671875 43.109375  L 48.578125 43.109375  L 48.578125 34.8125  L 19.671875 34.8125  L 19.671875 0  L 9.8125 0  z " id="DejaVuSans-46"/>
     </defs>
     <g style="fill:#262626;" transform="translate(13.886625 77.620125)rotate(-90)scale(0.088 -0.088)">
      <use xlink:href="#DejaVuSans-50"/>
      <use x="60.302734" xlink:href="#DejaVuSans-4d"/>
      <use x="146.582031" xlink:href="#DejaVuSans-46"/>
     </g>
    </g>
   </g>
   <g id="patch_3">
    <path clip-path="url(#p877e1d55c9)" d="M 64.761935 124.08  L 114.265437 124.08  L 114.265437 13.2  L 64.761935 13.2  z " style="fill:#ff0000;opacity:0.5;"/>
   </g>
   <g id="LineCollection_1">
    <path clip-path="url(#p877e1d55c9)" d="M 80.39462 129.358291  L 80.39462 13.2  " style="fill:none;stroke:#ff0000;stroke-width:1.4;"/>
   </g>
   <g id="PolyCollection_1">
    <defs>
     <path d="M 62.156487 -149.93925  L 62.156487 -43.789953  L 64.761935 -56.106339  L 67.367382 -74.892948  L 69.97283 -96.448917  L 72.578277 -116.610636  L 75.183725 -132.211405  L 77.789172 -141.626258  L 80.39462 -144.659328  L 83.000067 -142.119442  L 85.605515 -135.342296  L 88.210962 -125.798253  L 90.81641 -114.832352  L 93.421857 -103.529015  L 96.027304 -92.670827  L 98.632752 -82.756841  L 101.238199 -74.051315  L 103.843647 -66.642297  L 106.449094 -60.4975  L 109.054542 -55.511224  L 111.659989 -51.540239  L 114.265437 -48.429094  L 116.870884 -46.026474  L 119.476332 -44.194649  L 122.081779 -42.813971  L 124.687227 -41.78407  L 127.292674 -41.023028  L 129.898122 -40.465473  L 132.503569 -40.060203  L 135.109017 -39.767755  L 137.714464 -39.558131  L 140.319911 -39.408806  L 142.925359 -39.303049  L 145.530806 -39.22855  L 148.136254 -39.176335  L 150.741701 -39.13991  L 153.347149 -39.114614  L 155.952596 -39.097119  L 158.558044 -39.085067  L 161.163491 -39.076795  L 163.768939 -39.071138  L 166.374386 -39.067282  L 168.979834 -39.064662  L 171.585281 -39.062888  L 174.190729 -39.061689  L 176.796176 -39.060881  L 176.796176 -149.93925  L 176.796176 -149.93925  L 174.190729 -149.93925  L 171.585281 -149.93925  L 168.979834 -149.93925  L 166.374386 -149.93925  L 163.768939 -149.93925  L 161.163491 -149.93925  L 158.558044 -149.93925  L 155.952596 -149.93925  L 153.347149 -149.93925  L 150.741701 -149.93925  L 148.136254 -149.93925  L 145.530806 -149.93925  L 142.925359 -149.93925  L 140.319911 -149.93925  L 137.714464 -149.93925  L 135.109017 -149.93925  L 132.503569 -149.93925  L 129.898122 -149.93925  L 127.292674 -149.93925  L 124.687227 -149.93925  L 122.081779 -149.93925  L 119.476332 -149.93925  L 116.870884 -149.93925  L 114.265437 -149.93925  L 111.659989 -149.93925  L 109.054542 -149.93925  L 106.449094 -149.93925  L 103.843647 -149.93925  L 101.238199 -149.93925  L 98.632752 -149.93925  L 96.027304 -149.93925  L 93.421857 -149.93925  L 90.81641 -149.93925  L 88.210962 -149.93925  L 85.605515 -149.93925  L 83.000067 -149.93925  L 80.39462 -149.93925  L 77.789172 -149.93925  L 75.183725 -149.93925  L 72.578277 -149.93925  L 69.97283 -149.93925  L 67.367382 -149.93925  L 64.761935 -149.93925  L 62.156487 -149.93925  z " id="m32103b54bc" style="stroke:#ffffff;stroke-width:0.24;"/>
    </defs>
    <g clip-path="url(#p877e1d55c9)">
     <use style="fill:#ffffff;stroke:#ffffff;stroke-width:0.24;" x="0" xlink:href="#m32103b54bc" y="163.13925"/>
    </g>
   </g>
   <g id="line2d_9">
    <defs>
     <path d="M 0 2  C 0.530406 2 1.03916 1.789267 1.414214 1.414214  C 1.789267 1.03916 2 0.530406 2 0  C 2 -0.530406 1.789267 -1.03916 1.414214 -1.414214  C 1.03916 -1.789267 0.530406 -2 0 -2  C -0.530406 -2 -1.03916 -1.789267 -1.414214 -1.414214  C -1.789267 -1.03916 -2 -0.530406 -2 0  C -2 0.530406 -1.789267 1.03916 -1.414214 1.414214  C -1.03916 1.789267 -0.530406 2 0 2  z " id="m0c0f819d8f"/>
    </defs>
    <g>
     <use x="62.156487" xlink:href="#m0c0f819d8f" y="119.349297"/>
     <use x="64.761935" xlink:href="#m0c0f819d8f" y="107.032911"/>
     <use x="67.367382" xlink:href="#m0c0f819d8f" y="88.246302"/>
     <use x="69.97283" xlink:href="#m0c0f819d8f" y="66.690333"/>
     <use x="72.578277" xlink:href="#m0c0f819d8f" y="46.528614"/>
     <use x="75.183725" xlink:href="#m0c0f819d8f" y="30.927845"/>
     <use x="77.789172" xlink:href="#m0c0f819d8f" y="21.512992"/>
     <use x="80.39462" xlink:href="#m0c0f819d8f" y="18.479922"/>
     <use x="83.000067" xlink:href="#m0c0f819d8f" y="21.019808"/>
     <use x="85.605515" xlink:href="#m0c0f819d8f" y="27.796954"/>
     <use x="88.210962" xlink:href="#m0c0f819d8f" y="37.340997"/>
     <use x="90.81641" xlink:href="#m0c0f819d8f" y="48.306898"/>
     <use x="93.421857" xlink:href="#m0c0f819d8f" y="59.610235"/>
     <use x="96.027304" xlink:href="#m0c0f819d8f" y="70.468423"/>
     <use x="98.632752" xlink:href="#m0c0f819d8f" y="80.382409"/>
     <use x="101.238199" xlink:href="#m0c0f819d8f" y="89.087935"/>
     <use x="103.843647" xlink:href="#m0c0f819d8f" y="96.496953"/>
     <use x="106.449094" xlink:href="#m0c0f819d8f" y="102.64175"/>
     <use x="109.054542" xlink:href="#m0c0f819d8f" y="107.628026"/>
     <use x="111.659989" xlink:href="#m0c0f819d8f" y="111.599011"/>
     <use x="114.265437" xlink:href="#m0c0f819d8f" y="114.710156"/>
     <use x="116.870884" xlink:href="#m0c0f819d8f" y="117.112776"/>
     <use x="119.476332" xlink:href="#m0c0f819d8f" y="118.944601"/>
     <use x="122.081779" xlink:href="#m0c0f819d8f" y="120.325279"/>
     <use x="124.687227" xlink:href="#m0c0f819d8f" y="121.35518"/>
     <use x="127.292674" xlink:href="#m0c0f819d8f" y="122.116222"/>
     <use x="129.898122" xlink:href="#m0c0f819d8f" y="122.673777"/>
     <use x="132.503569" xlink:href="#m0c0f819d8f" y="123.079047"/>
     <use x="135.109017" xlink:href="#m0c0f819d8f" y="123.371495"/>
     <use x="137.714464" xlink:href="#m0c0f819d8f" y="123.581119"/>
     <use x="140.319911" xlink:href="#m0c0f819d8f" y="123.730444"/>
     <use x="142.925359" xlink:href="#m0c0f819d8f" y="123.836201"/>
     <use x="145.530806" xlink:href="#m0c0f819d8f" y="123.9107"/>
     <use x="148.136254" xlink:href="#m0c0f819d8f" y="123.962915"/>
     <use x="150.741701" xlink:href="#m0c0f819d8f" y="123.99934"/>
     <use x="153.347149" xlink:href="#m0c0f819d8f" y="124.024636"/>
     <use x="155.952596" xlink:href="#m0c0f819d8f" y="124.042131"/>
     <use x="158.558044" xlink:href="#m0c0f819d8f" y="124.054183"/>
     <use x="161.163491" xlink:href="#m0c0f819d8f" y="124.062455"/>
     <use x="163.768939" xlink:href="#m0c0f819d8f" y="124.068112"/>
     <use x="166.374386" xlink:href="#m0c0f819d8f" y="124.071968"/>
     <use x="168.979834" xlink:href="#m0c0f819d8f" y="124.074588"/>
     <use x="171.585281" xlink:href="#m0c0f819d8f" y="124.076362"/>
     <use x="174.190729" xlink:href="#m0c0f819d8f" y="124.077561"/>
     <use x="176.796176" xlink:href="#m0c0f819d8f" y="124.078369"/>
    </g>
   </g>
   <g id="patch_4">
    <path d="M 49.12925 124.08  L 49.12925 13.2  " style="fill:none;stroke:#262626;stroke-linecap:square;stroke-linejoin:miter;stroke-width:1.25;"/>
   </g>
   <g id="patch_5">
    <path d="M 49.12925 124.08  L 183.04925 124.08  " style="fill:none;stroke:#262626;stroke-linecap:square;stroke-linejoin:miter;stroke-width:1.25;"/>
   </g>
   <g id="LineCollection_2">
    <path clip-path="url(#p877e1d55c9)" d="M 67.367382 124.08  L 67.367382 13.2  " style="fill:none;stroke:#808080;stroke-dasharray:5.18,2.24;stroke-dashoffset:0;stroke-width:1.4;"/>
   </g>
   <g id="LineCollection_3">
    <path clip-path="url(#p877e1d55c9)" d="M 51.734697 124.08  L 51.734697 13.2  " style="fill:none;stroke:#808080;stroke-dasharray:1.4,2.31;stroke-dashoffset:0;stroke-width:1.4;"/>
   </g>
  </g>
 </g>
 <defs>
  <clipPath id="p877e1d55c9">
   <rect height="110.88" width="133.92" x="49.12925" y="13.2"/>
  </clipPath>
 </defs>
</g>
    <g transform=" translate(380, 0) scale(1)"><defs>
  <style type="text/css">
*{stroke-linecap:butt;stroke-linejoin:round;}
  </style>
 </defs>
 <g xmlns:xlink="http://www.w3.org/1999/xlink" id="figure_1">
  <g id="patch_1">
   <path d="M 0 163.13925  L 196.24925 163.13925  L 196.24925 0  L 0 0  z " style="fill:#ffffff;"/>
  </g>
  <g id="axes_1">
   <g id="patch_2">
    <path d="M 49.12925 124.08  L 183.04925 124.08  L 183.04925 13.2  L 49.12925 13.2  z " style="fill:#ffffff;"/>
   </g>
   <g id="matplotlib.axis_1">
    <g id="xtick_1">
     <g id="line2d_1">
      <defs>
       <path d="M 0 0  L 0 6  " id="mb6edefa509" style="stroke:#262626;stroke-width:0.8;"/>
      </defs>
      <g>
       <use style="fill:#262626;stroke:#262626;stroke-width:0.8;" x="49.12925" xlink:href="#mb6edefa509" y="124.08"/>
      </g>
     </g>
     <g id="text_1">
      <!-- 0 -->
      <defs>
       <path d="M 31.78125 66.40625  Q 24.171875 66.40625 20.328125 58.90625  Q 16.5 51.421875 16.5 36.375  Q 16.5 21.390625 20.328125 13.890625  Q 24.171875 6.390625 31.78125 6.390625  Q 39.453125 6.390625 43.28125 13.890625  Q 47.125 21.390625 47.125 36.375  Q 47.125 51.421875 43.28125 58.90625  Q 39.453125 66.40625 31.78125 66.40625  z M 31.78125 74.21875  Q 44.046875 74.21875 50.515625 64.515625  Q 56.984375 54.828125 56.984375 36.375  Q 56.984375 17.96875 50.515625 8.265625  Q 44.046875 -1.421875 31.78125 -1.421875  Q 19.53125 -1.421875 13.0625 8.265625  Q 6.59375 17.96875 6.59375 36.375  Q 6.59375 54.828125 13.0625 64.515625  Q 19.53125 74.21875 31.78125 74.21875  z " id="DejaVuSans-30"/>
      </defs>
      <g style="fill:#262626;" transform="translate(46.58425 141.75875)scale(0.08 -0.08)">
       <use xlink:href="#DejaVuSans-30"/>
      </g>
     </g>
    </g>
    <g id="xtick_2">
     <g id="line2d_2">
      <g>
       <use style="fill:#262626;stroke:#262626;stroke-width:0.8;" x="91.643536" xlink:href="#mb6edefa509" y="124.08"/>
      </g>
     </g>
     <g id="text_2">
      <!-- 10 -->
      <defs>
       <path d="M 12.40625 8.296875  L 28.515625 8.296875  L 28.515625 63.921875  L 10.984375 60.40625  L 10.984375 69.390625  L 28.421875 72.90625  L 38.28125 72.90625  L 38.28125 8.296875  L 54.390625 8.296875  L 54.390625 0  L 12.40625 0  z " id="DejaVuSans-31"/>
      </defs>
      <g style="fill:#262626;" transform="translate(86.553536 141.75875)scale(0.08 -0.08)">
       <use xlink:href="#DejaVuSans-31"/>
       <use x="63.623047" xlink:href="#DejaVuSans-30"/>
      </g>
     </g>
    </g>
    <g id="xtick_3">
     <g id="line2d_3">
      <g>
       <use style="fill:#262626;stroke:#262626;stroke-width:0.8;" x="134.157821" xlink:href="#mb6edefa509" y="124.08"/>
      </g>
     </g>
     <g id="text_3">
      <!-- 20 -->
      <defs>
       <path d="M 19.1875 8.296875  L 53.609375 8.296875  L 53.609375 0  L 7.328125 0  L 7.328125 8.296875  Q 12.9375 14.109375 22.625 23.890625  Q 32.328125 33.6875 34.8125 36.53125  Q 39.546875 41.84375 41.421875 45.53125  Q 43.3125 49.21875 43.3125 52.78125  Q 43.3125 58.59375 39.234375 62.25  Q 35.15625 65.921875 28.609375 65.921875  Q 23.96875 65.921875 18.8125 64.3125  Q 13.671875 62.703125 7.8125 59.421875  L 7.8125 69.390625  Q 13.765625 71.78125 18.9375 73  Q 24.125 74.21875 28.421875 74.21875  Q 39.75 74.21875 46.484375 68.546875  Q 53.21875 62.890625 53.21875 53.421875  Q 53.21875 48.921875 51.53125 44.890625  Q 49.859375 40.875 45.40625 35.40625  Q 44.1875 33.984375 37.640625 27.21875  Q 31.109375 20.453125 19.1875 8.296875  z " id="DejaVuSans-32"/>
      </defs>
      <g style="fill:#262626;" transform="translate(129.067821 141.75875)scale(0.08 -0.08)">
       <use xlink:href="#DejaVuSans-32"/>
       <use x="63.623047" xlink:href="#DejaVuSans-30"/>
      </g>
     </g>
    </g>
    <g id="xtick_4">
     <g id="line2d_4">
      <g>
       <use style="fill:#262626;stroke:#262626;stroke-width:0.8;" x="176.672107" xlink:href="#mb6edefa509" y="124.08"/>
      </g>
     </g>
     <g id="text_4">
      <!-- 30 -->
      <defs>
       <path d="M 40.578125 39.3125  Q 47.65625 37.796875 51.625 33  Q 55.609375 28.21875 55.609375 21.1875  Q 55.609375 10.40625 48.1875 4.484375  Q 40.765625 -1.421875 27.09375 -1.421875  Q 22.515625 -1.421875 17.65625 -0.515625  Q 12.796875 0.390625 7.625 2.203125  L 7.625 11.71875  Q 11.71875 9.328125 16.59375 8.109375  Q 21.484375 6.890625 26.8125 6.890625  Q 36.078125 6.890625 40.9375 10.546875  Q 45.796875 14.203125 45.796875 21.1875  Q 45.796875 27.640625 41.28125 31.265625  Q 36.765625 34.90625 28.71875 34.90625  L 20.21875 34.90625  L 20.21875 43.015625  L 29.109375 43.015625  Q 36.375 43.015625 40.234375 45.921875  Q 44.09375 48.828125 44.09375 54.296875  Q 44.09375 59.90625 40.109375 62.90625  Q 36.140625 65.921875 28.71875 65.921875  Q 24.65625 65.921875 20.015625 65.03125  Q 15.375 64.15625 9.8125 62.3125  L 9.8125 71.09375  Q 15.4375 72.65625 20.34375 73.4375  Q 25.25 74.21875 29.59375 74.21875  Q 40.828125 74.21875 47.359375 69.109375  Q 53.90625 64.015625 53.90625 55.328125  Q 53.90625 49.265625 50.4375 45.09375  Q 46.96875 40.921875 40.578125 39.3125  z " id="DejaVuSans-33"/>
      </defs>
      <g style="fill:#262626;" transform="translate(171.582107 141.75875)scale(0.08 -0.08)">
       <use xlink:href="#DejaVuSans-33"/>
       <use x="63.623047" xlink:href="#DejaVuSans-30"/>
      </g>
     </g>
    </g>
    <g id="text_5">
     <!-- expression -->
     <defs>
      <path d="M 56.203125 29.59375  L 56.203125 25.203125  L 14.890625 25.203125  Q 15.484375 15.921875 20.484375 11.0625  Q 25.484375 6.203125 34.421875 6.203125  Q 39.59375 6.203125 44.453125 7.46875  Q 49.3125 8.734375 54.109375 11.28125  L 54.109375 2.78125  Q 49.265625 0.734375 44.1875 -0.34375  Q 39.109375 -1.421875 33.890625 -1.421875  Q 20.796875 -1.421875 13.15625 6.1875  Q 5.515625 13.8125 5.515625 26.8125  Q 5.515625 40.234375 12.765625 48.109375  Q 20.015625 56 32.328125 56  Q 43.359375 56 49.78125 48.890625  Q 56.203125 41.796875 56.203125 29.59375  z M 47.21875 32.234375  Q 47.125 39.59375 43.09375 43.984375  Q 39.0625 48.390625 32.421875 48.390625  Q 24.90625 48.390625 20.390625 44.140625  Q 15.875 39.890625 15.1875 32.171875  z " id="DejaVuSans-65"/>
      <path d="M 54.890625 54.6875  L 35.109375 28.078125  L 55.90625 0  L 45.3125 0  L 29.390625 21.484375  L 13.484375 0  L 2.875 0  L 24.125 28.609375  L 4.6875 54.6875  L 15.28125 54.6875  L 29.78125 35.203125  L 44.28125 54.6875  z " id="DejaVuSans-78"/>
      <path d="M 18.109375 8.203125  L 18.109375 -20.796875  L 9.078125 -20.796875  L 9.078125 54.6875  L 18.109375 54.6875  L 18.109375 46.390625  Q 20.953125 51.265625 25.265625 53.625  Q 29.59375 56 35.59375 56  Q 45.5625 56 51.78125 48.09375  Q 58.015625 40.1875 58.015625 27.296875  Q 58.015625 14.40625 51.78125 6.484375  Q 45.5625 -1.421875 35.59375 -1.421875  Q 29.59375 -1.421875 25.265625 0.953125  Q 20.953125 3.328125 18.109375 8.203125  z M 48.6875 27.296875  Q 48.6875 37.203125 44.609375 42.84375  Q 40.53125 48.484375 33.40625 48.484375  Q 26.265625 48.484375 22.1875 42.84375  Q 18.109375 37.203125 18.109375 27.296875  Q 18.109375 17.390625 22.1875 11.75  Q 26.265625 6.109375 33.40625 6.109375  Q 40.53125 6.109375 44.609375 11.75  Q 48.6875 17.390625 48.6875 27.296875  z " id="DejaVuSans-70"/>
      <path d="M 41.109375 46.296875  Q 39.59375 47.171875 37.8125 47.578125  Q 36.03125 48 33.890625 48  Q 26.265625 48 22.1875 43.046875  Q 18.109375 38.09375 18.109375 28.8125  L 18.109375 0  L 9.078125 0  L 9.078125 54.6875  L 18.109375 54.6875  L 18.109375 46.1875  Q 20.953125 51.171875 25.484375 53.578125  Q 30.03125 56 36.53125 56  Q 37.453125 56 38.578125 55.875  Q 39.703125 55.765625 41.0625 55.515625  z " id="DejaVuSans-72"/>
      <path d="M 44.28125 53.078125  L 44.28125 44.578125  Q 40.484375 46.53125 36.375 47.5  Q 32.28125 48.484375 27.875 48.484375  Q 21.1875 48.484375 17.84375 46.4375  Q 14.5 44.390625 14.5 40.28125  Q 14.5 37.15625 16.890625 35.375  Q 19.28125 33.59375 26.515625 31.984375  L 29.59375 31.296875  Q 39.15625 29.25 43.1875 25.515625  Q 47.21875 21.78125 47.21875 15.09375  Q 47.21875 7.46875 41.1875 3.015625  Q 35.15625 -1.421875 24.609375 -1.421875  Q 20.21875 -1.421875 15.453125 -0.5625  Q 10.6875 0.296875 5.421875 2  L 5.421875 11.28125  Q 10.40625 8.6875 15.234375 7.390625  Q 20.0625 6.109375 24.8125 6.109375  Q 31.15625 6.109375 34.5625 8.28125  Q 37.984375 10.453125 37.984375 14.40625  Q 37.984375 18.0625 35.515625 20.015625  Q 33.0625 21.96875 24.703125 23.78125  L 21.578125 24.515625  Q 13.234375 26.265625 9.515625 29.90625  Q 5.8125 33.546875 5.8125 39.890625  Q 5.8125 47.609375 11.28125 51.796875  Q 16.75 56 26.8125 56  Q 31.78125 56 36.171875 55.265625  Q 40.578125 54.546875 44.28125 53.078125  z " id="DejaVuSans-73"/>
      <path d="M 9.421875 54.6875  L 18.40625 54.6875  L 18.40625 0  L 9.421875 0  z M 9.421875 75.984375  L 18.40625 75.984375  L 18.40625 64.59375  L 9.421875 64.59375  z " id="DejaVuSans-69"/>
      <path d="M 30.609375 48.390625  Q 23.390625 48.390625 19.1875 42.75  Q 14.984375 37.109375 14.984375 27.296875  Q 14.984375 17.484375 19.15625 11.84375  Q 23.34375 6.203125 30.609375 6.203125  Q 37.796875 6.203125 41.984375 11.859375  Q 46.1875 17.53125 46.1875 27.296875  Q 46.1875 37.015625 41.984375 42.703125  Q 37.796875 48.390625 30.609375 48.390625  z M 30.609375 56  Q 42.328125 56 49.015625 48.375  Q 55.71875 40.765625 55.71875 27.296875  Q 55.71875 13.875 49.015625 6.21875  Q 42.328125 -1.421875 30.609375 -1.421875  Q 18.84375 -1.421875 12.171875 6.21875  Q 5.515625 13.875 5.515625 27.296875  Q 5.515625 40.765625 12.171875 48.375  Q 18.84375 56 30.609375 56  z " id="DejaVuSans-6f"/>
      <path d="M 54.890625 33.015625  L 54.890625 0  L 45.90625 0  L 45.90625 32.71875  Q 45.90625 40.484375 42.875 44.328125  Q 39.84375 48.1875 33.796875 48.1875  Q 26.515625 48.1875 22.3125 43.546875  Q 18.109375 38.921875 18.109375 30.90625  L 18.109375 0  L 9.078125 0  L 9.078125 54.6875  L 18.109375 54.6875  L 18.109375 46.1875  Q 21.34375 51.125 25.703125 53.5625  Q 30.078125 56 35.796875 56  Q 45.21875 56 50.046875 50.171875  Q 54.890625 44.34375 54.890625 33.015625  z " id="DejaVuSans-6e"/>
     </defs>
     <g style="fill:#262626;" transform="translate(92.182812 154.109125)scale(0.088 -0.088)">
      <use xlink:href="#DejaVuSans-65"/>
      <use x="61.507812" xlink:href="#DejaVuSans-78"/>
      <use x="120.6875" xlink:href="#DejaVuSans-70"/>
      <use x="184.164062" xlink:href="#DejaVuSans-72"/>
      <use x="225.246094" xlink:href="#DejaVuSans-65"/>
      <use x="286.769531" xlink:href="#DejaVuSans-73"/>
      <use x="338.869141" xlink:href="#DejaVuSans-73"/>
      <use x="390.96875" xlink:href="#DejaVuSans-69"/>
      <use x="418.751953" xlink:href="#DejaVuSans-6f"/>
      <use x="479.933594" xlink:href="#DejaVuSans-6e"/>
     </g>
    </g>
   </g>
   <g id="matplotlib.axis_2">
    <g id="ytick_1">
     <g id="line2d_5">
      <defs>
       <path d="M 0 0  L -6 0  " id="mccbc4929ec" style="stroke:#262626;stroke-width:0.8;"/>
      </defs>
      <g>
       <use style="fill:#262626;stroke:#262626;stroke-width:0.8;" x="49.12925" xlink:href="#mccbc4929ec" y="124.08"/>
      </g>
     </g>
     <g id="text_6">
      <!-- 0.00 -->
      <defs>
       <path d="M 10.6875 12.40625  L 21 12.40625  L 21 0  L 10.6875 0  z " id="DejaVuSans-2e"/>
      </defs>
      <g style="fill:#262626;" transform="translate(19.71675 127.119375)scale(0.08 -0.08)">
       <use xlink:href="#DejaVuSans-30"/>
       <use x="63.623047" xlink:href="#DejaVuSans-2e"/>
       <use x="95.410156" xlink:href="#DejaVuSans-30"/>
       <use x="159.033203" xlink:href="#DejaVuSans-30"/>
      </g>
     </g>
    </g>
    <g id="ytick_2">
     <g id="line2d_6">
      <g>
       <use style="fill:#262626;stroke:#262626;stroke-width:0.8;" x="49.12925" xlink:href="#mccbc4929ec" y="96.901622"/>
      </g>
     </g>
     <g id="text_7">
      <!-- 0.05 -->
      <defs>
       <path d="M 10.796875 72.90625  L 49.515625 72.90625  L 49.515625 64.59375  L 19.828125 64.59375  L 19.828125 46.734375  Q 21.96875 47.46875 24.109375 47.828125  Q 26.265625 48.1875 28.421875 48.1875  Q 40.625 48.1875 47.75 41.5  Q 54.890625 34.8125 54.890625 23.390625  Q 54.890625 11.625 47.5625 5.09375  Q 40.234375 -1.421875 26.90625 -1.421875  Q 22.3125 -1.421875 17.546875 -0.640625  Q 12.796875 0.140625 7.71875 1.703125  L 7.71875 11.625  Q 12.109375 9.234375 16.796875 8.0625  Q 21.484375 6.890625 26.703125 6.890625  Q 35.15625 6.890625 40.078125 11.328125  Q 45.015625 15.765625 45.015625 23.390625  Q 45.015625 31 40.078125 35.4375  Q 35.15625 39.890625 26.703125 39.890625  Q 22.75 39.890625 18.8125 39.015625  Q 14.890625 38.140625 10.796875 36.28125  z " id="DejaVuSans-35"/>
      </defs>
      <g style="fill:#262626;" transform="translate(19.71675 99.940997)scale(0.08 -0.08)">
       <use xlink:href="#DejaVuSans-30"/>
       <use x="63.623047" xlink:href="#DejaVuSans-2e"/>
       <use x="95.410156" xlink:href="#DejaVuSans-30"/>
       <use x="159.033203" xlink:href="#DejaVuSans-35"/>
      </g>
     </g>
    </g>
    <g id="ytick_3">
     <g id="line2d_7">
      <g>
       <use style="fill:#262626;stroke:#262626;stroke-width:0.8;" x="49.12925" xlink:href="#mccbc4929ec" y="69.723243"/>
      </g>
     </g>
     <g id="text_8">
      <!-- 0.10 -->
      <g style="fill:#262626;" transform="translate(19.71675 72.762618)scale(0.08 -0.08)">
       <use xlink:href="#DejaVuSans-30"/>
       <use x="63.623047" xlink:href="#DejaVuSans-2e"/>
       <use x="95.410156" xlink:href="#DejaVuSans-31"/>
       <use x="159.033203" xlink:href="#DejaVuSans-30"/>
      </g>
     </g>
    </g>
    <g id="ytick_4">
     <g id="line2d_8">
      <g>
       <use style="fill:#262626;stroke:#262626;stroke-width:0.8;" x="49.12925" xlink:href="#mccbc4929ec" y="42.544865"/>
      </g>
     </g>
     <g id="text_9">
      <!-- 0.15 -->
      <g style="fill:#262626;" transform="translate(19.71675 45.58424)scale(0.08 -0.08)">
       <use xlink:href="#DejaVuSans-30"/>
       <use x="63.623047" xlink:href="#DejaVuSans-2e"/>
       <use x="95.410156" xlink:href="#DejaVuSans-31"/>
       <use x="159.033203" xlink:href="#DejaVuSans-35"/>
      </g>
     </g>
    </g>
    <g id="ytick_5">
     <g id="line2d_9">
      <g>
       <use style="fill:#262626;stroke:#262626;stroke-width:0.8;" x="49.12925" xlink:href="#mccbc4929ec" y="15.366487"/>
      </g>
     </g>
     <g id="text_10">
      <!-- 0.20 -->
      <g style="fill:#262626;" transform="translate(19.71675 18.405862)scale(0.08 -0.08)">
       <use xlink:href="#DejaVuSans-30"/>
       <use x="63.623047" xlink:href="#DejaVuSans-2e"/>
       <use x="95.410156" xlink:href="#DejaVuSans-32"/>
       <use x="159.033203" xlink:href="#DejaVuSans-30"/>
      </g>
     </g>
    </g>
    <g id="text_11">
     <!-- PMF -->
     <defs>
      <path d="M 19.671875 64.796875  L 19.671875 37.40625  L 32.078125 37.40625  Q 38.96875 37.40625 42.71875 40.96875  Q 46.484375 44.53125 46.484375 51.125  Q 46.484375 57.671875 42.71875 61.234375  Q 38.96875 64.796875 32.078125 64.796875  z M 9.8125 72.90625  L 32.078125 72.90625  Q 44.34375 72.90625 50.609375 67.359375  Q 56.890625 61.8125 56.890625 51.125  Q 56.890625 40.328125 50.609375 34.8125  Q 44.34375 29.296875 32.078125 29.296875  L 19.671875 29.296875  L 19.671875 0  L 9.8125 0  z " id="DejaVuSans-50"/>
      <path d="M 9.8125 72.90625  L 24.515625 72.90625  L 43.109375 23.296875  L 61.8125 72.90625  L 76.515625 72.90625  L 76.515625 0  L 66.890625 0  L 66.890625 64.015625  L 48.09375 14.015625  L 38.1875 14.015625  L 19.390625 64.015625  L 19.390625 0  L 9.8125 0  z " id="DejaVuSans-4d"/>
      <path d="M 9.8125 72.90625  L 51.703125 72.90625  L 51.703125 64.59375  L 19.671875 64.59375  L 19.671875 43.109375  L 48.578125 43.109375  L 48.578125 34.8125  L 19.671875 34.8125  L 19.671875 0  L 9.8125 0  z " id="DejaVuSans-46"/>
     </defs>
     <g style="fill:#262626;" transform="translate(13.886625 77.620125)rotate(-90)scale(0.088 -0.088)">
      <use xlink:href="#DejaVuSans-50"/>
      <use x="60.302734" xlink:href="#DejaVuSans-4d"/>
      <use x="146.582031" xlink:href="#DejaVuSans-46"/>
     </g>
    </g>
   </g>
   <g id="patch_3">
    <path clip-path="url(#pd456eace80)" d="M 53.380679 124.08  L 95.894964 124.08  L 95.894964 13.2  L 53.380679 13.2  z " style="fill:#ff0000;opacity:0.5;"/>
   </g>
   <g id="LineCollection_1">
    <path clip-path="url(#pd456eace80)" d="M 57.632107 129.359137  L 57.632107 13.2  " style="fill:none;stroke:#ff0000;stroke-width:1.4;"/>
   </g>
   <g id="PolyCollection_1">
    <defs>
     <path d="M 53.380679 -149.93925  L 53.380679 -127.584278  L 57.632107 -144.659289  L 61.883536 -133.535652  L 66.134964 -114.19214  L 70.386393 -95.074737  L 74.637821 -79.151217  L 78.88925 -66.957192  L 83.140679 -58.075817  L 87.392107 -51.819308  L 91.643536 -47.515507  L 95.894964 -44.607281  L 100.146393 -42.669152  L 104.397821 -41.391771  L 108.64925 -40.557479  L 112.900679 -40.016685  L 117.152107 -39.668375  L 121.403536 -39.445264  L 125.654964 -39.303028  L 129.906393 -39.212727  L 134.157821 -39.155608  L 138.40925 -39.119596  L 142.660679 -39.096957  L 146.912107 -39.082762  L 151.163536 -39.073883  L 155.414964 -39.068342  L 159.666393 -39.064889  L 163.917821 -39.062743  L 168.16925 -39.061411  L 172.420679 -39.060585  L 176.672107 -39.060073  L 176.672107 -149.93925  L 176.672107 -149.93925  L 172.420679 -149.93925  L 168.16925 -149.93925  L 163.917821 -149.93925  L 159.666393 -149.93925  L 155.414964 -149.93925  L 151.163536 -149.93925  L 146.912107 -149.93925  L 142.660679 -149.93925  L 138.40925 -149.93925  L 134.157821 -149.93925  L 129.906393 -149.93925  L 125.654964 -149.93925  L 121.403536 -149.93925  L 117.152107 -149.93925  L 112.900679 -149.93925  L 108.64925 -149.93925  L 104.397821 -149.93925  L 100.146393 -149.93925  L 95.894964 -149.93925  L 91.643536 -149.93925  L 87.392107 -149.93925  L 83.140679 -149.93925  L 78.88925 -149.93925  L 74.637821 -149.93925  L 70.386393 -149.93925  L 66.134964 -149.93925  L 61.883536 -149.93925  L 57.632107 -149.93925  L 53.380679 -149.93925  z " id="m1b6df5c465" style="stroke:#ffffff;stroke-width:0.24;"/>
    </defs>
    <g clip-path="url(#pd456eace80)">
     <use style="fill:#ffffff;stroke:#ffffff;stroke-width:0.24;" x="0" xlink:href="#m1b6df5c465" y="163.13925"/>
    </g>
   </g>
   <g id="line2d_10">
    <defs>
     <path d="M 0 2  C 0.530406 2 1.03916 1.789267 1.414214 1.414214  C 1.789267 1.03916 2 0.530406 2 0  C 2 -0.530406 1.789267 -1.03916 1.414214 -1.414214  C 1.03916 -1.789267 0.530406 -2 0 -2  C -0.530406 -2 -1.03916 -1.789267 -1.414214 -1.414214  C -1.789267 -1.03916 -2 -0.530406 -2 0  C -2 0.530406 -1.789267 1.03916 -1.414214 1.414214  C -1.03916 1.789267 -0.530406 2 0 2  z " id="m53cbe04aa0"/>
    </defs>
    <g>
     <use x="53.380679" xlink:href="#m53cbe04aa0" y="35.554972"/>
     <use x="57.632107" xlink:href="#m53cbe04aa0" y="18.479961"/>
     <use x="61.883536" xlink:href="#m53cbe04aa0" y="29.603598"/>
     <use x="66.134964" xlink:href="#m53cbe04aa0" y="48.94711"/>
     <use x="70.386393" xlink:href="#m53cbe04aa0" y="68.064513"/>
     <use x="74.637821" xlink:href="#m53cbe04aa0" y="83.988033"/>
     <use x="78.88925" xlink:href="#m53cbe04aa0" y="96.182058"/>
     <use x="83.140679" xlink:href="#m53cbe04aa0" y="105.063433"/>
     <use x="87.392107" xlink:href="#m53cbe04aa0" y="111.319942"/>
     <use x="91.643536" xlink:href="#m53cbe04aa0" y="115.623743"/>
     <use x="95.894964" xlink:href="#m53cbe04aa0" y="118.531969"/>
     <use x="100.146393" xlink:href="#m53cbe04aa0" y="120.470098"/>
     <use x="104.397821" xlink:href="#m53cbe04aa0" y="121.747479"/>
     <use x="108.64925" xlink:href="#m53cbe04aa0" y="122.581771"/>
     <use x="112.900679" xlink:href="#m53cbe04aa0" y="123.122565"/>
     <use x="117.152107" xlink:href="#m53cbe04aa0" y="123.470875"/>
     <use x="121.403536" xlink:href="#m53cbe04aa0" y="123.693986"/>
     <use x="125.654964" xlink:href="#m53cbe04aa0" y="123.836222"/>
     <use x="129.906393" xlink:href="#m53cbe04aa0" y="123.926523"/>
     <use x="134.157821" xlink:href="#m53cbe04aa0" y="123.983642"/>
     <use x="138.40925" xlink:href="#m53cbe04aa0" y="124.019654"/>
     <use x="142.660679" xlink:href="#m53cbe04aa0" y="124.042293"/>
     <use x="146.912107" xlink:href="#m53cbe04aa0" y="124.056488"/>
     <use x="151.163536" xlink:href="#m53cbe04aa0" y="124.065367"/>
     <use x="155.414964" xlink:href="#m53cbe04aa0" y="124.070908"/>
     <use x="159.666393" xlink:href="#m53cbe04aa0" y="124.074361"/>
     <use x="163.917821" xlink:href="#m53cbe04aa0" y="124.076507"/>
     <use x="168.16925" xlink:href="#m53cbe04aa0" y="124.077839"/>
     <use x="172.420679" xlink:href="#m53cbe04aa0" y="124.078665"/>
     <use x="176.672107" xlink:href="#m53cbe04aa0" y="124.079177"/>
    </g>
   </g>
   <g id="patch_4">
    <path d="M 49.12925 124.08  L 49.12925 13.2  " style="fill:none;stroke:#262626;stroke-linecap:square;stroke-linejoin:miter;stroke-width:1.25;"/>
   </g>
   <g id="patch_5">
    <path d="M 49.12925 124.08  L 183.04925 124.08  " style="fill:none;stroke:#262626;stroke-linecap:square;stroke-linejoin:miter;stroke-width:1.25;"/>
   </g>
   <g id="LineCollection_2">
    <path clip-path="url(#pd456eace80)" d="M 70.386393 124.08  L 70.386393 13.2  " style="fill:none;stroke:#808080;stroke-dasharray:5.18,2.24;stroke-dashoffset:0;stroke-width:1.4;"/>
   </g>
   <g id="LineCollection_3">
    <path clip-path="url(#pd456eace80)" d="M 49.12925 124.08  L 49.12925 13.2  " style="fill:none;stroke:#808080;stroke-dasharray:1.4,2.31;stroke-dashoffset:0;stroke-width:1.4;"/>
   </g>
  </g>
 </g>
 <defs>
  <clipPath id="pd456eace80">
   <rect height="110.88" width="133.92" x="49.12925" y="13.2"/>
  </clipPath>
 </defs>
</g>
    <text font-family="Verdana" font-size="12" font-weight="bold" letter-spacing="0" text-anchor="start" x="5" y="10">a</text>
    <text font-family="Verdana" font-size="12" font-weight="bold" letter-spacing="0" text-anchor="start" x="195" y="10">b</text>
    <text font-family="Verdana" font-size="12" font-weight="bold" letter-spacing="0" text-anchor="start" x="385" y="10">c</text>
  </g>
</svg>
