<?xml version="1.0" encoding="UTF-8" standalone="no"?>
<!-- Created with Inkscape (http://www.inkscape.org/) -->

<svg
   xmlns:dc="http://purl.org/dc/elements/1.1/"
   xmlns:cc="http://creativecommons.org/ns#"
   xmlns:rdf="http://www.w3.org/1999/02/22-rdf-syntax-ns#"
   xmlns:svg="http://www.w3.org/2000/svg"
   xmlns="http://www.w3.org/2000/svg"
   xmlns:sodipodi="http://sodipodi.sourceforge.net/DTD/sodipodi-0.dtd"
   xmlns:inkscape="http://www.inkscape.org/namespaces/inkscape"
   id="svg2"
   version="1.1"
   inkscape:version="0.91 r"
   xml:space="preserve"
   width="704.11017"
   height="336.06638"
   viewBox="0 0 704.11016 336.06637"
   sodipodi:docname="model.svg"><metadata
     id="metadata8"><rdf:RDF><cc:Work
         rdf:about=""><dc:format>image/svg+xml</dc:format><dc:type
           rdf:resource="http://purl.org/dc/dcmitype/StillImage" /><dc:title></dc:title></cc:Work></rdf:RDF></metadata><defs
     id="defs6" /><sodipodi:namedview
     pagecolor="#ffffff"
     bordercolor="#666666"
     borderopacity="1"
     objecttolerance="10"
     gridtolerance="10"
     guidetolerance="10"
     inkscape:pageopacity="0"
     inkscape:pageshadow="2"
     inkscape:window-width="1152"
     inkscape:window-height="848"
     id="namedview4"
     showgrid="false"
     fit-margin-top="0"
     fit-margin-left="0"
     fit-margin-right="0"
     fit-margin-bottom="0"
     inkscape:zoom="0.89600676"
     inkscape:cx="455.74135"
     inkscape:cy="163.68437"
     inkscape:window-x="0"
     inkscape:window-y="0"
     inkscape:window-maximized="0"
     inkscape:current-layer="g10"
     showguides="true"
     inkscape:guide-bbox="true"><sodipodi:guide
       position="518.9693,358.2562"
       orientation="1,0"
       id="guide4599" /></sodipodi:namedview><g
     id="g10"
     inkscape:groupmode="layer"
     inkscape:label="model"
     transform="matrix(1.25,0,0,-1.25,9.3386853,344.25701)"><text
       id="text20"
       style="font-variant:normal;font-weight:normal;font-size:12.5px;font-family:'DejaVu Sans';-inkscape-font-specification:DejaVuSans;writing-mode:lr-tb;fill:#000000;fill-opacity:1;fill-rule:nonzero;stroke:none"
       transform="scale(1,-1)"
       x="167.01562"
       y="-245.2959"><tspan
         y="-245.2959"
         x="167.01562"
         id="tspan22"
         sodipodi:role="line" /><tspan
         id="tspan24"
         sodipodi:role="line"
         y="-241.27246"
         x="79.546867 87.496864 95.734367 102.49686 110.48437 115.83437 123.52187 131.50937">observed</tspan><tspan
         id="tspan26"
         sodipodi:role="line"
         y="-225.64746"
         x="96.363266 103.50077 111.45077 119.67577 127.90077 133.00076">counts</tspan><tspan
         id="tspan28"
         sodipodi:role="line"
         y="-196.94043"
         x="81.480453 89.717957 97.667953 104.43046 109.53046 117.51796 122.86796 126.46796 134.40546">posterior</tspan><tspan
         id="tspan30"
         sodipodi:role="line"
         y="-181.31543"
         x="48.441395 56.678898 61.741398 69.691391 77.928894 85.878891 94.128891 97.728889 101.3289 104.92889 110.02889 117.71639 121.8289 126.4164 134.3539">probability for</tspan><tspan
         id="tspan32"
         sodipodi:role="line"
         y="-165.69043"
         x="69.687492 77.449989 85.137489 93.374992 98.437492 106.43749 113.2 119.95 123.56249 131.5">expression</tspan></text>
<text
       id="text46"
       style="font-variant:normal;font-weight:normal;font-size:12.5px;font-family:'DejaVu Sans';-inkscape-font-specification:DejaVuSans;writing-mode:lr-tb;fill:#000000;fill-opacity:1;fill-rule:nonzero;stroke:none"
       transform="scale(1,-1)"
       x="7.984375"
       y="-109.27246"><tspan
         id="tspan48"
         sodipodi:role="line"
         y="-109.27246"
         x="7.984375 16.221874 24.171875 30.934376 36.034374 44.021873 49.371876 52.971874 60.909374 66.259377 70.371872 78.621872 83.671875 91.621872 99.859375 107.82188 116.05937 119.65938 123.27187 126.87187 131.95938">posterior probability</tspan><tspan
         id="tspan50"
         sodipodi:role="line"
         y="-93.647461"
         x="-7.7578135 -3.1828127 4.7671876 10.104688 14.229688 26.892187 34.879688 42.842186 51.067188 55.192188 63.154686 71.379684 79.617188 83.742188 91.429688 99.379684 104.72969 108.32968 116.2922 124.51718 131.65469">for mean and variance</tspan><tspan
         id="tspan52"
         sodipodi:role="line"
         y="-78.022461"
         x="29.359375 32.959373 41.196877 45.309376 53.559376 58.609375 66.559372 74.784378 83.034378 89.784378 93.909378 101.85938 106.43437 110.55937 117.69688 125.68437 129.28438 132.88437">in groups of cells</tspan><tspan
         id="tspan54"
         sodipodi:role="line"
         y="-37.9795"
         x="7.984375 16.221874 24.171875 30.934376 36.034374 44.021873 49.371876 52.971874 60.909374 66.259377 70.371872 78.621872 83.671875 91.621872 99.859375 107.82188 116.05937 119.65938 123.27187 126.87187 131.95938">posterior probability</tspan><tspan
         id="tspan56"
         sodipodi:role="line"
         y="-22.3545"
         x="24 28.575001 36.525002 41.862499 45.987499 50.5625 58.5 62.112499 70.349998 74.474998 81.612503 89.837502 97.800003 106.025 114.2625 122.2625 126.3875 134.325">for fold change or</tspan><tspan
         id="tspan58"
         sodipodi:role="line"
         y="-6.7294989"
         x="-6.234375 0.90312481 8.8531246">coe</tspan></text>
<text
       id="text60"
       style="font-variant:normal;font-weight:normal;font-size:12.5px;font-family:'DejaVu Sans';-inkscape-font-specification:DejaVuSans;writing-mode:lr-tb;fill:#000000;fill-opacity:1;fill-rule:nonzero;stroke:none"
       transform="scale(1,-1)"
       x="16.840626"
       y="-6.7294984"><tspan
         id="tspan62"
         y="-6.7294984"
         x="16.840626">ﬃ</tspan></text>
<text
       id="text64"
       style="font-variant:normal;font-weight:normal;font-size:12.5px;font-family:'DejaVu Sans';-inkscape-font-specification:DejaVuSans;writing-mode:lr-tb;fill:#000000;fill-opacity:1;fill-rule:nonzero;stroke:none"
       transform="scale(1,-1)"
       x="29.403126"
       y="-6.7294984"><tspan
         id="tspan66"
         sodipodi:role="line"
         y="-6.7294984"
         x="29.403126 36.540627 40.140625 48.140625 56.365623 61.465626 65.578125 73.528122 78.103127 82.228127 89.903122 97.865623 103.20312 106.81562 114.76562 119.86562 123.46562 131.41562">cient of variation</tspan></text>
<g
       id="g4458"
       transform="translate(-71.49934,-3.5714016)"><path
         d="m 348.629,34.863 c 2.547,4.184 5.723,7.117 9.898,9.547 l -0.121,-25.808 -20.386,0 0,3.359 c 5.039,1.926 8.074,7.851 10.609,12.902 z"
         style="fill:#ff0000;fill-opacity:0.57647095;fill-rule:nonzero;stroke:none"
         id="path14"
         inkscape:connector-curvature="0" /><g
         id="g16"
         transform="matrix(1,0,0,-1,0,275)"><path
           d="m 349.336,238.984 0,17.332"
           style="fill:none;stroke:#ff0000;stroke-width:1;stroke-linecap:butt;stroke-linejoin:miter;stroke-miterlimit:4;stroke-dasharray:none;stroke-opacity:1"
           id="path18"
           inkscape:connector-curvature="0" /></g><g
         id="g68"
         transform="matrix(1,0,0,-1,0,275)"><path
           d="m 317.914,256.734 56.066,0"
           style="fill:none;stroke:#000000;stroke-width:1;stroke-linecap:butt;stroke-linejoin:miter;stroke-miterlimit:4;stroke-dasharray:none;stroke-opacity:1"
           id="path70"
           inkscape:connector-curvature="0" /></g><g
         id="g72"
         transform="matrix(1,0,0,-1,0,275)"><path
           d="m 320.695,256.633 c 37.125,0 16.617,-27.227 49.852,-27.227"
           style="fill:none;stroke:#000000;stroke-width:1;stroke-linecap:butt;stroke-linejoin:miter;stroke-miterlimit:4;stroke-dasharray:none;stroke-opacity:1"
           id="path74"
           inkscape:connector-curvature="0" /></g></g><text
       y="-241.7245"
       x="177.65889"
       id="text76"
       style="font-variant:normal;font-weight:normal;font-size:12.5px;font-family:'DejaVu Sans';-inkscape-font-specification:DejaVuSans;writing-mode:lr-tb;fill:#000000;fill-opacity:1;fill-rule:nonzero;stroke:none"
       transform="scale(1,-1)"><tspan
         y="-241.7245"
         x="177.65889"
         id="tspan78"
         sodipodi:role="line">#</tspan></text>
<g
       transform="matrix(1,0,0,-1,0,275)"
       id="g80"><path
         inkscape:connector-curvature="0"
         id="path82"
         style="fill:none;stroke:#000000;stroke-width:1;stroke-linecap:butt;stroke-linejoin:miter;stroke-miterlimit:4;stroke-dasharray:none;stroke-opacity:1"
         d="m 180.348,43.973 0,28" /></g><g
       transform="matrix(1,0,0,-1,0,275)"
       id="g84"><path
         inkscape:connector-curvature="0"
         id="path86"
         style="fill:none;stroke:#000000;stroke-width:1;stroke-linecap:butt;stroke-linejoin:miter;stroke-miterlimit:4;stroke-dasharray:none;stroke-opacity:1"
         d="m 246.348,43.973 0,28" /></g><g
       transform="matrix(1,0,0,-1,0,275)"
       id="g100"><path
         inkscape:connector-curvature="0"
         id="path102"
         style="fill:none;stroke:#000000;stroke-width:1;stroke-linecap:butt;stroke-linejoin:miter;stroke-miterlimit:4;stroke-dasharray:none;stroke-opacity:1"
         d="m 180.7475,116.86585 20.07149,28"
         sodipodi:nodetypes="cc" /><path
         sodipodi:nodetypes="cc"
         d="m 180.7475,116.86585 20.07149,28"
         style="fill:none;stroke:#000000;stroke-width:1;stroke-linecap:butt;stroke-linejoin:miter;stroke-miterlimit:4;stroke-dasharray:none;stroke-opacity:1"
         id="path4483"
         inkscape:connector-curvature="0" /></g><g
       transform="matrix(1,0,0,-1,0,275)"
       id="g104"><path
         inkscape:connector-curvature="0"
         id="path106"
         style="fill:none;stroke:#000000;stroke-width:1;stroke-linecap:butt;stroke-linejoin:miter;stroke-miterlimit:4;stroke-dasharray:none;stroke-opacity:1"
         d="m 210.64053,192.1873 29.67893,34.24995"
         sodipodi:nodetypes="cc" /></g><g
       id="g4447"><path
         d="m 180.168,193.652 1.75,0.25 c 5.582,-0.836 7.664,-14.668 10,-21 l 0,-8.5 -22.5,0 0,9.75 c 4.332,5.5 5.664,21.25 10.75,19.5 z"
         style="fill:#ff0000;fill-opacity:0.57647095;fill-rule:nonzero;stroke:none"
         id="path140"
         inkscape:connector-curvature="0" /><g
         id="g142"
         transform="matrix(1,0,0,-1,0,275)"><path
           d="m 151.926,111.207 56.062,0"
           style="fill:none;stroke:#000000;stroke-width:1;stroke-linecap:butt;stroke-linejoin:miter;stroke-miterlimit:4;stroke-dasharray:none;stroke-opacity:1"
           id="path144"
           inkscape:connector-curvature="0" /></g><g
         id="g146"
         transform="matrix(1,0,0,-1,0,275)"><path
           d="m 209.145,111.207 -1.731,1 0,-2 1.731,1 z"
           style="fill:#000000;fill-opacity:1;fill-rule:evenodd;stroke:#000000;stroke-width:0.25;stroke-linecap:butt;stroke-linejoin:miter;stroke-miterlimit:4;stroke-dasharray:none;stroke-opacity:1"
           id="path148"
           inkscape:connector-curvature="0" /></g><g
         id="g150"
         transform="matrix(1,0,0,-1,0,275)"><path
           d="m 157.926,110.926 c 18.855,-5.555 12.969,-30.129 23.234,-30.024 10.301,0.106 4.543,23.801 19.695,30.032"
           style="fill:none;stroke:#000000;stroke-width:1;stroke-linecap:butt;stroke-linejoin:miter;stroke-miterlimit:4;stroke-dasharray:none;stroke-opacity:1"
           id="path152"
           inkscape:connector-curvature="0" /></g><g
         id="g154"
         transform="matrix(1,0,0,-1,0,275)"><path
           d="m 180.668,81.598 0,29"
           style="fill:none;stroke:#ff0000;stroke-width:1;stroke-linecap:butt;stroke-linejoin:miter;stroke-miterlimit:4;stroke-dasharray:none;stroke-opacity:1"
           id="path156"
           inkscape:connector-curvature="0" /></g></g><g
       id="g4436"><path
         d="m 244.168,193.652 1.75,0.25 c 5.582,-0.836 7.664,-14.668 10,-21 l 0,-8.5 -22.5,0 0,9.75 c 4.332,5.5 5.664,21.25 10.75,19.5 z"
         style="fill:#ff0000;fill-opacity:0.57647095;fill-rule:nonzero;stroke:none"
         id="path158"
         inkscape:connector-curvature="0" /><g
         id="g160"
         transform="matrix(1,0,0,-1,0,275)"><path
           d="m 215.926,111.207 56.062,0"
           style="fill:none;stroke:#000000;stroke-width:1;stroke-linecap:butt;stroke-linejoin:miter;stroke-miterlimit:4;stroke-dasharray:none;stroke-opacity:1"
           id="path162"
           inkscape:connector-curvature="0" /></g><g
         id="g164"
         transform="matrix(1,0,0,-1,0,275)"><path
           d="m 273.145,111.207 -1.731,1 0,-2 1.731,1 z"
           style="fill:#000000;fill-opacity:1;fill-rule:evenodd;stroke:#000000;stroke-width:0.25;stroke-linecap:butt;stroke-linejoin:miter;stroke-miterlimit:4;stroke-dasharray:none;stroke-opacity:1"
           id="path166"
           inkscape:connector-curvature="0" /></g><g
         id="g168"
         transform="matrix(1,0,0,-1,0,275)"><path
           d="m 221.926,110.926 c 18.855,-5.555 12.969,-30.129 23.234,-30.024 10.301,0.106 4.543,23.801 19.695,30.032"
           style="fill:none;stroke:#000000;stroke-width:1;stroke-linecap:butt;stroke-linejoin:miter;stroke-miterlimit:4;stroke-dasharray:none;stroke-opacity:1"
           id="path170"
           inkscape:connector-curvature="0" /></g><g
         id="g172"
         transform="matrix(1,0,0,-1,0,275)"><path
           d="m 244.668,81.598 0,29"
           style="fill:none;stroke:#ff0000;stroke-width:1;stroke-linecap:butt;stroke-linejoin:miter;stroke-miterlimit:4;stroke-dasharray:none;stroke-opacity:1"
           id="path174"
           inkscape:connector-curvature="0" /></g></g><text
       id="text260"
       style="font-variant:normal;font-weight:bold;font-size:12.5px;font-family:'DejaVu Sans';-inkscape-font-specification:DejaVuSans-Bold;writing-mode:lr-tb;fill:#000000;fill-opacity:1;fill-rule:nonzero;stroke:none"
       transform="scale(1,-1)"
       x="406.77496"
       y="-265.90854"><tspan
         id="tspan262"
         sodipodi:role="line"
         y="-265.90854"
         x="406.77496 419.71246 428.52496 434.73749 443.98749 452.91248">Method</tspan></text>
<text
       id="text264"
       style="font-variant:normal;font-weight:normal;font-size:12.5px;font-family:'DejaVu Sans';-inkscape-font-specification:DejaVuSans;writing-mode:lr-tb;fill:#000000;fill-opacity:1;fill-rule:nonzero;stroke:none"
       transform="scale(1,-1)"
       x="407.66779"
       y="-174.76581"><tspan
         id="tspan266"
         sodipodi:role="line"
         x="407.66779"
         y="-174.76581">Urn model</tspan></text>
<text
       y="-105.73571"
       x="407.66791"
       id="text280"
       style="font-variant:normal;font-weight:normal;font-size:12.5px;font-family:'DejaVu Sans';-inkscape-font-specification:DejaVuSans;writing-mode:lr-tb;fill:#000000;fill-opacity:1;fill-rule:nonzero;stroke:none"
       transform="scale(1,-1)"><tspan
         id="tspan282"
         sodipodi:role="line"
         y="-105.73571"
         x="407.66791 417.68042 425.36792 433.5929 441.54291 454.20538 457.81793 464.95538 469.06793 477.31793 482.36792 490.31793 498.55542 503.9054 511.85541 524.51788 537.18042 540.7804 549.01788">Dynamic programming</tspan><tspan
         id="tspan284"
         sodipodi:role="line"
         y="-90.110703"
         x="407.66791 415.61792 423.29291 431.29291 436.63043 440.75543 447.51788 455.4679 468.13043 476.38043 479.98041 487.98041 496.2179 500.3429 509.41791 519.41791 526.89288">over sampled CDFs</tspan><tspan
         id="tspan286"
         sodipodi:role="line"
         y="-34.200554"
         x="407.66791 417.68042 425.36792 433.5929 441.54291 454.20538 457.81793 464.95538 469.06793 477.31793 482.36792 490.31793 498.55542 503.9054 511.85541 524.51788 537.18042 540.7804 549.01788">Dynamic programming</tspan><tspan
         id="tspan288"
         sodipodi:role="line"
         y="-18.575552"
         x="407.66791 415.61792 423.29291 431.29291 436.63043 440.75543 447.51788 455.4679 468.13043 476.38043 479.98041 487.98041 496.2179 500.3429 509.41791 519.41791 526.89288">over sampled CDFs</tspan></text>
<text
       id="text290"
       style="font-variant:normal;font-weight:bold;font-size:12.5px;font-family:'DejaVu Sans';-inkscape-font-specification:DejaVuSans-Bold;writing-mode:lr-tb;fill:#000000;fill-opacity:1;fill-rule:nonzero;stroke:none"
       transform="scale(1,-1)"
       x="44.902344"
       y="-265.97949"><tspan
         id="tspan292"
         sodipodi:role="line"
         y="-265.97949"
         x="44.902344 49.739845 58.977345 68.277344 77.514847 83.739845 88.477348 99.527344 108.77734 114.98985 124.28984 133.52734">Input/Output</tspan></text>
<text
       transform="scale(1,-1)"
       style="font-variant:normal;font-weight:normal;font-size:12.5px;font-family:'DejaVu Sans';-inkscape-font-specification:DejaVuSans;writing-mode:lr-tb;fill:#000000;fill-opacity:1;fill-rule:nonzero;stroke:none"
       id="text4274"
       x="241.65913"
       y="-241.7245"><tspan
         sodipodi:role="line"
         id="tspan4276"
         x="241.65913"
         y="-241.7245">#</tspan></text>
<g
       id="g4467"
       transform="translate(-137.6,72)"><path
         inkscape:connector-curvature="0"
         id="path4469"
         style="fill:#ff0000;fill-opacity:0.57647095;fill-rule:nonzero;stroke:none"
         d="m 348.629,34.863 c 2.547,4.184 5.723,7.117 9.898,9.547 l -0.121,-25.808 -20.386,0 0,3.359 c 5.039,1.926 8.074,7.851 10.609,12.902 z" /><g
         transform="matrix(1,0,0,-1,0,275)"
         id="g4471"><path
           inkscape:connector-curvature="0"
           id="path4473"
           style="fill:none;stroke:#ff0000;stroke-width:1;stroke-linecap:butt;stroke-linejoin:miter;stroke-miterlimit:4;stroke-dasharray:none;stroke-opacity:1"
           d="m 349.336,238.984 0,17.332" /></g><g
         transform="matrix(1,0,0,-1,0,275)"
         id="g4475"><path
           inkscape:connector-curvature="0"
           id="path4477"
           style="fill:none;stroke:#000000;stroke-width:1;stroke-linecap:butt;stroke-linejoin:miter;stroke-miterlimit:4;stroke-dasharray:none;stroke-opacity:1"
           d="m 317.914,256.734 56.066,0" /></g><g
         transform="matrix(1,0,0,-1,0,275)"
         id="g4479"><path
           inkscape:connector-curvature="0"
           id="path4481"
           style="fill:none;stroke:#000000;stroke-width:1;stroke-linecap:butt;stroke-linejoin:miter;stroke-miterlimit:4;stroke-dasharray:none;stroke-opacity:1"
           d="m 320.695,256.633 c 37.125,0 16.617,-27.227 49.852,-27.227" /></g></g><g
       id="g4485"
       transform="matrix(-1,0,0,-1,426.36649,275)"><path
         sodipodi:nodetypes="cc"
         d="m 180.7475,116.86585 20.07149,28"
         style="fill:none;stroke:#000000;stroke-width:1;stroke-linecap:butt;stroke-linejoin:miter;stroke-miterlimit:4;stroke-dasharray:none;stroke-opacity:1"
         id="path4487"
         inkscape:connector-curvature="0" /><path
         inkscape:connector-curvature="0"
         id="path4489"
         style="fill:none;stroke:#000000;stroke-width:1;stroke-linecap:butt;stroke-linejoin:miter;stroke-miterlimit:4;stroke-dasharray:none;stroke-opacity:1"
         d="m 180.7475,116.86585 20.07149,28"
         sodipodi:nodetypes="cc" /></g><text
       transform="scale(1,-1)"
       style="font-variant:normal;font-weight:normal;font-size:12.5px;font-family:'DejaVu Sans';-inkscape-font-specification:DejaVuSans;writing-mode:lr-tb;fill:#000000;fill-opacity:1;fill-rule:nonzero;stroke:none"
       id="text4507"
       x="305.65881"
       y="-241.7245"><tspan
         sodipodi:role="line"
         id="tspan4509"
         x="305.65881"
         y="-241.7245">#</tspan></text>
<g
       id="g4511"
       transform="matrix(1,0,0,-1,128,275)"><path
         d="m 180.348,43.973 0,28"
         style="fill:none;stroke:#000000;stroke-width:1;stroke-linecap:butt;stroke-linejoin:miter;stroke-miterlimit:4;stroke-dasharray:none;stroke-opacity:1"
         id="path4513"
         inkscape:connector-curvature="0" /></g><g
       id="g4515"
       transform="matrix(1,0,0,-1,128,275)"><path
         d="m 246.348,43.973 0,28"
         style="fill:none;stroke:#000000;stroke-width:1;stroke-linecap:butt;stroke-linejoin:miter;stroke-miterlimit:4;stroke-dasharray:none;stroke-opacity:1"
         id="path4517"
         inkscape:connector-curvature="0" /></g><g
       id="g4519"
       transform="matrix(1,0,0,-1,128,275)"><path
         sodipodi:nodetypes="cc"
         d="m 180.7475,116.86585 20.07149,28"
         style="fill:none;stroke:#000000;stroke-width:1;stroke-linecap:butt;stroke-linejoin:miter;stroke-miterlimit:4;stroke-dasharray:none;stroke-opacity:1"
         id="path4521"
         inkscape:connector-curvature="0" /><path
         inkscape:connector-curvature="0"
         id="path4523"
         style="fill:none;stroke:#000000;stroke-width:1;stroke-linecap:butt;stroke-linejoin:miter;stroke-miterlimit:4;stroke-dasharray:none;stroke-opacity:1"
         d="m 180.7475,116.86585 20.07149,28"
         sodipodi:nodetypes="cc" /></g><g
       id="g4529"
       transform="translate(128,0)"><path
         inkscape:connector-curvature="0"
         id="path4531"
         style="fill:#ff0000;fill-opacity:0.57647095;fill-rule:nonzero;stroke:none"
         d="m 180.168,193.652 1.75,0.25 c 5.582,-0.836 7.664,-14.668 10,-21 l 0,-8.5 -22.5,0 0,9.75 c 4.332,5.5 5.664,21.25 10.75,19.5 z" /><g
         transform="matrix(1,0,0,-1,0,275)"
         id="g4533"><path
           inkscape:connector-curvature="0"
           id="path4535"
           style="fill:none;stroke:#000000;stroke-width:1;stroke-linecap:butt;stroke-linejoin:miter;stroke-miterlimit:4;stroke-dasharray:none;stroke-opacity:1"
           d="m 151.926,111.207 56.062,0" /></g><g
         transform="matrix(1,0,0,-1,0,275)"
         id="g4537"><path
           inkscape:connector-curvature="0"
           id="path4539"
           style="fill:#000000;fill-opacity:1;fill-rule:evenodd;stroke:#000000;stroke-width:0.25;stroke-linecap:butt;stroke-linejoin:miter;stroke-miterlimit:4;stroke-dasharray:none;stroke-opacity:1"
           d="m 209.145,111.207 -1.731,1 0,-2 1.731,1 z" /></g><g
         transform="matrix(1,0,0,-1,0,275)"
         id="g4541"><path
           inkscape:connector-curvature="0"
           id="path4543"
           style="fill:none;stroke:#000000;stroke-width:1;stroke-linecap:butt;stroke-linejoin:miter;stroke-miterlimit:4;stroke-dasharray:none;stroke-opacity:1"
           d="m 157.926,110.926 c 18.855,-5.555 12.969,-30.129 23.234,-30.024 10.301,0.106 4.543,23.801 19.695,30.032" /></g><g
         transform="matrix(1,0,0,-1,0,275)"
         id="g4545"><path
           inkscape:connector-curvature="0"
           id="path4547"
           style="fill:none;stroke:#ff0000;stroke-width:1;stroke-linecap:butt;stroke-linejoin:miter;stroke-miterlimit:4;stroke-dasharray:none;stroke-opacity:1"
           d="m 180.668,81.598 0,29" /></g></g><g
       id="g4549"
       transform="translate(128,0)"><path
         inkscape:connector-curvature="0"
         id="path4551"
         style="fill:#ff0000;fill-opacity:0.57647095;fill-rule:nonzero;stroke:none"
         d="m 244.168,193.652 1.75,0.25 c 5.582,-0.836 7.664,-14.668 10,-21 l 0,-8.5 -22.5,0 0,9.75 c 4.332,5.5 5.664,21.25 10.75,19.5 z" /><g
         transform="matrix(1,0,0,-1,0,275)"
         id="g4553"><path
           inkscape:connector-curvature="0"
           id="path4555"
           style="fill:none;stroke:#000000;stroke-width:1;stroke-linecap:butt;stroke-linejoin:miter;stroke-miterlimit:4;stroke-dasharray:none;stroke-opacity:1"
           d="m 215.926,111.207 56.062,0" /></g><g
         transform="matrix(1,0,0,-1,0,275)"
         id="g4557"><path
           inkscape:connector-curvature="0"
           id="path4559"
           style="fill:#000000;fill-opacity:1;fill-rule:evenodd;stroke:#000000;stroke-width:0.25;stroke-linecap:butt;stroke-linejoin:miter;stroke-miterlimit:4;stroke-dasharray:none;stroke-opacity:1"
           d="m 273.145,111.207 -1.731,1 0,-2 1.731,1 z" /></g><g
         transform="matrix(1,0,0,-1,0,275)"
         id="g4561"><path
           inkscape:connector-curvature="0"
           id="path4563"
           style="fill:none;stroke:#000000;stroke-width:1;stroke-linecap:butt;stroke-linejoin:miter;stroke-miterlimit:4;stroke-dasharray:none;stroke-opacity:1"
           d="m 221.926,110.926 c 18.855,-5.555 12.969,-30.129 23.234,-30.024 10.301,0.106 4.543,23.801 19.695,30.032" /></g><g
         transform="matrix(1,0,0,-1,0,275)"
         id="g4565"><path
           inkscape:connector-curvature="0"
           id="path4567"
           style="fill:none;stroke:#ff0000;stroke-width:1;stroke-linecap:butt;stroke-linejoin:miter;stroke-miterlimit:4;stroke-dasharray:none;stroke-opacity:1"
           d="m 244.668,81.598 0,29" /></g></g><text
       y="-241.7245"
       x="369.65906"
       id="text4569"
       style="font-variant:normal;font-weight:normal;font-size:12.5px;font-family:'DejaVu Sans';-inkscape-font-specification:DejaVuSans;writing-mode:lr-tb;fill:#000000;fill-opacity:1;fill-rule:nonzero;stroke:none"
       transform="scale(1,-1)"><tspan
         y="-241.7245"
         x="369.65906"
         id="tspan4571"
         sodipodi:role="line">#</tspan></text>
<g
       transform="translate(-9.6,72)"
       id="g4573"><path
         d="m 348.629,34.863 c 2.547,4.184 5.723,7.117 9.898,9.547 l -0.121,-25.808 -20.386,0 0,3.359 c 5.039,1.926 8.074,7.851 10.609,12.902 z"
         style="fill:#ff0000;fill-opacity:0.57647095;fill-rule:nonzero;stroke:none"
         id="path4575"
         inkscape:connector-curvature="0" /><g
         id="g4577"
         transform="matrix(1,0,0,-1,0,275)"><path
           d="m 349.336,238.984 0,17.332"
           style="fill:none;stroke:#ff0000;stroke-width:1;stroke-linecap:butt;stroke-linejoin:miter;stroke-miterlimit:4;stroke-dasharray:none;stroke-opacity:1"
           id="path4579"
           inkscape:connector-curvature="0" /></g><g
         id="g4581"
         transform="matrix(1,0,0,-1,0,275)"><path
           d="m 317.914,256.734 56.066,0"
           style="fill:none;stroke:#000000;stroke-width:1;stroke-linecap:butt;stroke-linejoin:miter;stroke-miterlimit:4;stroke-dasharray:none;stroke-opacity:1"
           id="path4583"
           inkscape:connector-curvature="0" /></g><g
         id="g4585"
         transform="matrix(1,0,0,-1,0,275)"><path
           d="m 320.695,256.633 c 37.125,0 16.617,-27.227 49.852,-27.227"
           style="fill:none;stroke:#000000;stroke-width:1;stroke-linecap:butt;stroke-linejoin:miter;stroke-miterlimit:4;stroke-dasharray:none;stroke-opacity:1"
           id="path4587"
           inkscape:connector-curvature="0" /></g></g><g
       transform="matrix(-1,0,0,-1,554.36649,275)"
       id="g4589"><path
         inkscape:connector-curvature="0"
         id="path4591"
         style="fill:none;stroke:#000000;stroke-width:1;stroke-linecap:butt;stroke-linejoin:miter;stroke-miterlimit:4;stroke-dasharray:none;stroke-opacity:1"
         d="m 180.7475,116.86585 20.07149,28"
         sodipodi:nodetypes="cc" /><path
         sodipodi:nodetypes="cc"
         d="m 180.7475,116.86585 20.07149,28"
         style="fill:none;stroke:#000000;stroke-width:1;stroke-linecap:butt;stroke-linejoin:miter;stroke-miterlimit:4;stroke-dasharray:none;stroke-opacity:1"
         id="path4593"
         inkscape:connector-curvature="0" /></g><g
       id="g4595"
       transform="matrix(-1,0,0,-1,548.55999,275)"><path
         sodipodi:nodetypes="cc"
         d="m 210.64053,192.1873 29.67893,34.24995"
         style="fill:none;stroke:#000000;stroke-width:1;stroke-linecap:butt;stroke-linejoin:miter;stroke-miterlimit:4;stroke-dasharray:none;stroke-opacity:1"
         id="path4597"
         inkscape:connector-curvature="0" /></g><text
       xml:space="preserve"
       style="font-style:normal;font-weight:normal;font-size:12.5px;line-height:125%;font-family:sans-serif;letter-spacing:0px;word-spacing:0px;fill:#000000;fill-opacity:1;stroke:none;stroke-width:1px;stroke-linecap:butt;stroke-linejoin:miter;stroke-opacity:1"
       x="407.89017"
       y="-243.15784"
       id="text4601"
       sodipodi:linespacing="125%"
       transform="scale(1,-1)"><tspan
         sodipodi:role="line"
         id="tspan4603"
         x="407.89017"
         y="-243.15784">MERFISH</tspan></text>
</g></svg>