<?xml version="1.0" encoding="UTF-8" standalone="no"?>
<!-- Created with Inkscape (http://www.inkscape.org/) -->

<svg
   xmlns:dc="http://purl.org/dc/elements/1.1/"
   xmlns:cc="http://creativecommons.org/ns#"
   xmlns:rdf="http://www.w3.org/1999/02/22-rdf-syntax-ns#"
   xmlns:svg="http://www.w3.org/2000/svg"
   xmlns="http://www.w3.org/2000/svg"
   xmlns:sodipodi="http://sodipodi.sourceforge.net/DTD/sodipodi-0.dtd"
   xmlns:inkscape="http://www.inkscape.org/namespaces/inkscape"
   id="svg2"
   version="1.1"
   inkscape:version="0.91 r"
   xml:space="preserve"
   width="554.0528"
   height="328.55859"
   viewBox="0 0 554.05279 328.55858"
   sodipodi:docname="model.svg"><metadata
     id="metadata8"><rdf:RDF><cc:Work
         rdf:about=""><dc:format>image/svg+xml</dc:format><dc:type
           rdf:resource="http://purl.org/dc/dcmitype/StillImage" /><dc:title></dc:title></cc:Work></rdf:RDF></metadata><defs
     id="defs6" /><sodipodi:namedview
     pagecolor="#ffffff"
     bordercolor="#666666"
     borderopacity="1"
     objecttolerance="10"
     gridtolerance="10"
     guidetolerance="10"
     inkscape:pageopacity="0"
     inkscape:pageshadow="2"
     inkscape:window-width="1152"
     inkscape:window-height="848"
     id="namedview4"
     showgrid="false"
     fit-margin-top="0"
     fit-margin-left="0"
     fit-margin-right="0"
     fit-margin-bottom="0"
     inkscape:zoom="0.89600676"
     inkscape:cx="392.80012"
     inkscape:cy="161.35655"
     inkscape:window-x="0"
     inkscape:window-y="0"
     inkscape:window-maximized="0"
     inkscape:current-layer="g10"
     showguides="true"
     inkscape:guide-bbox="true"><sodipodi:guide
       position="449.3317,355.92837"
       orientation="1,0"
       id="guide4599" /><sodipodi:guide
       position="129.23119,359.37228"
       orientation="1,0"
       id="guide3472" /></sodipodi:namedview><g
     id="g10"
     inkscape:groupmode="layer"
     inkscape:label="model"
     transform="matrix(1.25,0,0,-1.25,-60.29892,339.07703)"><g
       id="g4458"
       transform="translate(-71.49934,-3.5714016)"><path
         d="m 348.629,34.863 c 2.547,4.184 5.723,7.117 9.898,9.547 l -0.121,-25.808 -20.386,0 0,3.359 c 5.039,1.926 8.074,7.851 10.609,12.902 z"
         style="fill:#ff0000;fill-opacity:0.57647095;fill-rule:nonzero;stroke:none"
         id="path14"
         inkscape:connector-curvature="0" /><g
         id="g16"
         transform="matrix(1,0,0,-1,0,275)"><path
           d="m 349.336,238.984 0,17.332"
           style="fill:none;stroke:#ff0000;stroke-width:1;stroke-linecap:butt;stroke-linejoin:miter;stroke-miterlimit:4;stroke-dasharray:none;stroke-opacity:1"
           id="path18"
           inkscape:connector-curvature="0" /></g><g
         id="g68"
         transform="matrix(1,0,0,-1,0,275)"><path
           d="m 317.914,256.734 56.066,0"
           style="fill:none;stroke:#000000;stroke-width:1;stroke-linecap:butt;stroke-linejoin:miter;stroke-miterlimit:4;stroke-dasharray:none;stroke-opacity:1"
           id="path70"
           inkscape:connector-curvature="0" /></g><g
         id="g72"
         transform="matrix(1,0,0,-1,0,275)"><path
           d="m 320.695,256.633 c 37.125,0 16.617,-27.227 49.852,-27.227"
           style="fill:none;stroke:#000000;stroke-width:1;stroke-linecap:butt;stroke-linejoin:miter;stroke-miterlimit:4;stroke-dasharray:none;stroke-opacity:1"
           id="path74"
           inkscape:connector-curvature="0" /></g></g><text
       y="-241.7245"
       x="177.65889"
       id="text76"
       style="font-variant:normal;font-weight:normal;font-size:12.5px;font-family:'DejaVu Sans';-inkscape-font-specification:DejaVuSans;writing-mode:lr-tb;fill:#000000;fill-opacity:1;fill-rule:nonzero;stroke:none"
       transform="scale(1,-1)"><tspan
         y="-241.7245"
         x="177.65889"
         id="tspan78"
         sodipodi:role="line">#</tspan></text>
<g
       transform="matrix(1,0,0,-1,0,275)"
       id="g80"><path
         inkscape:connector-curvature="0"
         id="path82"
         style="fill:none;stroke:#000000;stroke-width:1;stroke-linecap:butt;stroke-linejoin:miter;stroke-miterlimit:4;stroke-dasharray:none;stroke-opacity:1"
         d="m 180.348,43.973 0,28" /></g><g
       transform="matrix(1,0,0,-1,0,275)"
       id="g84"><path
         inkscape:connector-curvature="0"
         id="path86"
         style="fill:none;stroke:#000000;stroke-width:1;stroke-linecap:butt;stroke-linejoin:miter;stroke-miterlimit:4;stroke-dasharray:none;stroke-opacity:1"
         d="m 246.348,43.973 0,28" /></g><g
       transform="matrix(1,0,0,-1,0,275)"
       id="g100"><path
         inkscape:connector-curvature="0"
         id="path102"
         style="fill:none;stroke:#000000;stroke-width:1;stroke-linecap:butt;stroke-linejoin:miter;stroke-miterlimit:4;stroke-dasharray:none;stroke-opacity:1"
         d="m 180.7475,116.86585 20.07149,28"
         sodipodi:nodetypes="cc" /><path
         sodipodi:nodetypes="cc"
         d="m 180.7475,116.86585 20.07149,28"
         style="fill:none;stroke:#000000;stroke-width:1;stroke-linecap:butt;stroke-linejoin:miter;stroke-miterlimit:4;stroke-dasharray:none;stroke-opacity:1"
         id="path4483"
         inkscape:connector-curvature="0" /></g><g
       transform="matrix(1,0,0,-1,0,275)"
       id="g104"><path
         inkscape:connector-curvature="0"
         id="path106"
         style="fill:none;stroke:#000000;stroke-width:1;stroke-linecap:butt;stroke-linejoin:miter;stroke-miterlimit:4;stroke-dasharray:none;stroke-opacity:1"
         d="m 210.64053,192.1873 29.67893,34.24995"
         sodipodi:nodetypes="cc" /></g><g
       id="g4447"><path
         d="m 180.168,193.652 1.75,0.25 c 5.582,-0.836 7.664,-14.668 10,-21 l 0,-8.5 -22.5,0 0,9.75 c 4.332,5.5 5.664,21.25 10.75,19.5 z"
         style="fill:#ff0000;fill-opacity:0.57647095;fill-rule:nonzero;stroke:none"
         id="path140"
         inkscape:connector-curvature="0" /><g
         id="g142"
         transform="matrix(1,0,0,-1,0,275)"><path
           d="m 151.926,111.207 56.062,0"
           style="fill:none;stroke:#000000;stroke-width:1;stroke-linecap:butt;stroke-linejoin:miter;stroke-miterlimit:4;stroke-dasharray:none;stroke-opacity:1"
           id="path144"
           inkscape:connector-curvature="0" /></g><g
         id="g146"
         transform="matrix(1,0,0,-1,0,275)"><path
           d="m 209.145,111.207 -1.731,1 0,-2 1.731,1 z"
           style="fill:#000000;fill-opacity:1;fill-rule:evenodd;stroke:#000000;stroke-width:0.25;stroke-linecap:butt;stroke-linejoin:miter;stroke-miterlimit:4;stroke-dasharray:none;stroke-opacity:1"
           id="path148"
           inkscape:connector-curvature="0" /></g><g
         id="g150"
         transform="matrix(1,0,0,-1,0,275)"><path
           d="m 157.926,110.926 c 18.855,-5.555 12.969,-30.129 23.234,-30.024 10.301,0.106 4.543,23.801 19.695,30.032"
           style="fill:none;stroke:#000000;stroke-width:1;stroke-linecap:butt;stroke-linejoin:miter;stroke-miterlimit:4;stroke-dasharray:none;stroke-opacity:1"
           id="path152"
           inkscape:connector-curvature="0" /></g><g
         id="g154"
         transform="matrix(1,0,0,-1,0,275)"><path
           d="m 180.668,81.598 0,29"
           style="fill:none;stroke:#ff0000;stroke-width:1;stroke-linecap:butt;stroke-linejoin:miter;stroke-miterlimit:4;stroke-dasharray:none;stroke-opacity:1"
           id="path156"
           inkscape:connector-curvature="0" /></g></g><g
       id="g4436"><path
         d="m 244.168,193.652 1.75,0.25 c 5.582,-0.836 7.664,-14.668 10,-21 l 0,-8.5 -22.5,0 0,9.75 c 4.332,5.5 5.664,21.25 10.75,19.5 z"
         style="fill:#ff0000;fill-opacity:0.57647095;fill-rule:nonzero;stroke:none"
         id="path158"
         inkscape:connector-curvature="0" /><g
         id="g160"
         transform="matrix(1,0,0,-1,0,275)"><path
           d="m 215.926,111.207 56.062,0"
           style="fill:none;stroke:#000000;stroke-width:1;stroke-linecap:butt;stroke-linejoin:miter;stroke-miterlimit:4;stroke-dasharray:none;stroke-opacity:1"
           id="path162"
           inkscape:connector-curvature="0" /></g><g
         id="g164"
         transform="matrix(1,0,0,-1,0,275)"><path
           d="m 273.145,111.207 -1.731,1 0,-2 1.731,1 z"
           style="fill:#000000;fill-opacity:1;fill-rule:evenodd;stroke:#000000;stroke-width:0.25;stroke-linecap:butt;stroke-linejoin:miter;stroke-miterlimit:4;stroke-dasharray:none;stroke-opacity:1"
           id="path166"
           inkscape:connector-curvature="0" /></g><g
         id="g168"
         transform="matrix(1,0,0,-1,0,275)"><path
           d="m 221.926,110.926 c 18.855,-5.555 12.969,-30.129 23.234,-30.024 10.301,0.106 4.543,23.801 19.695,30.032"
           style="fill:none;stroke:#000000;stroke-width:1;stroke-linecap:butt;stroke-linejoin:miter;stroke-miterlimit:4;stroke-dasharray:none;stroke-opacity:1"
           id="path170"
           inkscape:connector-curvature="0" /></g><g
         id="g172"
         transform="matrix(1,0,0,-1,0,275)"><path
           d="m 244.668,81.598 0,29"
           style="fill:none;stroke:#ff0000;stroke-width:1;stroke-linecap:butt;stroke-linejoin:miter;stroke-miterlimit:4;stroke-dasharray:none;stroke-opacity:1"
           id="path174"
           inkscape:connector-curvature="0" /></g></g><text
       transform="scale(1,-1)"
       style="font-variant:normal;font-weight:normal;font-size:12.5px;font-family:'DejaVu Sans';-inkscape-font-specification:DejaVuSans;writing-mode:lr-tb;fill:#000000;fill-opacity:1;fill-rule:nonzero;stroke:none"
       id="text4274"
       x="241.65913"
       y="-241.7245"><tspan
         sodipodi:role="line"
         id="tspan4276"
         x="241.65913"
         y="-241.7245">#</tspan></text>
<g
       id="g4467"
       transform="translate(-137.6,72)"><path
         inkscape:connector-curvature="0"
         id="path4469"
         style="fill:#ff0000;fill-opacity:0.57647095;fill-rule:nonzero;stroke:none"
         d="m 348.629,34.863 c 2.547,4.184 5.723,7.117 9.898,9.547 l -0.121,-25.808 -20.386,0 0,3.359 c 5.039,1.926 8.074,7.851 10.609,12.902 z" /><g
         transform="matrix(1,0,0,-1,0,275)"
         id="g4471"><path
           inkscape:connector-curvature="0"
           id="path4473"
           style="fill:none;stroke:#ff0000;stroke-width:1;stroke-linecap:butt;stroke-linejoin:miter;stroke-miterlimit:4;stroke-dasharray:none;stroke-opacity:1"
           d="m 349.336,238.984 0,17.332" /></g><g
         transform="matrix(1,0,0,-1,0,275)"
         id="g4475"><path
           inkscape:connector-curvature="0"
           id="path4477"
           style="fill:none;stroke:#000000;stroke-width:1;stroke-linecap:butt;stroke-linejoin:miter;stroke-miterlimit:4;stroke-dasharray:none;stroke-opacity:1"
           d="m 317.914,256.734 56.066,0" /></g><g
         transform="matrix(1,0,0,-1,0,275)"
         id="g4479"><path
           inkscape:connector-curvature="0"
           id="path4481"
           style="fill:none;stroke:#000000;stroke-width:1;stroke-linecap:butt;stroke-linejoin:miter;stroke-miterlimit:4;stroke-dasharray:none;stroke-opacity:1"
           d="m 320.695,256.633 c 37.125,0 16.617,-27.227 49.852,-27.227" /></g></g><g
       id="g4485"
       transform="matrix(-1,0,0,-1,426.36649,275)"><path
         sodipodi:nodetypes="cc"
         d="m 180.7475,116.86585 20.07149,28"
         style="fill:none;stroke:#000000;stroke-width:1;stroke-linecap:butt;stroke-linejoin:miter;stroke-miterlimit:4;stroke-dasharray:none;stroke-opacity:1"
         id="path4487"
         inkscape:connector-curvature="0" /><path
         inkscape:connector-curvature="0"
         id="path4489"
         style="fill:none;stroke:#000000;stroke-width:1;stroke-linecap:butt;stroke-linejoin:miter;stroke-miterlimit:4;stroke-dasharray:none;stroke-opacity:1"
         d="m 180.7475,116.86585 20.07149,28"
         sodipodi:nodetypes="cc" /></g><text
       transform="scale(1,-1)"
       style="font-variant:normal;font-weight:normal;font-size:12.5px;font-family:'DejaVu Sans';-inkscape-font-specification:DejaVuSans;writing-mode:lr-tb;fill:#000000;fill-opacity:1;fill-rule:nonzero;stroke:none"
       id="text4507"
       x="305.65881"
       y="-241.7245"><tspan
         sodipodi:role="line"
         id="tspan4509"
         x="305.65881"
         y="-241.7245">#</tspan></text>
<g
       id="g4511"
       transform="matrix(1,0,0,-1,128,275)"><path
         d="m 180.348,43.973 0,28"
         style="fill:none;stroke:#000000;stroke-width:1;stroke-linecap:butt;stroke-linejoin:miter;stroke-miterlimit:4;stroke-dasharray:none;stroke-opacity:1"
         id="path4513"
         inkscape:connector-curvature="0" /></g><g
       id="g4515"
       transform="matrix(1,0,0,-1,128,275)"><path
         d="m 246.348,43.973 0,28"
         style="fill:none;stroke:#000000;stroke-width:1;stroke-linecap:butt;stroke-linejoin:miter;stroke-miterlimit:4;stroke-dasharray:none;stroke-opacity:1"
         id="path4517"
         inkscape:connector-curvature="0" /></g><g
       id="g4519"
       transform="matrix(1,0,0,-1,128,275)"><path
         sodipodi:nodetypes="cc"
         d="m 180.7475,116.86585 20.07149,28"
         style="fill:none;stroke:#000000;stroke-width:1;stroke-linecap:butt;stroke-linejoin:miter;stroke-miterlimit:4;stroke-dasharray:none;stroke-opacity:1"
         id="path4521"
         inkscape:connector-curvature="0" /><path
         inkscape:connector-curvature="0"
         id="path4523"
         style="fill:none;stroke:#000000;stroke-width:1;stroke-linecap:butt;stroke-linejoin:miter;stroke-miterlimit:4;stroke-dasharray:none;stroke-opacity:1"
         d="m 180.7475,116.86585 20.07149,28"
         sodipodi:nodetypes="cc" /></g><g
       id="g4529"
       transform="translate(128,0)"><path
         inkscape:connector-curvature="0"
         id="path4531"
         style="fill:#ff0000;fill-opacity:0.57647095;fill-rule:nonzero;stroke:none"
         d="m 180.168,193.652 1.75,0.25 c 5.582,-0.836 7.664,-14.668 10,-21 l 0,-8.5 -22.5,0 0,9.75 c 4.332,5.5 5.664,21.25 10.75,19.5 z" /><g
         transform="matrix(1,0,0,-1,0,275)"
         id="g4533"><path
           inkscape:connector-curvature="0"
           id="path4535"
           style="fill:none;stroke:#000000;stroke-width:1;stroke-linecap:butt;stroke-linejoin:miter;stroke-miterlimit:4;stroke-dasharray:none;stroke-opacity:1"
           d="m 151.926,111.207 56.062,0" /></g><g
         transform="matrix(1,0,0,-1,0,275)"
         id="g4537"><path
           inkscape:connector-curvature="0"
           id="path4539"
           style="fill:#000000;fill-opacity:1;fill-rule:evenodd;stroke:#000000;stroke-width:0.25;stroke-linecap:butt;stroke-linejoin:miter;stroke-miterlimit:4;stroke-dasharray:none;stroke-opacity:1"
           d="m 209.145,111.207 -1.731,1 0,-2 1.731,1 z" /></g><g
         transform="matrix(1,0,0,-1,0,275)"
         id="g4541"><path
           inkscape:connector-curvature="0"
           id="path4543"
           style="fill:none;stroke:#000000;stroke-width:1;stroke-linecap:butt;stroke-linejoin:miter;stroke-miterlimit:4;stroke-dasharray:none;stroke-opacity:1"
           d="m 157.926,110.926 c 18.855,-5.555 12.969,-30.129 23.234,-30.024 10.301,0.106 4.543,23.801 19.695,30.032" /></g><g
         transform="matrix(1,0,0,-1,0,275)"
         id="g4545"><path
           inkscape:connector-curvature="0"
           id="path4547"
           style="fill:none;stroke:#ff0000;stroke-width:1;stroke-linecap:butt;stroke-linejoin:miter;stroke-miterlimit:4;stroke-dasharray:none;stroke-opacity:1"
           d="m 180.668,81.598 0,29" /></g></g><g
       id="g4549"
       transform="translate(128,0)"><path
         inkscape:connector-curvature="0"
         id="path4551"
         style="fill:#ff0000;fill-opacity:0.57647095;fill-rule:nonzero;stroke:none"
         d="m 244.168,193.652 1.75,0.25 c 5.582,-0.836 7.664,-14.668 10,-21 l 0,-8.5 -22.5,0 0,9.75 c 4.332,5.5 5.664,21.25 10.75,19.5 z" /><g
         transform="matrix(1,0,0,-1,0,275)"
         id="g4553"><path
           inkscape:connector-curvature="0"
           id="path4555"
           style="fill:none;stroke:#000000;stroke-width:1;stroke-linecap:butt;stroke-linejoin:miter;stroke-miterlimit:4;stroke-dasharray:none;stroke-opacity:1"
           d="m 215.926,111.207 56.062,0" /></g><g
         transform="matrix(1,0,0,-1,0,275)"
         id="g4557"><path
           inkscape:connector-curvature="0"
           id="path4559"
           style="fill:#000000;fill-opacity:1;fill-rule:evenodd;stroke:#000000;stroke-width:0.25;stroke-linecap:butt;stroke-linejoin:miter;stroke-miterlimit:4;stroke-dasharray:none;stroke-opacity:1"
           d="m 273.145,111.207 -1.731,1 0,-2 1.731,1 z" /></g><g
         transform="matrix(1,0,0,-1,0,275)"
         id="g4561"><path
           inkscape:connector-curvature="0"
           id="path4563"
           style="fill:none;stroke:#000000;stroke-width:1;stroke-linecap:butt;stroke-linejoin:miter;stroke-miterlimit:4;stroke-dasharray:none;stroke-opacity:1"
           d="m 221.926,110.926 c 18.855,-5.555 12.969,-30.129 23.234,-30.024 10.301,0.106 4.543,23.801 19.695,30.032" /></g><g
         transform="matrix(1,0,0,-1,0,275)"
         id="g4565"><path
           inkscape:connector-curvature="0"
           id="path4567"
           style="fill:none;stroke:#ff0000;stroke-width:1;stroke-linecap:butt;stroke-linejoin:miter;stroke-miterlimit:4;stroke-dasharray:none;stroke-opacity:1"
           d="m 244.668,81.598 0,29" /></g></g><text
       y="-241.7245"
       x="369.65906"
       id="text4569"
       style="font-variant:normal;font-weight:normal;font-size:12.5px;font-family:'DejaVu Sans';-inkscape-font-specification:DejaVuSans;writing-mode:lr-tb;fill:#000000;fill-opacity:1;fill-rule:nonzero;stroke:none"
       transform="scale(1,-1)"><tspan
         y="-241.7245"
         x="369.65906"
         id="tspan4571"
         sodipodi:role="line">#</tspan></text>
<g
       transform="translate(-9.6,72)"
       id="g4573"><path
         d="m 348.629,34.863 c 2.547,4.184 5.723,7.117 9.898,9.547 l -0.121,-25.808 -20.386,0 0,3.359 c 5.039,1.926 8.074,7.851 10.609,12.902 z"
         style="fill:#ff0000;fill-opacity:0.57647095;fill-rule:nonzero;stroke:none"
         id="path4575"
         inkscape:connector-curvature="0" /><g
         id="g4577"
         transform="matrix(1,0,0,-1,0,275)"><path
           d="m 349.336,238.984 0,17.332"
           style="fill:none;stroke:#ff0000;stroke-width:1;stroke-linecap:butt;stroke-linejoin:miter;stroke-miterlimit:4;stroke-dasharray:none;stroke-opacity:1"
           id="path4579"
           inkscape:connector-curvature="0" /></g><g
         id="g4581"
         transform="matrix(1,0,0,-1,0,275)"><path
           d="m 317.914,256.734 56.066,0"
           style="fill:none;stroke:#000000;stroke-width:1;stroke-linecap:butt;stroke-linejoin:miter;stroke-miterlimit:4;stroke-dasharray:none;stroke-opacity:1"
           id="path4583"
           inkscape:connector-curvature="0" /></g><g
         id="g4585"
         transform="matrix(1,0,0,-1,0,275)"><path
           d="m 320.695,256.633 c 37.125,0 16.617,-27.227 49.852,-27.227"
           style="fill:none;stroke:#000000;stroke-width:1;stroke-linecap:butt;stroke-linejoin:miter;stroke-miterlimit:4;stroke-dasharray:none;stroke-opacity:1"
           id="path4587"
           inkscape:connector-curvature="0" /></g></g><g
       transform="matrix(-1,0,0,-1,554.36649,275)"
       id="g4589"><path
         inkscape:connector-curvature="0"
         id="path4591"
         style="fill:none;stroke:#000000;stroke-width:1;stroke-linecap:butt;stroke-linejoin:miter;stroke-miterlimit:4;stroke-dasharray:none;stroke-opacity:1"
         d="m 180.7475,116.86585 20.07149,28"
         sodipodi:nodetypes="cc" /><path
         sodipodi:nodetypes="cc"
         d="m 180.7475,116.86585 20.07149,28"
         style="fill:none;stroke:#000000;stroke-width:1;stroke-linecap:butt;stroke-linejoin:miter;stroke-miterlimit:4;stroke-dasharray:none;stroke-opacity:1"
         id="path4593"
         inkscape:connector-curvature="0" /></g><g
       id="g4595"
       transform="matrix(-1,0,0,-1,548.55999,275)"><path
         sodipodi:nodetypes="cc"
         d="m 210.64053,192.1873 29.67893,34.24995"
         style="fill:none;stroke:#000000;stroke-width:1;stroke-linecap:butt;stroke-linejoin:miter;stroke-miterlimit:4;stroke-dasharray:none;stroke-opacity:1"
         id="path4597"
         inkscape:connector-curvature="0" /></g><text
       xml:space="preserve"
       style="font-style:normal;font-weight:normal;font-size:12.5px;line-height:125%;font-family:sans-serif;letter-spacing:0px;word-spacing:0px;fill:#000000;fill-opacity:1;stroke:none;stroke-width:1px;stroke-linecap:butt;stroke-linejoin:miter;stroke-opacity:1"
       x="151.3092"
       y="-244.12195"
       id="text3461"
       sodipodi:linespacing="125%"
       transform="scale(1,-1)"><tspan
         sodipodi:role="line"
         x="151.3092"
         y="-244.12195"
         style="text-align:end;text-anchor:end"
         id="tspan3472">observed counts</tspan><tspan
         sodipodi:role="line"
         x="151.3092"
         y="-228.49695"
         id="tspan3467"
         style="text-align:end;text-anchor:end" /><tspan
         sodipodi:role="line"
         x="151.3092"
         y="-212.87195"
         id="tspan3471"
         style="text-align:end;text-anchor:end" /><tspan
         sodipodi:role="line"
         x="151.3092"
         y="-197.24695"
         id="tspan3475"
         style="text-align:end;text-anchor:end" /><tspan
         sodipodi:role="line"
         x="151.3092"
         y="-181.62195"
         style="text-align:end;text-anchor:end"
         id="tspan3517">per cell/gene</tspan><tspan
         sodipodi:role="line"
         x="151.3092"
         y="-165.99695"
         style="text-align:end;text-anchor:end"
         id="tspan3513">expression PMF</tspan><tspan
         sodipodi:role="line"
         x="151.3092"
         y="-150.37195"
         id="tspan3479"
         style="text-align:end;text-anchor:end" /><tspan
         sodipodi:role="line"
         x="151.3092"
         y="-134.74695"
         id="tspan3481"
         style="text-align:end;text-anchor:end" /><tspan
         sodipodi:role="line"
         x="151.3092"
         y="-119.12195"
         id="tspan3489"
         style="text-align:end;text-anchor:end" /><tspan
         sodipodi:role="line"
         x="151.3092"
         y="-103.49695"
         style="text-align:end;text-anchor:end"
         id="tspan3523">mean and</tspan><tspan
         sodipodi:role="line"
         x="151.3092"
         y="-87.871948"
         style="text-align:end;text-anchor:end"
         id="tspan3511">variance CDF</tspan><tspan
         sodipodi:role="line"
         x="151.3092"
         y="-72.246948"
         id="tspan3493"
         style="text-align:end;text-anchor:end" /><tspan
         sodipodi:role="line"
         x="151.3092"
         y="-56.621948"
         id="tspan3499"
         style="text-align:end;text-anchor:end" /><tspan
         sodipodi:role="line"
         x="151.3092"
         y="-40.996948"
         style="text-align:end;text-anchor:end"
         id="tspan3503">fold change or</tspan><tspan
         sodipodi:role="line"
         x="151.3092"
         y="-25.371948"
         style="text-align:end;text-anchor:end"
         id="tspan3507">coefficient of</tspan><tspan
         sodipodi:role="line"
         x="151.3092"
         y="-9.7469482"
         style="text-align:end;text-anchor:end"
         id="tspan3509">variation CDF</tspan></text>
<text
       xml:space="preserve"
       style="font-style:normal;font-weight:normal;font-size:12.5px;line-height:125%;font-family:sans-serif;letter-spacing:0px;word-spacing:0px;fill:#000000;fill-opacity:1;stroke:none;stroke-width:1px;stroke-linecap:butt;stroke-linejoin:miter;stroke-opacity:1"
       x="407.7045"
       y="-261.01486"
       id="text3529"
       sodipodi:linespacing="125%"
       transform="scale(1,-1)"><tspan
         sodipodi:role="line"
         id="tspan3531"
         x="407.7045"
         y="-261.01486"
         style="font-style:normal;font-variant:normal;font-weight:bold;font-stretch:normal;font-family:sans-serif;-inkscape-font-specification:'sans-serif Bold'">Method</tspan><tspan
         sodipodi:role="line"
         x="407.7045"
         y="-245.38986"
         id="tspan3533">MERFISH</tspan><tspan
         sodipodi:role="line"
         x="407.7045"
         y="-229.76486"
         id="tspan3535" /><tspan
         sodipodi:role="line"
         x="407.7045"
         y="-214.13986"
         id="tspan3537" /><tspan
         sodipodi:role="line"
         x="407.7045"
         y="-198.51486"
         id="tspan3539" /><tspan
         sodipodi:role="line"
         x="407.7045"
         y="-182.88986"
         id="tspan3541">Urn model</tspan><tspan
         sodipodi:role="line"
         x="407.7045"
         y="-167.26486"
         id="tspan3543" /><tspan
         sodipodi:role="line"
         x="407.7045"
         y="-151.63986"
         id="tspan3545" /><tspan
         sodipodi:role="line"
         x="407.7045"
         y="-136.01486"
         id="tspan3547" /><tspan
         sodipodi:role="line"
         x="407.7045"
         y="-120.38986"
         id="tspan3549" /><tspan
         sodipodi:role="line"
         x="407.7045"
         y="-104.76486"
         id="tspan3551">dynamic</tspan><tspan
         sodipodi:role="line"
         x="407.7045"
         y="-89.139862"
         id="tspan3553">programming</tspan><tspan
         sodipodi:role="line"
         x="407.7045"
         y="-73.514862"
         id="tspan3555" /><tspan
         sodipodi:role="line"
         x="407.7045"
         y="-57.889862"
         id="tspan3557" /><tspan
         sodipodi:role="line"
         x="407.7045"
         y="-42.264862"
         id="tspan3561" /><tspan
         sodipodi:role="line"
         x="407.7045"
         y="-26.639862"
         id="tspan3476">dynamic</tspan><tspan
         sodipodi:role="line"
         x="407.7045"
         y="-11.014862"
         id="tspan3563">programming</tspan></text>
<text
       xml:space="preserve"
       style="font-style:normal;font-weight:normal;font-size:12.5px;line-height:125%;font-family:sans-serif;letter-spacing:0px;word-spacing:0px;fill:#000000;fill-opacity:1;stroke:none;stroke-width:1px;stroke-linecap:butt;stroke-linejoin:miter;stroke-opacity:1"
       x="60.324585"
       y="-261.98428"
       id="text3468"
       sodipodi:linespacing="125%"
       transform="scale(1,-1)"><tspan
         sodipodi:role="line"
         id="tspan3470"
         x="60.324585"
         y="-261.98428"
         style="font-style:normal;font-variant:normal;font-weight:bold;font-stretch:normal;font-family:sans-serif;-inkscape-font-specification:'sans-serif Bold'">Input/Output</tspan></text>
</g></svg>