<?xml version="1.0" encoding="UTF-8" standalone="no"?>
<!-- Created with Inkscape (http://www.inkscape.org/) -->

<svg
   xmlns:dc="http://purl.org/dc/elements/1.1/"
   xmlns:cc="http://creativecommons.org/ns#"
   xmlns:rdf="http://www.w3.org/1999/02/22-rdf-syntax-ns#"
   xmlns:svg="http://www.w3.org/2000/svg"
   xmlns="http://www.w3.org/2000/svg"
   xmlns:sodipodi="http://sodipodi.sourceforge.net/DTD/sodipodi-0.dtd"
   xmlns:inkscape="http://www.inkscape.org/namespaces/inkscape"
   id="svg2"
   version="1.1"
   inkscape:version="0.91 r"
   xml:space="preserve"
   width="887.63177"
   height="335.88043"
   viewBox="0 0 887.63177 335.88043"
   sodipodi:docname="model.svg"><metadata
     id="metadata8"><rdf:RDF><cc:Work
         rdf:about=""><dc:format>image/svg+xml</dc:format><dc:type
           rdf:resource="http://purl.org/dc/dcmitype/StillImage" /><dc:title /></cc:Work></rdf:RDF></metadata><defs
     id="defs6" /><sodipodi:namedview
     pagecolor="#ffffff"
     bordercolor="#666666"
     borderopacity="1"
     objecttolerance="10"
     gridtolerance="10"
     guidetolerance="10"
     inkscape:pageopacity="0"
     inkscape:pageshadow="2"
     inkscape:window-width="1152"
     inkscape:window-height="848"
     id="namedview4"
     showgrid="false"
     fit-margin-top="0"
     fit-margin-left="0"
     fit-margin-right="0"
     fit-margin-bottom="0"
     inkscape:zoom="0.89600676"
     inkscape:cx="453.50922"
     inkscape:cy="163.68438"
     inkscape:window-x="0"
     inkscape:window-y="0"
     inkscape:window-maximized="0"
     inkscape:current-layer="g12" /><g
     id="g10"
     inkscape:groupmode="layer"
     inkscape:label="model"
     transform="matrix(1.25,0,0,-1.25,9.3386853,344.07104)"><g
       id="g12"><path
         d="m 348.629,34.863 c 2.547,4.184 5.723,7.117 9.898,9.547 l -0.121,-25.808 -20.386,0 0,3.359 c 5.039,1.926 8.074,7.851 10.609,12.902 z"
         style="fill:#ff0000;fill-opacity:0.57647095;fill-rule:nonzero;stroke:none"
         id="path14"
         inkscape:connector-curvature="0" /><g
         id="g16"
         transform="matrix(1,0,0,-1,0,275)"><path
           d="m 349.336,238.984 0,17.332"
           style="fill:none;stroke:#ff0000;stroke-width:1;stroke-linecap:butt;stroke-linejoin:miter;stroke-miterlimit:4;stroke-dasharray:none;stroke-opacity:1"
           id="path18"
           inkscape:connector-curvature="0" /></g><text
         transform="matrix(1,0,0,-1,167.01562,245.2959)"
         style="font-variant:normal;font-weight:normal;font-size:12.5px;font-family:'DejaVu Sans';-inkscape-font-specification:DejaVuSans;writing-mode:lr-tb;fill:#000000;fill-opacity:1;fill-rule:nonzero;stroke:none"
         id="text20"><tspan
           sodipodi:role="line"
           id="tspan22"
           x="0"
           y="0" /><tspan
           x="-87.46875 -79.518753 -71.28125 -64.518753 -56.53125 -51.181252 -43.493752 -35.506248"
           y="4.0234375"
           sodipodi:role="line"
           id="tspan24">observed</tspan><tspan
           x="-70.652351 -63.514851 -55.56485 -47.339851 -39.114849 -34.014851"
           y="19.648438"
           sodipodi:role="line"
           id="tspan26">counts</tspan><tspan
           x="-85.535164 -77.297661 -69.347664 -62.585163 -57.485161 -49.497662 -44.147663 -40.547661 -32.610161"
           y="48.355476"
           sodipodi:role="line"
           id="tspan28">posterior</tspan><tspan
           x="-118.57423 -110.33672 -105.27422 -97.324226 -89.086723 -81.136726 -72.886726 -69.286728 -65.686722 -62.086723 -56.986725 -49.299225 -45.186726 -40.599224 -32.661724"
           y="63.980476"
           sodipodi:role="line"
           id="tspan30">probability for</tspan><tspan
           x="-97.328125 -89.565628 -81.878128 -73.640625 -68.578125 -60.578125 -53.815624 -47.065624 -43.453125 -35.515625"
           y="79.605476"
           sodipodi:role="line"
           id="tspan32">expression</tspan></text>
<g
         id="g34"
         transform="matrix(1,0,0,-1,0,275)"><path
           d="m 214.973,187.711 56.066,0"
           style="fill:none;stroke:#000000;stroke-width:1;stroke-linecap:butt;stroke-linejoin:miter;stroke-miterlimit:4;stroke-dasharray:none;stroke-opacity:1"
           id="path36"
           inkscape:connector-curvature="0" /></g><g
         id="g38"
         transform="matrix(1,0,0,-1,0,275)"><path
           d="m 272.191,187.711 -1.73,1 0,-2 1.73,1 z"
           style="fill:#000000;fill-opacity:1;fill-rule:evenodd;stroke:#000000;stroke-width:0.25;stroke-linecap:butt;stroke-linejoin:miter;stroke-miterlimit:4;stroke-dasharray:none;stroke-opacity:1"
           id="path40"
           inkscape:connector-curvature="0" /></g><g
         id="g42"
         transform="matrix(1,0,0,-1,0,275)"><path
           d="m 220.973,187.391 c 18.855,-5.559 12.968,-27.735 23.234,-27.629 10.301,0.101 4.547,21.55 19.699,27.777"
           style="fill:none;stroke:#000000;stroke-width:1;stroke-linecap:butt;stroke-linejoin:miter;stroke-miterlimit:4;stroke-dasharray:none;stroke-opacity:1"
           id="path44"
           inkscape:connector-curvature="0" /></g><text
         transform="matrix(1,0,0,-1,7.984375,109.27246)"
         style="font-variant:normal;font-weight:normal;font-size:12.5px;font-family:'DejaVu Sans';-inkscape-font-specification:DejaVuSans;writing-mode:lr-tb;fill:#000000;fill-opacity:1;fill-rule:nonzero;stroke:none"
         id="text46"><tspan
           x="0 8.2375002 16.1875 22.950001 28.049999 36.037498 41.387501 44.987499 52.924999 58.275002 62.387501 70.637497 75.6875 83.637497 91.875 99.837502 108.075 111.675 115.2875 118.8875 123.975"
           y="0"
           sodipodi:role="line"
           id="tspan48">posterior probability</tspan><tspan
           x="-15.742188 -11.167188 -3.2171874 2.1203125 6.2453127 18.907812 26.895313 34.857811 43.082813 47.207813 55.170311 63.395313 71.632812 75.757812 83.445312 91.395309 96.745316 100.34531 108.30782 116.53281 123.67031"
           y="15.625"
           sodipodi:role="line"
           id="tspan50">for mean and variance</tspan><tspan
           x="21.375 24.975 33.212502 37.325001 45.575001 50.625 58.575001 66.800003 75.050003 81.800003 85.925003 93.875 98.449997 102.575 109.7125 117.7 121.3 124.9"
           y="31.25"
           sodipodi:role="line"
           id="tspan52">in groups of cells</tspan><tspan
           x="-0 8.2375002 16.1875 22.950001 28.049999 36.037498 41.387501 44.987499 52.924999 58.275002 62.387501 70.637497 75.6875 83.637497 91.875 99.837502 108.075 111.675 115.2875 118.8875 123.975"
           y="71.292961"
           sodipodi:role="line"
           id="tspan54">posterior probability</tspan><tspan
           x="16.015625 20.590626 28.540625 33.878124 38.003124 42.578125 50.515625 54.128124 62.365623 66.490623 73.628128 81.853127 89.815628 98.040627 106.27812 114.27812 118.40312 126.34062"
           y="86.917961"
           sodipodi:role="line"
           id="tspan56">for fold change or</tspan><tspan
           x="-14.21875 -7.0812502 0.86874998"
           y="102.54296"
           sodipodi:role="line"
           id="tspan58">coe</tspan></text>
<text
         transform="matrix(1,0,0,-1,16.840625,6.7294985)"
         style="font-variant:normal;font-weight:normal;font-size:12.5px;font-family:'DejaVu Sans';-inkscape-font-specification:DejaVuSans;writing-mode:lr-tb;fill:#000000;fill-opacity:1;fill-rule:nonzero;stroke:none"
         id="text60"><tspan
           x="0"
           y="0"
           id="tspan62">ﬃ</tspan></text>
<text
         transform="matrix(1,0,0,-1,29.403125,6.7294985)"
         style="font-variant:normal;font-weight:normal;font-size:12.5px;font-family:'DejaVu Sans';-inkscape-font-specification:DejaVuSans;writing-mode:lr-tb;fill:#000000;fill-opacity:1;fill-rule:nonzero;stroke:none"
         id="text64"><tspan
           x="0 7.1374998 10.7375 18.737499 26.9625 32.0625 36.174999 44.125 48.700001 52.825001 60.5 68.462502 73.800003 77.412498 85.362503 90.462502 94.0625 102.0125"
           y="0"
           sodipodi:role="line"
           id="tspan66">cient of variation</tspan></text>
<g
         id="g68"
         transform="matrix(1,0,0,-1,0,275)"><path
           d="m 317.914,256.734 56.066,0"
           style="fill:none;stroke:#000000;stroke-width:1;stroke-linecap:butt;stroke-linejoin:miter;stroke-miterlimit:4;stroke-dasharray:none;stroke-opacity:1"
           id="path70"
           inkscape:connector-curvature="0" /></g><g
         id="g72"
         transform="matrix(1,0,0,-1,0,275)"><path
           d="m 320.695,256.633 c 37.125,0 16.617,-27.227 49.852,-27.227"
           style="fill:none;stroke:#000000;stroke-width:1;stroke-linecap:butt;stroke-linejoin:miter;stroke-miterlimit:4;stroke-dasharray:none;stroke-opacity:1"
           id="path74"
           inkscape:connector-curvature="0" /></g><text
         transform="scale(1,-1)"
         style="font-variant:normal;font-weight:normal;font-size:12.5px;font-family:'DejaVu Sans';-inkscape-font-specification:DejaVuSans;writing-mode:lr-tb;fill:#000000;fill-opacity:1;fill-rule:nonzero;stroke:none"
         id="text76"
         x="177.65889"
         y="-241.7245"><tspan
           sodipodi:role="line"
           id="tspan78"
           x="177.65889"
           y="-241.7245">#</tspan></text>
<g
         id="g80"
         transform="matrix(1,0,0,-1,0,275)"><path
           d="m 180.348,43.973 0,28"
           style="fill:none;stroke:#000000;stroke-width:1;stroke-linecap:butt;stroke-linejoin:miter;stroke-miterlimit:4;stroke-dasharray:none;stroke-opacity:1"
           id="path82"
           inkscape:connector-curvature="0" /></g><g
         id="g84"
         transform="matrix(1,0,0,-1,0,275)"><path
           d="m 246.348,43.973 0,28"
           style="fill:none;stroke:#000000;stroke-width:1;stroke-linecap:butt;stroke-linejoin:miter;stroke-miterlimit:4;stroke-dasharray:none;stroke-opacity:1"
           id="path86"
           inkscape:connector-curvature="0" /></g><g
         id="g88"
         transform="matrix(1,0,0,-1,0,275)"><path
           d="m 306.348,43.973 0,28"
           style="fill:none;stroke:#000000;stroke-width:1;stroke-linecap:butt;stroke-linejoin:miter;stroke-miterlimit:4;stroke-dasharray:none;stroke-opacity:1"
           id="path90"
           inkscape:connector-curvature="0" /></g><g
         id="g92"
         transform="matrix(1,0,0,-1,0,275)"><path
           d="m 244.348,115.973 0,28"
           style="fill:none;stroke:#000000;stroke-width:1;stroke-linecap:butt;stroke-linejoin:miter;stroke-miterlimit:4;stroke-dasharray:none;stroke-opacity:1"
           id="path94"
           inkscape:connector-curvature="0" /></g><g
         id="g96"
         transform="matrix(1,0,0,-1,0,275)"><path
           d="m 304.348,115.973 -29,28"
           style="fill:none;stroke:#000000;stroke-width:1;stroke-linecap:butt;stroke-linejoin:miter;stroke-miterlimit:4;stroke-dasharray:none;stroke-opacity:1"
           id="path98"
           inkscape:connector-curvature="0" /></g><g
         id="g100"
         transform="matrix(1,0,0,-1,0,275)"><path
           d="m 189.676,115.973 29,28"
           style="fill:none;stroke:#000000;stroke-width:1;stroke-linecap:butt;stroke-linejoin:miter;stroke-miterlimit:4;stroke-dasharray:none;stroke-opacity:1"
           id="path102"
           inkscape:connector-curvature="0" /></g><g
         id="g104"
         transform="matrix(1,0,0,-1,0,275)"><path
           d="m 243.676,193.973 77,28"
           style="fill:none;stroke:#000000;stroke-width:1;stroke-linecap:butt;stroke-linejoin:miter;stroke-miterlimit:4;stroke-dasharray:none;stroke-opacity:1"
           id="path106"
           inkscape:connector-curvature="0" /></g><g
         id="g112"
         transform="matrix(1,0,0,-1,0,275)"><path
           d="m 514.961,43.973 0,28"
           style="fill:none;stroke:#000000;stroke-width:1;stroke-linecap:butt;stroke-linejoin:miter;stroke-miterlimit:4;stroke-dasharray:none;stroke-opacity:1"
           id="path114"
           inkscape:connector-curvature="0" /></g><g
         id="g116"
         transform="matrix(1,0,0,-1,0,275)"><path
           d="m 450.961,43.973 0,28"
           style="fill:none;stroke:#000000;stroke-width:1;stroke-linecap:butt;stroke-linejoin:miter;stroke-miterlimit:4;stroke-dasharray:none;stroke-opacity:1"
           id="path118"
           inkscape:connector-curvature="0" /></g><g
         id="g120"
         transform="matrix(1,0,0,-1,0,275)"><path
           d="m 388.961,43.973 0,28"
           style="fill:none;stroke:#000000;stroke-width:1;stroke-linecap:butt;stroke-linejoin:miter;stroke-miterlimit:4;stroke-dasharray:none;stroke-opacity:1"
           id="path122"
           inkscape:connector-curvature="0" /></g><g
         id="g124"
         transform="matrix(1,0,0,-1,0,275)"><path
           d="m 450.961,115.973 0,28"
           style="fill:none;stroke:#000000;stroke-width:1;stroke-linecap:butt;stroke-linejoin:miter;stroke-miterlimit:4;stroke-dasharray:none;stroke-opacity:1"
           id="path126"
           inkscape:connector-curvature="0" /></g><g
         id="g128"
         transform="matrix(1,0,0,-1,0,275)"><path
           d="m 390.961,115.973 29,28"
           style="fill:none;stroke:#000000;stroke-width:1;stroke-linecap:butt;stroke-linejoin:miter;stroke-miterlimit:4;stroke-dasharray:none;stroke-opacity:1"
           id="path130"
           inkscape:connector-curvature="0" /></g><g
         id="g132"
         transform="matrix(1,0,0,-1,0,275)"><path
           d="m 505.633,115.973 -29,28"
           style="fill:none;stroke:#000000;stroke-width:1;stroke-linecap:butt;stroke-linejoin:miter;stroke-miterlimit:4;stroke-dasharray:none;stroke-opacity:1"
           id="path134"
           inkscape:connector-curvature="0" /></g><g
         id="g136"
         transform="matrix(1,0,0,-1,0,275)"><path
           d="m 451.633,193.973 -77,28"
           style="fill:none;stroke:#000000;stroke-width:1;stroke-linecap:butt;stroke-linejoin:miter;stroke-miterlimit:4;stroke-dasharray:none;stroke-opacity:1"
           id="path138"
           inkscape:connector-curvature="0" /></g><path
         d="m 180.168,193.652 1.75,0.25 c 5.582,-0.836 7.664,-14.668 10,-21 l 0,-8.5 -22.5,0 0,9.75 c 4.332,5.5 5.664,21.25 10.75,19.5 z"
         style="fill:#ff0000;fill-opacity:0.57647095;fill-rule:nonzero;stroke:none"
         id="path140"
         inkscape:connector-curvature="0" /><g
         id="g142"
         transform="matrix(1,0,0,-1,0,275)"><path
           d="m 151.926,111.207 56.062,0"
           style="fill:none;stroke:#000000;stroke-width:1;stroke-linecap:butt;stroke-linejoin:miter;stroke-miterlimit:4;stroke-dasharray:none;stroke-opacity:1"
           id="path144"
           inkscape:connector-curvature="0" /></g><g
         id="g146"
         transform="matrix(1,0,0,-1,0,275)"><path
           d="m 209.145,111.207 -1.731,1 0,-2 1.731,1 z"
           style="fill:#000000;fill-opacity:1;fill-rule:evenodd;stroke:#000000;stroke-width:0.25;stroke-linecap:butt;stroke-linejoin:miter;stroke-miterlimit:4;stroke-dasharray:none;stroke-opacity:1"
           id="path148"
           inkscape:connector-curvature="0" /></g><g
         id="g150"
         transform="matrix(1,0,0,-1,0,275)"><path
           d="m 157.926,110.926 c 18.855,-5.555 12.969,-30.129 23.234,-30.024 10.301,0.106 4.543,23.801 19.695,30.032"
           style="fill:none;stroke:#000000;stroke-width:1;stroke-linecap:butt;stroke-linejoin:miter;stroke-miterlimit:4;stroke-dasharray:none;stroke-opacity:1"
           id="path152"
           inkscape:connector-curvature="0" /></g><g
         id="g154"
         transform="matrix(1,0,0,-1,0,275)"><path
           d="m 180.668,81.598 0,29"
           style="fill:none;stroke:#ff0000;stroke-width:1;stroke-linecap:butt;stroke-linejoin:miter;stroke-miterlimit:4;stroke-dasharray:none;stroke-opacity:1"
           id="path156"
           inkscape:connector-curvature="0" /></g><path
         d="m 244.168,193.652 1.75,0.25 c 5.582,-0.836 7.664,-14.668 10,-21 l 0,-8.5 -22.5,0 0,9.75 c 4.332,5.5 5.664,21.25 10.75,19.5 z"
         style="fill:#ff0000;fill-opacity:0.57647095;fill-rule:nonzero;stroke:none"
         id="path158"
         inkscape:connector-curvature="0" /><g
         id="g160"
         transform="matrix(1,0,0,-1,0,275)"><path
           d="m 215.926,111.207 56.062,0"
           style="fill:none;stroke:#000000;stroke-width:1;stroke-linecap:butt;stroke-linejoin:miter;stroke-miterlimit:4;stroke-dasharray:none;stroke-opacity:1"
           id="path162"
           inkscape:connector-curvature="0" /></g><g
         id="g164"
         transform="matrix(1,0,0,-1,0,275)"><path
           d="m 273.145,111.207 -1.731,1 0,-2 1.731,1 z"
           style="fill:#000000;fill-opacity:1;fill-rule:evenodd;stroke:#000000;stroke-width:0.25;stroke-linecap:butt;stroke-linejoin:miter;stroke-miterlimit:4;stroke-dasharray:none;stroke-opacity:1"
           id="path166"
           inkscape:connector-curvature="0" /></g><g
         id="g168"
         transform="matrix(1,0,0,-1,0,275)"><path
           d="m 221.926,110.926 c 18.855,-5.555 12.969,-30.129 23.234,-30.024 10.301,0.106 4.543,23.801 19.695,30.032"
           style="fill:none;stroke:#000000;stroke-width:1;stroke-linecap:butt;stroke-linejoin:miter;stroke-miterlimit:4;stroke-dasharray:none;stroke-opacity:1"
           id="path170"
           inkscape:connector-curvature="0" /></g><g
         id="g172"
         transform="matrix(1,0,0,-1,0,275)"><path
           d="m 244.668,81.598 0,29"
           style="fill:none;stroke:#ff0000;stroke-width:1;stroke-linecap:butt;stroke-linejoin:miter;stroke-miterlimit:4;stroke-dasharray:none;stroke-opacity:1"
           id="path174"
           inkscape:connector-curvature="0" /></g><path
         d="m 306.168,193.652 1.75,0.25 c 5.582,-0.836 7.664,-14.668 10,-21 l 0,-8.5 -22.5,0 0,9.75 c 4.332,5.5 5.664,21.25 10.75,19.5 z"
         style="fill:#ff0000;fill-opacity:0.57647095;fill-rule:nonzero;stroke:none"
         id="path176"
         inkscape:connector-curvature="0" /><g
         id="g178"
         transform="matrix(1,0,0,-1,0,275)"><path
           d="m 277.926,111.207 56.062,0"
           style="fill:none;stroke:#000000;stroke-width:1;stroke-linecap:butt;stroke-linejoin:miter;stroke-miterlimit:4;stroke-dasharray:none;stroke-opacity:1"
           id="path180"
           inkscape:connector-curvature="0" /></g><g
         id="g182"
         transform="matrix(1,0,0,-1,0,275)"><path
           d="m 335.145,111.207 -1.731,1 0,-2 1.731,1 z"
           style="fill:#000000;fill-opacity:1;fill-rule:evenodd;stroke:#000000;stroke-width:0.25;stroke-linecap:butt;stroke-linejoin:miter;stroke-miterlimit:4;stroke-dasharray:none;stroke-opacity:1"
           id="path184"
           inkscape:connector-curvature="0" /></g><g
         id="g186"
         transform="matrix(1,0,0,-1,0,275)"><path
           d="m 283.926,110.926 c 18.855,-5.555 12.969,-30.129 23.234,-30.024 10.301,0.106 4.543,23.801 19.695,30.032"
           style="fill:none;stroke:#000000;stroke-width:1;stroke-linecap:butt;stroke-linejoin:miter;stroke-miterlimit:4;stroke-dasharray:none;stroke-opacity:1"
           id="path188"
           inkscape:connector-curvature="0" /></g><g
         id="g190"
         transform="matrix(1,0,0,-1,0,275)"><path
           d="m 306.668,81.598 0,29"
           style="fill:none;stroke:#ff0000;stroke-width:1;stroke-linecap:butt;stroke-linejoin:miter;stroke-miterlimit:4;stroke-dasharray:none;stroke-opacity:1"
           id="path192"
           inkscape:connector-curvature="0" /></g><path
         d="m 388.168,193.652 1.75,0.25 c 5.582,-0.836 7.664,-14.668 10,-21 l 0,-8.5 -22.5,0 0,9.75 c 4.332,5.5 5.664,21.25 10.75,19.5 z"
         style="fill:#ff0000;fill-opacity:0.57647095;fill-rule:nonzero;stroke:none"
         id="path194"
         inkscape:connector-curvature="0" /><g
         id="g196"
         transform="matrix(1,0,0,-1,0,275)"><path
           d="m 359.926,111.207 56.062,0"
           style="fill:none;stroke:#000000;stroke-width:1;stroke-linecap:butt;stroke-linejoin:miter;stroke-miterlimit:4;stroke-dasharray:none;stroke-opacity:1"
           id="path198"
           inkscape:connector-curvature="0" /></g><g
         id="g200"
         transform="matrix(1,0,0,-1,0,275)"><path
           d="m 417.145,111.207 -1.731,1 0,-2 1.731,1 z"
           style="fill:#000000;fill-opacity:1;fill-rule:evenodd;stroke:#000000;stroke-width:0.25;stroke-linecap:butt;stroke-linejoin:miter;stroke-miterlimit:4;stroke-dasharray:none;stroke-opacity:1"
           id="path202"
           inkscape:connector-curvature="0" /></g><g
         id="g204"
         transform="matrix(1,0,0,-1,0,275)"><path
           d="m 365.926,110.926 c 18.855,-5.555 12.969,-30.129 23.234,-30.024 10.301,0.106 4.543,23.801 19.695,30.032"
           style="fill:none;stroke:#000000;stroke-width:1;stroke-linecap:butt;stroke-linejoin:miter;stroke-miterlimit:4;stroke-dasharray:none;stroke-opacity:1"
           id="path206"
           inkscape:connector-curvature="0" /></g><g
         id="g208"
         transform="matrix(1,0,0,-1,0,275)"><path
           d="m 388.668,81.598 0,29"
           style="fill:none;stroke:#ff0000;stroke-width:1;stroke-linecap:butt;stroke-linejoin:miter;stroke-miterlimit:4;stroke-dasharray:none;stroke-opacity:1"
           id="path210"
           inkscape:connector-curvature="0" /></g><path
         d="m 450.168,193.652 1.75,0.25 c 5.582,-0.836 7.664,-14.668 10,-21 l 0,-8.5 -22.5,0 0,9.75 c 4.332,5.5 5.664,21.25 10.75,19.5 z"
         style="fill:#ff0000;fill-opacity:0.57647095;fill-rule:nonzero;stroke:none"
         id="path212"
         inkscape:connector-curvature="0" /><g
         id="g214"
         transform="matrix(1,0,0,-1,0,275)"><path
           d="m 421.926,111.207 56.062,0"
           style="fill:none;stroke:#000000;stroke-width:1;stroke-linecap:butt;stroke-linejoin:miter;stroke-miterlimit:4;stroke-dasharray:none;stroke-opacity:1"
           id="path216"
           inkscape:connector-curvature="0" /></g><g
         id="g218"
         transform="matrix(1,0,0,-1,0,275)"><path
           d="m 479.145,111.207 -1.731,1 0,-2 1.731,1 z"
           style="fill:#000000;fill-opacity:1;fill-rule:evenodd;stroke:#000000;stroke-width:0.25;stroke-linecap:butt;stroke-linejoin:miter;stroke-miterlimit:4;stroke-dasharray:none;stroke-opacity:1"
           id="path220"
           inkscape:connector-curvature="0" /></g><g
         id="g222"
         transform="matrix(1,0,0,-1,0,275)"><path
           d="m 427.926,110.926 c 18.855,-5.555 12.969,-30.129 23.234,-30.024 10.301,0.106 4.543,23.801 19.695,30.032"
           style="fill:none;stroke:#000000;stroke-width:1;stroke-linecap:butt;stroke-linejoin:miter;stroke-miterlimit:4;stroke-dasharray:none;stroke-opacity:1"
           id="path224"
           inkscape:connector-curvature="0" /></g><g
         id="g226"
         transform="matrix(1,0,0,-1,0,275)"><path
           d="m 450.668,81.598 0,29"
           style="fill:none;stroke:#ff0000;stroke-width:1;stroke-linecap:butt;stroke-linejoin:miter;stroke-miterlimit:4;stroke-dasharray:none;stroke-opacity:1"
           id="path228"
           inkscape:connector-curvature="0" /></g><path
         d="m 514.168,193.652 1.75,0.25 c 5.582,-0.836 7.664,-14.668 10,-21 l 0,-8.5 -22.5,0 0,9.75 c 4.332,5.5 5.664,21.25 10.75,19.5 z"
         style="fill:#ff0000;fill-opacity:0.57647095;fill-rule:nonzero;stroke:none"
         id="path230"
         inkscape:connector-curvature="0" /><g
         id="g232"
         transform="matrix(1,0,0,-1,0,275)"><path
           d="m 485.926,111.207 56.062,0"
           style="fill:none;stroke:#000000;stroke-width:1;stroke-linecap:butt;stroke-linejoin:miter;stroke-miterlimit:4;stroke-dasharray:none;stroke-opacity:1"
           id="path234"
           inkscape:connector-curvature="0" /></g><g
         id="g236"
         transform="matrix(1,0,0,-1,0,275)"><path
           d="m 543.145,111.207 -1.731,1 0,-2 1.731,1 z"
           style="fill:#000000;fill-opacity:1;fill-rule:evenodd;stroke:#000000;stroke-width:0.25;stroke-linecap:butt;stroke-linejoin:miter;stroke-miterlimit:4;stroke-dasharray:none;stroke-opacity:1"
           id="path238"
           inkscape:connector-curvature="0" /></g><g
         id="g240"
         transform="matrix(1,0,0,-1,0,275)"><path
           d="m 491.926,110.926 c 18.855,-5.555 12.969,-30.129 23.234,-30.024 10.301,0.106 4.543,23.801 19.695,30.032"
           style="fill:none;stroke:#000000;stroke-width:1;stroke-linecap:butt;stroke-linejoin:miter;stroke-miterlimit:4;stroke-dasharray:none;stroke-opacity:1"
           id="path242"
           inkscape:connector-curvature="0" /></g><g
         id="g244"
         transform="matrix(1,0,0,-1,0,275)"><path
           d="m 514.668,81.598 0,29"
           style="fill:none;stroke:#ff0000;stroke-width:1;stroke-linecap:butt;stroke-linejoin:miter;stroke-miterlimit:4;stroke-dasharray:none;stroke-opacity:1"
           id="path246"
           inkscape:connector-curvature="0" /></g><g
         id="g248"
         transform="matrix(1,0,0,-1,0,275)"><path
           d="m 422.973,187.711 56.066,0"
           style="fill:none;stroke:#000000;stroke-width:1;stroke-linecap:butt;stroke-linejoin:miter;stroke-miterlimit:4;stroke-dasharray:none;stroke-opacity:1"
           id="path250"
           inkscape:connector-curvature="0" /></g><g
         id="g252"
         transform="matrix(1,0,0,-1,0,275)"><path
           d="m 480.191,187.711 -1.73,1 0,-2 1.73,1 z"
           style="fill:#000000;fill-opacity:1;fill-rule:evenodd;stroke:#000000;stroke-width:0.25;stroke-linecap:butt;stroke-linejoin:miter;stroke-miterlimit:4;stroke-dasharray:none;stroke-opacity:1"
           id="path254"
           inkscape:connector-curvature="0" /></g><g
         id="g256"
         transform="matrix(1,0,0,-1,0,275)"><path
           d="m 428.973,187.391 c 18.855,-5.559 12.968,-27.735 23.234,-27.629 10.301,0.101 4.547,21.55 19.699,27.777"
           style="fill:none;stroke:#000000;stroke-width:1;stroke-linecap:butt;stroke-linejoin:miter;stroke-miterlimit:4;stroke-dasharray:none;stroke-opacity:1"
           id="path258"
           inkscape:connector-curvature="0" /></g><text
         transform="matrix(1,0,0,-1,549.44531,265.6084)"
         style="font-variant:normal;font-weight:bold;font-size:12.5px;font-family:'DejaVu Sans';-inkscape-font-specification:DejaVuSans-Bold;writing-mode:lr-tb;fill:#000000;fill-opacity:1;fill-rule:nonzero;stroke:none"
         id="text260"><tspan
           x="0 12.9375 21.75 27.9625 37.212502 46.137501"
           y="0"
           sodipodi:role="line"
           id="tspan262">Method</tspan></text>
<text
         transform="matrix(1,0,0,-1,549.44531,196.90137)"
         style="font-variant:normal;font-weight:normal;font-size:12.5px;font-family:'DejaVu Sans';-inkscape-font-specification:DejaVuSans;writing-mode:lr-tb;fill:#000000;fill-opacity:1;fill-rule:nonzero;stroke:none"
         id="text264"><tspan
           x="0 11.2125 19.4375 23.0375 28.137501 31.737499 39.962502 47.912498 60.575001 64.175003 72.125 75.737503 79.849998 92.512497 100.4625 108.7 116.7 120.3 124.425 132.3625 140.05 148.05"
           y="0"
           sodipodi:role="line"
           id="tspan266">Multinomial model over</tspan></text>
<text
         transform="matrix(1,0,0,-1,549.44531,184.08887)"
         style="font-variant:normal;font-weight:normal;font-size:10px;font-family:'DejaVu Sans';-inkscape-font-specification:DejaVuSans;writing-mode:lr-tb;fill:#000000;fill-opacity:1;fill-rule:nonzero;stroke:none"
         id="text268"><tspan
           x="0 5.8499999 9.96 13.86 19.84 25.75 31.870001 37.360001 41.279999 44.450001 49.939999 56.060001 58.830002 61.599998 65.5"
           y="0"
           sodipodi:role="line"
           id="tspan270">Pr(exact call),</tspan><tspan
           x="0 5.8499999 9.96 13.86 19.35 25.459999 29.4 33.290001 39.439999 44.93 48.849998 55 61.34 64.510002 70 76.120003 78.889999 81.660004 85.559998"
           y="12.5"
           sodipodi:role="line"
           id="tspan272">Pr(corrected call),</tspan><tspan
           x="0 5.8499999 9.96 13.86 19.84 25.75 31.870001 37.360001 41.279999 44.450001 54.189999 56.959999 62.16 67.650002 73.769997 76.540001 79.309998 83.209999"
           y="25"
           sodipodi:role="line"
           id="tspan274">Pr(exact miscall),</tspan><tspan
           x="0 5.8499999 9.96 13.86 19.35 25.459999 29.4 33.290001 39.439999 44.93 48.849998 55 61.34 64.510002 74.25 77.019997 82.220001 87.709999 93.830002 96.599998 99.370003 103.27"
           y="37.5"
           sodipodi:role="line"
           id="tspan276">Pr(corrected miscall),</tspan><tspan
           x="0 5.8499999 9.96 13.86 20.200001 24.09 30.200001 36.540001 42.650002 48.98 52.900002"
           y="50"
           sodipodi:role="line"
           id="tspan278">Pr(dropout)</tspan></text>
<text
         transform="scale(1,-1)"
         style="font-variant:normal;font-weight:normal;font-size:12.5px;font-family:'DejaVu Sans';-inkscape-font-specification:DejaVuSans;writing-mode:lr-tb;fill:#000000;fill-opacity:1;fill-rule:nonzero;stroke:none"
         id="text280"
         x="548.73828"
         y="-106.14277"><tspan
           x="548.73828 558.75079 566.43829 574.66327 582.61328 595.27576 598.88831 606.02576 610.13831 618.38831 623.43829 631.38831 639.62579 644.97577 652.92578 665.58826 678.25079 681.85077 690.08826"
           y="-106.14277"
           sodipodi:role="line"
           id="tspan282">Dynamic programming</tspan><tspan
           x="548.73828 556.68829 564.36328 572.36328 577.70081 581.82581 588.58826 596.53827 609.20081 617.45081 621.05078 629.05078 637.28827 641.41327 650.48828 660.48828 667.96326"
           y="-90.517769"
           sodipodi:role="line"
           id="tspan284">over sampled CDFs</tspan><tspan
           x="548.73828 558.75079 566.43829 574.66327 582.61328 595.27576 598.88831 606.02576 610.13831 618.38831 623.43829 631.38831 639.62579 644.97577 652.92578 665.58826 678.25079 681.85077 690.08826"
           y="-34.607609"
           sodipodi:role="line"
           id="tspan286">Dynamic programming</tspan><tspan
           x="548.73828 556.68829 564.36328 572.36328 577.70081 581.82581 588.58826 596.53827 609.20081 617.45081 621.05078 629.05078 637.28827 641.41327 650.48828 660.48828 667.96326"
           y="-18.982605"
           sodipodi:role="line"
           id="tspan288">over sampled CDFs</tspan></text>
<text
         transform="matrix(1,0,0,-1,44.902344,265.97949)"
         style="font-variant:normal;font-weight:bold;font-size:12.5px;font-family:'DejaVu Sans';-inkscape-font-specification:DejaVuSans-Bold;writing-mode:lr-tb;fill:#000000;fill-opacity:1;fill-rule:nonzero;stroke:none"
         id="text290"><tspan
           x="0 4.8375001 14.075 23.375 32.612499 38.837502 43.575001 54.625 63.875 70.087502 79.387497 88.625"
           y="0"
           sodipodi:role="line"
           id="tspan292">Input/Output</tspan></text>
<text
         y="-241.7245"
         x="241.65913"
         id="text4274"
         style="font-variant:normal;font-weight:normal;font-size:12.5px;font-family:'DejaVu Sans';-inkscape-font-specification:DejaVuSans;writing-mode:lr-tb;fill:#000000;fill-opacity:1;fill-rule:nonzero;stroke:none"
         transform="scale(1,-1)"><tspan
           y="-241.7245"
           x="241.65913"
           id="tspan4276"
           sodipodi:role="line">#</tspan></text>
<text
         transform="scale(1,-1)"
         style="font-variant:normal;font-weight:normal;font-size:12.5px;font-family:'DejaVu Sans';-inkscape-font-specification:DejaVuSans;writing-mode:lr-tb;fill:#000000;fill-opacity:1;fill-rule:nonzero;stroke:none"
         id="text4278"
         x="300.85934"
         y="-241.7245"><tspan
           sodipodi:role="line"
           id="tspan4280"
           x="300.85934"
           y="-241.7245">#</tspan></text>
<text
         y="-241.7245"
         x="382.45966"
         id="text4282"
         style="font-variant:normal;font-weight:normal;font-size:12.5px;font-family:'DejaVu Sans';-inkscape-font-specification:DejaVuSans;writing-mode:lr-tb;fill:#000000;fill-opacity:1;fill-rule:nonzero;stroke:none"
         transform="scale(1,-1)"><tspan
           y="-241.7245"
           x="382.45966"
           id="tspan4284"
           sodipodi:role="line">#</tspan></text>
<text
         transform="scale(1,-1)"
         style="font-variant:normal;font-weight:normal;font-size:12.5px;font-family:'DejaVu Sans';-inkscape-font-specification:DejaVuSans;writing-mode:lr-tb;fill:#000000;fill-opacity:1;fill-rule:nonzero;stroke:none"
         id="text4286"
         x="444.85989"
         y="-241.7245"><tspan
           sodipodi:role="line"
           id="tspan4288"
           x="444.85989"
           y="-241.7245">#</tspan></text>
<text
         y="-241.7245"
         x="508.86014"
         id="text4290"
         style="font-variant:normal;font-weight:normal;font-size:12.5px;font-family:'DejaVu Sans';-inkscape-font-specification:DejaVuSans;writing-mode:lr-tb;fill:#000000;fill-opacity:1;fill-rule:nonzero;stroke:none"
         transform="scale(1,-1)"><tspan
           y="-241.7245"
           x="508.86014"
           id="tspan4292"
           sodipodi:role="line">#</tspan></text>
</g></g></svg>