<?xml version="1.0" encoding="UTF-8" standalone="no"?>
<!-- Created with Inkscape (http://www.inkscape.org/) -->

<svg
   xmlns:dc="http://purl.org/dc/elements/1.1/"
   xmlns:cc="http://creativecommons.org/ns#"
   xmlns:rdf="http://www.w3.org/1999/02/22-rdf-syntax-ns#"
   xmlns:svg="http://www.w3.org/2000/svg"
   xmlns="http://www.w3.org/2000/svg"
   xmlns:sodipodi="http://sodipodi.sourceforge.net/DTD/sodipodi-0.dtd"
   xmlns:inkscape="http://www.inkscape.org/namespaces/inkscape"
   id="svg2"
   version="1.1"
   inkscape:version="0.91 r"
   xml:space="preserve"
   width="314.0351"
   height="161.5425"
   viewBox="0 0 314.0351 161.5425"
   sodipodi:docname="sketch-small.svg"><metadata
     id="metadata8"><rdf:RDF><cc:Work
         rdf:about=""><dc:format>image/svg+xml</dc:format><dc:type
           rdf:resource="http://purl.org/dc/dcmitype/StillImage" /><dc:title></dc:title></cc:Work></rdf:RDF></metadata><defs
     id="defs6" /><sodipodi:namedview
     pagecolor="#ffffff"
     bordercolor="#666666"
     borderopacity="1"
     objecttolerance="10"
     gridtolerance="10"
     guidetolerance="10"
     inkscape:pageopacity="0"
     inkscape:pageshadow="2"
     inkscape:window-width="1391"
     inkscape:window-height="812"
     id="namedview4"
     showgrid="false"
     fit-margin-top="0"
     fit-margin-left="0"
     fit-margin-right="0"
     fit-margin-bottom="0"
     inkscape:zoom="2.2465213"
     inkscape:cx="194.29056"
     inkscape:cy="70.292499"
     inkscape:window-x="0"
     inkscape:window-y="0"
     inkscape:window-maximized="0"
     inkscape:current-layer="g10"
     showguides="true"
     inkscape:guide-bbox="true"><sodipodi:guide
       position="99.180914,134.46321"
       orientation="1,0"
       id="guide3645" /></sodipodi:namedview><g
     id="g10"
     inkscape:groupmode="layer"
     inkscape:label="sketch"
     transform="matrix(1.25,0,0,-1.25,19.915562,182.5)"><path
       inkscape:connector-curvature="0"
       id="path14"
       style="fill:#000000;fill-opacity:1;fill-rule:nonzero;stroke:none"
       d="m 74.82,144.633 c -0.886,0 -1.558,-0.438 -2.008,-1.317 -0.445,-0.871 -0.667,-2.183 -0.667,-3.937 0,-1.75 0.222,-3.063 0.667,-3.941 0.45,-0.872 1.122,-1.305 2.008,-1.305 0.895,0 1.563,0.433 2.008,1.305 0.449,0.878 0.676,2.191 0.676,3.941 0,1.754 -0.227,3.066 -0.676,3.937 -0.445,0.879 -1.113,1.317 -2.008,1.317 z m 0,1.367 c 1.43,0 2.52,-0.566 3.274,-1.699 0.758,-1.129 1.136,-2.77 1.136,-4.922 0,-2.149 -0.378,-3.789 -1.136,-4.922 -0.754,-1.129 -1.844,-1.691 -3.274,-1.691 -1.429,0 -2.523,0.562 -3.281,1.691 -0.75,1.133 -1.129,2.773 -1.129,4.922 0,2.152 0.379,3.793 1.129,4.922 0.758,1.133 1.852,1.699 3.281,1.699 z" /><path
       inkscape:connector-curvature="0"
       id="path16"
       style="fill:#000000;fill-opacity:1;fill-rule:nonzero;stroke:none"
       d="m 85.965,144.633 c -0.891,0 -1.559,-0.438 -2.008,-1.317 -0.445,-0.871 -0.668,-2.183 -0.668,-3.937 0,-1.75 0.223,-3.063 0.668,-3.941 0.449,-0.872 1.117,-1.305 2.008,-1.305 0.894,0 1.562,0.433 2.008,1.305 0.449,0.878 0.672,2.191 0.672,3.941 0,1.754 -0.223,3.066 -0.672,3.937 -0.446,0.879 -1.114,1.317 -2.008,1.317 z m 0,1.367 c 1.43,0 2.519,-0.566 3.269,-1.699 0.758,-1.129 1.137,-2.77 1.137,-4.922 0,-2.149 -0.379,-3.789 -1.137,-4.922 -0.75,-1.129 -1.839,-1.691 -3.269,-1.691 -1.43,0 -2.524,0.562 -3.281,1.691 -0.754,1.133 -1.129,2.773 -1.129,4.922 0,2.152 0.375,3.793 1.129,4.922 0.757,1.133 1.851,1.699 3.281,1.699 z" /><path
       inkscape:connector-curvature="0"
       id="path18"
       style="fill:#000000;fill-opacity:1;fill-rule:nonzero;stroke:none"
       d="m 97.105,144.633 c -0.886,0 -1.558,-0.438 -2.007,-1.317 -0.446,-0.871 -0.668,-2.183 -0.668,-3.937 0,-1.75 0.222,-3.063 0.668,-3.941 0.449,-0.872 1.121,-1.305 2.007,-1.305 0.895,0 1.563,0.433 2.008,1.305 0.449,0.878 0.676,2.191 0.676,3.941 0,1.754 -0.227,3.066 -0.676,3.937 -0.445,0.879 -1.113,1.317 -2.008,1.317 z m 0,1.367 c 1.43,0 2.52,-0.566 3.274,-1.699 0.758,-1.129 1.137,-2.77 1.137,-4.922 0,-2.149 -0.379,-3.789 -1.137,-4.922 -0.754,-1.129 -1.844,-1.691 -3.274,-1.691 -1.429,0 -2.523,0.562 -3.281,1.691 -0.75,1.133 -1.129,2.773 -1.129,4.922 0,2.152 0.379,3.793 1.129,4.922 0.758,1.133 1.852,1.699 3.281,1.699 z" /><path
       inkscape:connector-curvature="0"
       id="path20"
       style="fill:#000000;fill-opacity:1;fill-rule:nonzero;stroke:none"
       d="m 104.855,134.465 2.821,0 0,9.73 -3.067,-0.613 0,1.57 3.051,0.618 1.727,0 0,-11.305 2.816,0 0,-1.453 -7.348,0 0,1.453 z" /><path
       inkscape:connector-curvature="0"
       id="path22"
       style="fill:#000000;fill-opacity:1;fill-rule:nonzero;stroke:none"
       d="m 119.391,144.633 c -0.887,0 -1.559,-0.438 -2.008,-1.317 -0.445,-0.871 -0.668,-2.183 -0.668,-3.937 0,-1.75 0.223,-3.063 0.668,-3.941 0.449,-0.872 1.121,-1.305 2.008,-1.305 0.894,0 1.562,0.433 2.007,1.305 0.45,0.878 0.676,2.191 0.676,3.941 0,1.754 -0.226,3.066 -0.676,3.937 -0.445,0.879 -1.113,1.317 -2.007,1.317 z m 0,1.367 c 1.429,0 2.519,-0.566 3.273,-1.699 0.758,-1.129 1.137,-2.77 1.137,-4.922 0,-2.149 -0.379,-3.789 -1.137,-4.922 -0.754,-1.129 -1.844,-1.691 -3.273,-1.691 -1.43,0 -2.524,0.562 -3.282,1.691 -0.75,1.133 -1.129,2.773 -1.129,4.922 0,2.152 0.379,3.793 1.129,4.922 0.758,1.133 1.852,1.699 3.282,1.699 z" /><path
       inkscape:connector-curvature="0"
       id="path24"
       style="fill:#000000;fill-opacity:1;fill-rule:nonzero;stroke:none"
       d="m 130.535,144.633 c -0.89,0 -1.558,-0.438 -2.008,-1.317 -0.445,-0.871 -0.668,-2.183 -0.668,-3.937 0,-1.75 0.223,-3.063 0.668,-3.941 0.45,-0.872 1.118,-1.305 2.008,-1.305 0.895,0 1.563,0.433 2.008,1.305 0.449,0.878 0.672,2.191 0.672,3.941 0,1.754 -0.223,3.066 -0.672,3.937 -0.445,0.879 -1.113,1.317 -2.008,1.317 z m 0,1.367 c 1.43,0 2.52,-0.566 3.27,-1.699 0.757,-1.129 1.136,-2.77 1.136,-4.922 0,-2.149 -0.379,-3.789 -1.136,-4.922 -0.75,-1.129 -1.84,-1.691 -3.27,-1.691 -1.43,0 -2.523,0.562 -3.281,1.691 -0.754,1.133 -1.129,2.773 -1.129,4.922 0,2.152 0.375,3.793 1.129,4.922 0.758,1.133 1.851,1.699 3.281,1.699 z" /><path
       inkscape:connector-curvature="0"
       id="path26"
       style="fill:#000000;fill-opacity:1;fill-rule:nonzero;stroke:none"
       d="m 138.285,134.465 2.82,0 0,9.73 -3.07,-0.613 0,1.57 3.051,0.618 1.726,0 0,-11.305 2.821,0 0,-1.453 -7.348,0 0,1.453 z" /><path
       inkscape:connector-curvature="0"
       id="path28"
       style="fill:#000000;fill-opacity:1;fill-rule:nonzero;stroke:none"
       d="m 149.426,134.465 2.82,0 0,9.73 -3.066,-0.613 0,1.57 3.05,0.618 1.727,0 0,-11.305 2.816,0 0,-1.453 -7.347,0 0,1.453 z" /><path
       inkscape:connector-curvature="0"
       id="path30"
       style="fill:#000000;fill-opacity:1;fill-rule:nonzero;stroke:none"
       d="m 163.961,144.633 c -0.887,0 -1.559,-0.438 -2.008,-1.317 -0.445,-0.871 -0.668,-2.183 -0.668,-3.937 0,-1.75 0.223,-3.063 0.668,-3.941 0.449,-0.872 1.121,-1.305 2.008,-1.305 0.894,0 1.562,0.433 2.008,1.305 0.449,0.878 0.676,2.191 0.676,3.941 0,1.754 -0.227,3.066 -0.676,3.937 -0.446,0.879 -1.114,1.317 -2.008,1.317 z m 0,1.367 c 1.43,0 2.519,-0.566 3.273,-1.699 0.758,-1.129 1.137,-2.77 1.137,-4.922 0,-2.149 -0.379,-3.789 -1.137,-4.922 -0.754,-1.129 -1.843,-1.691 -3.273,-1.691 -1.43,0 -2.523,0.562 -3.281,1.691 -0.75,1.133 -1.129,2.773 -1.129,4.922 0,2.152 0.379,3.793 1.129,4.922 0.758,1.133 1.851,1.699 3.281,1.699 z" /><path
       inkscape:connector-curvature="0"
       id="path32"
       style="fill:#000000;fill-opacity:1;fill-rule:nonzero;stroke:none"
       d="m 175.105,144.633 c -0.89,0 -1.558,-0.438 -2.007,-1.317 -0.446,-0.871 -0.668,-2.183 -0.668,-3.937 0,-1.75 0.222,-3.063 0.668,-3.941 0.449,-0.872 1.117,-1.305 2.007,-1.305 0.895,0 1.563,0.433 2.008,1.305 0.449,0.878 0.672,2.191 0.672,3.941 0,1.754 -0.223,3.066 -0.672,3.937 -0.445,0.879 -1.113,1.317 -2.008,1.317 z m 0,1.367 c 1.43,0 2.52,-0.566 3.27,-1.699 0.758,-1.129 1.137,-2.77 1.137,-4.922 0,-2.149 -0.379,-3.789 -1.137,-4.922 -0.75,-1.129 -1.84,-1.691 -3.27,-1.691 -1.429,0 -2.523,0.562 -3.281,1.691 -0.754,1.133 -1.129,2.773 -1.129,4.922 0,2.152 0.375,3.793 1.129,4.922 0.758,1.133 1.852,1.699 3.281,1.699 z" /><path
       inkscape:connector-curvature="0"
       id="path34"
       style="fill:#000000;fill-opacity:1;fill-rule:nonzero;stroke:none"
       d="m 186.246,144.633 c -0.887,0 -1.558,-0.438 -2.008,-1.317 -0.445,-0.871 -0.668,-2.183 -0.668,-3.937 0,-1.75 0.223,-3.063 0.668,-3.941 0.45,-0.872 1.121,-1.305 2.008,-1.305 0.895,0 1.563,0.433 2.008,1.305 0.449,0.878 0.676,2.191 0.676,3.941 0,1.754 -0.227,3.066 -0.676,3.937 -0.445,0.879 -1.113,1.317 -2.008,1.317 z m 0,1.367 c 1.43,0 2.52,-0.566 3.274,-1.699 0.757,-1.129 1.136,-2.77 1.136,-4.922 0,-2.149 -0.379,-3.789 -1.136,-4.922 -0.754,-1.129 -1.844,-1.691 -3.274,-1.691 -1.43,0 -2.523,0.562 -3.281,1.691 -0.75,1.133 -1.129,2.773 -1.129,4.922 0,2.152 0.379,3.793 1.129,4.922 0.758,1.133 1.851,1.699 3.281,1.699 z" /><path
       inkscape:connector-curvature="0"
       id="path36"
       style="fill:#000000;fill-opacity:1;fill-rule:nonzero;stroke:none"
       d="m 193.996,134.465 2.82,0 0,9.73 -3.066,-0.613 0,1.57 3.051,0.618 1.726,0 0,-11.305 2.817,0 0,-1.453 -7.348,0 0,1.453 z" /><g
       transform="matrix(1,0,0,-1,0,146)"
       id="g38"><path
         inkscape:connector-curvature="0"
         id="path40"
         style="fill:none;stroke:#000000;stroke-width:1;stroke-linecap:butt;stroke-linejoin:miter;stroke-miterlimit:4;stroke-dasharray:none;stroke-opacity:1"
         d="m 74.258,44.418 0,42.855" /></g><g
       transform="matrix(1,0,0,-1,0,146)"
       id="g42"><path
         inkscape:connector-curvature="0"
         id="path44"
         style="fill:none;stroke:#000000;stroke-width:1;stroke-linecap:butt;stroke-linejoin:miter;stroke-miterlimit:4;stroke-dasharray:none;stroke-opacity:1"
         d="m 85.543,44.418 0,42.855" /></g><g
       transform="matrix(1,0,0,-1,0,146)"
       id="g46"><path
         inkscape:connector-curvature="0"
         id="path48"
         style="fill:none;stroke:#000000;stroke-width:1;stroke-linecap:butt;stroke-linejoin:miter;stroke-miterlimit:4;stroke-dasharray:none;stroke-opacity:1"
         d="m 96.828,44.418 0,42.855" /></g><g
       transform="matrix(1,0,0,-1,0,146)"
       id="g50"><path
         inkscape:connector-curvature="0"
         id="path52"
         style="fill:none;stroke:#000000;stroke-width:1;stroke-linecap:butt;stroke-linejoin:miter;stroke-miterlimit:4;stroke-dasharray:none;stroke-opacity:1"
         d="m 108.113,44.418 0,42.855" /></g><g
       transform="matrix(1,0,0,-1,0,146)"
       id="g54"><path
         inkscape:connector-curvature="0"
         id="path56"
         style="fill:none;stroke:#000000;stroke-width:1;stroke-linecap:butt;stroke-linejoin:miter;stroke-miterlimit:4;stroke-dasharray:none;stroke-opacity:1"
         d="m 119.043,44.418 0,42.855" /></g><g
       transform="matrix(1,0,0,-1,0,146)"
       id="g58"><path
         inkscape:connector-curvature="0"
         id="path60"
         style="fill:none;stroke:#000000;stroke-width:1;stroke-linecap:butt;stroke-linejoin:miter;stroke-miterlimit:4;stroke-dasharray:none;stroke-opacity:1"
         d="m 130.328,44.418 0,42.855" /></g><g
       transform="matrix(1,0,0,-1,0,146)"
       id="g62"><path
         inkscape:connector-curvature="0"
         id="path64"
         style="fill:none;stroke:#000000;stroke-width:1;stroke-linecap:butt;stroke-linejoin:miter;stroke-miterlimit:4;stroke-dasharray:none;stroke-opacity:1"
         d="m 141.613,44.418 0,42.855" /></g><g
       transform="matrix(1,0,0,-1,0,146)"
       id="g66"><path
         inkscape:connector-curvature="0"
         id="path68"
         style="fill:none;stroke:#000000;stroke-width:1;stroke-linecap:butt;stroke-linejoin:miter;stroke-miterlimit:4;stroke-dasharray:none;stroke-opacity:1"
         d="m 152.902,44.418 0,42.855" /></g><g
       transform="matrix(1,0,0,-1,0,146)"
       id="g70"><path
         inkscape:connector-curvature="0"
         id="path72"
         style="fill:none;stroke:#000000;stroke-width:1;stroke-linecap:butt;stroke-linejoin:miter;stroke-miterlimit:4;stroke-dasharray:none;stroke-opacity:1"
         d="m 163.828,44.418 0,42.855" /></g><g
       transform="matrix(1,0,0,-1,0,146)"
       id="g74"><path
         inkscape:connector-curvature="0"
         id="path76"
         style="fill:none;stroke:#000000;stroke-width:1;stroke-linecap:butt;stroke-linejoin:miter;stroke-miterlimit:4;stroke-dasharray:none;stroke-opacity:1"
         d="m 174.758,44.418 0,42.855" /></g><g
       transform="matrix(1,0,0,-1,0,146)"
       id="g78"><path
         inkscape:connector-curvature="0"
         id="path80"
         style="fill:none;stroke:#000000;stroke-width:1;stroke-linecap:butt;stroke-linejoin:miter;stroke-miterlimit:4;stroke-dasharray:none;stroke-opacity:1"
         d="m 186.402,44.418 0,42.855" /></g><g
       transform="matrix(1,0,0,-1,0,146)"
       id="g82"><path
         inkscape:connector-curvature="0"
         id="path84"
         style="fill:none;stroke:#000000;stroke-width:1;stroke-linecap:butt;stroke-linejoin:miter;stroke-miterlimit:4;stroke-dasharray:none;stroke-opacity:1"
         d="m 197.473,44.418 0,42.855" /></g><g
       transform="matrix(1,0,0,-1,0,146)"
       id="g86"><path
         inkscape:connector-curvature="0"
         id="path88"
         style="fill:none;stroke:#000000;stroke-width:1;stroke-linecap:butt;stroke-linejoin:miter;stroke-miterlimit:4;stroke-dasharray:none;stroke-opacity:1"
         d="m 108.543,79.418 -3.93,0" /></g><path
       inkscape:connector-curvature="0"
       id="path90"
       style="fill:#008000;fill-opacity:1;fill-rule:nonzero;stroke:none"
       d="m 104.973,66.672 c 0,-1.035 -0.84,-1.875 -1.875,-1.875 -1.036,0 -1.875,0.84 -1.875,1.875 0,1.035 0.839,1.875 1.875,1.875 1.035,0 1.875,-0.84 1.875,-1.875 z" /><g
       transform="matrix(1,0,0,-1,0,146)"
       id="g92"><path
         inkscape:connector-curvature="0"
         id="path94"
         style="fill:none;stroke:#000000;stroke-width:1;stroke-linecap:butt;stroke-linejoin:miter;stroke-miterlimit:4;stroke-dasharray:none;stroke-opacity:1"
         d="m 142.008,71.418 -3.93,0" /></g><path
       inkscape:connector-curvature="0"
       id="path96"
       style="fill:#008000;fill-opacity:1;fill-rule:nonzero;stroke:none"
       d="m 138.438,74.672 c 0,-1.035 -0.84,-1.875 -1.876,-1.875 -1.035,0 -1.874,0.84 -1.874,1.875 0,1.035 0.839,1.875 1.874,1.875 1.036,0 1.876,-0.84 1.876,-1.875 z" /><g
       transform="matrix(1,0,0,-1,0,146)"
       id="g98"><path
         inkscape:connector-curvature="0"
         id="path100"
         style="fill:none;stroke:#000000;stroke-width:1;stroke-linecap:butt;stroke-linejoin:miter;stroke-miterlimit:4;stroke-dasharray:none;stroke-opacity:1"
         d="m 153.258,51.988 -3.93,0" /></g><path
       inkscape:connector-curvature="0"
       id="path102"
       style="fill:#008000;fill-opacity:1;fill-rule:nonzero;stroke:none"
       d="m 149.688,94.102 c 0,-1.036 -0.84,-1.875 -1.876,-1.875 -1.035,0 -1.874,0.839 -1.874,1.875 0,1.035 0.839,1.875 1.874,1.875 1.036,0 1.876,-0.84 1.876,-1.875 z" /><g
       transform="matrix(1,0,0,-1,0,146)"
       id="g104"><path
         inkscape:connector-curvature="0"
         id="path106"
         style="fill:none;stroke:#000000;stroke-width:1;stroke-linecap:butt;stroke-linejoin:miter;stroke-miterlimit:4;stroke-dasharray:none;stroke-opacity:1"
         d="m 197.793,63.418 -3.93,0" /></g><path
       inkscape:connector-curvature="0"
       id="path108"
       style="fill:#008000;fill-opacity:1;fill-rule:nonzero;stroke:none"
       d="m 194.223,82.672 c 0,-1.035 -0.84,-1.875 -1.875,-1.875 -1.036,0 -1.875,0.84 -1.875,1.875 0,1.035 0.839,1.875 1.875,1.875 1.035,0 1.875,-0.84 1.875,-1.875 z" /><path
       inkscape:connector-curvature="0"
       id="path138"
       style="fill:#000000;fill-opacity:1;fill-rule:nonzero;stroke:none"
       d="m 74.82,28.633 c -0.886,0 -1.558,-0.438 -2.008,-1.317 -0.445,-0.871 -0.667,-2.183 -0.667,-3.937 0,-1.75 0.222,-3.063 0.667,-3.941 0.45,-0.872 1.122,-1.305 2.008,-1.305 0.895,0 1.563,0.433 2.008,1.305 0.449,0.878 0.676,2.191 0.676,3.941 0,1.754 -0.227,3.066 -0.676,3.937 -0.445,0.879 -1.113,1.317 -2.008,1.317 z m 0,1.367 c 1.43,0 2.52,-0.566 3.274,-1.699 0.758,-1.129 1.136,-2.77 1.136,-4.922 0,-2.149 -0.378,-3.789 -1.136,-4.922 -0.754,-1.129 -1.844,-1.691 -3.274,-1.691 -1.429,0 -2.523,0.562 -3.281,1.691 -0.75,1.133 -1.129,2.773 -1.129,4.922 0,2.152 0.379,3.793 1.129,4.922 C 72.297,29.434 73.391,30 74.82,30 Z" /><path
       inkscape:connector-curvature="0"
       id="path140"
       style="fill:#000000;fill-opacity:1;fill-rule:nonzero;stroke:none"
       d="m 85.965,28.633 c -0.891,0 -1.559,-0.438 -2.008,-1.317 -0.445,-0.871 -0.668,-2.183 -0.668,-3.937 0,-1.75 0.223,-3.063 0.668,-3.941 0.449,-0.872 1.117,-1.305 2.008,-1.305 0.894,0 1.562,0.433 2.008,1.305 0.449,0.878 0.672,2.191 0.672,3.941 0,1.754 -0.223,3.066 -0.672,3.937 -0.446,0.879 -1.114,1.317 -2.008,1.317 z m 0,1.367 c 1.43,0 2.519,-0.566 3.269,-1.699 0.758,-1.129 1.137,-2.77 1.137,-4.922 0,-2.149 -0.379,-3.789 -1.137,-4.922 -0.75,-1.129 -1.839,-1.691 -3.269,-1.691 -1.43,0 -2.524,0.562 -3.281,1.691 -0.754,1.133 -1.129,2.773 -1.129,4.922 0,2.152 0.375,3.793 1.129,4.922 0.757,1.133 1.851,1.699 3.281,1.699 z" /><path
       inkscape:connector-curvature="0"
       id="path142"
       style="fill:#000000;fill-opacity:1;fill-rule:nonzero;stroke:none"
       d="m 97.105,28.633 c -0.886,0 -1.558,-0.438 -2.007,-1.317 -0.446,-0.871 -0.668,-2.183 -0.668,-3.937 0,-1.75 0.222,-3.063 0.668,-3.941 0.449,-0.872 1.121,-1.305 2.007,-1.305 0.895,0 1.563,0.433 2.008,1.305 0.449,0.878 0.676,2.191 0.676,3.941 0,1.754 -0.227,3.066 -0.676,3.937 -0.445,0.879 -1.113,1.317 -2.008,1.317 z m 0,1.367 c 1.43,0 2.52,-0.566 3.274,-1.699 0.758,-1.129 1.137,-2.77 1.137,-4.922 0,-2.149 -0.379,-3.789 -1.137,-4.922 -0.754,-1.129 -1.844,-1.691 -3.274,-1.691 -1.429,0 -2.523,0.562 -3.281,1.691 -0.75,1.133 -1.129,2.773 -1.129,4.922 0,2.152 0.379,3.793 1.129,4.922 0.758,1.133 1.852,1.699 3.281,1.699 z" /><path
       inkscape:connector-curvature="0"
       id="path144"
       style="fill:#000000;fill-opacity:1;fill-rule:nonzero;stroke:none"
       d="m 104.855,18.465 2.821,0 0,9.73 -3.067,-0.613 0,1.57 3.051,0.618 1.727,0 0,-11.305 2.816,0 0,-1.453 -7.348,0 0,1.453 z" /><path
       inkscape:connector-curvature="0"
       id="path146"
       style="fill:#000000;fill-opacity:1;fill-rule:nonzero;stroke:none"
       d="m 119.391,28.633 c -0.887,0 -1.559,-0.438 -2.008,-1.317 -0.445,-0.871 -0.668,-2.183 -0.668,-3.937 0,-1.75 0.223,-3.063 0.668,-3.941 0.449,-0.872 1.121,-1.305 2.008,-1.305 0.894,0 1.562,0.433 2.007,1.305 0.45,0.878 0.676,2.191 0.676,3.941 0,1.754 -0.226,3.066 -0.676,3.937 -0.445,0.879 -1.113,1.317 -2.007,1.317 z m 0,1.367 c 1.429,0 2.519,-0.566 3.273,-1.699 0.758,-1.129 1.137,-2.77 1.137,-4.922 0,-2.149 -0.379,-3.789 -1.137,-4.922 -0.754,-1.129 -1.844,-1.691 -3.273,-1.691 -1.43,0 -2.524,0.562 -3.282,1.691 -0.75,1.133 -1.129,2.773 -1.129,4.922 0,2.152 0.379,3.793 1.129,4.922 0.758,1.133 1.852,1.699 3.282,1.699 z" /><path
       inkscape:connector-curvature="0"
       id="path148"
       style="fill:#000000;fill-opacity:1;fill-rule:nonzero;stroke:none"
       d="m 130.535,28.633 c -0.89,0 -1.558,-0.438 -2.008,-1.317 -0.445,-0.871 -0.668,-2.183 -0.668,-3.937 0,-1.75 0.223,-3.063 0.668,-3.941 0.45,-0.872 1.118,-1.305 2.008,-1.305 0.895,0 1.563,0.433 2.008,1.305 0.449,0.878 0.672,2.191 0.672,3.941 0,1.754 -0.223,3.066 -0.672,3.937 -0.445,0.879 -1.113,1.317 -2.008,1.317 z m 0,1.367 c 1.43,0 2.52,-0.566 3.27,-1.699 0.757,-1.129 1.136,-2.77 1.136,-4.922 0,-2.149 -0.379,-3.789 -1.136,-4.922 -0.75,-1.129 -1.84,-1.691 -3.27,-1.691 -1.43,0 -2.523,0.562 -3.281,1.691 -0.754,1.133 -1.129,2.773 -1.129,4.922 0,2.152 0.375,3.793 1.129,4.922 0.758,1.133 1.851,1.699 3.281,1.699 z" /><path
       inkscape:connector-curvature="0"
       id="path150"
       style="fill:#000000;fill-opacity:1;fill-rule:nonzero;stroke:none"
       d="m 138.285,18.465 2.82,0 0,9.73 -3.07,-0.613 0,1.57 3.051,0.618 1.726,0 0,-11.305 2.821,0 0,-1.453 -7.348,0 0,1.453 z" /><path
       inkscape:connector-curvature="0"
       id="path152"
       style="fill:#ff0000;fill-opacity:1;fill-rule:nonzero;stroke:none"
       d="m 152.82,28.633 c -0.89,0 -1.558,-0.438 -2.008,-1.317 -0.445,-0.871 -0.667,-2.183 -0.667,-3.937 0,-1.75 0.222,-3.063 0.667,-3.941 0.45,-0.872 1.118,-1.305 2.008,-1.305 0.895,0 1.563,0.433 2.008,1.305 0.449,0.878 0.672,2.191 0.672,3.941 0,1.754 -0.223,3.066 -0.672,3.937 -0.445,0.879 -1.113,1.317 -2.008,1.317 z m 0,1.367 c 1.43,0 2.52,-0.566 3.27,-1.699 0.758,-1.129 1.137,-2.77 1.137,-4.922 0,-2.149 -0.379,-3.789 -1.137,-4.922 -0.75,-1.129 -1.84,-1.691 -3.27,-1.691 -1.429,0 -2.523,0.562 -3.281,1.691 -0.754,1.133 -1.129,2.773 -1.129,4.922 0,2.152 0.375,3.793 1.129,4.922 0.758,1.133 1.852,1.699 3.281,1.699 z" /><path
       inkscape:connector-curvature="0"
       id="path154"
       style="fill:#000000;fill-opacity:1;fill-rule:nonzero;stroke:none"
       d="m 163.961,28.633 c -0.887,0 -1.559,-0.438 -2.008,-1.317 -0.445,-0.871 -0.668,-2.183 -0.668,-3.937 0,-1.75 0.223,-3.063 0.668,-3.941 0.449,-0.872 1.121,-1.305 2.008,-1.305 0.894,0 1.562,0.433 2.008,1.305 0.449,0.878 0.676,2.191 0.676,3.941 0,1.754 -0.227,3.066 -0.676,3.937 -0.446,0.879 -1.114,1.317 -2.008,1.317 z m 0,1.367 c 1.43,0 2.519,-0.566 3.273,-1.699 0.758,-1.129 1.137,-2.77 1.137,-4.922 0,-2.149 -0.379,-3.789 -1.137,-4.922 -0.754,-1.129 -1.843,-1.691 -3.273,-1.691 -1.43,0 -2.523,0.562 -3.281,1.691 -0.75,1.133 -1.129,2.773 -1.129,4.922 0,2.152 0.379,3.793 1.129,4.922 0.758,1.133 1.851,1.699 3.281,1.699 z" /><path
       inkscape:connector-curvature="0"
       id="path156"
       style="fill:#000000;fill-opacity:1;fill-rule:nonzero;stroke:none"
       d="m 175.105,28.633 c -0.89,0 -1.558,-0.438 -2.007,-1.317 -0.446,-0.871 -0.668,-2.183 -0.668,-3.937 0,-1.75 0.222,-3.063 0.668,-3.941 0.449,-0.872 1.117,-1.305 2.007,-1.305 0.895,0 1.563,0.433 2.008,1.305 0.449,0.878 0.672,2.191 0.672,3.941 0,1.754 -0.223,3.066 -0.672,3.937 -0.445,0.879 -1.113,1.317 -2.008,1.317 z m 0,1.367 c 1.43,0 2.52,-0.566 3.27,-1.699 0.758,-1.129 1.137,-2.77 1.137,-4.922 0,-2.149 -0.379,-3.789 -1.137,-4.922 -0.75,-1.129 -1.84,-1.691 -3.27,-1.691 -1.429,0 -2.523,0.562 -3.281,1.691 -0.754,1.133 -1.129,2.773 -1.129,4.922 0,2.152 0.375,3.793 1.129,4.922 0.758,1.133 1.852,1.699 3.281,1.699 z" /><path
       inkscape:connector-curvature="0"
       id="path158"
       style="fill:#000000;fill-opacity:1;fill-rule:nonzero;stroke:none"
       d="m 186.246,28.633 c -0.887,0 -1.558,-0.438 -2.008,-1.317 -0.445,-0.871 -0.668,-2.183 -0.668,-3.937 0,-1.75 0.223,-3.063 0.668,-3.941 0.45,-0.872 1.121,-1.305 2.008,-1.305 0.895,0 1.563,0.433 2.008,1.305 0.449,0.878 0.676,2.191 0.676,3.941 0,1.754 -0.227,3.066 -0.676,3.937 -0.445,0.879 -1.113,1.317 -2.008,1.317 z m 0,1.367 c 1.43,0 2.52,-0.566 3.274,-1.699 0.757,-1.129 1.136,-2.77 1.136,-4.922 0,-2.149 -0.379,-3.789 -1.136,-4.922 -0.754,-1.129 -1.844,-1.691 -3.274,-1.691 -1.43,0 -2.523,0.562 -3.281,1.691 -0.75,1.133 -1.129,2.773 -1.129,4.922 0,2.152 0.379,3.793 1.129,4.922 0.758,1.133 1.851,1.699 3.281,1.699 z" /><path
       inkscape:connector-curvature="0"
       id="path160"
       style="fill:#000000;fill-opacity:1;fill-rule:nonzero;stroke:none"
       d="m 193.996,18.465 2.82,0 0,9.73 -3.066,-0.613 0,1.57 3.051,0.618 1.726,0 0,-11.305 2.817,0 0,-1.453 -7.348,0 0,1.453 z" /><g
       transform="matrix(1,0,0,-1,0,146)"
       id="g162"><path
         inkscape:connector-curvature="0"
         id="path164"
         style="fill:none;stroke:#000000;stroke-width:1;stroke-linecap:butt;stroke-linejoin:miter;stroke-miterlimit:4;stroke-dasharray:none;stroke-opacity:1"
         d="m 136.902,18.934 -2.324,2.324 4.645,4.64 -4.645,4.645 4.645,4.641 -2.5,2.5 0,1.074" /></g><g
       transform="matrix(0,-1,-1,0,0,146)"
       id="g166"><path
         inkscape:connector-curvature="0"
         id="path168"
         style="fill:#000000;fill-opacity:1;fill-rule:evenodd;stroke:#000000;stroke-width:0.5;stroke-linecap:butt;stroke-linejoin:miter;stroke-miterlimit:4;stroke-dasharray:none;stroke-opacity:1"
         d="m 41.063,-136.723 -3.458,2 0,-4 3.458,2 z" /></g><g
       transform="matrix(1,0,0,-1,0,146)"
       id="g170"><path
         inkscape:connector-curvature="0"
         id="path172"
         style="fill:none;stroke:#000000;stroke-width:1;stroke-linecap:butt;stroke-linejoin:miter;stroke-miterlimit:4;stroke-dasharray:none;stroke-opacity:1"
         d="m 136.902,90.934 -2.324,2.324 4.645,4.64 -4.645,4.645 4.645,4.641 -2.5,2.5 0,1.074" /></g><g
       transform="matrix(0,-1,-1,0,0,146)"
       id="g174"><path
         inkscape:connector-curvature="0"
         id="path176"
         style="fill:#000000;fill-opacity:1;fill-rule:evenodd;stroke:#000000;stroke-width:0.5;stroke-linecap:butt;stroke-linejoin:miter;stroke-miterlimit:4;stroke-dasharray:none;stroke-opacity:1"
         d="m 113.063,-136.723 -3.458,2 0,-4 3.458,2 z" /></g><g
       transform="matrix(1,0,0,-1,0,146)"
       id="g188"><path
         inkscape:connector-curvature="0"
         id="path190"
         style="fill:none;stroke:#000000;stroke-width:1;stroke-linecap:butt;stroke-linejoin:miter;stroke-miterlimit:4;stroke-dasharray:none;stroke-opacity:1"
         d="m 207.828,122.988 12.5,0 0,-116.07 -12.5,0" /></g><g
       transform="matrix(-1,0,0,1,0,146)"
       id="g192"><path
         inkscape:connector-curvature="0"
         id="path194"
         style="fill:#000000;fill-opacity:1;fill-rule:evenodd;stroke:#000000;stroke-width:0.5;stroke-linecap:butt;stroke-linejoin:miter;stroke-miterlimit:4;stroke-dasharray:none;stroke-opacity:1"
         d="m -205.52,-6.918 -3.46,2 0,-4 3.46,2 z" /></g><g
       transform="matrix(1,0,0,-1,0,146)"
       id="g208"><path
         inkscape:connector-curvature="0"
         id="path210"
         style="fill:none;stroke:#000000;stroke-width:1;stroke-linecap:butt;stroke-linejoin:miter;stroke-miterlimit:4;stroke-dasharray:none;stroke-opacity:1"
         d="m 108.543,75.418 -3.93,0" /></g><path
       inkscape:connector-curvature="0"
       id="path212"
       style="fill:#008000;fill-opacity:1;fill-rule:nonzero;stroke:none"
       d="m 104.973,70.672 c 0,-1.035 -0.84,-1.875 -1.875,-1.875 -1.036,0 -1.875,0.84 -1.875,1.875 0,1.035 0.839,1.875 1.875,1.875 1.035,0 1.875,-0.84 1.875,-1.875 z" /><g
       transform="matrix(1,0,0,-1,0,146)"
       id="g214"><path
         inkscape:connector-curvature="0"
         id="path216"
         style="fill:none;stroke:#000000;stroke-width:1;stroke-linecap:butt;stroke-linejoin:miter;stroke-miterlimit:4;stroke-dasharray:none;stroke-opacity:1"
         d="m 108.543,83.418 -3.93,0" /></g><path
       inkscape:connector-curvature="0"
       id="path218"
       style="fill:#008000;fill-opacity:1;fill-rule:nonzero;stroke:none"
       d="m 104.973,62.672 c 0,-1.035 -0.84,-1.875 -1.875,-1.875 -1.036,0 -1.875,0.84 -1.875,1.875 0,1.035 0.839,1.875 1.875,1.875 1.035,0 1.875,-0.84 1.875,-1.875 z" /><g
       transform="matrix(1,0,0,-1,0,146)"
       id="g220"><path
         inkscape:connector-curvature="0"
         id="path222"
         style="fill:none;stroke:#000000;stroke-width:1;stroke-linecap:butt;stroke-linejoin:miter;stroke-miterlimit:4;stroke-dasharray:none;stroke-opacity:1"
         d="m 108.543,83.418 -3.93,0" /></g><path
       inkscape:connector-curvature="0"
       id="path224"
       style="fill:#008000;fill-opacity:1;fill-rule:nonzero;stroke:none"
       d="m 104.973,62.672 c 0,-1.035 -0.84,-1.875 -1.875,-1.875 -1.036,0 -1.875,0.84 -1.875,1.875 0,1.035 0.839,1.875 1.875,1.875 1.035,0 1.875,-0.84 1.875,-1.875 z" /><g
       transform="matrix(1,0,0,-1,0,146)"
       id="g226"><path
         inkscape:connector-curvature="0"
         id="path228"
         style="fill:none;stroke:#000000;stroke-width:1;stroke-linecap:butt;stroke-linejoin:miter;stroke-miterlimit:4;stroke-dasharray:none;stroke-opacity:1"
         d="m 142.008,67.418 -3.93,0" /></g><path
       inkscape:connector-curvature="0"
       id="path230"
       style="fill:#008000;fill-opacity:1;fill-rule:nonzero;stroke:none"
       d="m 138.438,78.672 c 0,-1.035 -0.84,-1.875 -1.876,-1.875 -1.035,0 -1.874,0.84 -1.874,1.875 0,1.035 0.839,1.875 1.874,1.875 1.036,0 1.876,-0.84 1.876,-1.875 z" /><g
       transform="matrix(1,0,0,-1,0,146)"
       id="g232"><path
         inkscape:connector-curvature="0"
         id="path234"
         style="fill:none;stroke:#000000;stroke-width:1;stroke-linecap:butt;stroke-linejoin:miter;stroke-miterlimit:4;stroke-dasharray:none;stroke-opacity:1"
         d="m 142.008,63.418 -3.93,0" /></g><path
       inkscape:connector-curvature="0"
       id="path236"
       style="fill:#008000;fill-opacity:1;fill-rule:nonzero;stroke:none"
       d="m 138.438,82.672 c 0,-1.035 -0.84,-1.875 -1.876,-1.875 -1.035,0 -1.874,0.84 -1.874,1.875 0,1.035 0.839,1.875 1.874,1.875 1.036,0 1.876,-0.84 1.876,-1.875 z" /><g
       transform="matrix(1,0,0,-1,0,146)"
       id="g238"><path
         inkscape:connector-curvature="0"
         id="path240"
         style="fill:none;stroke:#000000;stroke-width:1;stroke-linecap:butt;stroke-linejoin:miter;stroke-miterlimit:4;stroke-dasharray:none;stroke-opacity:1"
         d="m 142.008,63.418 -3.93,0" /></g><path
       inkscape:connector-curvature="0"
       id="path242"
       style="fill:#008000;fill-opacity:1;fill-rule:nonzero;stroke:none"
       d="m 138.438,82.672 c 0,-1.035 -0.84,-1.875 -1.876,-1.875 -1.035,0 -1.874,0.84 -1.874,1.875 0,1.035 0.839,1.875 1.874,1.875 1.036,0 1.876,-0.84 1.876,-1.875 z" /><g
       transform="matrix(1,0,0,-1,0,146)"
       id="g244"><path
         inkscape:connector-curvature="0"
         id="path246"
         style="fill:none;stroke:#000000;stroke-width:1;stroke-linecap:butt;stroke-linejoin:miter;stroke-miterlimit:4;stroke-dasharray:none;stroke-opacity:1"
         d="m 197.793,59.418 -3.93,0" /></g><path
       inkscape:connector-curvature="0"
       id="path248"
       style="fill:#008000;fill-opacity:1;fill-rule:nonzero;stroke:none"
       d="m 194.223,86.672 c 0,-1.035 -0.84,-1.875 -1.875,-1.875 -1.036,0 -1.875,0.84 -1.875,1.875 0,1.035 0.839,1.875 1.875,1.875 1.035,0 1.875,-0.84 1.875,-1.875 z" /><g
       transform="matrix(1,0,0,-1,0,146)"
       id="g250"><path
         inkscape:connector-curvature="0"
         id="path252"
         style="fill:none;stroke:#000000;stroke-width:1;stroke-linecap:butt;stroke-linejoin:miter;stroke-miterlimit:4;stroke-dasharray:none;stroke-opacity:1"
         d="m 197.793,55.418 -3.93,0" /></g><path
       inkscape:connector-curvature="0"
       id="path254"
       style="fill:#008000;fill-opacity:1;fill-rule:nonzero;stroke:none"
       d="m 194.223,90.672 c 0,-1.035 -0.84,-1.875 -1.875,-1.875 -1.036,0 -1.875,0.84 -1.875,1.875 0,1.035 0.839,1.875 1.875,1.875 1.035,0 1.875,-0.84 1.875,-1.875 z" /><g
       transform="matrix(1,0,0,-1,0,146)"
       id="g256"><path
         inkscape:connector-curvature="0"
         id="path258"
         style="fill:none;stroke:#000000;stroke-width:1;stroke-linecap:butt;stroke-linejoin:miter;stroke-miterlimit:4;stroke-dasharray:none;stroke-opacity:1"
         d="m 197.793,55.418 -3.93,0" /></g><path
       inkscape:connector-curvature="0"
       id="path260"
       style="fill:#008000;fill-opacity:1;fill-rule:nonzero;stroke:none"
       d="m 194.223,90.672 c 0,-1.035 -0.84,-1.875 -1.875,-1.875 -1.036,0 -1.875,0.84 -1.875,1.875 0,1.035 0.839,1.875 1.875,1.875 1.035,0 1.875,-0.84 1.875,-1.875 z" /><g
       transform="matrix(1,0,0,-1,0,146)"
       id="g262"><path
         inkscape:connector-curvature="0"
         id="path264"
         style="fill:none;stroke:#000000;stroke-width:1;stroke-linecap:butt;stroke-linejoin:miter;stroke-miterlimit:4;stroke-dasharray:none;stroke-opacity:1"
         d="m 153.258,47.988 -3.93,0" /></g><path
       inkscape:connector-curvature="0"
       id="path266"
       style="fill:#008000;fill-opacity:1;fill-rule:nonzero;stroke:none"
       d="m 149.688,98.102 c 0,-1.036 -0.84,-1.875 -1.876,-1.875 -1.035,0 -1.874,0.839 -1.874,1.875 0,1.035 0.839,1.875 1.874,1.875 1.036,0 1.876,-0.84 1.876,-1.875 z" /><g
       transform="matrix(1,0,0,-1,0,146)"
       id="g268"><path
         inkscape:connector-curvature="0"
         id="path270"
         style="fill:none;stroke:#000000;stroke-width:1;stroke-linecap:butt;stroke-linejoin:miter;stroke-miterlimit:4;stroke-dasharray:none;stroke-opacity:1"
         d="m 153.258,55.988 -3.93,0" /></g><path
       inkscape:connector-curvature="0"
       id="path272"
       style="fill:#008000;fill-opacity:1;fill-rule:nonzero;stroke:none"
       d="m 149.688,90.102 c 0,-1.036 -0.84,-1.875 -1.876,-1.875 -1.035,0 -1.874,0.839 -1.874,1.875 0,1.035 0.839,1.875 1.874,1.875 1.036,0 1.876,-0.84 1.876,-1.875 z" /><g
       transform="matrix(1,0,0,-1,0,146)"
       id="g274"><path
         inkscape:connector-curvature="0"
         id="path276"
         style="fill:none;stroke:#000000;stroke-width:1;stroke-linecap:butt;stroke-linejoin:miter;stroke-miterlimit:4;stroke-dasharray:none;stroke-opacity:1"
         d="m 153.258,55.988 -3.93,0" /></g><path
       inkscape:connector-curvature="0"
       id="path278"
       style="fill:#008000;fill-opacity:1;fill-rule:nonzero;stroke:none"
       d="m 149.688,90.102 c 0,-1.036 -0.84,-1.875 -1.876,-1.875 -1.035,0 -1.874,0.839 -1.874,1.875 0,1.035 0.839,1.875 1.874,1.875 1.036,0 1.876,-0.84 1.876,-1.875 z" /><text
       xml:space="preserve"
       style="font-style:normal;font-weight:normal;font-size:12.5px;line-height:125%;font-family:sans-serif;letter-spacing:0px;word-spacing:0px;fill:#000000;fill-opacity:1;stroke:none;stroke-width:1px;stroke-linecap:butt;stroke-linejoin:miter;stroke-opacity:1"
       x="60.235558"
       y="232.69554"
       id="text3615"
       sodipodi:linespacing="125%"
       transform="matrix(0,1,1,0,0,0)"><tspan
         sodipodi:role="line"
         id="tspan3617"
         x="60.235558"
         y="232.69554">calling</tspan></text>
<text
       xml:space="preserve"
       style="font-style:normal;font-weight:normal;font-size:12.5px;line-height:125%;font-family:sans-serif;letter-spacing:0px;word-spacing:0px;fill:#000000;fill-opacity:1;stroke:none;stroke-width:1px;stroke-linecap:butt;stroke-linejoin:miter;stroke-opacity:1"
       x="64.586349"
       y="-136.08807"
       id="text3623"
       sodipodi:linespacing="125%"
       transform="scale(1,-1)"><tspan
         sodipodi:role="line"
         x="64.586349"
         y="-136.08807"
         style="font-size:12.5px;text-align:end;text-anchor:end"
         id="tspan3629">encoding</tspan></text>
<text
       xml:space="preserve"
       style="font-style:normal;font-weight:normal;font-size:12.5px;line-height:125%;font-family:sans-serif;letter-spacing:0px;word-spacing:0px;fill:#000000;fill-opacity:1;stroke:none;stroke-width:1px;stroke-linecap:butt;stroke-linejoin:miter;stroke-opacity:1"
       x="-17.067703"
       y="-76.08667"
       id="text3637"
       sodipodi:linespacing="125%"
       transform="scale(1,-1)"><tspan
         sodipodi:role="line"
         id="tspan3639"
         x="-17.067703"
         y="-76.08667">hybridization</tspan></text>
<text
       xml:space="preserve"
       style="font-style:normal;font-weight:normal;font-size:12.5px;line-height:125%;font-family:sans-serif;letter-spacing:0px;word-spacing:0px;fill:#000000;fill-opacity:1;stroke:none;stroke-width:1px;stroke-linecap:butt;stroke-linejoin:miter;stroke-opacity:1"
       x="14.981842"
       y="-18.748621"
       id="text3641"
       sodipodi:linespacing="125%"
       transform="scale(1,-1)"><tspan
         sodipodi:role="line"
         id="tspan3643"
         x="14.981842"
         y="-18.748621">readout</tspan></text>
</g></svg>