<?xml version="1.0" encoding="UTF-8" standalone="no"?>
<!-- Created with Inkscape (http://www.inkscape.org/) -->

<svg
   xmlns:dc="http://purl.org/dc/elements/1.1/"
   xmlns:cc="http://creativecommons.org/ns#"
   xmlns:rdf="http://www.w3.org/1999/02/22-rdf-syntax-ns#"
   xmlns:svg="http://www.w3.org/2000/svg"
   xmlns="http://www.w3.org/2000/svg"
   xmlns:sodipodi="http://sodipodi.sourceforge.net/DTD/sodipodi-0.dtd"
   xmlns:inkscape="http://www.inkscape.org/namespaces/inkscape"
   id="svg2"
   version="1.1"
   inkscape:version="0.91 r"
   xml:space="preserve"
   width="352.45789"
   height="184.21112"
   viewBox="0 0 352.45789 184.21112"
   sodipodi:docname="sketch.svg"><metadata
     id="metadata8"><rdf:RDF><cc:Work
         rdf:about=""><dc:format>image/svg+xml</dc:format><dc:type
           rdf:resource="http://purl.org/dc/dcmitype/StillImage" /><dc:title></dc:title></cc:Work></rdf:RDF></metadata><defs
     id="defs6" /><sodipodi:namedview
     pagecolor="#ffffff"
     bordercolor="#666666"
     borderopacity="1"
     objecttolerance="10"
     gridtolerance="10"
     guidetolerance="10"
     inkscape:pageopacity="0"
     inkscape:pageshadow="2"
     inkscape:window-width="640"
     inkscape:window-height="480"
     id="namedview4"
     showgrid="false"
     fit-margin-top="0"
     fit-margin-left="0"
     fit-margin-right="0"
     fit-margin-bottom="0"
     inkscape:zoom="0.79426523"
     inkscape:cx="174.34326"
     inkscape:cy="92.96112"
     inkscape:window-x="0"
     inkscape:window-y="0"
     inkscape:window-maximized="0"
     inkscape:current-layer="g10" /><g
     id="g10"
     inkscape:groupmode="layer"
     inkscape:label="sketch"
     transform="matrix(1.25,0,0,-1.25,-0.03173766,182.5)"><g
       id="g12"><path
         d="m 74.82,144.633 c -0.886,0 -1.558,-0.438 -2.008,-1.317 -0.445,-0.871 -0.667,-2.183 -0.667,-3.937 0,-1.75 0.222,-3.063 0.667,-3.941 0.45,-0.872 1.122,-1.305 2.008,-1.305 0.895,0 1.563,0.433 2.008,1.305 0.449,0.878 0.676,2.191 0.676,3.941 0,1.754 -0.227,3.066 -0.676,3.937 -0.445,0.879 -1.113,1.317 -2.008,1.317 z m 0,1.367 c 1.43,0 2.52,-0.566 3.274,-1.699 0.758,-1.129 1.136,-2.77 1.136,-4.922 0,-2.149 -0.378,-3.789 -1.136,-4.922 -0.754,-1.129 -1.844,-1.691 -3.274,-1.691 -1.429,0 -2.523,0.562 -3.281,1.691 -0.75,1.133 -1.129,2.773 -1.129,4.922 0,2.152 0.379,3.793 1.129,4.922 0.758,1.133 1.852,1.699 3.281,1.699 z"
         style="fill:#000000;fill-opacity:1;fill-rule:nonzero;stroke:none"
         id="path14"
         inkscape:connector-curvature="0" /><path
         d="m 85.965,144.633 c -0.891,0 -1.559,-0.438 -2.008,-1.317 -0.445,-0.871 -0.668,-2.183 -0.668,-3.937 0,-1.75 0.223,-3.063 0.668,-3.941 0.449,-0.872 1.117,-1.305 2.008,-1.305 0.894,0 1.562,0.433 2.008,1.305 0.449,0.878 0.672,2.191 0.672,3.941 0,1.754 -0.223,3.066 -0.672,3.937 -0.446,0.879 -1.114,1.317 -2.008,1.317 z m 0,1.367 c 1.43,0 2.519,-0.566 3.269,-1.699 0.758,-1.129 1.137,-2.77 1.137,-4.922 0,-2.149 -0.379,-3.789 -1.137,-4.922 -0.75,-1.129 -1.839,-1.691 -3.269,-1.691 -1.43,0 -2.524,0.562 -3.281,1.691 -0.754,1.133 -1.129,2.773 -1.129,4.922 0,2.152 0.375,3.793 1.129,4.922 0.757,1.133 1.851,1.699 3.281,1.699 z"
         style="fill:#000000;fill-opacity:1;fill-rule:nonzero;stroke:none"
         id="path16"
         inkscape:connector-curvature="0" /><path
         d="m 97.105,144.633 c -0.886,0 -1.558,-0.438 -2.007,-1.317 -0.446,-0.871 -0.668,-2.183 -0.668,-3.937 0,-1.75 0.222,-3.063 0.668,-3.941 0.449,-0.872 1.121,-1.305 2.007,-1.305 0.895,0 1.563,0.433 2.008,1.305 0.449,0.878 0.676,2.191 0.676,3.941 0,1.754 -0.227,3.066 -0.676,3.937 -0.445,0.879 -1.113,1.317 -2.008,1.317 z m 0,1.367 c 1.43,0 2.52,-0.566 3.274,-1.699 0.758,-1.129 1.137,-2.77 1.137,-4.922 0,-2.149 -0.379,-3.789 -1.137,-4.922 -0.754,-1.129 -1.844,-1.691 -3.274,-1.691 -1.429,0 -2.523,0.562 -3.281,1.691 -0.75,1.133 -1.129,2.773 -1.129,4.922 0,2.152 0.379,3.793 1.129,4.922 0.758,1.133 1.852,1.699 3.281,1.699 z"
         style="fill:#000000;fill-opacity:1;fill-rule:nonzero;stroke:none"
         id="path18"
         inkscape:connector-curvature="0" /><path
         d="m 104.855,134.465 2.821,0 0,9.73 -3.067,-0.613 0,1.57 3.051,0.618 1.727,0 0,-11.305 2.816,0 0,-1.453 -7.348,0 0,1.453 z"
         style="fill:#000000;fill-opacity:1;fill-rule:nonzero;stroke:none"
         id="path20"
         inkscape:connector-curvature="0" /><path
         d="m 119.391,144.633 c -0.887,0 -1.559,-0.438 -2.008,-1.317 -0.445,-0.871 -0.668,-2.183 -0.668,-3.937 0,-1.75 0.223,-3.063 0.668,-3.941 0.449,-0.872 1.121,-1.305 2.008,-1.305 0.894,0 1.562,0.433 2.007,1.305 0.45,0.878 0.676,2.191 0.676,3.941 0,1.754 -0.226,3.066 -0.676,3.937 -0.445,0.879 -1.113,1.317 -2.007,1.317 z m 0,1.367 c 1.429,0 2.519,-0.566 3.273,-1.699 0.758,-1.129 1.137,-2.77 1.137,-4.922 0,-2.149 -0.379,-3.789 -1.137,-4.922 -0.754,-1.129 -1.844,-1.691 -3.273,-1.691 -1.43,0 -2.524,0.562 -3.282,1.691 -0.75,1.133 -1.129,2.773 -1.129,4.922 0,2.152 0.379,3.793 1.129,4.922 0.758,1.133 1.852,1.699 3.282,1.699 z"
         style="fill:#000000;fill-opacity:1;fill-rule:nonzero;stroke:none"
         id="path22"
         inkscape:connector-curvature="0" /><path
         d="m 130.535,144.633 c -0.89,0 -1.558,-0.438 -2.008,-1.317 -0.445,-0.871 -0.668,-2.183 -0.668,-3.937 0,-1.75 0.223,-3.063 0.668,-3.941 0.45,-0.872 1.118,-1.305 2.008,-1.305 0.895,0 1.563,0.433 2.008,1.305 0.449,0.878 0.672,2.191 0.672,3.941 0,1.754 -0.223,3.066 -0.672,3.937 -0.445,0.879 -1.113,1.317 -2.008,1.317 z m 0,1.367 c 1.43,0 2.52,-0.566 3.27,-1.699 0.757,-1.129 1.136,-2.77 1.136,-4.922 0,-2.149 -0.379,-3.789 -1.136,-4.922 -0.75,-1.129 -1.84,-1.691 -3.27,-1.691 -1.43,0 -2.523,0.562 -3.281,1.691 -0.754,1.133 -1.129,2.773 -1.129,4.922 0,2.152 0.375,3.793 1.129,4.922 0.758,1.133 1.851,1.699 3.281,1.699 z"
         style="fill:#000000;fill-opacity:1;fill-rule:nonzero;stroke:none"
         id="path24"
         inkscape:connector-curvature="0" /><path
         d="m 138.285,134.465 2.82,0 0,9.73 -3.07,-0.613 0,1.57 3.051,0.618 1.726,0 0,-11.305 2.821,0 0,-1.453 -7.348,0 0,1.453 z"
         style="fill:#000000;fill-opacity:1;fill-rule:nonzero;stroke:none"
         id="path26"
         inkscape:connector-curvature="0" /><path
         d="m 149.426,134.465 2.82,0 0,9.73 -3.066,-0.613 0,1.57 3.05,0.618 1.727,0 0,-11.305 2.816,0 0,-1.453 -7.347,0 0,1.453 z"
         style="fill:#000000;fill-opacity:1;fill-rule:nonzero;stroke:none"
         id="path28"
         inkscape:connector-curvature="0" /><path
         d="m 163.961,144.633 c -0.887,0 -1.559,-0.438 -2.008,-1.317 -0.445,-0.871 -0.668,-2.183 -0.668,-3.937 0,-1.75 0.223,-3.063 0.668,-3.941 0.449,-0.872 1.121,-1.305 2.008,-1.305 0.894,0 1.562,0.433 2.008,1.305 0.449,0.878 0.676,2.191 0.676,3.941 0,1.754 -0.227,3.066 -0.676,3.937 -0.446,0.879 -1.114,1.317 -2.008,1.317 z m 0,1.367 c 1.43,0 2.519,-0.566 3.273,-1.699 0.758,-1.129 1.137,-2.77 1.137,-4.922 0,-2.149 -0.379,-3.789 -1.137,-4.922 -0.754,-1.129 -1.843,-1.691 -3.273,-1.691 -1.43,0 -2.523,0.562 -3.281,1.691 -0.75,1.133 -1.129,2.773 -1.129,4.922 0,2.152 0.379,3.793 1.129,4.922 0.758,1.133 1.851,1.699 3.281,1.699 z"
         style="fill:#000000;fill-opacity:1;fill-rule:nonzero;stroke:none"
         id="path30"
         inkscape:connector-curvature="0" /><path
         d="m 175.105,144.633 c -0.89,0 -1.558,-0.438 -2.007,-1.317 -0.446,-0.871 -0.668,-2.183 -0.668,-3.937 0,-1.75 0.222,-3.063 0.668,-3.941 0.449,-0.872 1.117,-1.305 2.007,-1.305 0.895,0 1.563,0.433 2.008,1.305 0.449,0.878 0.672,2.191 0.672,3.941 0,1.754 -0.223,3.066 -0.672,3.937 -0.445,0.879 -1.113,1.317 -2.008,1.317 z m 0,1.367 c 1.43,0 2.52,-0.566 3.27,-1.699 0.758,-1.129 1.137,-2.77 1.137,-4.922 0,-2.149 -0.379,-3.789 -1.137,-4.922 -0.75,-1.129 -1.84,-1.691 -3.27,-1.691 -1.429,0 -2.523,0.562 -3.281,1.691 -0.754,1.133 -1.129,2.773 -1.129,4.922 0,2.152 0.375,3.793 1.129,4.922 0.758,1.133 1.852,1.699 3.281,1.699 z"
         style="fill:#000000;fill-opacity:1;fill-rule:nonzero;stroke:none"
         id="path32"
         inkscape:connector-curvature="0" /><path
         d="m 186.246,144.633 c -0.887,0 -1.558,-0.438 -2.008,-1.317 -0.445,-0.871 -0.668,-2.183 -0.668,-3.937 0,-1.75 0.223,-3.063 0.668,-3.941 0.45,-0.872 1.121,-1.305 2.008,-1.305 0.895,0 1.563,0.433 2.008,1.305 0.449,0.878 0.676,2.191 0.676,3.941 0,1.754 -0.227,3.066 -0.676,3.937 -0.445,0.879 -1.113,1.317 -2.008,1.317 z m 0,1.367 c 1.43,0 2.52,-0.566 3.274,-1.699 0.757,-1.129 1.136,-2.77 1.136,-4.922 0,-2.149 -0.379,-3.789 -1.136,-4.922 -0.754,-1.129 -1.844,-1.691 -3.274,-1.691 -1.43,0 -2.523,0.562 -3.281,1.691 -0.75,1.133 -1.129,2.773 -1.129,4.922 0,2.152 0.379,3.793 1.129,4.922 0.758,1.133 1.851,1.699 3.281,1.699 z"
         style="fill:#000000;fill-opacity:1;fill-rule:nonzero;stroke:none"
         id="path34"
         inkscape:connector-curvature="0" /><path
         d="m 193.996,134.465 2.82,0 0,9.73 -3.066,-0.613 0,1.57 3.051,0.618 1.726,0 0,-11.305 2.817,0 0,-1.453 -7.348,0 0,1.453 z"
         style="fill:#000000;fill-opacity:1;fill-rule:nonzero;stroke:none"
         id="path36"
         inkscape:connector-curvature="0" /><g
         id="g38"
         transform="matrix(1,0,0,-1,0,146)"><path
           d="m 74.258,44.418 0,42.855"
           style="fill:none;stroke:#000000;stroke-width:1;stroke-linecap:butt;stroke-linejoin:miter;stroke-miterlimit:4;stroke-dasharray:none;stroke-opacity:1"
           id="path40"
           inkscape:connector-curvature="0" /></g><g
         id="g42"
         transform="matrix(1,0,0,-1,0,146)"><path
           d="m 85.543,44.418 0,42.855"
           style="fill:none;stroke:#000000;stroke-width:1;stroke-linecap:butt;stroke-linejoin:miter;stroke-miterlimit:4;stroke-dasharray:none;stroke-opacity:1"
           id="path44"
           inkscape:connector-curvature="0" /></g><g
         id="g46"
         transform="matrix(1,0,0,-1,0,146)"><path
           d="m 96.828,44.418 0,42.855"
           style="fill:none;stroke:#000000;stroke-width:1;stroke-linecap:butt;stroke-linejoin:miter;stroke-miterlimit:4;stroke-dasharray:none;stroke-opacity:1"
           id="path48"
           inkscape:connector-curvature="0" /></g><g
         id="g50"
         transform="matrix(1,0,0,-1,0,146)"><path
           d="m 108.113,44.418 0,42.855"
           style="fill:none;stroke:#000000;stroke-width:1;stroke-linecap:butt;stroke-linejoin:miter;stroke-miterlimit:4;stroke-dasharray:none;stroke-opacity:1"
           id="path52"
           inkscape:connector-curvature="0" /></g><g
         id="g54"
         transform="matrix(1,0,0,-1,0,146)"><path
           d="m 119.043,44.418 0,42.855"
           style="fill:none;stroke:#000000;stroke-width:1;stroke-linecap:butt;stroke-linejoin:miter;stroke-miterlimit:4;stroke-dasharray:none;stroke-opacity:1"
           id="path56"
           inkscape:connector-curvature="0" /></g><g
         id="g58"
         transform="matrix(1,0,0,-1,0,146)"><path
           d="m 130.328,44.418 0,42.855"
           style="fill:none;stroke:#000000;stroke-width:1;stroke-linecap:butt;stroke-linejoin:miter;stroke-miterlimit:4;stroke-dasharray:none;stroke-opacity:1"
           id="path60"
           inkscape:connector-curvature="0" /></g><g
         id="g62"
         transform="matrix(1,0,0,-1,0,146)"><path
           d="m 141.613,44.418 0,42.855"
           style="fill:none;stroke:#000000;stroke-width:1;stroke-linecap:butt;stroke-linejoin:miter;stroke-miterlimit:4;stroke-dasharray:none;stroke-opacity:1"
           id="path64"
           inkscape:connector-curvature="0" /></g><g
         id="g66"
         transform="matrix(1,0,0,-1,0,146)"><path
           d="m 152.902,44.418 0,42.855"
           style="fill:none;stroke:#000000;stroke-width:1;stroke-linecap:butt;stroke-linejoin:miter;stroke-miterlimit:4;stroke-dasharray:none;stroke-opacity:1"
           id="path68"
           inkscape:connector-curvature="0" /></g><g
         id="g70"
         transform="matrix(1,0,0,-1,0,146)"><path
           d="m 163.828,44.418 0,42.855"
           style="fill:none;stroke:#000000;stroke-width:1;stroke-linecap:butt;stroke-linejoin:miter;stroke-miterlimit:4;stroke-dasharray:none;stroke-opacity:1"
           id="path72"
           inkscape:connector-curvature="0" /></g><g
         id="g74"
         transform="matrix(1,0,0,-1,0,146)"><path
           d="m 174.758,44.418 0,42.855"
           style="fill:none;stroke:#000000;stroke-width:1;stroke-linecap:butt;stroke-linejoin:miter;stroke-miterlimit:4;stroke-dasharray:none;stroke-opacity:1"
           id="path76"
           inkscape:connector-curvature="0" /></g><g
         id="g78"
         transform="matrix(1,0,0,-1,0,146)"><path
           d="m 186.402,44.418 0,42.855"
           style="fill:none;stroke:#000000;stroke-width:1;stroke-linecap:butt;stroke-linejoin:miter;stroke-miterlimit:4;stroke-dasharray:none;stroke-opacity:1"
           id="path80"
           inkscape:connector-curvature="0" /></g><g
         id="g82"
         transform="matrix(1,0,0,-1,0,146)"><path
           d="m 197.473,44.418 0,42.855"
           style="fill:none;stroke:#000000;stroke-width:1;stroke-linecap:butt;stroke-linejoin:miter;stroke-miterlimit:4;stroke-dasharray:none;stroke-opacity:1"
           id="path84"
           inkscape:connector-curvature="0" /></g><g
         id="g86"
         transform="matrix(1,0,0,-1,0,146)"><path
           d="m 108.543,79.418 -3.93,0"
           style="fill:none;stroke:#000000;stroke-width:1;stroke-linecap:butt;stroke-linejoin:miter;stroke-miterlimit:4;stroke-dasharray:none;stroke-opacity:1"
           id="path88"
           inkscape:connector-curvature="0" /></g><path
         d="m 104.973,66.672 c 0,-1.035 -0.84,-1.875 -1.875,-1.875 -1.036,0 -1.875,0.84 -1.875,1.875 0,1.035 0.839,1.875 1.875,1.875 1.035,0 1.875,-0.84 1.875,-1.875 z"
         style="fill:#008000;fill-opacity:1;fill-rule:nonzero;stroke:none"
         id="path90"
         inkscape:connector-curvature="0" /><g
         id="g92"
         transform="matrix(1,0,0,-1,0,146)"><path
           d="m 142.008,71.418 -3.93,0"
           style="fill:none;stroke:#000000;stroke-width:1;stroke-linecap:butt;stroke-linejoin:miter;stroke-miterlimit:4;stroke-dasharray:none;stroke-opacity:1"
           id="path94"
           inkscape:connector-curvature="0" /></g><path
         d="m 138.438,74.672 c 0,-1.035 -0.84,-1.875 -1.876,-1.875 -1.035,0 -1.874,0.84 -1.874,1.875 0,1.035 0.839,1.875 1.874,1.875 1.036,0 1.876,-0.84 1.876,-1.875 z"
         style="fill:#008000;fill-opacity:1;fill-rule:nonzero;stroke:none"
         id="path96"
         inkscape:connector-curvature="0" /><g
         id="g98"
         transform="matrix(1,0,0,-1,0,146)"><path
           d="m 153.258,51.988 -3.93,0"
           style="fill:none;stroke:#000000;stroke-width:1;stroke-linecap:butt;stroke-linejoin:miter;stroke-miterlimit:4;stroke-dasharray:none;stroke-opacity:1"
           id="path100"
           inkscape:connector-curvature="0" /></g><path
         d="m 149.688,94.102 c 0,-1.036 -0.84,-1.875 -1.876,-1.875 -1.035,0 -1.874,0.839 -1.874,1.875 0,1.035 0.839,1.875 1.874,1.875 1.036,0 1.876,-0.84 1.876,-1.875 z"
         style="fill:#008000;fill-opacity:1;fill-rule:nonzero;stroke:none"
         id="path102"
         inkscape:connector-curvature="0" /><g
         id="g104"
         transform="matrix(1,0,0,-1,0,146)"><path
           d="m 197.793,63.418 -3.93,0"
           style="fill:none;stroke:#000000;stroke-width:1;stroke-linecap:butt;stroke-linejoin:miter;stroke-miterlimit:4;stroke-dasharray:none;stroke-opacity:1"
           id="path106"
           inkscape:connector-curvature="0" /></g><path
         d="m 194.223,82.672 c 0,-1.035 -0.84,-1.875 -1.875,-1.875 -1.036,0 -1.875,0.84 -1.875,1.875 0,1.035 0.839,1.875 1.875,1.875 1.035,0 1.875,-0.84 1.875,-1.875 z"
         style="fill:#008000;fill-opacity:1;fill-rule:nonzero;stroke:none"
         id="path108"
         inkscape:connector-curvature="0" /><text
         transform="matrix(1,0,0,-1,30.355469,136.44434)"
         style="font-variant:normal;font-weight:normal;font-size:10px;font-family:'DejaVu Sans';-inkscape-font-specification:DejaVuSans;writing-mode:lr-tb;fill:#000000;fill-opacity:1;fill-rule:nonzero;stroke:none"
         id="text110"><tspan
           x="0 6.3400002 12.49 17.690001 20.459999 26.799999"
           y="0"
           sodipodi:role="line"
           id="tspan112">design</tspan></text>
<text
         transform="matrix(1,0,0,-1,30.695312,125.75684)"
         style="font-variant:normal;font-weight:normal;font-size:7.5px;font-family:'DejaVu Sans';-inkscape-font-specification:DejaVuSans;writing-mode:lr-tb;fill:#666666;fill-opacity:1;fill-rule:nonzero;stroke:none"
         id="text114"><tspan
           x="0 2.8125 7.7024999 10.995 13.53 18.450001 23.3475 27.735001"
           y="0"
           sodipodi:role="line"
           id="tspan116">for each</tspan><tspan
           x="-16.601564 -11.051565 -5.066565 0.40843499 2.943435 7.1059351 12.175935 17.095936 21.490934 23.703436 28.623434"
           y="9.375"
           sodipodi:role="line"
           id="tspan118">RNA species</tspan></text>
<text
         transform="matrix(1,0,0,-1,-0.882813,90.014649)"
         style="font-variant:normal;font-weight:normal;font-size:10px;font-family:'DejaVu Sans';-inkscape-font-specification:DejaVuSans;writing-mode:lr-tb;fill:#000000;fill-opacity:1;fill-rule:nonzero;stroke:none"
         id="text120"><tspan
           x="0 6.3299999 12.24 18.58 22.690001 25.459999 31.799999 34.57 39.810001 45.93 49.849998 52.619999 58.73"
           y="0"
           sodipodi:role="line"
           id="tspan122">hybridization</tspan></text>
<text
         transform="matrix(1,0,0,-1,9.28125,79.327149)"
         style="font-variant:normal;font-weight:normal;font-size:7.5px;font-family:'DejaVu Sans';-inkscape-font-specification:DejaVuSans;writing-mode:lr-tb;fill:#666666;fill-opacity:1;fill-rule:nonzero;stroke:none"
         id="text124"><tspan
           x="0 4.8899999 7.7024999"
           y="0"
           sodipodi:role="line"
           id="tspan126">of </tspan></text>
<text
         transform="matrix(1,0,0,-1,19.51875,79.327149)"
         style="font-variant:normal;font-weight:normal;font-size:7.5px;font-family:'DejaVu Sans';-inkscape-font-specification:DejaVuSans;writing-mode:lr-tb;fill:#666666;fill-opacity:1;fill-rule:nonzero;stroke:none"
         id="text128"><tspan
           x="0"
           y="0"
           id="tspan130">ﬂ</tspan></text>
<text
         transform="matrix(1,0,0,-1,24.55125,79.327149)"
         style="font-variant:normal;font-weight:normal;font-size:7.5px;font-family:'DejaVu Sans';-inkscape-font-specification:DejaVuSans;writing-mode:lr-tb;fill:#666666;fill-opacity:1;fill-rule:nonzero;stroke:none"
         id="text132"><tspan
           x="0 5.0700002 9.9525003 13.065 17.985001 22.147499 26.5425 31.4625 36.525002"
           y="0"
           sodipodi:role="line"
           id="tspan134">uorescent</tspan><tspan
           x="12.464377 17.534378 20.646877 25.536877 30.606878 35.526878"
           y="9.375"
           sodipodi:role="line"
           id="tspan136">probes</tspan></text>
<path
         d="m 74.82,28.633 c -0.886,0 -1.558,-0.438 -2.008,-1.317 -0.445,-0.871 -0.667,-2.183 -0.667,-3.937 0,-1.75 0.222,-3.063 0.667,-3.941 0.45,-0.872 1.122,-1.305 2.008,-1.305 0.895,0 1.563,0.433 2.008,1.305 0.449,0.878 0.676,2.191 0.676,3.941 0,1.754 -0.227,3.066 -0.676,3.937 -0.445,0.879 -1.113,1.317 -2.008,1.317 z m 0,1.367 c 1.43,0 2.52,-0.566 3.274,-1.699 0.758,-1.129 1.136,-2.77 1.136,-4.922 0,-2.149 -0.378,-3.789 -1.136,-4.922 -0.754,-1.129 -1.844,-1.691 -3.274,-1.691 -1.429,0 -2.523,0.562 -3.281,1.691 -0.75,1.133 -1.129,2.773 -1.129,4.922 0,2.152 0.379,3.793 1.129,4.922 C 72.297,29.434 73.391,30 74.82,30 Z"
         style="fill:#000000;fill-opacity:1;fill-rule:nonzero;stroke:none"
         id="path138"
         inkscape:connector-curvature="0" /><path
         d="m 85.965,28.633 c -0.891,0 -1.559,-0.438 -2.008,-1.317 -0.445,-0.871 -0.668,-2.183 -0.668,-3.937 0,-1.75 0.223,-3.063 0.668,-3.941 0.449,-0.872 1.117,-1.305 2.008,-1.305 0.894,0 1.562,0.433 2.008,1.305 0.449,0.878 0.672,2.191 0.672,3.941 0,1.754 -0.223,3.066 -0.672,3.937 -0.446,0.879 -1.114,1.317 -2.008,1.317 z m 0,1.367 c 1.43,0 2.519,-0.566 3.269,-1.699 0.758,-1.129 1.137,-2.77 1.137,-4.922 0,-2.149 -0.379,-3.789 -1.137,-4.922 -0.75,-1.129 -1.839,-1.691 -3.269,-1.691 -1.43,0 -2.524,0.562 -3.281,1.691 -0.754,1.133 -1.129,2.773 -1.129,4.922 0,2.152 0.375,3.793 1.129,4.922 0.757,1.133 1.851,1.699 3.281,1.699 z"
         style="fill:#000000;fill-opacity:1;fill-rule:nonzero;stroke:none"
         id="path140"
         inkscape:connector-curvature="0" /><path
         d="m 97.105,28.633 c -0.886,0 -1.558,-0.438 -2.007,-1.317 -0.446,-0.871 -0.668,-2.183 -0.668,-3.937 0,-1.75 0.222,-3.063 0.668,-3.941 0.449,-0.872 1.121,-1.305 2.007,-1.305 0.895,0 1.563,0.433 2.008,1.305 0.449,0.878 0.676,2.191 0.676,3.941 0,1.754 -0.227,3.066 -0.676,3.937 -0.445,0.879 -1.113,1.317 -2.008,1.317 z m 0,1.367 c 1.43,0 2.52,-0.566 3.274,-1.699 0.758,-1.129 1.137,-2.77 1.137,-4.922 0,-2.149 -0.379,-3.789 -1.137,-4.922 -0.754,-1.129 -1.844,-1.691 -3.274,-1.691 -1.429,0 -2.523,0.562 -3.281,1.691 -0.75,1.133 -1.129,2.773 -1.129,4.922 0,2.152 0.379,3.793 1.129,4.922 0.758,1.133 1.852,1.699 3.281,1.699 z"
         style="fill:#000000;fill-opacity:1;fill-rule:nonzero;stroke:none"
         id="path142"
         inkscape:connector-curvature="0" /><path
         d="m 104.855,18.465 2.821,0 0,9.73 -3.067,-0.613 0,1.57 3.051,0.618 1.727,0 0,-11.305 2.816,0 0,-1.453 -7.348,0 0,1.453 z"
         style="fill:#000000;fill-opacity:1;fill-rule:nonzero;stroke:none"
         id="path144"
         inkscape:connector-curvature="0" /><path
         d="m 119.391,28.633 c -0.887,0 -1.559,-0.438 -2.008,-1.317 -0.445,-0.871 -0.668,-2.183 -0.668,-3.937 0,-1.75 0.223,-3.063 0.668,-3.941 0.449,-0.872 1.121,-1.305 2.008,-1.305 0.894,0 1.562,0.433 2.007,1.305 0.45,0.878 0.676,2.191 0.676,3.941 0,1.754 -0.226,3.066 -0.676,3.937 -0.445,0.879 -1.113,1.317 -2.007,1.317 z m 0,1.367 c 1.429,0 2.519,-0.566 3.273,-1.699 0.758,-1.129 1.137,-2.77 1.137,-4.922 0,-2.149 -0.379,-3.789 -1.137,-4.922 -0.754,-1.129 -1.844,-1.691 -3.273,-1.691 -1.43,0 -2.524,0.562 -3.282,1.691 -0.75,1.133 -1.129,2.773 -1.129,4.922 0,2.152 0.379,3.793 1.129,4.922 0.758,1.133 1.852,1.699 3.282,1.699 z"
         style="fill:#000000;fill-opacity:1;fill-rule:nonzero;stroke:none"
         id="path146"
         inkscape:connector-curvature="0" /><path
         d="m 130.535,28.633 c -0.89,0 -1.558,-0.438 -2.008,-1.317 -0.445,-0.871 -0.668,-2.183 -0.668,-3.937 0,-1.75 0.223,-3.063 0.668,-3.941 0.45,-0.872 1.118,-1.305 2.008,-1.305 0.895,0 1.563,0.433 2.008,1.305 0.449,0.878 0.672,2.191 0.672,3.941 0,1.754 -0.223,3.066 -0.672,3.937 -0.445,0.879 -1.113,1.317 -2.008,1.317 z m 0,1.367 c 1.43,0 2.52,-0.566 3.27,-1.699 0.757,-1.129 1.136,-2.77 1.136,-4.922 0,-2.149 -0.379,-3.789 -1.136,-4.922 -0.75,-1.129 -1.84,-1.691 -3.27,-1.691 -1.43,0 -2.523,0.562 -3.281,1.691 -0.754,1.133 -1.129,2.773 -1.129,4.922 0,2.152 0.375,3.793 1.129,4.922 0.758,1.133 1.851,1.699 3.281,1.699 z"
         style="fill:#000000;fill-opacity:1;fill-rule:nonzero;stroke:none"
         id="path148"
         inkscape:connector-curvature="0" /><path
         d="m 138.285,18.465 2.82,0 0,9.73 -3.07,-0.613 0,1.57 3.051,0.618 1.726,0 0,-11.305 2.821,0 0,-1.453 -7.348,0 0,1.453 z"
         style="fill:#000000;fill-opacity:1;fill-rule:nonzero;stroke:none"
         id="path150"
         inkscape:connector-curvature="0" /><path
         d="m 152.82,28.633 c -0.89,0 -1.558,-0.438 -2.008,-1.317 -0.445,-0.871 -0.667,-2.183 -0.667,-3.937 0,-1.75 0.222,-3.063 0.667,-3.941 0.45,-0.872 1.118,-1.305 2.008,-1.305 0.895,0 1.563,0.433 2.008,1.305 0.449,0.878 0.672,2.191 0.672,3.941 0,1.754 -0.223,3.066 -0.672,3.937 -0.445,0.879 -1.113,1.317 -2.008,1.317 z m 0,1.367 c 1.43,0 2.52,-0.566 3.27,-1.699 0.758,-1.129 1.137,-2.77 1.137,-4.922 0,-2.149 -0.379,-3.789 -1.137,-4.922 -0.75,-1.129 -1.84,-1.691 -3.27,-1.691 -1.429,0 -2.523,0.562 -3.281,1.691 -0.754,1.133 -1.129,2.773 -1.129,4.922 0,2.152 0.375,3.793 1.129,4.922 0.758,1.133 1.852,1.699 3.281,1.699 z"
         style="fill:#ff0000;fill-opacity:1;fill-rule:nonzero;stroke:none"
         id="path152"
         inkscape:connector-curvature="0" /><path
         d="m 163.961,28.633 c -0.887,0 -1.559,-0.438 -2.008,-1.317 -0.445,-0.871 -0.668,-2.183 -0.668,-3.937 0,-1.75 0.223,-3.063 0.668,-3.941 0.449,-0.872 1.121,-1.305 2.008,-1.305 0.894,0 1.562,0.433 2.008,1.305 0.449,0.878 0.676,2.191 0.676,3.941 0,1.754 -0.227,3.066 -0.676,3.937 -0.446,0.879 -1.114,1.317 -2.008,1.317 z m 0,1.367 c 1.43,0 2.519,-0.566 3.273,-1.699 0.758,-1.129 1.137,-2.77 1.137,-4.922 0,-2.149 -0.379,-3.789 -1.137,-4.922 -0.754,-1.129 -1.843,-1.691 -3.273,-1.691 -1.43,0 -2.523,0.562 -3.281,1.691 -0.75,1.133 -1.129,2.773 -1.129,4.922 0,2.152 0.379,3.793 1.129,4.922 0.758,1.133 1.851,1.699 3.281,1.699 z"
         style="fill:#000000;fill-opacity:1;fill-rule:nonzero;stroke:none"
         id="path154"
         inkscape:connector-curvature="0" /><path
         d="m 175.105,28.633 c -0.89,0 -1.558,-0.438 -2.007,-1.317 -0.446,-0.871 -0.668,-2.183 -0.668,-3.937 0,-1.75 0.222,-3.063 0.668,-3.941 0.449,-0.872 1.117,-1.305 2.007,-1.305 0.895,0 1.563,0.433 2.008,1.305 0.449,0.878 0.672,2.191 0.672,3.941 0,1.754 -0.223,3.066 -0.672,3.937 -0.445,0.879 -1.113,1.317 -2.008,1.317 z m 0,1.367 c 1.43,0 2.52,-0.566 3.27,-1.699 0.758,-1.129 1.137,-2.77 1.137,-4.922 0,-2.149 -0.379,-3.789 -1.137,-4.922 -0.75,-1.129 -1.84,-1.691 -3.27,-1.691 -1.429,0 -2.523,0.562 -3.281,1.691 -0.754,1.133 -1.129,2.773 -1.129,4.922 0,2.152 0.375,3.793 1.129,4.922 0.758,1.133 1.852,1.699 3.281,1.699 z"
         style="fill:#000000;fill-opacity:1;fill-rule:nonzero;stroke:none"
         id="path156"
         inkscape:connector-curvature="0" /><path
         d="m 186.246,28.633 c -0.887,0 -1.558,-0.438 -2.008,-1.317 -0.445,-0.871 -0.668,-2.183 -0.668,-3.937 0,-1.75 0.223,-3.063 0.668,-3.941 0.45,-0.872 1.121,-1.305 2.008,-1.305 0.895,0 1.563,0.433 2.008,1.305 0.449,0.878 0.676,2.191 0.676,3.941 0,1.754 -0.227,3.066 -0.676,3.937 -0.445,0.879 -1.113,1.317 -2.008,1.317 z m 0,1.367 c 1.43,0 2.52,-0.566 3.274,-1.699 0.757,-1.129 1.136,-2.77 1.136,-4.922 0,-2.149 -0.379,-3.789 -1.136,-4.922 -0.754,-1.129 -1.844,-1.691 -3.274,-1.691 -1.43,0 -2.523,0.562 -3.281,1.691 -0.75,1.133 -1.129,2.773 -1.129,4.922 0,2.152 0.379,3.793 1.129,4.922 0.758,1.133 1.851,1.699 3.281,1.699 z"
         style="fill:#000000;fill-opacity:1;fill-rule:nonzero;stroke:none"
         id="path158"
         inkscape:connector-curvature="0" /><path
         d="m 193.996,18.465 2.82,0 0,9.73 -3.066,-0.613 0,1.57 3.051,0.618 1.726,0 0,-11.305 2.817,0 0,-1.453 -7.348,0 0,1.453 z"
         style="fill:#000000;fill-opacity:1;fill-rule:nonzero;stroke:none"
         id="path160"
         inkscape:connector-curvature="0" /><g
         id="g162"
         transform="matrix(1,0,0,-1,0,146)"><path
           d="m 136.902,18.934 -2.324,2.324 4.645,4.64 -4.645,4.645 4.645,4.641 -2.5,2.5 0,1.074"
           style="fill:none;stroke:#000000;stroke-width:1;stroke-linecap:butt;stroke-linejoin:miter;stroke-miterlimit:4;stroke-dasharray:none;stroke-opacity:1"
           id="path164"
           inkscape:connector-curvature="0" /></g><g
         id="g166"
         transform="matrix(0,-1,-1,0,0,146)"><path
           d="m 41.063,-136.723 -3.458,2 0,-4 3.458,2 z"
           style="fill:#000000;fill-opacity:1;fill-rule:evenodd;stroke:#000000;stroke-width:0.5;stroke-linecap:butt;stroke-linejoin:miter;stroke-miterlimit:4;stroke-dasharray:none;stroke-opacity:1"
           id="path168"
           inkscape:connector-curvature="0" /></g><g
         id="g170"
         transform="matrix(1,0,0,-1,0,146)"><path
           d="m 136.902,90.934 -2.324,2.324 4.645,4.64 -4.645,4.645 4.645,4.641 -2.5,2.5 0,1.074"
           style="fill:none;stroke:#000000;stroke-width:1;stroke-linecap:butt;stroke-linejoin:miter;stroke-miterlimit:4;stroke-dasharray:none;stroke-opacity:1"
           id="path172"
           inkscape:connector-curvature="0" /></g><g
         id="g174"
         transform="matrix(0,-1,-1,0,0,146)"><path
           d="m 113.063,-136.723 -3.458,2 0,-4 3.458,2 z"
           style="fill:#000000;fill-opacity:1;fill-rule:evenodd;stroke:#000000;stroke-width:0.5;stroke-linecap:butt;stroke-linejoin:miter;stroke-miterlimit:4;stroke-dasharray:none;stroke-opacity:1"
           id="path176"
           inkscape:connector-curvature="0" /></g><text
         transform="matrix(1,0,0,-1,25.5,18.799805)"
         style="font-variant:normal;font-weight:normal;font-size:10px;font-family:'DejaVu Sans';-inkscape-font-specification:DejaVuSans;writing-mode:lr-tb;fill:#000000;fill-opacity:1;fill-rule:nonzero;stroke:none"
         id="text178"><tspan
           x="0 3.8900001 10.04 16.16 22.5 28.610001 34.939999"
           y="0"
           sodipodi:role="line"
           id="tspan180">readout</tspan></text>
<text
         transform="matrix(1,0,0,-1,31.558594,8.112305)"
         style="font-variant:normal;font-weight:normal;font-size:7.5px;font-family:'DejaVu Sans';-inkscape-font-specification:DejaVuSans;writing-mode:lr-tb;fill:#666666;fill-opacity:1;fill-rule:nonzero;stroke:none"
         id="text182"><tspan
           x="0 2.8125 7.7024999 10.995 13.53 18.450001 23.3475 27.735001"
           y="0"
           sodipodi:role="line"
           id="tspan184">for each</tspan><tspan
           x="-23.167973 -17.617973 -11.632973 -6.1579723 -3.6229725 4.1695275 9.0595274 11.272028 16.192028 20.587027 25.649527 27.869528"
           y="9.375"
           sodipodi:role="line"
           id="tspan186">RNA molecule</tspan></text>
<g
         id="g188"
         transform="matrix(1,0,0,-1,0,146)"><path
           d="m 207.828,122.988 12.5,0 0,-116.07 -12.5,0"
           style="fill:none;stroke:#000000;stroke-width:1;stroke-linecap:butt;stroke-linejoin:miter;stroke-miterlimit:4;stroke-dasharray:none;stroke-opacity:1"
           id="path190"
           inkscape:connector-curvature="0" /></g><g
         id="g192"
         transform="matrix(-1,0,0,1,0,146)"><path
           d="m -205.52,-6.918 -3.46,2 0,-4 3.46,2 z"
           style="fill:#000000;fill-opacity:1;fill-rule:evenodd;stroke:#000000;stroke-width:0.5;stroke-linecap:butt;stroke-linejoin:miter;stroke-miterlimit:4;stroke-dasharray:none;stroke-opacity:1"
           id="path194"
           inkscape:connector-curvature="0" /></g><text
         transform="matrix(1,0,0,-1,223.54297,89.874024)"
         style="font-variant:normal;font-weight:normal;font-size:10px;font-family:'DejaVu Sans';-inkscape-font-specification:DejaVuSans;writing-mode:lr-tb;fill:#000000;fill-opacity:1;fill-rule:nonzero;stroke:none"
         id="text196"><tspan
           x="0 5.4899998 11.61 14.38 17.15 19.92 26.25"
           y="0"
           sodipodi:role="line"
           id="tspan198">calling</tspan></text>
<text
         transform="matrix(1,0,0,-1,223.54297,79.182617)"
         style="font-variant:normal;font-weight:normal;font-size:7.5px;font-family:'DejaVu Sans';-inkscape-font-specification:DejaVuSans;writing-mode:lr-tb;fill:#666666;fill-opacity:1;fill-rule:nonzero;stroke:none"
         id="text200"><tspan
           x="0 5.0700002 9.8024998 12.3375 17.235001 21.397499 25.5525 27.772499 32.842499 37.904999 45.697498 50.6175 55.6875"
           y="0"
           sodipodi:role="line"
           id="tspan202">by assignment</tspan><tspan
           x="0 4.8975 9.96 15.03 17.5725 21.959999 26.85 30 33.112499 38.032501 42.419998 45.555 47.775002 52.665001"
           y="9.375"
           sodipodi:role="line"
           id="tspan204">and correction</tspan><tspan
           x="0 4.8899999 7.7024999 10.2375 15.33 18.209999 23.280001 25.5 28.635 31.17 36.09 39.240002 42.352501 47.2425 50.5275"
           y="18.75"
           sodipodi:role="line"
           id="tspan206">of 1-bit errors</tspan></text>
<g
         id="g208"
         transform="matrix(1,0,0,-1,0,146)"><path
           d="m 108.543,75.418 -3.93,0"
           style="fill:none;stroke:#000000;stroke-width:1;stroke-linecap:butt;stroke-linejoin:miter;stroke-miterlimit:4;stroke-dasharray:none;stroke-opacity:1"
           id="path210"
           inkscape:connector-curvature="0" /></g><path
         d="m 104.973,70.672 c 0,-1.035 -0.84,-1.875 -1.875,-1.875 -1.036,0 -1.875,0.84 -1.875,1.875 0,1.035 0.839,1.875 1.875,1.875 1.035,0 1.875,-0.84 1.875,-1.875 z"
         style="fill:#008000;fill-opacity:1;fill-rule:nonzero;stroke:none"
         id="path212"
         inkscape:connector-curvature="0" /><g
         id="g214"
         transform="matrix(1,0,0,-1,0,146)"><path
           d="m 108.543,83.418 -3.93,0"
           style="fill:none;stroke:#000000;stroke-width:1;stroke-linecap:butt;stroke-linejoin:miter;stroke-miterlimit:4;stroke-dasharray:none;stroke-opacity:1"
           id="path216"
           inkscape:connector-curvature="0" /></g><path
         d="m 104.973,62.672 c 0,-1.035 -0.84,-1.875 -1.875,-1.875 -1.036,0 -1.875,0.84 -1.875,1.875 0,1.035 0.839,1.875 1.875,1.875 1.035,0 1.875,-0.84 1.875,-1.875 z"
         style="fill:#008000;fill-opacity:1;fill-rule:nonzero;stroke:none"
         id="path218"
         inkscape:connector-curvature="0" /><g
         id="g220"
         transform="matrix(1,0,0,-1,0,146)"><path
           d="m 108.543,83.418 -3.93,0"
           style="fill:none;stroke:#000000;stroke-width:1;stroke-linecap:butt;stroke-linejoin:miter;stroke-miterlimit:4;stroke-dasharray:none;stroke-opacity:1"
           id="path222"
           inkscape:connector-curvature="0" /></g><path
         d="m 104.973,62.672 c 0,-1.035 -0.84,-1.875 -1.875,-1.875 -1.036,0 -1.875,0.84 -1.875,1.875 0,1.035 0.839,1.875 1.875,1.875 1.035,0 1.875,-0.84 1.875,-1.875 z"
         style="fill:#008000;fill-opacity:1;fill-rule:nonzero;stroke:none"
         id="path224"
         inkscape:connector-curvature="0" /><g
         id="g226"
         transform="matrix(1,0,0,-1,0,146)"><path
           d="m 142.008,67.418 -3.93,0"
           style="fill:none;stroke:#000000;stroke-width:1;stroke-linecap:butt;stroke-linejoin:miter;stroke-miterlimit:4;stroke-dasharray:none;stroke-opacity:1"
           id="path228"
           inkscape:connector-curvature="0" /></g><path
         d="m 138.438,78.672 c 0,-1.035 -0.84,-1.875 -1.876,-1.875 -1.035,0 -1.874,0.84 -1.874,1.875 0,1.035 0.839,1.875 1.874,1.875 1.036,0 1.876,-0.84 1.876,-1.875 z"
         style="fill:#008000;fill-opacity:1;fill-rule:nonzero;stroke:none"
         id="path230"
         inkscape:connector-curvature="0" /><g
         id="g232"
         transform="matrix(1,0,0,-1,0,146)"><path
           d="m 142.008,63.418 -3.93,0"
           style="fill:none;stroke:#000000;stroke-width:1;stroke-linecap:butt;stroke-linejoin:miter;stroke-miterlimit:4;stroke-dasharray:none;stroke-opacity:1"
           id="path234"
           inkscape:connector-curvature="0" /></g><path
         d="m 138.438,82.672 c 0,-1.035 -0.84,-1.875 -1.876,-1.875 -1.035,0 -1.874,0.84 -1.874,1.875 0,1.035 0.839,1.875 1.874,1.875 1.036,0 1.876,-0.84 1.876,-1.875 z"
         style="fill:#008000;fill-opacity:1;fill-rule:nonzero;stroke:none"
         id="path236"
         inkscape:connector-curvature="0" /><g
         id="g238"
         transform="matrix(1,0,0,-1,0,146)"><path
           d="m 142.008,63.418 -3.93,0"
           style="fill:none;stroke:#000000;stroke-width:1;stroke-linecap:butt;stroke-linejoin:miter;stroke-miterlimit:4;stroke-dasharray:none;stroke-opacity:1"
           id="path240"
           inkscape:connector-curvature="0" /></g><path
         d="m 138.438,82.672 c 0,-1.035 -0.84,-1.875 -1.876,-1.875 -1.035,0 -1.874,0.84 -1.874,1.875 0,1.035 0.839,1.875 1.874,1.875 1.036,0 1.876,-0.84 1.876,-1.875 z"
         style="fill:#008000;fill-opacity:1;fill-rule:nonzero;stroke:none"
         id="path242"
         inkscape:connector-curvature="0" /><g
         id="g244"
         transform="matrix(1,0,0,-1,0,146)"><path
           d="m 197.793,59.418 -3.93,0"
           style="fill:none;stroke:#000000;stroke-width:1;stroke-linecap:butt;stroke-linejoin:miter;stroke-miterlimit:4;stroke-dasharray:none;stroke-opacity:1"
           id="path246"
           inkscape:connector-curvature="0" /></g><path
         d="m 194.223,86.672 c 0,-1.035 -0.84,-1.875 -1.875,-1.875 -1.036,0 -1.875,0.84 -1.875,1.875 0,1.035 0.839,1.875 1.875,1.875 1.035,0 1.875,-0.84 1.875,-1.875 z"
         style="fill:#008000;fill-opacity:1;fill-rule:nonzero;stroke:none"
         id="path248"
         inkscape:connector-curvature="0" /><g
         id="g250"
         transform="matrix(1,0,0,-1,0,146)"><path
           d="m 197.793,55.418 -3.93,0"
           style="fill:none;stroke:#000000;stroke-width:1;stroke-linecap:butt;stroke-linejoin:miter;stroke-miterlimit:4;stroke-dasharray:none;stroke-opacity:1"
           id="path252"
           inkscape:connector-curvature="0" /></g><path
         d="m 194.223,90.672 c 0,-1.035 -0.84,-1.875 -1.875,-1.875 -1.036,0 -1.875,0.84 -1.875,1.875 0,1.035 0.839,1.875 1.875,1.875 1.035,0 1.875,-0.84 1.875,-1.875 z"
         style="fill:#008000;fill-opacity:1;fill-rule:nonzero;stroke:none"
         id="path254"
         inkscape:connector-curvature="0" /><g
         id="g256"
         transform="matrix(1,0,0,-1,0,146)"><path
           d="m 197.793,55.418 -3.93,0"
           style="fill:none;stroke:#000000;stroke-width:1;stroke-linecap:butt;stroke-linejoin:miter;stroke-miterlimit:4;stroke-dasharray:none;stroke-opacity:1"
           id="path258"
           inkscape:connector-curvature="0" /></g><path
         d="m 194.223,90.672 c 0,-1.035 -0.84,-1.875 -1.875,-1.875 -1.036,0 -1.875,0.84 -1.875,1.875 0,1.035 0.839,1.875 1.875,1.875 1.035,0 1.875,-0.84 1.875,-1.875 z"
         style="fill:#008000;fill-opacity:1;fill-rule:nonzero;stroke:none"
         id="path260"
         inkscape:connector-curvature="0" /><g
         id="g262"
         transform="matrix(1,0,0,-1,0,146)"><path
           d="m 153.258,47.988 -3.93,0"
           style="fill:none;stroke:#000000;stroke-width:1;stroke-linecap:butt;stroke-linejoin:miter;stroke-miterlimit:4;stroke-dasharray:none;stroke-opacity:1"
           id="path264"
           inkscape:connector-curvature="0" /></g><path
         d="m 149.688,98.102 c 0,-1.036 -0.84,-1.875 -1.876,-1.875 -1.035,0 -1.874,0.839 -1.874,1.875 0,1.035 0.839,1.875 1.874,1.875 1.036,0 1.876,-0.84 1.876,-1.875 z"
         style="fill:#008000;fill-opacity:1;fill-rule:nonzero;stroke:none"
         id="path266"
         inkscape:connector-curvature="0" /><g
         id="g268"
         transform="matrix(1,0,0,-1,0,146)"><path
           d="m 153.258,55.988 -3.93,0"
           style="fill:none;stroke:#000000;stroke-width:1;stroke-linecap:butt;stroke-linejoin:miter;stroke-miterlimit:4;stroke-dasharray:none;stroke-opacity:1"
           id="path270"
           inkscape:connector-curvature="0" /></g><path
         d="m 149.688,90.102 c 0,-1.036 -0.84,-1.875 -1.876,-1.875 -1.035,0 -1.874,0.839 -1.874,1.875 0,1.035 0.839,1.875 1.874,1.875 1.036,0 1.876,-0.84 1.876,-1.875 z"
         style="fill:#008000;fill-opacity:1;fill-rule:nonzero;stroke:none"
         id="path272"
         inkscape:connector-curvature="0" /><g
         id="g274"
         transform="matrix(1,0,0,-1,0,146)"><path
           d="m 153.258,55.988 -3.93,0"
           style="fill:none;stroke:#000000;stroke-width:1;stroke-linecap:butt;stroke-linejoin:miter;stroke-miterlimit:4;stroke-dasharray:none;stroke-opacity:1"
           id="path276"
           inkscape:connector-curvature="0" /></g><path
         d="m 149.688,90.102 c 0,-1.036 -0.84,-1.875 -1.876,-1.875 -1.035,0 -1.874,0.839 -1.874,1.875 0,1.035 0.839,1.875 1.874,1.875 1.036,0 1.876,-0.84 1.876,-1.875 z"
         style="fill:#008000;fill-opacity:1;fill-rule:nonzero;stroke:none"
         id="path278"
         inkscape:connector-curvature="0" /></g></g></svg>